%TF.GenerationSoftware,KiCad,Pcbnew,7.0.2-0*%
%TF.CreationDate,2024-01-04T15:38:33-05:00*%
%TF.ProjectId,TLS2591_v3,544c5332-3539-4315-9f76-332e6b696361,2*%
%TF.SameCoordinates,Original*%
%TF.FileFunction,Legend,Top*%
%TF.FilePolarity,Positive*%
%FSLAX46Y46*%
G04 Gerber Fmt 4.6, Leading zero omitted, Abs format (unit mm)*
G04 Created by KiCad (PCBNEW 7.0.2-0) date 2024-01-04 15:38:33*
%MOMM*%
%LPD*%
G01*
G04 APERTURE LIST*
%ADD10C,0.100000*%
%ADD11C,0.150000*%
%ADD12C,0.120000*%
G04 APERTURE END LIST*
D10*
X149428190Y-99686095D02*
X149885333Y-99686095D01*
X149656761Y-100486095D02*
X149656761Y-99686095D01*
X150113904Y-100448000D02*
X150228190Y-100486095D01*
X150228190Y-100486095D02*
X150418666Y-100486095D01*
X150418666Y-100486095D02*
X150494857Y-100448000D01*
X150494857Y-100448000D02*
X150532952Y-100409904D01*
X150532952Y-100409904D02*
X150571047Y-100333714D01*
X150571047Y-100333714D02*
X150571047Y-100257523D01*
X150571047Y-100257523D02*
X150532952Y-100181333D01*
X150532952Y-100181333D02*
X150494857Y-100143238D01*
X150494857Y-100143238D02*
X150418666Y-100105142D01*
X150418666Y-100105142D02*
X150266285Y-100067047D01*
X150266285Y-100067047D02*
X150190095Y-100028952D01*
X150190095Y-100028952D02*
X150152000Y-99990857D01*
X150152000Y-99990857D02*
X150113904Y-99914666D01*
X150113904Y-99914666D02*
X150113904Y-99838476D01*
X150113904Y-99838476D02*
X150152000Y-99762285D01*
X150152000Y-99762285D02*
X150190095Y-99724190D01*
X150190095Y-99724190D02*
X150266285Y-99686095D01*
X150266285Y-99686095D02*
X150456762Y-99686095D01*
X150456762Y-99686095D02*
X150571047Y-99724190D01*
X151294857Y-100486095D02*
X150913905Y-100486095D01*
X150913905Y-100486095D02*
X150913905Y-99686095D01*
X151523428Y-99762285D02*
X151561524Y-99724190D01*
X151561524Y-99724190D02*
X151637714Y-99686095D01*
X151637714Y-99686095D02*
X151828190Y-99686095D01*
X151828190Y-99686095D02*
X151904381Y-99724190D01*
X151904381Y-99724190D02*
X151942476Y-99762285D01*
X151942476Y-99762285D02*
X151980571Y-99838476D01*
X151980571Y-99838476D02*
X151980571Y-99914666D01*
X151980571Y-99914666D02*
X151942476Y-100028952D01*
X151942476Y-100028952D02*
X151485333Y-100486095D01*
X151485333Y-100486095D02*
X151980571Y-100486095D01*
X152704381Y-99686095D02*
X152323429Y-99686095D01*
X152323429Y-99686095D02*
X152285333Y-100067047D01*
X152285333Y-100067047D02*
X152323429Y-100028952D01*
X152323429Y-100028952D02*
X152399619Y-99990857D01*
X152399619Y-99990857D02*
X152590095Y-99990857D01*
X152590095Y-99990857D02*
X152666286Y-100028952D01*
X152666286Y-100028952D02*
X152704381Y-100067047D01*
X152704381Y-100067047D02*
X152742476Y-100143238D01*
X152742476Y-100143238D02*
X152742476Y-100333714D01*
X152742476Y-100333714D02*
X152704381Y-100409904D01*
X152704381Y-100409904D02*
X152666286Y-100448000D01*
X152666286Y-100448000D02*
X152590095Y-100486095D01*
X152590095Y-100486095D02*
X152399619Y-100486095D01*
X152399619Y-100486095D02*
X152323429Y-100448000D01*
X152323429Y-100448000D02*
X152285333Y-100409904D01*
X153123429Y-100486095D02*
X153275810Y-100486095D01*
X153275810Y-100486095D02*
X153352000Y-100448000D01*
X153352000Y-100448000D02*
X153390096Y-100409904D01*
X153390096Y-100409904D02*
X153466286Y-100295619D01*
X153466286Y-100295619D02*
X153504381Y-100143238D01*
X153504381Y-100143238D02*
X153504381Y-99838476D01*
X153504381Y-99838476D02*
X153466286Y-99762285D01*
X153466286Y-99762285D02*
X153428191Y-99724190D01*
X153428191Y-99724190D02*
X153352000Y-99686095D01*
X153352000Y-99686095D02*
X153199619Y-99686095D01*
X153199619Y-99686095D02*
X153123429Y-99724190D01*
X153123429Y-99724190D02*
X153085334Y-99762285D01*
X153085334Y-99762285D02*
X153047238Y-99838476D01*
X153047238Y-99838476D02*
X153047238Y-100028952D01*
X153047238Y-100028952D02*
X153085334Y-100105142D01*
X153085334Y-100105142D02*
X153123429Y-100143238D01*
X153123429Y-100143238D02*
X153199619Y-100181333D01*
X153199619Y-100181333D02*
X153352000Y-100181333D01*
X153352000Y-100181333D02*
X153428191Y-100143238D01*
X153428191Y-100143238D02*
X153466286Y-100105142D01*
X153466286Y-100105142D02*
X153504381Y-100028952D01*
X154266286Y-100486095D02*
X153809143Y-100486095D01*
X154037715Y-100486095D02*
X154037715Y-99686095D01*
X154037715Y-99686095D02*
X153961524Y-99800380D01*
X153961524Y-99800380D02*
X153885334Y-99876571D01*
X153885334Y-99876571D02*
X153809143Y-99914666D01*
D11*
X158135619Y-77758990D02*
X158849904Y-77758990D01*
X158849904Y-77758990D02*
X158992761Y-77806609D01*
X158992761Y-77806609D02*
X159088000Y-77901847D01*
X159088000Y-77901847D02*
X159135619Y-78044704D01*
X159135619Y-78044704D02*
X159135619Y-78139942D01*
X159088000Y-77330418D02*
X159135619Y-77187561D01*
X159135619Y-77187561D02*
X159135619Y-76949466D01*
X159135619Y-76949466D02*
X159088000Y-76854228D01*
X159088000Y-76854228D02*
X159040380Y-76806609D01*
X159040380Y-76806609D02*
X158945142Y-76758990D01*
X158945142Y-76758990D02*
X158849904Y-76758990D01*
X158849904Y-76758990D02*
X158754666Y-76806609D01*
X158754666Y-76806609D02*
X158707047Y-76854228D01*
X158707047Y-76854228D02*
X158659428Y-76949466D01*
X158659428Y-76949466D02*
X158611809Y-77139942D01*
X158611809Y-77139942D02*
X158564190Y-77235180D01*
X158564190Y-77235180D02*
X158516571Y-77282799D01*
X158516571Y-77282799D02*
X158421333Y-77330418D01*
X158421333Y-77330418D02*
X158326095Y-77330418D01*
X158326095Y-77330418D02*
X158230857Y-77282799D01*
X158230857Y-77282799D02*
X158183238Y-77235180D01*
X158183238Y-77235180D02*
X158135619Y-77139942D01*
X158135619Y-77139942D02*
X158135619Y-76901847D01*
X158135619Y-76901847D02*
X158183238Y-76758990D01*
X158135619Y-76473275D02*
X158135619Y-75901847D01*
X159135619Y-76187561D02*
X158135619Y-76187561D01*
X158754666Y-75568513D02*
X158754666Y-74806609D01*
X159135619Y-74330418D02*
X158135619Y-74330418D01*
X158135619Y-74330418D02*
X158135619Y-73949466D01*
X158135619Y-73949466D02*
X158183238Y-73854228D01*
X158183238Y-73854228D02*
X158230857Y-73806609D01*
X158230857Y-73806609D02*
X158326095Y-73758990D01*
X158326095Y-73758990D02*
X158468952Y-73758990D01*
X158468952Y-73758990D02*
X158564190Y-73806609D01*
X158564190Y-73806609D02*
X158611809Y-73854228D01*
X158611809Y-73854228D02*
X158659428Y-73949466D01*
X158659428Y-73949466D02*
X158659428Y-74330418D01*
X159135619Y-73330418D02*
X158135619Y-73330418D01*
X158611809Y-73330418D02*
X158611809Y-72758990D01*
X159135619Y-72758990D02*
X158135619Y-72758990D01*
D10*
%TO.C,IC1*%
X150880000Y-95940000D02*
X152880000Y-95940000D01*
X150880000Y-96140000D02*
X150880000Y-95940000D01*
X150880000Y-98140000D02*
X150880000Y-98340000D01*
X150880000Y-98340000D02*
X152880000Y-98340000D01*
X152880000Y-95940000D02*
X152880000Y-96140000D01*
X152880000Y-98340000D02*
X152880000Y-98140000D01*
D12*
%TO.C,J1*%
X157374400Y-79184000D02*
X157374400Y-71364000D01*
X157374400Y-77584000D02*
X156454400Y-77584000D01*
X157374400Y-71364000D02*
X147254400Y-71364000D01*
X156614400Y-75224000D02*
X156614400Y-73624000D01*
X156614400Y-73624000D02*
X155614400Y-73624000D01*
X156454400Y-79184000D02*
X157374400Y-79184000D01*
X156454400Y-77584000D02*
X156454400Y-79184000D01*
X156174400Y-77584000D02*
X156454400Y-77584000D01*
X156174400Y-77584000D02*
X156174400Y-78799000D01*
X156114400Y-73624000D02*
X156114400Y-71364000D01*
X155614400Y-75224000D02*
X156614400Y-75224000D01*
X155614400Y-73624000D02*
X155614400Y-75224000D01*
X155614400Y-73624000D02*
X155614400Y-71364000D01*
X154814400Y-75724000D02*
X149814400Y-75724000D01*
X154814400Y-71364000D02*
X154814400Y-75724000D01*
X149814400Y-75724000D02*
X149814400Y-71364000D01*
X149014400Y-75224000D02*
X148014400Y-75224000D01*
X149014400Y-73624000D02*
X149014400Y-75224000D01*
X148174400Y-79184000D02*
X148174400Y-77584000D01*
X148174400Y-77584000D02*
X148454400Y-77584000D01*
X148014400Y-75224000D02*
X148014400Y-73624000D01*
X148014400Y-73624000D02*
X149014400Y-73624000D01*
X147254400Y-79184000D02*
X148174400Y-79184000D01*
X147254400Y-77584000D02*
X148174400Y-77584000D01*
X147254400Y-71364000D02*
X147254400Y-79184000D01*
%TD*%
M02*
