%TF.GenerationSoftware,KiCad,Pcbnew,7.0.2-0*%
%TF.CreationDate,2023-12-19T13:36:21-05:00*%
%TF.ProjectId,Turbidity_v11,54757262-6964-4697-9479-5f7631312e6b,11*%
%TF.SameCoordinates,Original*%
%TF.FileFunction,Other,User*%
%FSLAX46Y46*%
G04 Gerber Fmt 4.6, Leading zero omitted, Abs format (unit mm)*
G04 Created by KiCad (PCBNEW 7.0.2-0) date 2023-12-19 13:36:21*
%MOMM*%
%LPD*%
G01*
G04 APERTURE LIST*
%ADD10C,0.050000*%
G04 APERTURE END LIST*
D10*
%TO.C,R1*%
X156901000Y-109535000D02*
X153201000Y-109535000D01*
X156901000Y-107635000D02*
X156901000Y-109535000D01*
X153201000Y-109535000D02*
X153201000Y-107635000D01*
X153201000Y-107635000D02*
X156901000Y-107635000D01*
%TO.C,REF\u002A\u002A*%
X137151000Y-127889000D02*
G75*
G03*
X137151000Y-127889000I-2150000J0D01*
G01*
%TO.C,IC1*%
X143213000Y-82200000D02*
X153713000Y-82200000D01*
X143213000Y-103220000D02*
X143213000Y-82200000D01*
X153713000Y-82200000D02*
X153713000Y-103220000D01*
X153713000Y-103220000D02*
X143213000Y-103220000D01*
%TO.C,J4*%
X157712000Y-82274000D02*
X161262000Y-82274000D01*
X157712000Y-118874000D02*
X157712000Y-82274000D01*
X161262000Y-82274000D02*
X161262000Y-118874000D01*
X161262000Y-118874000D02*
X157712000Y-118874000D01*
%TO.C,REF\u002A\u002A*%
X162297000Y-60071000D02*
G75*
G03*
X162297000Y-60071000I-2150000J0D01*
G01*
%TO.C,J3*%
X132860000Y-75808000D02*
X141460000Y-75808000D01*
X141460000Y-75808000D02*
X141460000Y-64908000D01*
X132860000Y-64908000D02*
X132860000Y-75808000D01*
X141460000Y-64908000D02*
X132860000Y-64908000D01*
%TO.C,J1*%
X161161800Y-63521600D02*
X154601800Y-63521600D01*
X154601800Y-63521600D02*
X154601800Y-72321600D01*
X161161800Y-72321600D02*
X161161800Y-63521600D01*
X154601800Y-72321600D02*
X161161800Y-72321600D01*
%TO.C,REF\u002A\u002A*%
X137151000Y-60071000D02*
G75*
G03*
X137151000Y-60071000I-2150000J0D01*
G01*
%TO.C,J2*%
X153074800Y-130182400D02*
X153074800Y-121582400D01*
X153074800Y-121582400D02*
X142174800Y-121582400D01*
X142174800Y-130182400D02*
X153074800Y-130182400D01*
X142174800Y-121582400D02*
X142174800Y-130182400D01*
%TO.C,R2*%
X156933000Y-106614000D02*
X153233000Y-106614000D01*
X156933000Y-104714000D02*
X156933000Y-106614000D01*
X153233000Y-106614000D02*
X153233000Y-104714000D01*
X153233000Y-104714000D02*
X156933000Y-104714000D01*
%TO.C,J5*%
X135106000Y-82274000D02*
X138656000Y-82274000D01*
X135106000Y-118874000D02*
X135106000Y-82274000D01*
X138656000Y-82274000D02*
X138656000Y-118874000D01*
X138656000Y-118874000D02*
X135106000Y-118874000D01*
%TO.C,REF\u002A\u002A*%
X162297000Y-127889000D02*
G75*
G03*
X162297000Y-127889000I-2150000J0D01*
G01*
%TD*%
M02*
