%TF.GenerationSoftware,KiCad,Pcbnew,7.0.2-0*%
%TF.CreationDate,2023-12-19T13:36:21-05:00*%
%TF.ProjectId,Turbidity_v11,54757262-6964-4697-9479-5f7631312e6b,11*%
%TF.SameCoordinates,Original*%
%TF.FileFunction,Legend,Top*%
%TF.FilePolarity,Positive*%
%FSLAX46Y46*%
G04 Gerber Fmt 4.6, Leading zero omitted, Abs format (unit mm)*
G04 Created by KiCad (PCBNEW 7.0.2-0) date 2023-12-19 13:36:21*
%MOMM*%
%LPD*%
G01*
G04 APERTURE LIST*
%ADD10C,0.150000*%
%ADD11C,0.254000*%
%ADD12C,0.120000*%
%ADD13C,0.200000*%
G04 APERTURE END LIST*
D10*
X153852419Y-72234514D02*
X153852419Y-72710704D01*
X153852419Y-72710704D02*
X152852419Y-72710704D01*
X153328609Y-71901180D02*
X153328609Y-71567847D01*
X153852419Y-71424990D02*
X153852419Y-71901180D01*
X153852419Y-71901180D02*
X152852419Y-71901180D01*
X152852419Y-71901180D02*
X152852419Y-71424990D01*
X153852419Y-70996418D02*
X152852419Y-70996418D01*
X152852419Y-70996418D02*
X152852419Y-70758323D01*
X152852419Y-70758323D02*
X152900038Y-70615466D01*
X152900038Y-70615466D02*
X152995276Y-70520228D01*
X152995276Y-70520228D02*
X153090514Y-70472609D01*
X153090514Y-70472609D02*
X153280990Y-70424990D01*
X153280990Y-70424990D02*
X153423847Y-70424990D01*
X153423847Y-70424990D02*
X153614323Y-70472609D01*
X153614323Y-70472609D02*
X153709561Y-70520228D01*
X153709561Y-70520228D02*
X153804800Y-70615466D01*
X153804800Y-70615466D02*
X153852419Y-70758323D01*
X153852419Y-70758323D02*
X153852419Y-70996418D01*
X152804800Y-69282133D02*
X154090514Y-70139275D01*
X152852419Y-69044037D02*
X152852419Y-68424990D01*
X152852419Y-68424990D02*
X153233371Y-68758323D01*
X153233371Y-68758323D02*
X153233371Y-68615466D01*
X153233371Y-68615466D02*
X153280990Y-68520228D01*
X153280990Y-68520228D02*
X153328609Y-68472609D01*
X153328609Y-68472609D02*
X153423847Y-68424990D01*
X153423847Y-68424990D02*
X153661942Y-68424990D01*
X153661942Y-68424990D02*
X153757180Y-68472609D01*
X153757180Y-68472609D02*
X153804800Y-68520228D01*
X153804800Y-68520228D02*
X153852419Y-68615466D01*
X153852419Y-68615466D02*
X153852419Y-68901180D01*
X153852419Y-68901180D02*
X153804800Y-68996418D01*
X153804800Y-68996418D02*
X153757180Y-69044037D01*
X153185752Y-68091656D02*
X153852419Y-67853561D01*
X153852419Y-67853561D02*
X153185752Y-67615466D01*
X152852419Y-67329751D02*
X152852419Y-66710704D01*
X152852419Y-66710704D02*
X153233371Y-67044037D01*
X153233371Y-67044037D02*
X153233371Y-66901180D01*
X153233371Y-66901180D02*
X153280990Y-66805942D01*
X153280990Y-66805942D02*
X153328609Y-66758323D01*
X153328609Y-66758323D02*
X153423847Y-66710704D01*
X153423847Y-66710704D02*
X153661942Y-66710704D01*
X153661942Y-66710704D02*
X153757180Y-66758323D01*
X153757180Y-66758323D02*
X153804800Y-66805942D01*
X153804800Y-66805942D02*
X153852419Y-66901180D01*
X153852419Y-66901180D02*
X153852419Y-67186894D01*
X153852419Y-67186894D02*
X153804800Y-67282132D01*
X153804800Y-67282132D02*
X153757180Y-67329751D01*
X152804800Y-65567847D02*
X154090514Y-66424989D01*
X152900038Y-64710704D02*
X152852419Y-64805942D01*
X152852419Y-64805942D02*
X152852419Y-64948799D01*
X152852419Y-64948799D02*
X152900038Y-65091656D01*
X152900038Y-65091656D02*
X152995276Y-65186894D01*
X152995276Y-65186894D02*
X153090514Y-65234513D01*
X153090514Y-65234513D02*
X153280990Y-65282132D01*
X153280990Y-65282132D02*
X153423847Y-65282132D01*
X153423847Y-65282132D02*
X153614323Y-65234513D01*
X153614323Y-65234513D02*
X153709561Y-65186894D01*
X153709561Y-65186894D02*
X153804800Y-65091656D01*
X153804800Y-65091656D02*
X153852419Y-64948799D01*
X153852419Y-64948799D02*
X153852419Y-64853561D01*
X153852419Y-64853561D02*
X153804800Y-64710704D01*
X153804800Y-64710704D02*
X153757180Y-64663085D01*
X153757180Y-64663085D02*
X153423847Y-64663085D01*
X153423847Y-64663085D02*
X153423847Y-64853561D01*
X153852419Y-64234513D02*
X152852419Y-64234513D01*
X152852419Y-64234513D02*
X153852419Y-63663085D01*
X153852419Y-63663085D02*
X152852419Y-63663085D01*
X153852419Y-63186894D02*
X152852419Y-63186894D01*
X152852419Y-63186894D02*
X152852419Y-62948799D01*
X152852419Y-62948799D02*
X152900038Y-62805942D01*
X152900038Y-62805942D02*
X152995276Y-62710704D01*
X152995276Y-62710704D02*
X153090514Y-62663085D01*
X153090514Y-62663085D02*
X153280990Y-62615466D01*
X153280990Y-62615466D02*
X153423847Y-62615466D01*
X153423847Y-62615466D02*
X153614323Y-62663085D01*
X153614323Y-62663085D02*
X153709561Y-62710704D01*
X153709561Y-62710704D02*
X153804800Y-62805942D01*
X153804800Y-62805942D02*
X153852419Y-62948799D01*
X153852419Y-62948799D02*
X153852419Y-63186894D01*
X133381714Y-64520619D02*
X133572190Y-64520619D01*
X133572190Y-64520619D02*
X133667428Y-64473000D01*
X133667428Y-64473000D02*
X133715047Y-64425380D01*
X133715047Y-64425380D02*
X133810285Y-64282523D01*
X133810285Y-64282523D02*
X133857904Y-64092047D01*
X133857904Y-64092047D02*
X133857904Y-63711095D01*
X133857904Y-63711095D02*
X133810285Y-63615857D01*
X133810285Y-63615857D02*
X133762666Y-63568238D01*
X133762666Y-63568238D02*
X133667428Y-63520619D01*
X133667428Y-63520619D02*
X133476952Y-63520619D01*
X133476952Y-63520619D02*
X133381714Y-63568238D01*
X133381714Y-63568238D02*
X133334095Y-63615857D01*
X133334095Y-63615857D02*
X133286476Y-63711095D01*
X133286476Y-63711095D02*
X133286476Y-63949190D01*
X133286476Y-63949190D02*
X133334095Y-64044428D01*
X133334095Y-64044428D02*
X133381714Y-64092047D01*
X133381714Y-64092047D02*
X133476952Y-64139666D01*
X133476952Y-64139666D02*
X133667428Y-64139666D01*
X133667428Y-64139666D02*
X133762666Y-64092047D01*
X133762666Y-64092047D02*
X133810285Y-64044428D01*
X133810285Y-64044428D02*
X133857904Y-63949190D01*
X134476952Y-63520619D02*
X134572190Y-63520619D01*
X134572190Y-63520619D02*
X134667428Y-63568238D01*
X134667428Y-63568238D02*
X134715047Y-63615857D01*
X134715047Y-63615857D02*
X134762666Y-63711095D01*
X134762666Y-63711095D02*
X134810285Y-63901571D01*
X134810285Y-63901571D02*
X134810285Y-64139666D01*
X134810285Y-64139666D02*
X134762666Y-64330142D01*
X134762666Y-64330142D02*
X134715047Y-64425380D01*
X134715047Y-64425380D02*
X134667428Y-64473000D01*
X134667428Y-64473000D02*
X134572190Y-64520619D01*
X134572190Y-64520619D02*
X134476952Y-64520619D01*
X134476952Y-64520619D02*
X134381714Y-64473000D01*
X134381714Y-64473000D02*
X134334095Y-64425380D01*
X134334095Y-64425380D02*
X134286476Y-64330142D01*
X134286476Y-64330142D02*
X134238857Y-64139666D01*
X134238857Y-64139666D02*
X134238857Y-63901571D01*
X134238857Y-63901571D02*
X134286476Y-63711095D01*
X134286476Y-63711095D02*
X134334095Y-63615857D01*
X134334095Y-63615857D02*
X134381714Y-63568238D01*
X134381714Y-63568238D02*
X134476952Y-63520619D01*
X135381714Y-63520619D02*
X135286476Y-63568238D01*
X135286476Y-63568238D02*
X135238857Y-63663476D01*
X135238857Y-63663476D02*
X135286476Y-63758714D01*
X135286476Y-63758714D02*
X135381714Y-63806333D01*
X135381714Y-63806333D02*
X135476952Y-63758714D01*
X135476952Y-63758714D02*
X135524571Y-63663476D01*
X135524571Y-63663476D02*
X135476952Y-63568238D01*
X135476952Y-63568238D02*
X135381714Y-63520619D01*
X136715048Y-64473000D02*
X136857905Y-64520619D01*
X136857905Y-64520619D02*
X137096000Y-64520619D01*
X137096000Y-64520619D02*
X137191238Y-64473000D01*
X137191238Y-64473000D02*
X137238857Y-64425380D01*
X137238857Y-64425380D02*
X137286476Y-64330142D01*
X137286476Y-64330142D02*
X137286476Y-64234904D01*
X137286476Y-64234904D02*
X137238857Y-64139666D01*
X137238857Y-64139666D02*
X137191238Y-64092047D01*
X137191238Y-64092047D02*
X137096000Y-64044428D01*
X137096000Y-64044428D02*
X136905524Y-63996809D01*
X136905524Y-63996809D02*
X136810286Y-63949190D01*
X136810286Y-63949190D02*
X136762667Y-63901571D01*
X136762667Y-63901571D02*
X136715048Y-63806333D01*
X136715048Y-63806333D02*
X136715048Y-63711095D01*
X136715048Y-63711095D02*
X136762667Y-63615857D01*
X136762667Y-63615857D02*
X136810286Y-63568238D01*
X136810286Y-63568238D02*
X136905524Y-63520619D01*
X136905524Y-63520619D02*
X137143619Y-63520619D01*
X137143619Y-63520619D02*
X137286476Y-63568238D01*
X138096000Y-64473000D02*
X138000762Y-64520619D01*
X138000762Y-64520619D02*
X137810286Y-64520619D01*
X137810286Y-64520619D02*
X137715048Y-64473000D01*
X137715048Y-64473000D02*
X137667429Y-64377761D01*
X137667429Y-64377761D02*
X137667429Y-63996809D01*
X137667429Y-63996809D02*
X137715048Y-63901571D01*
X137715048Y-63901571D02*
X137810286Y-63853952D01*
X137810286Y-63853952D02*
X138000762Y-63853952D01*
X138000762Y-63853952D02*
X138096000Y-63901571D01*
X138096000Y-63901571D02*
X138143619Y-63996809D01*
X138143619Y-63996809D02*
X138143619Y-64092047D01*
X138143619Y-64092047D02*
X137667429Y-64187285D01*
X138572191Y-63853952D02*
X138572191Y-64520619D01*
X138572191Y-63949190D02*
X138619810Y-63901571D01*
X138619810Y-63901571D02*
X138715048Y-63853952D01*
X138715048Y-63853952D02*
X138857905Y-63853952D01*
X138857905Y-63853952D02*
X138953143Y-63901571D01*
X138953143Y-63901571D02*
X139000762Y-63996809D01*
X139000762Y-63996809D02*
X139000762Y-64520619D01*
X139429334Y-64473000D02*
X139524572Y-64520619D01*
X139524572Y-64520619D02*
X139715048Y-64520619D01*
X139715048Y-64520619D02*
X139810286Y-64473000D01*
X139810286Y-64473000D02*
X139857905Y-64377761D01*
X139857905Y-64377761D02*
X139857905Y-64330142D01*
X139857905Y-64330142D02*
X139810286Y-64234904D01*
X139810286Y-64234904D02*
X139715048Y-64187285D01*
X139715048Y-64187285D02*
X139572191Y-64187285D01*
X139572191Y-64187285D02*
X139476953Y-64139666D01*
X139476953Y-64139666D02*
X139429334Y-64044428D01*
X139429334Y-64044428D02*
X139429334Y-63996809D01*
X139429334Y-63996809D02*
X139476953Y-63901571D01*
X139476953Y-63901571D02*
X139572191Y-63853952D01*
X139572191Y-63853952D02*
X139715048Y-63853952D01*
X139715048Y-63853952D02*
X139810286Y-63901571D01*
X140429334Y-64520619D02*
X140334096Y-64473000D01*
X140334096Y-64473000D02*
X140286477Y-64425380D01*
X140286477Y-64425380D02*
X140238858Y-64330142D01*
X140238858Y-64330142D02*
X140238858Y-64044428D01*
X140238858Y-64044428D02*
X140286477Y-63949190D01*
X140286477Y-63949190D02*
X140334096Y-63901571D01*
X140334096Y-63901571D02*
X140429334Y-63853952D01*
X140429334Y-63853952D02*
X140572191Y-63853952D01*
X140572191Y-63853952D02*
X140667429Y-63901571D01*
X140667429Y-63901571D02*
X140715048Y-63949190D01*
X140715048Y-63949190D02*
X140762667Y-64044428D01*
X140762667Y-64044428D02*
X140762667Y-64330142D01*
X140762667Y-64330142D02*
X140715048Y-64425380D01*
X140715048Y-64425380D02*
X140667429Y-64473000D01*
X140667429Y-64473000D02*
X140572191Y-64520619D01*
X140572191Y-64520619D02*
X140429334Y-64520619D01*
X141191239Y-64520619D02*
X141191239Y-63853952D01*
X141191239Y-64044428D02*
X141238858Y-63949190D01*
X141238858Y-63949190D02*
X141286477Y-63901571D01*
X141286477Y-63901571D02*
X141381715Y-63853952D01*
X141381715Y-63853952D02*
X141476953Y-63853952D01*
X139528619Y-120427761D02*
X139528619Y-119856333D01*
X140528619Y-120142047D02*
X139528619Y-120142047D01*
X139861952Y-119094428D02*
X140528619Y-119094428D01*
X139861952Y-119522999D02*
X140385761Y-119522999D01*
X140385761Y-119522999D02*
X140481000Y-119475380D01*
X140481000Y-119475380D02*
X140528619Y-119380142D01*
X140528619Y-119380142D02*
X140528619Y-119237285D01*
X140528619Y-119237285D02*
X140481000Y-119142047D01*
X140481000Y-119142047D02*
X140433380Y-119094428D01*
X140528619Y-118618237D02*
X139861952Y-118618237D01*
X140052428Y-118618237D02*
X139957190Y-118570618D01*
X139957190Y-118570618D02*
X139909571Y-118522999D01*
X139909571Y-118522999D02*
X139861952Y-118427761D01*
X139861952Y-118427761D02*
X139861952Y-118332523D01*
X140528619Y-117999189D02*
X139528619Y-117999189D01*
X139909571Y-117999189D02*
X139861952Y-117903951D01*
X139861952Y-117903951D02*
X139861952Y-117713475D01*
X139861952Y-117713475D02*
X139909571Y-117618237D01*
X139909571Y-117618237D02*
X139957190Y-117570618D01*
X139957190Y-117570618D02*
X140052428Y-117522999D01*
X140052428Y-117522999D02*
X140338142Y-117522999D01*
X140338142Y-117522999D02*
X140433380Y-117570618D01*
X140433380Y-117570618D02*
X140481000Y-117618237D01*
X140481000Y-117618237D02*
X140528619Y-117713475D01*
X140528619Y-117713475D02*
X140528619Y-117903951D01*
X140528619Y-117903951D02*
X140481000Y-117999189D01*
X140528619Y-117094427D02*
X139861952Y-117094427D01*
X139528619Y-117094427D02*
X139576238Y-117142046D01*
X139576238Y-117142046D02*
X139623857Y-117094427D01*
X139623857Y-117094427D02*
X139576238Y-117046808D01*
X139576238Y-117046808D02*
X139528619Y-117094427D01*
X139528619Y-117094427D02*
X139623857Y-117094427D01*
X140528619Y-116189666D02*
X139528619Y-116189666D01*
X140481000Y-116189666D02*
X140528619Y-116284904D01*
X140528619Y-116284904D02*
X140528619Y-116475380D01*
X140528619Y-116475380D02*
X140481000Y-116570618D01*
X140481000Y-116570618D02*
X140433380Y-116618237D01*
X140433380Y-116618237D02*
X140338142Y-116665856D01*
X140338142Y-116665856D02*
X140052428Y-116665856D01*
X140052428Y-116665856D02*
X139957190Y-116618237D01*
X139957190Y-116618237D02*
X139909571Y-116570618D01*
X139909571Y-116570618D02*
X139861952Y-116475380D01*
X139861952Y-116475380D02*
X139861952Y-116284904D01*
X139861952Y-116284904D02*
X139909571Y-116189666D01*
X140528619Y-115713475D02*
X139861952Y-115713475D01*
X139528619Y-115713475D02*
X139576238Y-115761094D01*
X139576238Y-115761094D02*
X139623857Y-115713475D01*
X139623857Y-115713475D02*
X139576238Y-115665856D01*
X139576238Y-115665856D02*
X139528619Y-115713475D01*
X139528619Y-115713475D02*
X139623857Y-115713475D01*
X139861952Y-115380142D02*
X139861952Y-114999190D01*
X139528619Y-115237285D02*
X140385761Y-115237285D01*
X140385761Y-115237285D02*
X140481000Y-115189666D01*
X140481000Y-115189666D02*
X140528619Y-115094428D01*
X140528619Y-115094428D02*
X140528619Y-114999190D01*
X139861952Y-114761094D02*
X140528619Y-114522999D01*
X139861952Y-114284904D02*
X140528619Y-114522999D01*
X140528619Y-114522999D02*
X140766714Y-114618237D01*
X140766714Y-114618237D02*
X140814333Y-114665856D01*
X140814333Y-114665856D02*
X140861952Y-114761094D01*
X140481000Y-113189665D02*
X140528619Y-113046808D01*
X140528619Y-113046808D02*
X140528619Y-112808713D01*
X140528619Y-112808713D02*
X140481000Y-112713475D01*
X140481000Y-112713475D02*
X140433380Y-112665856D01*
X140433380Y-112665856D02*
X140338142Y-112618237D01*
X140338142Y-112618237D02*
X140242904Y-112618237D01*
X140242904Y-112618237D02*
X140147666Y-112665856D01*
X140147666Y-112665856D02*
X140100047Y-112713475D01*
X140100047Y-112713475D02*
X140052428Y-112808713D01*
X140052428Y-112808713D02*
X140004809Y-112999189D01*
X140004809Y-112999189D02*
X139957190Y-113094427D01*
X139957190Y-113094427D02*
X139909571Y-113142046D01*
X139909571Y-113142046D02*
X139814333Y-113189665D01*
X139814333Y-113189665D02*
X139719095Y-113189665D01*
X139719095Y-113189665D02*
X139623857Y-113142046D01*
X139623857Y-113142046D02*
X139576238Y-113094427D01*
X139576238Y-113094427D02*
X139528619Y-112999189D01*
X139528619Y-112999189D02*
X139528619Y-112761094D01*
X139528619Y-112761094D02*
X139576238Y-112618237D01*
X140481000Y-111808713D02*
X140528619Y-111903951D01*
X140528619Y-111903951D02*
X140528619Y-112094427D01*
X140528619Y-112094427D02*
X140481000Y-112189665D01*
X140481000Y-112189665D02*
X140385761Y-112237284D01*
X140385761Y-112237284D02*
X140004809Y-112237284D01*
X140004809Y-112237284D02*
X139909571Y-112189665D01*
X139909571Y-112189665D02*
X139861952Y-112094427D01*
X139861952Y-112094427D02*
X139861952Y-111903951D01*
X139861952Y-111903951D02*
X139909571Y-111808713D01*
X139909571Y-111808713D02*
X140004809Y-111761094D01*
X140004809Y-111761094D02*
X140100047Y-111761094D01*
X140100047Y-111761094D02*
X140195285Y-112237284D01*
X139861952Y-111332522D02*
X140528619Y-111332522D01*
X139957190Y-111332522D02*
X139909571Y-111284903D01*
X139909571Y-111284903D02*
X139861952Y-111189665D01*
X139861952Y-111189665D02*
X139861952Y-111046808D01*
X139861952Y-111046808D02*
X139909571Y-110951570D01*
X139909571Y-110951570D02*
X140004809Y-110903951D01*
X140004809Y-110903951D02*
X140528619Y-110903951D01*
X140481000Y-110475379D02*
X140528619Y-110380141D01*
X140528619Y-110380141D02*
X140528619Y-110189665D01*
X140528619Y-110189665D02*
X140481000Y-110094427D01*
X140481000Y-110094427D02*
X140385761Y-110046808D01*
X140385761Y-110046808D02*
X140338142Y-110046808D01*
X140338142Y-110046808D02*
X140242904Y-110094427D01*
X140242904Y-110094427D02*
X140195285Y-110189665D01*
X140195285Y-110189665D02*
X140195285Y-110332522D01*
X140195285Y-110332522D02*
X140147666Y-110427760D01*
X140147666Y-110427760D02*
X140052428Y-110475379D01*
X140052428Y-110475379D02*
X140004809Y-110475379D01*
X140004809Y-110475379D02*
X139909571Y-110427760D01*
X139909571Y-110427760D02*
X139861952Y-110332522D01*
X139861952Y-110332522D02*
X139861952Y-110189665D01*
X139861952Y-110189665D02*
X139909571Y-110094427D01*
X140528619Y-109475379D02*
X140481000Y-109570617D01*
X140481000Y-109570617D02*
X140433380Y-109618236D01*
X140433380Y-109618236D02*
X140338142Y-109665855D01*
X140338142Y-109665855D02*
X140052428Y-109665855D01*
X140052428Y-109665855D02*
X139957190Y-109618236D01*
X139957190Y-109618236D02*
X139909571Y-109570617D01*
X139909571Y-109570617D02*
X139861952Y-109475379D01*
X139861952Y-109475379D02*
X139861952Y-109332522D01*
X139861952Y-109332522D02*
X139909571Y-109237284D01*
X139909571Y-109237284D02*
X139957190Y-109189665D01*
X139957190Y-109189665D02*
X140052428Y-109142046D01*
X140052428Y-109142046D02*
X140338142Y-109142046D01*
X140338142Y-109142046D02*
X140433380Y-109189665D01*
X140433380Y-109189665D02*
X140481000Y-109237284D01*
X140481000Y-109237284D02*
X140528619Y-109332522D01*
X140528619Y-109332522D02*
X140528619Y-109475379D01*
X140528619Y-108713474D02*
X139861952Y-108713474D01*
X140052428Y-108713474D02*
X139957190Y-108665855D01*
X139957190Y-108665855D02*
X139909571Y-108618236D01*
X139909571Y-108618236D02*
X139861952Y-108522998D01*
X139861952Y-108522998D02*
X139861952Y-108427760D01*
X139861952Y-107427759D02*
X140528619Y-107189664D01*
X140528619Y-107189664D02*
X139861952Y-106951569D01*
X140433380Y-106570616D02*
X140481000Y-106522997D01*
X140481000Y-106522997D02*
X140528619Y-106570616D01*
X140528619Y-106570616D02*
X140481000Y-106618235D01*
X140481000Y-106618235D02*
X140433380Y-106570616D01*
X140433380Y-106570616D02*
X140528619Y-106570616D01*
X140528619Y-105570617D02*
X140528619Y-106142045D01*
X140528619Y-105856331D02*
X139528619Y-105856331D01*
X139528619Y-105856331D02*
X139671476Y-105951569D01*
X139671476Y-105951569D02*
X139766714Y-106046807D01*
X139766714Y-106046807D02*
X139814333Y-106142045D01*
X140528619Y-104618236D02*
X140528619Y-105189664D01*
X140528619Y-104903950D02*
X139528619Y-104903950D01*
X139528619Y-104903950D02*
X139671476Y-104999188D01*
X139671476Y-104999188D02*
X139766714Y-105094426D01*
X139766714Y-105094426D02*
X139814333Y-105189664D01*
X141243857Y-120332523D02*
X141196238Y-120284904D01*
X141196238Y-120284904D02*
X141148619Y-120189666D01*
X141148619Y-120189666D02*
X141148619Y-119951571D01*
X141148619Y-119951571D02*
X141196238Y-119856333D01*
X141196238Y-119856333D02*
X141243857Y-119808714D01*
X141243857Y-119808714D02*
X141339095Y-119761095D01*
X141339095Y-119761095D02*
X141434333Y-119761095D01*
X141434333Y-119761095D02*
X141577190Y-119808714D01*
X141577190Y-119808714D02*
X142148619Y-120380142D01*
X142148619Y-120380142D02*
X142148619Y-119761095D01*
X141148619Y-119142047D02*
X141148619Y-119046809D01*
X141148619Y-119046809D02*
X141196238Y-118951571D01*
X141196238Y-118951571D02*
X141243857Y-118903952D01*
X141243857Y-118903952D02*
X141339095Y-118856333D01*
X141339095Y-118856333D02*
X141529571Y-118808714D01*
X141529571Y-118808714D02*
X141767666Y-118808714D01*
X141767666Y-118808714D02*
X141958142Y-118856333D01*
X141958142Y-118856333D02*
X142053380Y-118903952D01*
X142053380Y-118903952D02*
X142101000Y-118951571D01*
X142101000Y-118951571D02*
X142148619Y-119046809D01*
X142148619Y-119046809D02*
X142148619Y-119142047D01*
X142148619Y-119142047D02*
X142101000Y-119237285D01*
X142101000Y-119237285D02*
X142053380Y-119284904D01*
X142053380Y-119284904D02*
X141958142Y-119332523D01*
X141958142Y-119332523D02*
X141767666Y-119380142D01*
X141767666Y-119380142D02*
X141529571Y-119380142D01*
X141529571Y-119380142D02*
X141339095Y-119332523D01*
X141339095Y-119332523D02*
X141243857Y-119284904D01*
X141243857Y-119284904D02*
X141196238Y-119237285D01*
X141196238Y-119237285D02*
X141148619Y-119142047D01*
X141243857Y-118427761D02*
X141196238Y-118380142D01*
X141196238Y-118380142D02*
X141148619Y-118284904D01*
X141148619Y-118284904D02*
X141148619Y-118046809D01*
X141148619Y-118046809D02*
X141196238Y-117951571D01*
X141196238Y-117951571D02*
X141243857Y-117903952D01*
X141243857Y-117903952D02*
X141339095Y-117856333D01*
X141339095Y-117856333D02*
X141434333Y-117856333D01*
X141434333Y-117856333D02*
X141577190Y-117903952D01*
X141577190Y-117903952D02*
X142148619Y-118475380D01*
X142148619Y-118475380D02*
X142148619Y-117856333D01*
X141148619Y-117522999D02*
X141148619Y-116903952D01*
X141148619Y-116903952D02*
X141529571Y-117237285D01*
X141529571Y-117237285D02*
X141529571Y-117094428D01*
X141529571Y-117094428D02*
X141577190Y-116999190D01*
X141577190Y-116999190D02*
X141624809Y-116951571D01*
X141624809Y-116951571D02*
X141720047Y-116903952D01*
X141720047Y-116903952D02*
X141958142Y-116903952D01*
X141958142Y-116903952D02*
X142053380Y-116951571D01*
X142053380Y-116951571D02*
X142101000Y-116999190D01*
X142101000Y-116999190D02*
X142148619Y-117094428D01*
X142148619Y-117094428D02*
X142148619Y-117380142D01*
X142148619Y-117380142D02*
X142101000Y-117475380D01*
X142101000Y-117475380D02*
X142053380Y-117522999D01*
X142148619Y-115951571D02*
X142148619Y-116522999D01*
X142148619Y-116237285D02*
X141148619Y-116237285D01*
X141148619Y-116237285D02*
X141291476Y-116332523D01*
X141291476Y-116332523D02*
X141386714Y-116427761D01*
X141386714Y-116427761D02*
X141434333Y-116522999D01*
X141243857Y-115570618D02*
X141196238Y-115522999D01*
X141196238Y-115522999D02*
X141148619Y-115427761D01*
X141148619Y-115427761D02*
X141148619Y-115189666D01*
X141148619Y-115189666D02*
X141196238Y-115094428D01*
X141196238Y-115094428D02*
X141243857Y-115046809D01*
X141243857Y-115046809D02*
X141339095Y-114999190D01*
X141339095Y-114999190D02*
X141434333Y-114999190D01*
X141434333Y-114999190D02*
X141577190Y-115046809D01*
X141577190Y-115046809D02*
X142148619Y-115618237D01*
X142148619Y-115618237D02*
X142148619Y-114999190D01*
X142148619Y-114046809D02*
X142148619Y-114618237D01*
X142148619Y-114332523D02*
X141148619Y-114332523D01*
X141148619Y-114332523D02*
X141291476Y-114427761D01*
X141291476Y-114427761D02*
X141386714Y-114522999D01*
X141386714Y-114522999D02*
X141434333Y-114618237D01*
X142148619Y-113570618D02*
X142148619Y-113380142D01*
X142148619Y-113380142D02*
X142101000Y-113284904D01*
X142101000Y-113284904D02*
X142053380Y-113237285D01*
X142053380Y-113237285D02*
X141910523Y-113142047D01*
X141910523Y-113142047D02*
X141720047Y-113094428D01*
X141720047Y-113094428D02*
X141339095Y-113094428D01*
X141339095Y-113094428D02*
X141243857Y-113142047D01*
X141243857Y-113142047D02*
X141196238Y-113189666D01*
X141196238Y-113189666D02*
X141148619Y-113284904D01*
X141148619Y-113284904D02*
X141148619Y-113475380D01*
X141148619Y-113475380D02*
X141196238Y-113570618D01*
X141196238Y-113570618D02*
X141243857Y-113618237D01*
X141243857Y-113618237D02*
X141339095Y-113665856D01*
X141339095Y-113665856D02*
X141577190Y-113665856D01*
X141577190Y-113665856D02*
X141672428Y-113618237D01*
X141672428Y-113618237D02*
X141720047Y-113570618D01*
X141720047Y-113570618D02*
X141767666Y-113475380D01*
X141767666Y-113475380D02*
X141767666Y-113284904D01*
X141767666Y-113284904D02*
X141720047Y-113189666D01*
X141720047Y-113189666D02*
X141672428Y-113142047D01*
X141672428Y-113142047D02*
X141577190Y-113094428D01*
X143482904Y-120332523D02*
X143482904Y-119856333D01*
X143768619Y-120427761D02*
X142768619Y-120094428D01*
X142768619Y-120094428D02*
X143768619Y-119761095D01*
X142768619Y-119427761D02*
X143578142Y-119427761D01*
X143578142Y-119427761D02*
X143673380Y-119380142D01*
X143673380Y-119380142D02*
X143721000Y-119332523D01*
X143721000Y-119332523D02*
X143768619Y-119237285D01*
X143768619Y-119237285D02*
X143768619Y-119046809D01*
X143768619Y-119046809D02*
X143721000Y-118951571D01*
X143721000Y-118951571D02*
X143673380Y-118903952D01*
X143673380Y-118903952D02*
X143578142Y-118856333D01*
X143578142Y-118856333D02*
X142768619Y-118856333D01*
X142721000Y-117665857D02*
X144006714Y-118522999D01*
X143482904Y-117380142D02*
X143482904Y-116903952D01*
X143768619Y-117475380D02*
X142768619Y-117142047D01*
X142768619Y-117142047D02*
X143768619Y-116808714D01*
X142768619Y-116475380D02*
X143578142Y-116475380D01*
X143578142Y-116475380D02*
X143673380Y-116427761D01*
X143673380Y-116427761D02*
X143721000Y-116380142D01*
X143721000Y-116380142D02*
X143768619Y-116284904D01*
X143768619Y-116284904D02*
X143768619Y-116094428D01*
X143768619Y-116094428D02*
X143721000Y-115999190D01*
X143721000Y-115999190D02*
X143673380Y-115951571D01*
X143673380Y-115951571D02*
X143578142Y-115903952D01*
X143578142Y-115903952D02*
X142768619Y-115903952D01*
X143768619Y-115427761D02*
X142768619Y-115427761D01*
X142768619Y-115427761D02*
X142768619Y-115189666D01*
X142768619Y-115189666D02*
X142816238Y-115046809D01*
X142816238Y-115046809D02*
X142911476Y-114951571D01*
X142911476Y-114951571D02*
X143006714Y-114903952D01*
X143006714Y-114903952D02*
X143197190Y-114856333D01*
X143197190Y-114856333D02*
X143340047Y-114856333D01*
X143340047Y-114856333D02*
X143530523Y-114903952D01*
X143530523Y-114903952D02*
X143625761Y-114951571D01*
X143625761Y-114951571D02*
X143721000Y-115046809D01*
X143721000Y-115046809D02*
X143768619Y-115189666D01*
X143768619Y-115189666D02*
X143768619Y-115427761D01*
X134534209Y-76195219D02*
X134534209Y-76909504D01*
X134534209Y-76909504D02*
X134486590Y-77052361D01*
X134486590Y-77052361D02*
X134391352Y-77147600D01*
X134391352Y-77147600D02*
X134248495Y-77195219D01*
X134248495Y-77195219D02*
X134153257Y-77195219D01*
X134962781Y-77147600D02*
X135105638Y-77195219D01*
X135105638Y-77195219D02*
X135343733Y-77195219D01*
X135343733Y-77195219D02*
X135438971Y-77147600D01*
X135438971Y-77147600D02*
X135486590Y-77099980D01*
X135486590Y-77099980D02*
X135534209Y-77004742D01*
X135534209Y-77004742D02*
X135534209Y-76909504D01*
X135534209Y-76909504D02*
X135486590Y-76814266D01*
X135486590Y-76814266D02*
X135438971Y-76766647D01*
X135438971Y-76766647D02*
X135343733Y-76719028D01*
X135343733Y-76719028D02*
X135153257Y-76671409D01*
X135153257Y-76671409D02*
X135058019Y-76623790D01*
X135058019Y-76623790D02*
X135010400Y-76576171D01*
X135010400Y-76576171D02*
X134962781Y-76480933D01*
X134962781Y-76480933D02*
X134962781Y-76385695D01*
X134962781Y-76385695D02*
X135010400Y-76290457D01*
X135010400Y-76290457D02*
X135058019Y-76242838D01*
X135058019Y-76242838D02*
X135153257Y-76195219D01*
X135153257Y-76195219D02*
X135391352Y-76195219D01*
X135391352Y-76195219D02*
X135534209Y-76242838D01*
X135819924Y-76195219D02*
X136391352Y-76195219D01*
X136105638Y-77195219D02*
X136105638Y-76195219D01*
X136724686Y-76814266D02*
X137486591Y-76814266D01*
X137962781Y-77195219D02*
X137962781Y-76195219D01*
X137962781Y-76195219D02*
X138343733Y-76195219D01*
X138343733Y-76195219D02*
X138438971Y-76242838D01*
X138438971Y-76242838D02*
X138486590Y-76290457D01*
X138486590Y-76290457D02*
X138534209Y-76385695D01*
X138534209Y-76385695D02*
X138534209Y-76528552D01*
X138534209Y-76528552D02*
X138486590Y-76623790D01*
X138486590Y-76623790D02*
X138438971Y-76671409D01*
X138438971Y-76671409D02*
X138343733Y-76719028D01*
X138343733Y-76719028D02*
X137962781Y-76719028D01*
X138962781Y-77195219D02*
X138962781Y-76195219D01*
X138962781Y-76671409D02*
X139534209Y-76671409D01*
X139534209Y-77195219D02*
X139534209Y-76195219D01*
X155362209Y-72588419D02*
X155362209Y-73302704D01*
X155362209Y-73302704D02*
X155314590Y-73445561D01*
X155314590Y-73445561D02*
X155219352Y-73540800D01*
X155219352Y-73540800D02*
X155076495Y-73588419D01*
X155076495Y-73588419D02*
X154981257Y-73588419D01*
X155790781Y-73540800D02*
X155933638Y-73588419D01*
X155933638Y-73588419D02*
X156171733Y-73588419D01*
X156171733Y-73588419D02*
X156266971Y-73540800D01*
X156266971Y-73540800D02*
X156314590Y-73493180D01*
X156314590Y-73493180D02*
X156362209Y-73397942D01*
X156362209Y-73397942D02*
X156362209Y-73302704D01*
X156362209Y-73302704D02*
X156314590Y-73207466D01*
X156314590Y-73207466D02*
X156266971Y-73159847D01*
X156266971Y-73159847D02*
X156171733Y-73112228D01*
X156171733Y-73112228D02*
X155981257Y-73064609D01*
X155981257Y-73064609D02*
X155886019Y-73016990D01*
X155886019Y-73016990D02*
X155838400Y-72969371D01*
X155838400Y-72969371D02*
X155790781Y-72874133D01*
X155790781Y-72874133D02*
X155790781Y-72778895D01*
X155790781Y-72778895D02*
X155838400Y-72683657D01*
X155838400Y-72683657D02*
X155886019Y-72636038D01*
X155886019Y-72636038D02*
X155981257Y-72588419D01*
X155981257Y-72588419D02*
X156219352Y-72588419D01*
X156219352Y-72588419D02*
X156362209Y-72636038D01*
X156647924Y-72588419D02*
X157219352Y-72588419D01*
X156933638Y-73588419D02*
X156933638Y-72588419D01*
X157552686Y-73207466D02*
X158314591Y-73207466D01*
X158743162Y-73540800D02*
X158886019Y-73588419D01*
X158886019Y-73588419D02*
X159124114Y-73588419D01*
X159124114Y-73588419D02*
X159219352Y-73540800D01*
X159219352Y-73540800D02*
X159266971Y-73493180D01*
X159266971Y-73493180D02*
X159314590Y-73397942D01*
X159314590Y-73397942D02*
X159314590Y-73302704D01*
X159314590Y-73302704D02*
X159266971Y-73207466D01*
X159266971Y-73207466D02*
X159219352Y-73159847D01*
X159219352Y-73159847D02*
X159124114Y-73112228D01*
X159124114Y-73112228D02*
X158933638Y-73064609D01*
X158933638Y-73064609D02*
X158838400Y-73016990D01*
X158838400Y-73016990D02*
X158790781Y-72969371D01*
X158790781Y-72969371D02*
X158743162Y-72874133D01*
X158743162Y-72874133D02*
X158743162Y-72778895D01*
X158743162Y-72778895D02*
X158790781Y-72683657D01*
X158790781Y-72683657D02*
X158838400Y-72636038D01*
X158838400Y-72636038D02*
X158933638Y-72588419D01*
X158933638Y-72588419D02*
X159171733Y-72588419D01*
X159171733Y-72588419D02*
X159314590Y-72636038D01*
X159743162Y-73588419D02*
X159743162Y-72588419D01*
X159743162Y-73064609D02*
X160314590Y-73064609D01*
X160314590Y-73588419D02*
X160314590Y-72588419D01*
X153639980Y-121361104D02*
X153639980Y-120789676D01*
X153639980Y-121075390D02*
X154639980Y-121075390D01*
X154639980Y-121075390D02*
X154497123Y-120980152D01*
X154497123Y-120980152D02*
X154401885Y-120884914D01*
X154401885Y-120884914D02*
X154354266Y-120789676D01*
X154211409Y-121932533D02*
X154259028Y-121837295D01*
X154259028Y-121837295D02*
X154306647Y-121789676D01*
X154306647Y-121789676D02*
X154401885Y-121742057D01*
X154401885Y-121742057D02*
X154449504Y-121742057D01*
X154449504Y-121742057D02*
X154544742Y-121789676D01*
X154544742Y-121789676D02*
X154592361Y-121837295D01*
X154592361Y-121837295D02*
X154639980Y-121932533D01*
X154639980Y-121932533D02*
X154639980Y-122123009D01*
X154639980Y-122123009D02*
X154592361Y-122218247D01*
X154592361Y-122218247D02*
X154544742Y-122265866D01*
X154544742Y-122265866D02*
X154449504Y-122313485D01*
X154449504Y-122313485D02*
X154401885Y-122313485D01*
X154401885Y-122313485D02*
X154306647Y-122265866D01*
X154306647Y-122265866D02*
X154259028Y-122218247D01*
X154259028Y-122218247D02*
X154211409Y-122123009D01*
X154211409Y-122123009D02*
X154211409Y-121932533D01*
X154211409Y-121932533D02*
X154163790Y-121837295D01*
X154163790Y-121837295D02*
X154116171Y-121789676D01*
X154116171Y-121789676D02*
X154020933Y-121742057D01*
X154020933Y-121742057D02*
X153830457Y-121742057D01*
X153830457Y-121742057D02*
X153735219Y-121789676D01*
X153735219Y-121789676D02*
X153687600Y-121837295D01*
X153687600Y-121837295D02*
X153639980Y-121932533D01*
X153639980Y-121932533D02*
X153639980Y-122123009D01*
X153639980Y-122123009D02*
X153687600Y-122218247D01*
X153687600Y-122218247D02*
X153735219Y-122265866D01*
X153735219Y-122265866D02*
X153830457Y-122313485D01*
X153830457Y-122313485D02*
X154020933Y-122313485D01*
X154020933Y-122313485D02*
X154116171Y-122265866D01*
X154116171Y-122265866D02*
X154163790Y-122218247D01*
X154163790Y-122218247D02*
X154211409Y-122123009D01*
X154639980Y-122932533D02*
X154639980Y-123027771D01*
X154639980Y-123027771D02*
X154592361Y-123123009D01*
X154592361Y-123123009D02*
X154544742Y-123170628D01*
X154544742Y-123170628D02*
X154449504Y-123218247D01*
X154449504Y-123218247D02*
X154259028Y-123265866D01*
X154259028Y-123265866D02*
X154020933Y-123265866D01*
X154020933Y-123265866D02*
X153830457Y-123218247D01*
X153830457Y-123218247D02*
X153735219Y-123170628D01*
X153735219Y-123170628D02*
X153687600Y-123123009D01*
X153687600Y-123123009D02*
X153639980Y-123027771D01*
X153639980Y-123027771D02*
X153639980Y-122932533D01*
X153639980Y-122932533D02*
X153687600Y-122837295D01*
X153687600Y-122837295D02*
X153735219Y-122789676D01*
X153735219Y-122789676D02*
X153830457Y-122742057D01*
X153830457Y-122742057D02*
X154020933Y-122694438D01*
X154020933Y-122694438D02*
X154259028Y-122694438D01*
X154259028Y-122694438D02*
X154449504Y-122742057D01*
X154449504Y-122742057D02*
X154544742Y-122789676D01*
X154544742Y-122789676D02*
X154592361Y-122837295D01*
X154592361Y-122837295D02*
X154639980Y-122932533D01*
X154639980Y-123837295D02*
X154592361Y-123742057D01*
X154592361Y-123742057D02*
X154497123Y-123694438D01*
X154497123Y-123694438D02*
X154401885Y-123742057D01*
X154401885Y-123742057D02*
X154354266Y-123837295D01*
X154354266Y-123837295D02*
X154401885Y-123932533D01*
X154401885Y-123932533D02*
X154497123Y-123980152D01*
X154497123Y-123980152D02*
X154592361Y-123932533D01*
X154592361Y-123932533D02*
X154639980Y-123837295D01*
X153687600Y-125170629D02*
X153639980Y-125313486D01*
X153639980Y-125313486D02*
X153639980Y-125551581D01*
X153639980Y-125551581D02*
X153687600Y-125646819D01*
X153687600Y-125646819D02*
X153735219Y-125694438D01*
X153735219Y-125694438D02*
X153830457Y-125742057D01*
X153830457Y-125742057D02*
X153925695Y-125742057D01*
X153925695Y-125742057D02*
X154020933Y-125694438D01*
X154020933Y-125694438D02*
X154068552Y-125646819D01*
X154068552Y-125646819D02*
X154116171Y-125551581D01*
X154116171Y-125551581D02*
X154163790Y-125361105D01*
X154163790Y-125361105D02*
X154211409Y-125265867D01*
X154211409Y-125265867D02*
X154259028Y-125218248D01*
X154259028Y-125218248D02*
X154354266Y-125170629D01*
X154354266Y-125170629D02*
X154449504Y-125170629D01*
X154449504Y-125170629D02*
X154544742Y-125218248D01*
X154544742Y-125218248D02*
X154592361Y-125265867D01*
X154592361Y-125265867D02*
X154639980Y-125361105D01*
X154639980Y-125361105D02*
X154639980Y-125599200D01*
X154639980Y-125599200D02*
X154592361Y-125742057D01*
X153687600Y-126551581D02*
X153639980Y-126456343D01*
X153639980Y-126456343D02*
X153639980Y-126265867D01*
X153639980Y-126265867D02*
X153687600Y-126170629D01*
X153687600Y-126170629D02*
X153782838Y-126123010D01*
X153782838Y-126123010D02*
X154163790Y-126123010D01*
X154163790Y-126123010D02*
X154259028Y-126170629D01*
X154259028Y-126170629D02*
X154306647Y-126265867D01*
X154306647Y-126265867D02*
X154306647Y-126456343D01*
X154306647Y-126456343D02*
X154259028Y-126551581D01*
X154259028Y-126551581D02*
X154163790Y-126599200D01*
X154163790Y-126599200D02*
X154068552Y-126599200D01*
X154068552Y-126599200D02*
X153973314Y-126123010D01*
X154306647Y-127027772D02*
X153639980Y-127027772D01*
X154211409Y-127027772D02*
X154259028Y-127075391D01*
X154259028Y-127075391D02*
X154306647Y-127170629D01*
X154306647Y-127170629D02*
X154306647Y-127313486D01*
X154306647Y-127313486D02*
X154259028Y-127408724D01*
X154259028Y-127408724D02*
X154163790Y-127456343D01*
X154163790Y-127456343D02*
X153639980Y-127456343D01*
X153687600Y-127884915D02*
X153639980Y-127980153D01*
X153639980Y-127980153D02*
X153639980Y-128170629D01*
X153639980Y-128170629D02*
X153687600Y-128265867D01*
X153687600Y-128265867D02*
X153782838Y-128313486D01*
X153782838Y-128313486D02*
X153830457Y-128313486D01*
X153830457Y-128313486D02*
X153925695Y-128265867D01*
X153925695Y-128265867D02*
X153973314Y-128170629D01*
X153973314Y-128170629D02*
X153973314Y-128027772D01*
X153973314Y-128027772D02*
X154020933Y-127932534D01*
X154020933Y-127932534D02*
X154116171Y-127884915D01*
X154116171Y-127884915D02*
X154163790Y-127884915D01*
X154163790Y-127884915D02*
X154259028Y-127932534D01*
X154259028Y-127932534D02*
X154306647Y-128027772D01*
X154306647Y-128027772D02*
X154306647Y-128170629D01*
X154306647Y-128170629D02*
X154259028Y-128265867D01*
X153639980Y-128884915D02*
X153687600Y-128789677D01*
X153687600Y-128789677D02*
X153735219Y-128742058D01*
X153735219Y-128742058D02*
X153830457Y-128694439D01*
X153830457Y-128694439D02*
X154116171Y-128694439D01*
X154116171Y-128694439D02*
X154211409Y-128742058D01*
X154211409Y-128742058D02*
X154259028Y-128789677D01*
X154259028Y-128789677D02*
X154306647Y-128884915D01*
X154306647Y-128884915D02*
X154306647Y-129027772D01*
X154306647Y-129027772D02*
X154259028Y-129123010D01*
X154259028Y-129123010D02*
X154211409Y-129170629D01*
X154211409Y-129170629D02*
X154116171Y-129218248D01*
X154116171Y-129218248D02*
X153830457Y-129218248D01*
X153830457Y-129218248D02*
X153735219Y-129170629D01*
X153735219Y-129170629D02*
X153687600Y-129123010D01*
X153687600Y-129123010D02*
X153639980Y-129027772D01*
X153639980Y-129027772D02*
X153639980Y-128884915D01*
X153639980Y-129646820D02*
X154306647Y-129646820D01*
X154116171Y-129646820D02*
X154211409Y-129694439D01*
X154211409Y-129694439D02*
X154259028Y-129742058D01*
X154259028Y-129742058D02*
X154306647Y-129837296D01*
X154306647Y-129837296D02*
X154306647Y-129932534D01*
X140660419Y-127898590D02*
X141374704Y-127898590D01*
X141374704Y-127898590D02*
X141517561Y-127946209D01*
X141517561Y-127946209D02*
X141612800Y-128041447D01*
X141612800Y-128041447D02*
X141660419Y-128184304D01*
X141660419Y-128184304D02*
X141660419Y-128279542D01*
X141612800Y-127470018D02*
X141660419Y-127327161D01*
X141660419Y-127327161D02*
X141660419Y-127089066D01*
X141660419Y-127089066D02*
X141612800Y-126993828D01*
X141612800Y-126993828D02*
X141565180Y-126946209D01*
X141565180Y-126946209D02*
X141469942Y-126898590D01*
X141469942Y-126898590D02*
X141374704Y-126898590D01*
X141374704Y-126898590D02*
X141279466Y-126946209D01*
X141279466Y-126946209D02*
X141231847Y-126993828D01*
X141231847Y-126993828D02*
X141184228Y-127089066D01*
X141184228Y-127089066D02*
X141136609Y-127279542D01*
X141136609Y-127279542D02*
X141088990Y-127374780D01*
X141088990Y-127374780D02*
X141041371Y-127422399D01*
X141041371Y-127422399D02*
X140946133Y-127470018D01*
X140946133Y-127470018D02*
X140850895Y-127470018D01*
X140850895Y-127470018D02*
X140755657Y-127422399D01*
X140755657Y-127422399D02*
X140708038Y-127374780D01*
X140708038Y-127374780D02*
X140660419Y-127279542D01*
X140660419Y-127279542D02*
X140660419Y-127041447D01*
X140660419Y-127041447D02*
X140708038Y-126898590D01*
X140660419Y-126612875D02*
X140660419Y-126041447D01*
X141660419Y-126327161D02*
X140660419Y-126327161D01*
X141279466Y-125708113D02*
X141279466Y-124946209D01*
X141660419Y-124470018D02*
X140660419Y-124470018D01*
X140660419Y-124470018D02*
X140660419Y-124089066D01*
X140660419Y-124089066D02*
X140708038Y-123993828D01*
X140708038Y-123993828D02*
X140755657Y-123946209D01*
X140755657Y-123946209D02*
X140850895Y-123898590D01*
X140850895Y-123898590D02*
X140993752Y-123898590D01*
X140993752Y-123898590D02*
X141088990Y-123946209D01*
X141088990Y-123946209D02*
X141136609Y-123993828D01*
X141136609Y-123993828D02*
X141184228Y-124089066D01*
X141184228Y-124089066D02*
X141184228Y-124470018D01*
X141660419Y-123470018D02*
X140660419Y-123470018D01*
X141136609Y-123470018D02*
X141136609Y-122898590D01*
X141660419Y-122898590D02*
X140660419Y-122898590D01*
D11*
%TO.C,IC1*%
X143413237Y-84407526D02*
X143413237Y-83137526D01*
X144743714Y-84286573D02*
X144683238Y-84347050D01*
X144683238Y-84347050D02*
X144501809Y-84407526D01*
X144501809Y-84407526D02*
X144380857Y-84407526D01*
X144380857Y-84407526D02*
X144199428Y-84347050D01*
X144199428Y-84347050D02*
X144078476Y-84226097D01*
X144078476Y-84226097D02*
X144017999Y-84105145D01*
X144017999Y-84105145D02*
X143957523Y-83863240D01*
X143957523Y-83863240D02*
X143957523Y-83681811D01*
X143957523Y-83681811D02*
X144017999Y-83439907D01*
X144017999Y-83439907D02*
X144078476Y-83318954D01*
X144078476Y-83318954D02*
X144199428Y-83198002D01*
X144199428Y-83198002D02*
X144380857Y-83137526D01*
X144380857Y-83137526D02*
X144501809Y-83137526D01*
X144501809Y-83137526D02*
X144683238Y-83198002D01*
X144683238Y-83198002D02*
X144743714Y-83258478D01*
X145953238Y-84407526D02*
X145227523Y-84407526D01*
X145590380Y-84407526D02*
X145590380Y-83137526D01*
X145590380Y-83137526D02*
X145469428Y-83318954D01*
X145469428Y-83318954D02*
X145348476Y-83439907D01*
X145348476Y-83439907D02*
X145227523Y-83500383D01*
D10*
%TO.C,J4*%
X159178666Y-80766619D02*
X159178666Y-81480904D01*
X159178666Y-81480904D02*
X159131047Y-81623761D01*
X159131047Y-81623761D02*
X159035809Y-81719000D01*
X159035809Y-81719000D02*
X158892952Y-81766619D01*
X158892952Y-81766619D02*
X158797714Y-81766619D01*
X160083428Y-81099952D02*
X160083428Y-81766619D01*
X159845333Y-80719000D02*
X159607238Y-81433285D01*
X159607238Y-81433285D02*
X160226285Y-81433285D01*
%TO.C,J5*%
X136572666Y-80766619D02*
X136572666Y-81480904D01*
X136572666Y-81480904D02*
X136525047Y-81623761D01*
X136525047Y-81623761D02*
X136429809Y-81719000D01*
X136429809Y-81719000D02*
X136286952Y-81766619D01*
X136286952Y-81766619D02*
X136191714Y-81766619D01*
X137525047Y-80766619D02*
X137048857Y-80766619D01*
X137048857Y-80766619D02*
X137001238Y-81242809D01*
X137001238Y-81242809D02*
X137048857Y-81195190D01*
X137048857Y-81195190D02*
X137144095Y-81147571D01*
X137144095Y-81147571D02*
X137382190Y-81147571D01*
X137382190Y-81147571D02*
X137477428Y-81195190D01*
X137477428Y-81195190D02*
X137525047Y-81242809D01*
X137525047Y-81242809D02*
X137572666Y-81338047D01*
X137572666Y-81338047D02*
X137572666Y-81576142D01*
X137572666Y-81576142D02*
X137525047Y-81671380D01*
X137525047Y-81671380D02*
X137477428Y-81719000D01*
X137477428Y-81719000D02*
X137382190Y-81766619D01*
X137382190Y-81766619D02*
X137144095Y-81766619D01*
X137144095Y-81766619D02*
X137048857Y-81719000D01*
X137048857Y-81719000D02*
X137001238Y-81671380D01*
D12*
%TO.C,R1*%
X155278064Y-109320000D02*
X154823936Y-109320000D01*
X155278064Y-107850000D02*
X154823936Y-107850000D01*
D13*
%TO.C,IC1*%
X143463000Y-82450000D02*
X143463000Y-83820000D01*
X143463000Y-102970000D02*
X153463000Y-102970000D01*
X153463000Y-82450000D02*
X143463000Y-82450000D01*
D12*
%TO.C,J4*%
X158182000Y-85344000D02*
X158182000Y-118424000D01*
X158182000Y-85344000D02*
X160842000Y-85344000D01*
X158182000Y-118424000D02*
X160842000Y-118424000D01*
X159512000Y-82744000D02*
X160842000Y-82744000D01*
X160842000Y-82744000D02*
X160842000Y-84074000D01*
X160842000Y-85344000D02*
X160842000Y-118424000D01*
%TO.C,J3*%
X133250000Y-75418000D02*
X141070000Y-75418000D01*
X134850000Y-75418000D02*
X134850000Y-74498000D01*
X141070000Y-75418000D02*
X141070000Y-65298000D01*
X137210000Y-74658000D02*
X138810000Y-74658000D01*
X138810000Y-74658000D02*
X138810000Y-73658000D01*
X133250000Y-74498000D02*
X133250000Y-75418000D01*
X134850000Y-74498000D02*
X133250000Y-74498000D01*
X134850000Y-74218000D02*
X134850000Y-74498000D01*
X134850000Y-74218000D02*
X133635000Y-74218000D01*
X138810000Y-74158000D02*
X141070000Y-74158000D01*
X137210000Y-73658000D02*
X137210000Y-74658000D01*
X138810000Y-73658000D02*
X137210000Y-73658000D01*
X138810000Y-73658000D02*
X141070000Y-73658000D01*
X136710000Y-72858000D02*
X136710000Y-67858000D01*
X141070000Y-72858000D02*
X136710000Y-72858000D01*
X136710000Y-67858000D02*
X141070000Y-67858000D01*
X137210000Y-67058000D02*
X137210000Y-66058000D01*
X138810000Y-67058000D02*
X137210000Y-67058000D01*
X133250000Y-66218000D02*
X134850000Y-66218000D01*
X134850000Y-66218000D02*
X134850000Y-66498000D01*
X137210000Y-66058000D02*
X138810000Y-66058000D01*
X138810000Y-66058000D02*
X138810000Y-67058000D01*
X133250000Y-65298000D02*
X133250000Y-66218000D01*
X134850000Y-65298000D02*
X134850000Y-66218000D01*
X141070000Y-65298000D02*
X133250000Y-65298000D01*
%TO.C,J1*%
X159666800Y-64311600D02*
X159666800Y-65361600D01*
X157166800Y-64311600D02*
X159666800Y-64311600D01*
X159666800Y-65361600D02*
X160656800Y-65361600D01*
X155196800Y-65481600D02*
X155196800Y-70361600D01*
X159666800Y-71531600D02*
X159666800Y-70481600D01*
X157166800Y-71531600D02*
X159666800Y-71531600D01*
%TO.C,J2*%
X152684800Y-129792400D02*
X152684800Y-121972400D01*
X152684800Y-128192400D02*
X151764800Y-128192400D01*
X152684800Y-121972400D02*
X142564800Y-121972400D01*
X151924800Y-125832400D02*
X151924800Y-124232400D01*
X151924800Y-124232400D02*
X150924800Y-124232400D01*
X151764800Y-129792400D02*
X152684800Y-129792400D01*
X151764800Y-128192400D02*
X151764800Y-129792400D01*
X151484800Y-128192400D02*
X151764800Y-128192400D01*
X151484800Y-128192400D02*
X151484800Y-129407400D01*
X151424800Y-124232400D02*
X151424800Y-121972400D01*
X150924800Y-125832400D02*
X151924800Y-125832400D01*
X150924800Y-124232400D02*
X150924800Y-125832400D01*
X150924800Y-124232400D02*
X150924800Y-121972400D01*
X150124800Y-126332400D02*
X145124800Y-126332400D01*
X150124800Y-121972400D02*
X150124800Y-126332400D01*
X145124800Y-126332400D02*
X145124800Y-121972400D01*
X144324800Y-125832400D02*
X143324800Y-125832400D01*
X144324800Y-124232400D02*
X144324800Y-125832400D01*
X143484800Y-129792400D02*
X143484800Y-128192400D01*
X143484800Y-128192400D02*
X143764800Y-128192400D01*
X143324800Y-125832400D02*
X143324800Y-124232400D01*
X143324800Y-124232400D02*
X144324800Y-124232400D01*
X142564800Y-129792400D02*
X143484800Y-129792400D01*
X142564800Y-128192400D02*
X143484800Y-128192400D01*
X142564800Y-121972400D02*
X142564800Y-129792400D01*
%TO.C,R2*%
X155310064Y-106399000D02*
X154855936Y-106399000D01*
X155310064Y-104929000D02*
X154855936Y-104929000D01*
%TO.C,J5*%
X135576000Y-85344000D02*
X135576000Y-118424000D01*
X135576000Y-85344000D02*
X138236000Y-85344000D01*
X135576000Y-118424000D02*
X138236000Y-118424000D01*
X136906000Y-82744000D02*
X138236000Y-82744000D01*
X138236000Y-82744000D02*
X138236000Y-84074000D01*
X138236000Y-85344000D02*
X138236000Y-118424000D01*
%TD*%
M02*
