M48
; DRILL file {KiCad 7.0.2-0} date 2023 December 19, Tuesday 13:36:19
; FORMAT={-:-/ absolute / inch / decimal}
; #@! TF.CreationDate,2023-12-19T13:36:19-05:00
; #@! TF.GenerationSoftware,Kicad,Pcbnew,7.0.2-0
; #@! TF.FileFunction,MixedPlating,1,2
FMAT,2
INCH
; #@! TA.AperFunction,Plated,PTH,ViaDrill
T1C0.0157
; #@! TA.AperFunction,Plated,PTH,ComponentDrill
T2C0.0295
; #@! TA.AperFunction,Plated,PTH,ComponentDrill
T3C0.0374
; #@! TA.AperFunction,Plated,PTH,ComponentDrill
T4C0.0394
; #@! TA.AperFunction,Plated,PTH,ComponentDrill
T5C0.0866
%
G90
G05
T1
X5.56Y-4.085
X5.635Y-2.795
X5.78Y-4.665
X5.85Y-4.685
X5.98Y-4.16
X6.025Y-4.35
X6.125Y-3.795
X6.175Y-3.795
T2
X5.3035Y-2.6519
X5.3035Y-2.7306
X5.3035Y-2.8094
X5.3035Y-2.8881
X5.6939Y-5.0525
X5.7726Y-5.0525
X5.8514Y-5.0525
X5.9301Y-5.0525
T3
X5.695Y-3.3
X5.695Y-3.4
X5.695Y-3.5
X5.695Y-3.6
X5.695Y-3.7
X5.695Y-3.8
X5.695Y-3.9
X5.695Y-4.0
X5.995Y-3.3
X5.995Y-3.4
X5.995Y-3.5
X5.995Y-3.6
X5.995Y-3.7
X5.995Y-3.8
X5.995Y-3.9
X5.995Y-4.0
T4
X5.39Y-3.31
X5.39Y-3.41
X5.39Y-3.51
X5.39Y-3.61
X5.39Y-3.71
X5.39Y-3.81
X5.39Y-3.91
X5.39Y-4.01
X5.39Y-4.11
X5.39Y-4.21
X5.39Y-4.31
X5.39Y-4.41
X5.39Y-4.51
X5.39Y-4.61
X6.28Y-3.31
X6.28Y-3.41
X6.28Y-3.51
X6.28Y-3.61
X6.28Y-3.71
X6.28Y-3.81
X6.28Y-3.91
X6.28Y-4.01
X6.28Y-4.11
X6.28Y-4.21
X6.28Y-4.31
X6.28Y-4.41
X6.28Y-4.51
X6.28Y-4.61
T5
X5.315Y-2.365
X5.315Y-5.035
X6.305Y-2.365
X6.305Y-5.035
T0
M30
