%TF.GenerationSoftware,KiCad,Pcbnew,7.0.2-0*%
%TF.CreationDate,2024-01-04T17:04:27-05:00*%
%TF.ProjectId,AudioAmplifier,41756469-6f41-46d7-906c-69666965722e,rev?*%
%TF.SameCoordinates,Original*%
%TF.FileFunction,Soldermask,Top*%
%TF.FilePolarity,Negative*%
%FSLAX46Y46*%
G04 Gerber Fmt 4.6, Leading zero omitted, Abs format (unit mm)*
G04 Created by KiCad (PCBNEW 7.0.2-0) date 2024-01-04 17:04:27*
%MOMM*%
%LPD*%
G01*
G04 APERTURE LIST*
%ADD10R,1.600000X1.600000*%
%ADD11O,1.600000X1.600000*%
%ADD12R,5.308600X5.461000*%
%ADD13C,1.600000*%
%ADD14R,1.016000X1.397000*%
%ADD15R,2.010000X2.010000*%
%ADD16C,2.010000*%
%ADD17R,2.400000X2.400000*%
%ADD18C,2.400000*%
%ADD19R,2.100000X1.500000*%
G04 APERTURE END LIST*
D10*
%TO.C,J2*%
X151038400Y-70774400D03*
D11*
X151038400Y-73314400D03*
X151038400Y-75854400D03*
X151038400Y-78394400D03*
X158658400Y-78394400D03*
X158658400Y-75854400D03*
X158658400Y-73314400D03*
X158658400Y-70774400D03*
%TD*%
D12*
%TO.C,R9*%
X145389600Y-109905800D03*
X145389600Y-129260600D03*
%TD*%
D13*
%TO.C,C3*%
X136082400Y-76352400D03*
X138582400Y-76352400D03*
%TD*%
D14*
%TO.C,R1*%
X135788400Y-88036400D03*
X137337800Y-88036400D03*
%TD*%
D15*
%TO.C,Q3*%
X169316400Y-100380800D03*
D16*
X171856400Y-100380800D03*
X174396400Y-100380800D03*
%TD*%
D14*
%TO.C,R2*%
X170942000Y-88239600D03*
X172491400Y-88239600D03*
%TD*%
D13*
%TO.C,C2*%
X170789600Y-76200000D03*
X173289600Y-76200000D03*
%TD*%
%TO.C,C1*%
X159816800Y-91389200D03*
X157316800Y-91389200D03*
%TD*%
D12*
%TO.C,R11*%
X162966400Y-110286800D03*
X162966400Y-129641600D03*
%TD*%
D15*
%TO.C,Q1*%
X134010400Y-100177600D03*
D16*
X136550400Y-100177600D03*
X139090400Y-100177600D03*
%TD*%
D17*
%TO.C,J3*%
X164902000Y-55880000D03*
D18*
X168402000Y-55880000D03*
%TD*%
D19*
%TO.C,BR1*%
X169773600Y-92760800D03*
X173973600Y-92760800D03*
%TD*%
%TO.C,BR2*%
X134467600Y-93218000D03*
X138667600Y-93218000D03*
%TD*%
D17*
%TO.C,J1*%
X149910800Y-56337200D03*
D18*
X146410800Y-56337200D03*
X142910800Y-56337200D03*
%TD*%
D17*
%TO.C,J4*%
X151998800Y-142443200D03*
D18*
X155498800Y-142443200D03*
%TD*%
D14*
%TO.C,R3*%
X150723600Y-86207600D03*
X152273000Y-86207600D03*
%TD*%
%TO.C,R4*%
X157327600Y-86360000D03*
X158877000Y-86360000D03*
%TD*%
M02*
