%TF.GenerationSoftware,KiCad,Pcbnew,7.0.2-0*%
%TF.CreationDate,2024-01-04T17:04:27-05:00*%
%TF.ProjectId,AudioAmplifier,41756469-6f41-46d7-906c-69666965722e,rev?*%
%TF.SameCoordinates,Original*%
%TF.FileFunction,Copper,L2,Bot*%
%TF.FilePolarity,Positive*%
%FSLAX46Y46*%
G04 Gerber Fmt 4.6, Leading zero omitted, Abs format (unit mm)*
G04 Created by KiCad (PCBNEW 7.0.2-0) date 2024-01-04 17:04:27*
%MOMM*%
%LPD*%
G01*
G04 APERTURE LIST*
%TA.AperFunction,ComponentPad*%
%ADD10R,1.600000X1.600000*%
%TD*%
%TA.AperFunction,ComponentPad*%
%ADD11O,1.600000X1.600000*%
%TD*%
%TA.AperFunction,ComponentPad*%
%ADD12C,1.600000*%
%TD*%
%TA.AperFunction,ComponentPad*%
%ADD13R,2.010000X2.010000*%
%TD*%
%TA.AperFunction,ComponentPad*%
%ADD14C,2.010000*%
%TD*%
%TA.AperFunction,ComponentPad*%
%ADD15R,2.400000X2.400000*%
%TD*%
%TA.AperFunction,ComponentPad*%
%ADD16C,2.400000*%
%TD*%
%TA.AperFunction,ViaPad*%
%ADD17C,0.800000*%
%TD*%
%TA.AperFunction,Conductor*%
%ADD18C,0.250000*%
%TD*%
G04 APERTURE END LIST*
D10*
%TO.P,J2,1,Pin_1*%
%TO.N,/1-Out*%
X151038400Y-70774400D03*
D11*
%TO.P,J2,2,Pin_2*%
%TO.N,Net-(J2-Pin_2)*%
X151038400Y-73314400D03*
%TO.P,J2,3,Pin_3*%
%TO.N,/AudIn*%
X151038400Y-75854400D03*
%TO.P,J2,4,Pin_4*%
%TO.N,/-12V*%
X151038400Y-78394400D03*
%TO.P,J2,5,Pin_5*%
%TO.N,unconnected-(J2-Pin_5-Pad5)*%
X158658400Y-78394400D03*
%TO.P,J2,6,Pin_6*%
%TO.N,unconnected-(J2-Pin_6-Pad6)*%
X158658400Y-75854400D03*
%TO.P,J2,7,Pin_7*%
%TO.N,unconnected-(J2-Pin_7-Pad7)*%
X158658400Y-73314400D03*
%TO.P,J2,8,Pin_8*%
%TO.N,/+12V*%
X158658400Y-70774400D03*
%TD*%
D12*
%TO.P,C3,1*%
%TO.N,/+12V*%
X136082400Y-76352400D03*
%TO.P,C3,2*%
%TO.N,/GND*%
X138582400Y-76352400D03*
%TD*%
D13*
%TO.P,Q3,1,B*%
%TO.N,Net-(BR1-A)*%
X169316400Y-100380800D03*
D14*
%TO.P,Q3,2,C*%
%TO.N,/-12V*%
X171856400Y-100380800D03*
%TO.P,Q3,3,E*%
%TO.N,Net-(Q3-E)*%
X174396400Y-100380800D03*
%TD*%
D12*
%TO.P,C2,1*%
%TO.N,/-12V*%
X170789600Y-76200000D03*
%TO.P,C2,2*%
%TO.N,/GND*%
X173289600Y-76200000D03*
%TD*%
%TO.P,C1,1*%
%TO.N,/GND*%
X159816800Y-91389200D03*
%TO.P,C1,2*%
%TO.N,Net-(C1-Pad2)*%
X157316800Y-91389200D03*
%TD*%
D13*
%TO.P,Q1,1,B*%
%TO.N,Net-(BR2-K)*%
X134010400Y-100177600D03*
D14*
%TO.P,Q1,2,C*%
%TO.N,/+12V*%
X136550400Y-100177600D03*
%TO.P,Q1,3,E*%
%TO.N,Net-(Q1-E)*%
X139090400Y-100177600D03*
%TD*%
D15*
%TO.P,J3,1,Pin_1*%
%TO.N,/AudIn*%
X164902000Y-55880000D03*
D16*
%TO.P,J3,2,Pin_2*%
%TO.N,/GND*%
X168402000Y-55880000D03*
%TD*%
D15*
%TO.P,J1,1,Pin_1*%
%TO.N,/-12V*%
X149910800Y-56337200D03*
D16*
%TO.P,J1,2,Pin_2*%
%TO.N,/GND*%
X146410800Y-56337200D03*
%TO.P,J1,3,Pin_3*%
%TO.N,/+12V*%
X142910800Y-56337200D03*
%TD*%
D15*
%TO.P,J4,1,Pin_1*%
%TO.N,Net-(J4-Pin_1)*%
X151998800Y-142443200D03*
D16*
%TO.P,J4,2,Pin_2*%
%TO.N,/GND*%
X155498800Y-142443200D03*
%TD*%
D17*
%TO.N,/-12V*%
X172669200Y-86360000D03*
%TO.N,Net-(J4-Pin_1)*%
X152349200Y-90982800D03*
%TD*%
D18*
%TO.N,/GND*%
X138582400Y-64165600D02*
X146410800Y-56337200D01*
X138582400Y-76352400D02*
X138582400Y-64165600D01*
X155498800Y-95707200D02*
X159816800Y-91389200D01*
X155498800Y-142443200D02*
X155498800Y-95707200D01*
%TO.N,/-12V*%
X149910800Y-56337200D02*
X149910800Y-77266800D01*
X149910800Y-77266800D02*
X151038400Y-78394400D01*
X170789600Y-84480400D02*
X172669200Y-86360000D01*
X170789600Y-76200000D02*
X170789600Y-84480400D01*
%TO.N,/AudIn*%
X164902000Y-61990800D02*
X151038400Y-75854400D01*
X164902000Y-55880000D02*
X164902000Y-61990800D01*
%TO.N,Net-(J4-Pin_1)*%
X152349200Y-90982800D02*
X151998800Y-91333200D01*
X151998800Y-91333200D02*
X151998800Y-142443200D01*
%TD*%
M02*
