%TF.GenerationSoftware,KiCad,Pcbnew,7.0.2-0*%
%TF.CreationDate,2024-01-04T17:04:27-05:00*%
%TF.ProjectId,AudioAmplifier,41756469-6f41-46d7-906c-69666965722e,rev?*%
%TF.SameCoordinates,Original*%
%TF.FileFunction,Copper,L1,Top*%
%TF.FilePolarity,Positive*%
%FSLAX46Y46*%
G04 Gerber Fmt 4.6, Leading zero omitted, Abs format (unit mm)*
G04 Created by KiCad (PCBNEW 7.0.2-0) date 2024-01-04 17:04:27*
%MOMM*%
%LPD*%
G01*
G04 APERTURE LIST*
%TA.AperFunction,ComponentPad*%
%ADD10R,1.600000X1.600000*%
%TD*%
%TA.AperFunction,ComponentPad*%
%ADD11O,1.600000X1.600000*%
%TD*%
%TA.AperFunction,SMDPad,CuDef*%
%ADD12R,5.308600X5.461000*%
%TD*%
%TA.AperFunction,ComponentPad*%
%ADD13C,1.600000*%
%TD*%
%TA.AperFunction,SMDPad,CuDef*%
%ADD14R,1.016000X1.397000*%
%TD*%
%TA.AperFunction,ComponentPad*%
%ADD15R,2.010000X2.010000*%
%TD*%
%TA.AperFunction,ComponentPad*%
%ADD16C,2.010000*%
%TD*%
%TA.AperFunction,ComponentPad*%
%ADD17R,2.400000X2.400000*%
%TD*%
%TA.AperFunction,ComponentPad*%
%ADD18C,2.400000*%
%TD*%
%TA.AperFunction,SMDPad,CuDef*%
%ADD19R,2.100000X1.500000*%
%TD*%
%TA.AperFunction,ViaPad*%
%ADD20C,0.800000*%
%TD*%
%TA.AperFunction,Conductor*%
%ADD21C,0.250000*%
%TD*%
G04 APERTURE END LIST*
D10*
%TO.P,J2,1,Pin_1*%
%TO.N,/1-Out*%
X151038400Y-70774400D03*
D11*
%TO.P,J2,2,Pin_2*%
%TO.N,Net-(J2-Pin_2)*%
X151038400Y-73314400D03*
%TO.P,J2,3,Pin_3*%
%TO.N,/AudIn*%
X151038400Y-75854400D03*
%TO.P,J2,4,Pin_4*%
%TO.N,/-12V*%
X151038400Y-78394400D03*
%TO.P,J2,5,Pin_5*%
%TO.N,unconnected-(J2-Pin_5-Pad5)*%
X158658400Y-78394400D03*
%TO.P,J2,6,Pin_6*%
%TO.N,unconnected-(J2-Pin_6-Pad6)*%
X158658400Y-75854400D03*
%TO.P,J2,7,Pin_7*%
%TO.N,unconnected-(J2-Pin_7-Pad7)*%
X158658400Y-73314400D03*
%TO.P,J2,8,Pin_8*%
%TO.N,/+12V*%
X158658400Y-70774400D03*
%TD*%
D12*
%TO.P,R9,1*%
%TO.N,Net-(Q1-E)*%
X145389600Y-109905800D03*
%TO.P,R9,2*%
%TO.N,Net-(J4-Pin_1)*%
X145389600Y-129260600D03*
%TD*%
D13*
%TO.P,C3,1*%
%TO.N,/+12V*%
X136082400Y-76352400D03*
%TO.P,C3,2*%
%TO.N,/GND*%
X138582400Y-76352400D03*
%TD*%
D14*
%TO.P,R1,1*%
%TO.N,Net-(BR2-K)*%
X135788400Y-88036400D03*
%TO.P,R1,2*%
%TO.N,/+12V*%
X137337800Y-88036400D03*
%TD*%
D15*
%TO.P,Q3,1,B*%
%TO.N,Net-(BR1-A)*%
X169316400Y-100380800D03*
D16*
%TO.P,Q3,2,C*%
%TO.N,/-12V*%
X171856400Y-100380800D03*
%TO.P,Q3,3,E*%
%TO.N,Net-(Q3-E)*%
X174396400Y-100380800D03*
%TD*%
D14*
%TO.P,R2,1*%
%TO.N,Net-(BR1-A)*%
X170942000Y-88239600D03*
%TO.P,R2,2*%
%TO.N,/-12V*%
X172491400Y-88239600D03*
%TD*%
D13*
%TO.P,C2,1*%
%TO.N,/-12V*%
X170789600Y-76200000D03*
%TO.P,C2,2*%
%TO.N,/GND*%
X173289600Y-76200000D03*
%TD*%
%TO.P,C1,1*%
%TO.N,/GND*%
X159816800Y-91389200D03*
%TO.P,C1,2*%
%TO.N,Net-(C1-Pad2)*%
X157316800Y-91389200D03*
%TD*%
D12*
%TO.P,R11,1*%
%TO.N,Net-(Q3-E)*%
X162966400Y-110286800D03*
%TO.P,R11,2*%
%TO.N,Net-(J4-Pin_1)*%
X162966400Y-129641600D03*
%TD*%
D15*
%TO.P,Q1,1,B*%
%TO.N,Net-(BR2-K)*%
X134010400Y-100177600D03*
D16*
%TO.P,Q1,2,C*%
%TO.N,/+12V*%
X136550400Y-100177600D03*
%TO.P,Q1,3,E*%
%TO.N,Net-(Q1-E)*%
X139090400Y-100177600D03*
%TD*%
D17*
%TO.P,J3,1,Pin_1*%
%TO.N,/AudIn*%
X164902000Y-55880000D03*
D18*
%TO.P,J3,2,Pin_2*%
%TO.N,/GND*%
X168402000Y-55880000D03*
%TD*%
D19*
%TO.P,BR1,1,K*%
%TO.N,/1-Out*%
X169773600Y-92760800D03*
%TO.P,BR1,2,A*%
%TO.N,Net-(BR1-A)*%
X173973600Y-92760800D03*
%TD*%
%TO.P,BR2,1,K*%
%TO.N,Net-(BR2-K)*%
X134467600Y-93218000D03*
%TO.P,BR2,2,A*%
%TO.N,/1-Out*%
X138667600Y-93218000D03*
%TD*%
D17*
%TO.P,J1,1,Pin_1*%
%TO.N,/-12V*%
X149910800Y-56337200D03*
D18*
%TO.P,J1,2,Pin_2*%
%TO.N,/GND*%
X146410800Y-56337200D03*
%TO.P,J1,3,Pin_3*%
%TO.N,/+12V*%
X142910800Y-56337200D03*
%TD*%
D17*
%TO.P,J4,1,Pin_1*%
%TO.N,Net-(J4-Pin_1)*%
X151998800Y-142443200D03*
D18*
%TO.P,J4,2,Pin_2*%
%TO.N,/GND*%
X155498800Y-142443200D03*
%TD*%
D14*
%TO.P,R3,1*%
%TO.N,Net-(J4-Pin_1)*%
X150723600Y-86207600D03*
%TO.P,R3,2*%
%TO.N,Net-(J2-Pin_2)*%
X152273000Y-86207600D03*
%TD*%
%TO.P,R4,1*%
%TO.N,Net-(C1-Pad2)*%
X157327600Y-86360000D03*
%TO.P,R4,2*%
%TO.N,Net-(J2-Pin_2)*%
X158877000Y-86360000D03*
%TD*%
D20*
%TO.N,/-12V*%
X172669200Y-86360000D03*
%TO.N,Net-(J4-Pin_1)*%
X152349200Y-90982800D03*
%TD*%
D21*
%TO.N,/1-Out*%
X148742400Y-72020400D02*
X148742400Y-92760800D01*
X149988400Y-70774400D02*
X148742400Y-72020400D01*
X169773600Y-92760800D02*
X148742400Y-92760800D01*
X151038400Y-70774400D02*
X149988400Y-70774400D01*
X148742400Y-92760800D02*
X139124800Y-92760800D01*
X139124800Y-92760800D02*
X138667600Y-93218000D01*
%TO.N,Net-(BR1-A)*%
X170942000Y-88239600D02*
X170942000Y-89729200D01*
X170942000Y-89729200D02*
X173973600Y-92760800D01*
%TO.N,Net-(BR2-K)*%
X134010400Y-100177600D02*
X134010400Y-93675200D01*
X135788400Y-91897200D02*
X134467600Y-93218000D01*
X135788400Y-88036400D02*
X135788400Y-91897200D01*
X134010400Y-93675200D02*
X134467600Y-93218000D01*
%TO.N,/GND*%
X148341200Y-54406800D02*
X160378800Y-54406800D01*
X159816800Y-89672800D02*
X173289600Y-76200000D01*
X146410800Y-56337200D02*
X148341200Y-54406800D01*
X159816800Y-91389200D02*
X159816800Y-89672800D01*
X168402000Y-55880000D02*
X168402000Y-71312400D01*
X166877000Y-54355000D02*
X168402000Y-55880000D01*
X160378800Y-54406800D02*
X160430600Y-54355000D01*
X160430600Y-54355000D02*
X166877000Y-54355000D01*
X168402000Y-71312400D02*
X173289600Y-76200000D01*
%TO.N,Net-(C1-Pad2)*%
X157327600Y-91378400D02*
X157316800Y-91389200D01*
X157327600Y-86360000D02*
X157327600Y-91378400D01*
%TO.N,/-12V*%
X149910800Y-56337200D02*
X150926800Y-56337200D01*
X172669200Y-86360000D02*
X172669200Y-88061800D01*
X150926800Y-56337200D02*
X170789600Y-76200000D01*
X172669200Y-88061800D02*
X172491400Y-88239600D01*
%TO.N,/+12V*%
X136550400Y-92885200D02*
X137337800Y-92097800D01*
X136082400Y-76352400D02*
X137337800Y-77607800D01*
X136550400Y-100177600D02*
X136550400Y-92885200D01*
X136082400Y-76352400D02*
X136082400Y-63165600D01*
X136082400Y-63165600D02*
X142910800Y-56337200D01*
X137337800Y-77607800D02*
X137337800Y-88036400D01*
X157348000Y-70774400D02*
X158658400Y-70774400D01*
X142910800Y-56337200D02*
X157348000Y-70774400D01*
X137337800Y-92097800D02*
X137337800Y-88036400D01*
%TO.N,Net-(J2-Pin_2)*%
X151038400Y-73314400D02*
X152273000Y-74549000D01*
X152273000Y-74549000D02*
X152273000Y-86207600D01*
%TO.N,Net-(J4-Pin_1)*%
X145389600Y-129260600D02*
X145389600Y-135834000D01*
X150723600Y-86207600D02*
X150723600Y-89357200D01*
X162966400Y-129641600D02*
X151998800Y-140609200D01*
X150723600Y-89357200D02*
X152349200Y-90982800D01*
X151998800Y-140609200D02*
X151998800Y-142443200D01*
X145389600Y-135834000D02*
X151998800Y-142443200D01*
%TO.N,Net-(Q1-E)*%
X145389600Y-106476800D02*
X145389600Y-109905800D01*
X139090400Y-100177600D02*
X145389600Y-106476800D01*
%TO.N,Net-(Q3-E)*%
X173066400Y-101710800D02*
X171542400Y-101710800D01*
X171542400Y-101710800D02*
X162966400Y-110286800D01*
X174396400Y-100380800D02*
X173066400Y-101710800D01*
%TD*%
M02*
