%TF.GenerationSoftware,KiCad,Pcbnew,7.0.2-0*%
%TF.CreationDate,2024-01-04T17:04:27-05:00*%
%TF.ProjectId,AudioAmplifier,41756469-6f41-46d7-906c-69666965722e,rev?*%
%TF.SameCoordinates,Original*%
%TF.FileFunction,Legend,Top*%
%TF.FilePolarity,Positive*%
%FSLAX46Y46*%
G04 Gerber Fmt 4.6, Leading zero omitted, Abs format (unit mm)*
G04 Created by KiCad (PCBNEW 7.0.2-0) date 2024-01-04 17:04:27*
%MOMM*%
%LPD*%
G01*
G04 APERTURE LIST*
%ADD10C,0.150000*%
%ADD11C,0.254000*%
%ADD12C,0.120000*%
%ADD13C,0.152400*%
%ADD14C,0.200000*%
G04 APERTURE END LIST*
D10*
%TO.C,J2*%
X154515066Y-67907019D02*
X154515066Y-68621304D01*
X154515066Y-68621304D02*
X154467447Y-68764161D01*
X154467447Y-68764161D02*
X154372209Y-68859400D01*
X154372209Y-68859400D02*
X154229352Y-68907019D01*
X154229352Y-68907019D02*
X154134114Y-68907019D01*
X154943638Y-68002257D02*
X154991257Y-67954638D01*
X154991257Y-67954638D02*
X155086495Y-67907019D01*
X155086495Y-67907019D02*
X155324590Y-67907019D01*
X155324590Y-67907019D02*
X155419828Y-67954638D01*
X155419828Y-67954638D02*
X155467447Y-68002257D01*
X155467447Y-68002257D02*
X155515066Y-68097495D01*
X155515066Y-68097495D02*
X155515066Y-68192733D01*
X155515066Y-68192733D02*
X155467447Y-68335590D01*
X155467447Y-68335590D02*
X154896019Y-68907019D01*
X154896019Y-68907019D02*
X155515066Y-68907019D01*
%TO.C,R9*%
X144926980Y-119416533D02*
X145403171Y-119083200D01*
X144926980Y-118845105D02*
X145926980Y-118845105D01*
X145926980Y-118845105D02*
X145926980Y-119226057D01*
X145926980Y-119226057D02*
X145879361Y-119321295D01*
X145879361Y-119321295D02*
X145831742Y-119368914D01*
X145831742Y-119368914D02*
X145736504Y-119416533D01*
X145736504Y-119416533D02*
X145593647Y-119416533D01*
X145593647Y-119416533D02*
X145498409Y-119368914D01*
X145498409Y-119368914D02*
X145450790Y-119321295D01*
X145450790Y-119321295D02*
X145403171Y-119226057D01*
X145403171Y-119226057D02*
X145403171Y-118845105D01*
X144926980Y-119892724D02*
X144926980Y-120083200D01*
X144926980Y-120083200D02*
X144974600Y-120178438D01*
X144974600Y-120178438D02*
X145022219Y-120226057D01*
X145022219Y-120226057D02*
X145165076Y-120321295D01*
X145165076Y-120321295D02*
X145355552Y-120368914D01*
X145355552Y-120368914D02*
X145736504Y-120368914D01*
X145736504Y-120368914D02*
X145831742Y-120321295D01*
X145831742Y-120321295D02*
X145879361Y-120273676D01*
X145879361Y-120273676D02*
X145926980Y-120178438D01*
X145926980Y-120178438D02*
X145926980Y-119987962D01*
X145926980Y-119987962D02*
X145879361Y-119892724D01*
X145879361Y-119892724D02*
X145831742Y-119845105D01*
X145831742Y-119845105D02*
X145736504Y-119797486D01*
X145736504Y-119797486D02*
X145498409Y-119797486D01*
X145498409Y-119797486D02*
X145403171Y-119845105D01*
X145403171Y-119845105D02*
X145355552Y-119892724D01*
X145355552Y-119892724D02*
X145307933Y-119987962D01*
X145307933Y-119987962D02*
X145307933Y-120178438D01*
X145307933Y-120178438D02*
X145355552Y-120273676D01*
X145355552Y-120273676D02*
X145403171Y-120321295D01*
X145403171Y-120321295D02*
X145498409Y-120368914D01*
%TO.C,C3*%
X137165733Y-74669780D02*
X137118114Y-74717400D01*
X137118114Y-74717400D02*
X136975257Y-74765019D01*
X136975257Y-74765019D02*
X136880019Y-74765019D01*
X136880019Y-74765019D02*
X136737162Y-74717400D01*
X136737162Y-74717400D02*
X136641924Y-74622161D01*
X136641924Y-74622161D02*
X136594305Y-74526923D01*
X136594305Y-74526923D02*
X136546686Y-74336447D01*
X136546686Y-74336447D02*
X136546686Y-74193590D01*
X136546686Y-74193590D02*
X136594305Y-74003114D01*
X136594305Y-74003114D02*
X136641924Y-73907876D01*
X136641924Y-73907876D02*
X136737162Y-73812638D01*
X136737162Y-73812638D02*
X136880019Y-73765019D01*
X136880019Y-73765019D02*
X136975257Y-73765019D01*
X136975257Y-73765019D02*
X137118114Y-73812638D01*
X137118114Y-73812638D02*
X137165733Y-73860257D01*
X137499067Y-73765019D02*
X138118114Y-73765019D01*
X138118114Y-73765019D02*
X137784781Y-74145971D01*
X137784781Y-74145971D02*
X137927638Y-74145971D01*
X137927638Y-74145971D02*
X138022876Y-74193590D01*
X138022876Y-74193590D02*
X138070495Y-74241209D01*
X138070495Y-74241209D02*
X138118114Y-74336447D01*
X138118114Y-74336447D02*
X138118114Y-74574542D01*
X138118114Y-74574542D02*
X138070495Y-74669780D01*
X138070495Y-74669780D02*
X138022876Y-74717400D01*
X138022876Y-74717400D02*
X137927638Y-74765019D01*
X137927638Y-74765019D02*
X137641924Y-74765019D01*
X137641924Y-74765019D02*
X137546686Y-74717400D01*
X137546686Y-74717400D02*
X137499067Y-74669780D01*
%TO.C,R1*%
X136396433Y-88499019D02*
X136063100Y-88022828D01*
X135825005Y-88499019D02*
X135825005Y-87499019D01*
X135825005Y-87499019D02*
X136205957Y-87499019D01*
X136205957Y-87499019D02*
X136301195Y-87546638D01*
X136301195Y-87546638D02*
X136348814Y-87594257D01*
X136348814Y-87594257D02*
X136396433Y-87689495D01*
X136396433Y-87689495D02*
X136396433Y-87832352D01*
X136396433Y-87832352D02*
X136348814Y-87927590D01*
X136348814Y-87927590D02*
X136301195Y-87975209D01*
X136301195Y-87975209D02*
X136205957Y-88022828D01*
X136205957Y-88022828D02*
X135825005Y-88022828D01*
X137348814Y-88499019D02*
X136777386Y-88499019D01*
X137063100Y-88499019D02*
X137063100Y-87499019D01*
X137063100Y-87499019D02*
X136967862Y-87641876D01*
X136967862Y-87641876D02*
X136872624Y-87737114D01*
X136872624Y-87737114D02*
X136777386Y-87784733D01*
D11*
%TO.C,Q3*%
X169195447Y-101089278D02*
X169074495Y-101028802D01*
X169074495Y-101028802D02*
X168953542Y-100907850D01*
X168953542Y-100907850D02*
X168772114Y-100726421D01*
X168772114Y-100726421D02*
X168651161Y-100665945D01*
X168651161Y-100665945D02*
X168530209Y-100665945D01*
X168590685Y-100968326D02*
X168469733Y-100907850D01*
X168469733Y-100907850D02*
X168348780Y-100786897D01*
X168348780Y-100786897D02*
X168288304Y-100544992D01*
X168288304Y-100544992D02*
X168288304Y-100121659D01*
X168288304Y-100121659D02*
X168348780Y-99879754D01*
X168348780Y-99879754D02*
X168469733Y-99758802D01*
X168469733Y-99758802D02*
X168590685Y-99698326D01*
X168590685Y-99698326D02*
X168832590Y-99698326D01*
X168832590Y-99698326D02*
X168953542Y-99758802D01*
X168953542Y-99758802D02*
X169074495Y-99879754D01*
X169074495Y-99879754D02*
X169134971Y-100121659D01*
X169134971Y-100121659D02*
X169134971Y-100544992D01*
X169134971Y-100544992D02*
X169074495Y-100786897D01*
X169074495Y-100786897D02*
X168953542Y-100907850D01*
X168953542Y-100907850D02*
X168832590Y-100968326D01*
X168832590Y-100968326D02*
X168590685Y-100968326D01*
X169558304Y-99698326D02*
X170344495Y-99698326D01*
X170344495Y-99698326D02*
X169921161Y-100182135D01*
X169921161Y-100182135D02*
X170102590Y-100182135D01*
X170102590Y-100182135D02*
X170223542Y-100242611D01*
X170223542Y-100242611D02*
X170284018Y-100303088D01*
X170284018Y-100303088D02*
X170344495Y-100424040D01*
X170344495Y-100424040D02*
X170344495Y-100726421D01*
X170344495Y-100726421D02*
X170284018Y-100847373D01*
X170284018Y-100847373D02*
X170223542Y-100907850D01*
X170223542Y-100907850D02*
X170102590Y-100968326D01*
X170102590Y-100968326D02*
X169739733Y-100968326D01*
X169739733Y-100968326D02*
X169618780Y-100907850D01*
X169618780Y-100907850D02*
X169558304Y-100847373D01*
D10*
%TO.C,R2*%
X171550033Y-88702219D02*
X171216700Y-88226028D01*
X170978605Y-88702219D02*
X170978605Y-87702219D01*
X170978605Y-87702219D02*
X171359557Y-87702219D01*
X171359557Y-87702219D02*
X171454795Y-87749838D01*
X171454795Y-87749838D02*
X171502414Y-87797457D01*
X171502414Y-87797457D02*
X171550033Y-87892695D01*
X171550033Y-87892695D02*
X171550033Y-88035552D01*
X171550033Y-88035552D02*
X171502414Y-88130790D01*
X171502414Y-88130790D02*
X171454795Y-88178409D01*
X171454795Y-88178409D02*
X171359557Y-88226028D01*
X171359557Y-88226028D02*
X170978605Y-88226028D01*
X171930986Y-87797457D02*
X171978605Y-87749838D01*
X171978605Y-87749838D02*
X172073843Y-87702219D01*
X172073843Y-87702219D02*
X172311938Y-87702219D01*
X172311938Y-87702219D02*
X172407176Y-87749838D01*
X172407176Y-87749838D02*
X172454795Y-87797457D01*
X172454795Y-87797457D02*
X172502414Y-87892695D01*
X172502414Y-87892695D02*
X172502414Y-87987933D01*
X172502414Y-87987933D02*
X172454795Y-88130790D01*
X172454795Y-88130790D02*
X171883367Y-88702219D01*
X171883367Y-88702219D02*
X172502414Y-88702219D01*
%TO.C,C2*%
X171872933Y-74517380D02*
X171825314Y-74565000D01*
X171825314Y-74565000D02*
X171682457Y-74612619D01*
X171682457Y-74612619D02*
X171587219Y-74612619D01*
X171587219Y-74612619D02*
X171444362Y-74565000D01*
X171444362Y-74565000D02*
X171349124Y-74469761D01*
X171349124Y-74469761D02*
X171301505Y-74374523D01*
X171301505Y-74374523D02*
X171253886Y-74184047D01*
X171253886Y-74184047D02*
X171253886Y-74041190D01*
X171253886Y-74041190D02*
X171301505Y-73850714D01*
X171301505Y-73850714D02*
X171349124Y-73755476D01*
X171349124Y-73755476D02*
X171444362Y-73660238D01*
X171444362Y-73660238D02*
X171587219Y-73612619D01*
X171587219Y-73612619D02*
X171682457Y-73612619D01*
X171682457Y-73612619D02*
X171825314Y-73660238D01*
X171825314Y-73660238D02*
X171872933Y-73707857D01*
X172253886Y-73707857D02*
X172301505Y-73660238D01*
X172301505Y-73660238D02*
X172396743Y-73612619D01*
X172396743Y-73612619D02*
X172634838Y-73612619D01*
X172634838Y-73612619D02*
X172730076Y-73660238D01*
X172730076Y-73660238D02*
X172777695Y-73707857D01*
X172777695Y-73707857D02*
X172825314Y-73803095D01*
X172825314Y-73803095D02*
X172825314Y-73898333D01*
X172825314Y-73898333D02*
X172777695Y-74041190D01*
X172777695Y-74041190D02*
X172206267Y-74612619D01*
X172206267Y-74612619D02*
X172825314Y-74612619D01*
%TO.C,C1*%
X158400133Y-93806580D02*
X158352514Y-93854200D01*
X158352514Y-93854200D02*
X158209657Y-93901819D01*
X158209657Y-93901819D02*
X158114419Y-93901819D01*
X158114419Y-93901819D02*
X157971562Y-93854200D01*
X157971562Y-93854200D02*
X157876324Y-93758961D01*
X157876324Y-93758961D02*
X157828705Y-93663723D01*
X157828705Y-93663723D02*
X157781086Y-93473247D01*
X157781086Y-93473247D02*
X157781086Y-93330390D01*
X157781086Y-93330390D02*
X157828705Y-93139914D01*
X157828705Y-93139914D02*
X157876324Y-93044676D01*
X157876324Y-93044676D02*
X157971562Y-92949438D01*
X157971562Y-92949438D02*
X158114419Y-92901819D01*
X158114419Y-92901819D02*
X158209657Y-92901819D01*
X158209657Y-92901819D02*
X158352514Y-92949438D01*
X158352514Y-92949438D02*
X158400133Y-92997057D01*
X159352514Y-93901819D02*
X158781086Y-93901819D01*
X159066800Y-93901819D02*
X159066800Y-92901819D01*
X159066800Y-92901819D02*
X158971562Y-93044676D01*
X158971562Y-93044676D02*
X158876324Y-93139914D01*
X158876324Y-93139914D02*
X158781086Y-93187533D01*
%TO.C,R11*%
X162503780Y-119321342D02*
X162979971Y-118988009D01*
X162503780Y-118749914D02*
X163503780Y-118749914D01*
X163503780Y-118749914D02*
X163503780Y-119130866D01*
X163503780Y-119130866D02*
X163456161Y-119226104D01*
X163456161Y-119226104D02*
X163408542Y-119273723D01*
X163408542Y-119273723D02*
X163313304Y-119321342D01*
X163313304Y-119321342D02*
X163170447Y-119321342D01*
X163170447Y-119321342D02*
X163075209Y-119273723D01*
X163075209Y-119273723D02*
X163027590Y-119226104D01*
X163027590Y-119226104D02*
X162979971Y-119130866D01*
X162979971Y-119130866D02*
X162979971Y-118749914D01*
X162503780Y-120273723D02*
X162503780Y-119702295D01*
X162503780Y-119988009D02*
X163503780Y-119988009D01*
X163503780Y-119988009D02*
X163360923Y-119892771D01*
X163360923Y-119892771D02*
X163265685Y-119797533D01*
X163265685Y-119797533D02*
X163218066Y-119702295D01*
X162503780Y-121226104D02*
X162503780Y-120654676D01*
X162503780Y-120940390D02*
X163503780Y-120940390D01*
X163503780Y-120940390D02*
X163360923Y-120845152D01*
X163360923Y-120845152D02*
X163265685Y-120749914D01*
X163265685Y-120749914D02*
X163218066Y-120654676D01*
D11*
%TO.C,Q1*%
X133889447Y-100886078D02*
X133768495Y-100825602D01*
X133768495Y-100825602D02*
X133647542Y-100704650D01*
X133647542Y-100704650D02*
X133466114Y-100523221D01*
X133466114Y-100523221D02*
X133345161Y-100462745D01*
X133345161Y-100462745D02*
X133224209Y-100462745D01*
X133284685Y-100765126D02*
X133163733Y-100704650D01*
X133163733Y-100704650D02*
X133042780Y-100583697D01*
X133042780Y-100583697D02*
X132982304Y-100341792D01*
X132982304Y-100341792D02*
X132982304Y-99918459D01*
X132982304Y-99918459D02*
X133042780Y-99676554D01*
X133042780Y-99676554D02*
X133163733Y-99555602D01*
X133163733Y-99555602D02*
X133284685Y-99495126D01*
X133284685Y-99495126D02*
X133526590Y-99495126D01*
X133526590Y-99495126D02*
X133647542Y-99555602D01*
X133647542Y-99555602D02*
X133768495Y-99676554D01*
X133768495Y-99676554D02*
X133828971Y-99918459D01*
X133828971Y-99918459D02*
X133828971Y-100341792D01*
X133828971Y-100341792D02*
X133768495Y-100583697D01*
X133768495Y-100583697D02*
X133647542Y-100704650D01*
X133647542Y-100704650D02*
X133526590Y-100765126D01*
X133526590Y-100765126D02*
X133284685Y-100765126D01*
X135038495Y-100765126D02*
X134312780Y-100765126D01*
X134675637Y-100765126D02*
X134675637Y-99495126D01*
X134675637Y-99495126D02*
X134554685Y-99676554D01*
X134554685Y-99676554D02*
X134433733Y-99797507D01*
X134433733Y-99797507D02*
X134312780Y-99857983D01*
D10*
%TO.C,J3*%
X166318666Y-50882619D02*
X166318666Y-51596904D01*
X166318666Y-51596904D02*
X166271047Y-51739761D01*
X166271047Y-51739761D02*
X166175809Y-51835000D01*
X166175809Y-51835000D02*
X166032952Y-51882619D01*
X166032952Y-51882619D02*
X165937714Y-51882619D01*
X166699619Y-50882619D02*
X167318666Y-50882619D01*
X167318666Y-50882619D02*
X166985333Y-51263571D01*
X166985333Y-51263571D02*
X167128190Y-51263571D01*
X167128190Y-51263571D02*
X167223428Y-51311190D01*
X167223428Y-51311190D02*
X167271047Y-51358809D01*
X167271047Y-51358809D02*
X167318666Y-51454047D01*
X167318666Y-51454047D02*
X167318666Y-51692142D01*
X167318666Y-51692142D02*
X167271047Y-51787380D01*
X167271047Y-51787380D02*
X167223428Y-51835000D01*
X167223428Y-51835000D02*
X167128190Y-51882619D01*
X167128190Y-51882619D02*
X166842476Y-51882619D01*
X166842476Y-51882619D02*
X166747238Y-51835000D01*
X166747238Y-51835000D02*
X166699619Y-51787380D01*
D11*
%TO.C,BR1*%
X170724552Y-92683088D02*
X170905980Y-92743564D01*
X170905980Y-92743564D02*
X170966457Y-92804040D01*
X170966457Y-92804040D02*
X171026933Y-92924992D01*
X171026933Y-92924992D02*
X171026933Y-93106421D01*
X171026933Y-93106421D02*
X170966457Y-93227373D01*
X170966457Y-93227373D02*
X170905980Y-93287850D01*
X170905980Y-93287850D02*
X170785028Y-93348326D01*
X170785028Y-93348326D02*
X170301218Y-93348326D01*
X170301218Y-93348326D02*
X170301218Y-92078326D01*
X170301218Y-92078326D02*
X170724552Y-92078326D01*
X170724552Y-92078326D02*
X170845504Y-92138802D01*
X170845504Y-92138802D02*
X170905980Y-92199278D01*
X170905980Y-92199278D02*
X170966457Y-92320230D01*
X170966457Y-92320230D02*
X170966457Y-92441183D01*
X170966457Y-92441183D02*
X170905980Y-92562135D01*
X170905980Y-92562135D02*
X170845504Y-92622611D01*
X170845504Y-92622611D02*
X170724552Y-92683088D01*
X170724552Y-92683088D02*
X170301218Y-92683088D01*
X172296933Y-93348326D02*
X171873599Y-92743564D01*
X171571218Y-93348326D02*
X171571218Y-92078326D01*
X171571218Y-92078326D02*
X172055028Y-92078326D01*
X172055028Y-92078326D02*
X172175980Y-92138802D01*
X172175980Y-92138802D02*
X172236457Y-92199278D01*
X172236457Y-92199278D02*
X172296933Y-92320230D01*
X172296933Y-92320230D02*
X172296933Y-92501659D01*
X172296933Y-92501659D02*
X172236457Y-92622611D01*
X172236457Y-92622611D02*
X172175980Y-92683088D01*
X172175980Y-92683088D02*
X172055028Y-92743564D01*
X172055028Y-92743564D02*
X171571218Y-92743564D01*
X173506457Y-93348326D02*
X172780742Y-93348326D01*
X173143599Y-93348326D02*
X173143599Y-92078326D01*
X173143599Y-92078326D02*
X173022647Y-92259754D01*
X173022647Y-92259754D02*
X172901695Y-92380707D01*
X172901695Y-92380707D02*
X172780742Y-92441183D01*
%TO.C,BR2*%
X135418552Y-93140288D02*
X135599980Y-93200764D01*
X135599980Y-93200764D02*
X135660457Y-93261240D01*
X135660457Y-93261240D02*
X135720933Y-93382192D01*
X135720933Y-93382192D02*
X135720933Y-93563621D01*
X135720933Y-93563621D02*
X135660457Y-93684573D01*
X135660457Y-93684573D02*
X135599980Y-93745050D01*
X135599980Y-93745050D02*
X135479028Y-93805526D01*
X135479028Y-93805526D02*
X134995218Y-93805526D01*
X134995218Y-93805526D02*
X134995218Y-92535526D01*
X134995218Y-92535526D02*
X135418552Y-92535526D01*
X135418552Y-92535526D02*
X135539504Y-92596002D01*
X135539504Y-92596002D02*
X135599980Y-92656478D01*
X135599980Y-92656478D02*
X135660457Y-92777430D01*
X135660457Y-92777430D02*
X135660457Y-92898383D01*
X135660457Y-92898383D02*
X135599980Y-93019335D01*
X135599980Y-93019335D02*
X135539504Y-93079811D01*
X135539504Y-93079811D02*
X135418552Y-93140288D01*
X135418552Y-93140288D02*
X134995218Y-93140288D01*
X136990933Y-93805526D02*
X136567599Y-93200764D01*
X136265218Y-93805526D02*
X136265218Y-92535526D01*
X136265218Y-92535526D02*
X136749028Y-92535526D01*
X136749028Y-92535526D02*
X136869980Y-92596002D01*
X136869980Y-92596002D02*
X136930457Y-92656478D01*
X136930457Y-92656478D02*
X136990933Y-92777430D01*
X136990933Y-92777430D02*
X136990933Y-92958859D01*
X136990933Y-92958859D02*
X136930457Y-93079811D01*
X136930457Y-93079811D02*
X136869980Y-93140288D01*
X136869980Y-93140288D02*
X136749028Y-93200764D01*
X136749028Y-93200764D02*
X136265218Y-93200764D01*
X137474742Y-92656478D02*
X137535218Y-92596002D01*
X137535218Y-92596002D02*
X137656171Y-92535526D01*
X137656171Y-92535526D02*
X137958552Y-92535526D01*
X137958552Y-92535526D02*
X138079504Y-92596002D01*
X138079504Y-92596002D02*
X138139980Y-92656478D01*
X138139980Y-92656478D02*
X138200457Y-92777430D01*
X138200457Y-92777430D02*
X138200457Y-92898383D01*
X138200457Y-92898383D02*
X138139980Y-93079811D01*
X138139980Y-93079811D02*
X137414266Y-93805526D01*
X137414266Y-93805526D02*
X138200457Y-93805526D01*
D10*
%TO.C,J1*%
X146077466Y-60259819D02*
X146077466Y-60974104D01*
X146077466Y-60974104D02*
X146029847Y-61116961D01*
X146029847Y-61116961D02*
X145934609Y-61212200D01*
X145934609Y-61212200D02*
X145791752Y-61259819D01*
X145791752Y-61259819D02*
X145696514Y-61259819D01*
X147077466Y-61259819D02*
X146506038Y-61259819D01*
X146791752Y-61259819D02*
X146791752Y-60259819D01*
X146791752Y-60259819D02*
X146696514Y-60402676D01*
X146696514Y-60402676D02*
X146601276Y-60497914D01*
X146601276Y-60497914D02*
X146506038Y-60545533D01*
%TO.C,J4*%
X153415466Y-137445819D02*
X153415466Y-138160104D01*
X153415466Y-138160104D02*
X153367847Y-138302961D01*
X153367847Y-138302961D02*
X153272609Y-138398200D01*
X153272609Y-138398200D02*
X153129752Y-138445819D01*
X153129752Y-138445819D02*
X153034514Y-138445819D01*
X154320228Y-137779152D02*
X154320228Y-138445819D01*
X154082133Y-137398200D02*
X153844038Y-138112485D01*
X153844038Y-138112485D02*
X154463085Y-138112485D01*
%TO.C,R3*%
X151331633Y-86670219D02*
X150998300Y-86194028D01*
X150760205Y-86670219D02*
X150760205Y-85670219D01*
X150760205Y-85670219D02*
X151141157Y-85670219D01*
X151141157Y-85670219D02*
X151236395Y-85717838D01*
X151236395Y-85717838D02*
X151284014Y-85765457D01*
X151284014Y-85765457D02*
X151331633Y-85860695D01*
X151331633Y-85860695D02*
X151331633Y-86003552D01*
X151331633Y-86003552D02*
X151284014Y-86098790D01*
X151284014Y-86098790D02*
X151236395Y-86146409D01*
X151236395Y-86146409D02*
X151141157Y-86194028D01*
X151141157Y-86194028D02*
X150760205Y-86194028D01*
X151664967Y-85670219D02*
X152284014Y-85670219D01*
X152284014Y-85670219D02*
X151950681Y-86051171D01*
X151950681Y-86051171D02*
X152093538Y-86051171D01*
X152093538Y-86051171D02*
X152188776Y-86098790D01*
X152188776Y-86098790D02*
X152236395Y-86146409D01*
X152236395Y-86146409D02*
X152284014Y-86241647D01*
X152284014Y-86241647D02*
X152284014Y-86479742D01*
X152284014Y-86479742D02*
X152236395Y-86574980D01*
X152236395Y-86574980D02*
X152188776Y-86622600D01*
X152188776Y-86622600D02*
X152093538Y-86670219D01*
X152093538Y-86670219D02*
X151807824Y-86670219D01*
X151807824Y-86670219D02*
X151712586Y-86622600D01*
X151712586Y-86622600D02*
X151664967Y-86574980D01*
%TO.C,R4*%
X157935633Y-86822619D02*
X157602300Y-86346428D01*
X157364205Y-86822619D02*
X157364205Y-85822619D01*
X157364205Y-85822619D02*
X157745157Y-85822619D01*
X157745157Y-85822619D02*
X157840395Y-85870238D01*
X157840395Y-85870238D02*
X157888014Y-85917857D01*
X157888014Y-85917857D02*
X157935633Y-86013095D01*
X157935633Y-86013095D02*
X157935633Y-86155952D01*
X157935633Y-86155952D02*
X157888014Y-86251190D01*
X157888014Y-86251190D02*
X157840395Y-86298809D01*
X157840395Y-86298809D02*
X157745157Y-86346428D01*
X157745157Y-86346428D02*
X157364205Y-86346428D01*
X158792776Y-86155952D02*
X158792776Y-86822619D01*
X158554681Y-85775000D02*
X158316586Y-86489285D01*
X158316586Y-86489285D02*
X158935633Y-86489285D01*
D12*
%TO.C,J2*%
X152198400Y-69444400D02*
X152198400Y-79724400D01*
X152198400Y-79724400D02*
X157498400Y-79724400D01*
X153848400Y-69444400D02*
X152198400Y-69444400D01*
X157498400Y-69444400D02*
X155848400Y-69444400D01*
X157498400Y-79724400D02*
X157498400Y-69444400D01*
X153848400Y-69444400D02*
G75*
G03*
X155848400Y-69444400I1000000J0D01*
G01*
D13*
%TO.C,R9*%
X150418800Y-107200700D02*
X148376640Y-107200700D01*
X142402560Y-107200700D02*
X140360400Y-107200700D01*
X140360400Y-107200700D02*
X140360400Y-131965700D01*
X150418800Y-131965700D02*
X150418800Y-107200700D01*
X148376640Y-131965700D02*
X150418800Y-131965700D01*
X140360400Y-131965700D02*
X142402560Y-131965700D01*
D12*
%TO.C,C3*%
X136703400Y-75432400D02*
X137961400Y-75432400D01*
X136703400Y-77272400D02*
X137961400Y-77272400D01*
D14*
%TO.C,Q3*%
X166591400Y-97285800D02*
X166591400Y-100380800D01*
X177121400Y-97285800D02*
X166591400Y-97285800D01*
X177121400Y-102115800D02*
X177121400Y-97285800D01*
D12*
%TO.C,C2*%
X171410600Y-75280000D02*
X172668600Y-75280000D01*
X171410600Y-77120000D02*
X172668600Y-77120000D01*
%TO.C,C1*%
X159195800Y-92309200D02*
X157937800Y-92309200D01*
X159195800Y-90469200D02*
X157937800Y-90469200D01*
D13*
%TO.C,R11*%
X167995600Y-107581700D02*
X165953440Y-107581700D01*
X159979360Y-107581700D02*
X157937200Y-107581700D01*
X157937200Y-107581700D02*
X157937200Y-132346700D01*
X167995600Y-132346700D02*
X167995600Y-107581700D01*
X165953440Y-132346700D02*
X167995600Y-132346700D01*
X157937200Y-132346700D02*
X159979360Y-132346700D01*
D14*
%TO.C,Q1*%
X131285400Y-97082600D02*
X131285400Y-100177600D01*
X141815400Y-97082600D02*
X131285400Y-97082600D01*
X141815400Y-101912600D02*
X141815400Y-97082600D01*
D12*
%TO.C,J3*%
X162502000Y-58040000D02*
X162502000Y-59780000D01*
X162502000Y-59780000D02*
X164002000Y-59780000D01*
X162742000Y-52420000D02*
X162742000Y-59540000D01*
X162742000Y-52420000D02*
X170562000Y-52420000D01*
X162742000Y-57980000D02*
X170562000Y-57980000D01*
X162742000Y-59540000D02*
X170562000Y-59540000D01*
X170562000Y-52420000D02*
X170562000Y-59540000D01*
X163470000Y-55272000D02*
G75*
G03*
X163469891Y-56487742I1432000J-608000D01*
G01*
X165510000Y-54448000D02*
G75*
G03*
X164294258Y-54447891I-608000J-1432000D01*
G01*
X164294000Y-57311999D02*
G75*
G03*
X164929011Y-57435492I607998J1431987D01*
G01*
X164902000Y-57434999D02*
G75*
G03*
X165509587Y-57311384I0J1554999D01*
G01*
X166334000Y-56488000D02*
G75*
G03*
X166334109Y-55272258I-1432003J607999D01*
G01*
X169957000Y-55880000D02*
G75*
G03*
X169957000Y-55880000I-1555000J0D01*
G01*
D14*
%TO.C,BR1*%
X169303600Y-94040800D02*
X174443600Y-94040800D01*
X174443600Y-91480800D02*
X169023600Y-91480800D01*
%TO.C,BR2*%
X133997600Y-94498000D02*
X139137600Y-94498000D01*
X139137600Y-91938000D02*
X133717600Y-91938000D01*
D12*
%TO.C,J1*%
X152310800Y-54177200D02*
X152310800Y-52437200D01*
X152310800Y-52437200D02*
X150810800Y-52437200D01*
X152070800Y-59797200D02*
X152070800Y-52677200D01*
X152070800Y-59797200D02*
X140750800Y-59797200D01*
X152070800Y-54237200D02*
X140750800Y-54237200D01*
X152070800Y-52677200D02*
X140750800Y-52677200D01*
X140750800Y-59797200D02*
X140750800Y-52677200D01*
X151342800Y-56945200D02*
G75*
G03*
X151342909Y-55729458I-1432000J608000D01*
G01*
X149302800Y-57769200D02*
G75*
G03*
X150518542Y-57769309I608000J1432000D01*
G01*
X150518800Y-54905201D02*
G75*
G03*
X149883789Y-54781708I-607998J-1431987D01*
G01*
X149910800Y-54782201D02*
G75*
G03*
X149303213Y-54905816I0J-1554999D01*
G01*
X148478800Y-55729200D02*
G75*
G03*
X148478691Y-56944942I1432003J-607999D01*
G01*
X147965800Y-56337200D02*
G75*
G03*
X147965800Y-56337200I-1555000J0D01*
G01*
X144465800Y-56337200D02*
G75*
G03*
X144465800Y-56337200I-1555000J0D01*
G01*
%TO.C,J4*%
X149598800Y-144603200D02*
X149598800Y-146343200D01*
X149598800Y-146343200D02*
X151098800Y-146343200D01*
X149838800Y-138983200D02*
X149838800Y-146103200D01*
X149838800Y-138983200D02*
X157658800Y-138983200D01*
X149838800Y-144543200D02*
X157658800Y-144543200D01*
X149838800Y-146103200D02*
X157658800Y-146103200D01*
X157658800Y-138983200D02*
X157658800Y-146103200D01*
X150566800Y-141835200D02*
G75*
G03*
X150566691Y-143050942I1432000J-608000D01*
G01*
X152606800Y-141011200D02*
G75*
G03*
X151391058Y-141011091I-608000J-1432000D01*
G01*
X151390800Y-143875199D02*
G75*
G03*
X152025811Y-143998692I607998J1431987D01*
G01*
X151998800Y-143998199D02*
G75*
G03*
X152606387Y-143874584I0J1554999D01*
G01*
X153430800Y-143051200D02*
G75*
G03*
X153430909Y-141835458I-1432003J607999D01*
G01*
X157053800Y-142443200D02*
G75*
G03*
X157053800Y-142443200I-1555000J0D01*
G01*
%TD*%
M02*
