%TF.GenerationSoftware,KiCad,Pcbnew,7.0.2-0*%
%TF.CreationDate,2024-01-04T15:38:00-05:00*%
%TF.ProjectId,Turbidity_v12,54757262-6964-4697-9479-5f7631322e6b,12*%
%TF.SameCoordinates,Original*%
%TF.FileFunction,Legend,Top*%
%TF.FilePolarity,Positive*%
%FSLAX46Y46*%
G04 Gerber Fmt 4.6, Leading zero omitted, Abs format (unit mm)*
G04 Created by KiCad (PCBNEW 7.0.2-0) date 2024-01-04 15:38:00*
%MOMM*%
%LPD*%
G01*
G04 APERTURE LIST*
%ADD10C,0.150000*%
%ADD11C,0.120000*%
%ADD12C,0.200000*%
G04 APERTURE END LIST*
D10*
X133381714Y-64520619D02*
X133572190Y-64520619D01*
X133572190Y-64520619D02*
X133667428Y-64473000D01*
X133667428Y-64473000D02*
X133715047Y-64425380D01*
X133715047Y-64425380D02*
X133810285Y-64282523D01*
X133810285Y-64282523D02*
X133857904Y-64092047D01*
X133857904Y-64092047D02*
X133857904Y-63711095D01*
X133857904Y-63711095D02*
X133810285Y-63615857D01*
X133810285Y-63615857D02*
X133762666Y-63568238D01*
X133762666Y-63568238D02*
X133667428Y-63520619D01*
X133667428Y-63520619D02*
X133476952Y-63520619D01*
X133476952Y-63520619D02*
X133381714Y-63568238D01*
X133381714Y-63568238D02*
X133334095Y-63615857D01*
X133334095Y-63615857D02*
X133286476Y-63711095D01*
X133286476Y-63711095D02*
X133286476Y-63949190D01*
X133286476Y-63949190D02*
X133334095Y-64044428D01*
X133334095Y-64044428D02*
X133381714Y-64092047D01*
X133381714Y-64092047D02*
X133476952Y-64139666D01*
X133476952Y-64139666D02*
X133667428Y-64139666D01*
X133667428Y-64139666D02*
X133762666Y-64092047D01*
X133762666Y-64092047D02*
X133810285Y-64044428D01*
X133810285Y-64044428D02*
X133857904Y-63949190D01*
X134476952Y-63520619D02*
X134572190Y-63520619D01*
X134572190Y-63520619D02*
X134667428Y-63568238D01*
X134667428Y-63568238D02*
X134715047Y-63615857D01*
X134715047Y-63615857D02*
X134762666Y-63711095D01*
X134762666Y-63711095D02*
X134810285Y-63901571D01*
X134810285Y-63901571D02*
X134810285Y-64139666D01*
X134810285Y-64139666D02*
X134762666Y-64330142D01*
X134762666Y-64330142D02*
X134715047Y-64425380D01*
X134715047Y-64425380D02*
X134667428Y-64473000D01*
X134667428Y-64473000D02*
X134572190Y-64520619D01*
X134572190Y-64520619D02*
X134476952Y-64520619D01*
X134476952Y-64520619D02*
X134381714Y-64473000D01*
X134381714Y-64473000D02*
X134334095Y-64425380D01*
X134334095Y-64425380D02*
X134286476Y-64330142D01*
X134286476Y-64330142D02*
X134238857Y-64139666D01*
X134238857Y-64139666D02*
X134238857Y-63901571D01*
X134238857Y-63901571D02*
X134286476Y-63711095D01*
X134286476Y-63711095D02*
X134334095Y-63615857D01*
X134334095Y-63615857D02*
X134381714Y-63568238D01*
X134381714Y-63568238D02*
X134476952Y-63520619D01*
X135381714Y-63520619D02*
X135286476Y-63568238D01*
X135286476Y-63568238D02*
X135238857Y-63663476D01*
X135238857Y-63663476D02*
X135286476Y-63758714D01*
X135286476Y-63758714D02*
X135381714Y-63806333D01*
X135381714Y-63806333D02*
X135476952Y-63758714D01*
X135476952Y-63758714D02*
X135524571Y-63663476D01*
X135524571Y-63663476D02*
X135476952Y-63568238D01*
X135476952Y-63568238D02*
X135381714Y-63520619D01*
X136715048Y-64473000D02*
X136857905Y-64520619D01*
X136857905Y-64520619D02*
X137096000Y-64520619D01*
X137096000Y-64520619D02*
X137191238Y-64473000D01*
X137191238Y-64473000D02*
X137238857Y-64425380D01*
X137238857Y-64425380D02*
X137286476Y-64330142D01*
X137286476Y-64330142D02*
X137286476Y-64234904D01*
X137286476Y-64234904D02*
X137238857Y-64139666D01*
X137238857Y-64139666D02*
X137191238Y-64092047D01*
X137191238Y-64092047D02*
X137096000Y-64044428D01*
X137096000Y-64044428D02*
X136905524Y-63996809D01*
X136905524Y-63996809D02*
X136810286Y-63949190D01*
X136810286Y-63949190D02*
X136762667Y-63901571D01*
X136762667Y-63901571D02*
X136715048Y-63806333D01*
X136715048Y-63806333D02*
X136715048Y-63711095D01*
X136715048Y-63711095D02*
X136762667Y-63615857D01*
X136762667Y-63615857D02*
X136810286Y-63568238D01*
X136810286Y-63568238D02*
X136905524Y-63520619D01*
X136905524Y-63520619D02*
X137143619Y-63520619D01*
X137143619Y-63520619D02*
X137286476Y-63568238D01*
X138096000Y-64473000D02*
X138000762Y-64520619D01*
X138000762Y-64520619D02*
X137810286Y-64520619D01*
X137810286Y-64520619D02*
X137715048Y-64473000D01*
X137715048Y-64473000D02*
X137667429Y-64377761D01*
X137667429Y-64377761D02*
X137667429Y-63996809D01*
X137667429Y-63996809D02*
X137715048Y-63901571D01*
X137715048Y-63901571D02*
X137810286Y-63853952D01*
X137810286Y-63853952D02*
X138000762Y-63853952D01*
X138000762Y-63853952D02*
X138096000Y-63901571D01*
X138096000Y-63901571D02*
X138143619Y-63996809D01*
X138143619Y-63996809D02*
X138143619Y-64092047D01*
X138143619Y-64092047D02*
X137667429Y-64187285D01*
X138572191Y-63853952D02*
X138572191Y-64520619D01*
X138572191Y-63949190D02*
X138619810Y-63901571D01*
X138619810Y-63901571D02*
X138715048Y-63853952D01*
X138715048Y-63853952D02*
X138857905Y-63853952D01*
X138857905Y-63853952D02*
X138953143Y-63901571D01*
X138953143Y-63901571D02*
X139000762Y-63996809D01*
X139000762Y-63996809D02*
X139000762Y-64520619D01*
X139429334Y-64473000D02*
X139524572Y-64520619D01*
X139524572Y-64520619D02*
X139715048Y-64520619D01*
X139715048Y-64520619D02*
X139810286Y-64473000D01*
X139810286Y-64473000D02*
X139857905Y-64377761D01*
X139857905Y-64377761D02*
X139857905Y-64330142D01*
X139857905Y-64330142D02*
X139810286Y-64234904D01*
X139810286Y-64234904D02*
X139715048Y-64187285D01*
X139715048Y-64187285D02*
X139572191Y-64187285D01*
X139572191Y-64187285D02*
X139476953Y-64139666D01*
X139476953Y-64139666D02*
X139429334Y-64044428D01*
X139429334Y-64044428D02*
X139429334Y-63996809D01*
X139429334Y-63996809D02*
X139476953Y-63901571D01*
X139476953Y-63901571D02*
X139572191Y-63853952D01*
X139572191Y-63853952D02*
X139715048Y-63853952D01*
X139715048Y-63853952D02*
X139810286Y-63901571D01*
X140429334Y-64520619D02*
X140334096Y-64473000D01*
X140334096Y-64473000D02*
X140286477Y-64425380D01*
X140286477Y-64425380D02*
X140238858Y-64330142D01*
X140238858Y-64330142D02*
X140238858Y-64044428D01*
X140238858Y-64044428D02*
X140286477Y-63949190D01*
X140286477Y-63949190D02*
X140334096Y-63901571D01*
X140334096Y-63901571D02*
X140429334Y-63853952D01*
X140429334Y-63853952D02*
X140572191Y-63853952D01*
X140572191Y-63853952D02*
X140667429Y-63901571D01*
X140667429Y-63901571D02*
X140715048Y-63949190D01*
X140715048Y-63949190D02*
X140762667Y-64044428D01*
X140762667Y-64044428D02*
X140762667Y-64330142D01*
X140762667Y-64330142D02*
X140715048Y-64425380D01*
X140715048Y-64425380D02*
X140667429Y-64473000D01*
X140667429Y-64473000D02*
X140572191Y-64520619D01*
X140572191Y-64520619D02*
X140429334Y-64520619D01*
X141191239Y-64520619D02*
X141191239Y-63853952D01*
X141191239Y-64044428D02*
X141238858Y-63949190D01*
X141238858Y-63949190D02*
X141286477Y-63901571D01*
X141286477Y-63901571D02*
X141381715Y-63853952D01*
X141381715Y-63853952D02*
X141476953Y-63853952D01*
X139528619Y-120427761D02*
X139528619Y-119856333D01*
X140528619Y-120142047D02*
X139528619Y-120142047D01*
X139861952Y-119094428D02*
X140528619Y-119094428D01*
X139861952Y-119522999D02*
X140385761Y-119522999D01*
X140385761Y-119522999D02*
X140481000Y-119475380D01*
X140481000Y-119475380D02*
X140528619Y-119380142D01*
X140528619Y-119380142D02*
X140528619Y-119237285D01*
X140528619Y-119237285D02*
X140481000Y-119142047D01*
X140481000Y-119142047D02*
X140433380Y-119094428D01*
X140528619Y-118618237D02*
X139861952Y-118618237D01*
X140052428Y-118618237D02*
X139957190Y-118570618D01*
X139957190Y-118570618D02*
X139909571Y-118522999D01*
X139909571Y-118522999D02*
X139861952Y-118427761D01*
X139861952Y-118427761D02*
X139861952Y-118332523D01*
X140528619Y-117999189D02*
X139528619Y-117999189D01*
X139909571Y-117999189D02*
X139861952Y-117903951D01*
X139861952Y-117903951D02*
X139861952Y-117713475D01*
X139861952Y-117713475D02*
X139909571Y-117618237D01*
X139909571Y-117618237D02*
X139957190Y-117570618D01*
X139957190Y-117570618D02*
X140052428Y-117522999D01*
X140052428Y-117522999D02*
X140338142Y-117522999D01*
X140338142Y-117522999D02*
X140433380Y-117570618D01*
X140433380Y-117570618D02*
X140481000Y-117618237D01*
X140481000Y-117618237D02*
X140528619Y-117713475D01*
X140528619Y-117713475D02*
X140528619Y-117903951D01*
X140528619Y-117903951D02*
X140481000Y-117999189D01*
X140528619Y-117094427D02*
X139861952Y-117094427D01*
X139528619Y-117094427D02*
X139576238Y-117142046D01*
X139576238Y-117142046D02*
X139623857Y-117094427D01*
X139623857Y-117094427D02*
X139576238Y-117046808D01*
X139576238Y-117046808D02*
X139528619Y-117094427D01*
X139528619Y-117094427D02*
X139623857Y-117094427D01*
X140528619Y-116189666D02*
X139528619Y-116189666D01*
X140481000Y-116189666D02*
X140528619Y-116284904D01*
X140528619Y-116284904D02*
X140528619Y-116475380D01*
X140528619Y-116475380D02*
X140481000Y-116570618D01*
X140481000Y-116570618D02*
X140433380Y-116618237D01*
X140433380Y-116618237D02*
X140338142Y-116665856D01*
X140338142Y-116665856D02*
X140052428Y-116665856D01*
X140052428Y-116665856D02*
X139957190Y-116618237D01*
X139957190Y-116618237D02*
X139909571Y-116570618D01*
X139909571Y-116570618D02*
X139861952Y-116475380D01*
X139861952Y-116475380D02*
X139861952Y-116284904D01*
X139861952Y-116284904D02*
X139909571Y-116189666D01*
X140528619Y-115713475D02*
X139861952Y-115713475D01*
X139528619Y-115713475D02*
X139576238Y-115761094D01*
X139576238Y-115761094D02*
X139623857Y-115713475D01*
X139623857Y-115713475D02*
X139576238Y-115665856D01*
X139576238Y-115665856D02*
X139528619Y-115713475D01*
X139528619Y-115713475D02*
X139623857Y-115713475D01*
X139861952Y-115380142D02*
X139861952Y-114999190D01*
X139528619Y-115237285D02*
X140385761Y-115237285D01*
X140385761Y-115237285D02*
X140481000Y-115189666D01*
X140481000Y-115189666D02*
X140528619Y-115094428D01*
X140528619Y-115094428D02*
X140528619Y-114999190D01*
X139861952Y-114761094D02*
X140528619Y-114522999D01*
X139861952Y-114284904D02*
X140528619Y-114522999D01*
X140528619Y-114522999D02*
X140766714Y-114618237D01*
X140766714Y-114618237D02*
X140814333Y-114665856D01*
X140814333Y-114665856D02*
X140861952Y-114761094D01*
X140481000Y-113189665D02*
X140528619Y-113046808D01*
X140528619Y-113046808D02*
X140528619Y-112808713D01*
X140528619Y-112808713D02*
X140481000Y-112713475D01*
X140481000Y-112713475D02*
X140433380Y-112665856D01*
X140433380Y-112665856D02*
X140338142Y-112618237D01*
X140338142Y-112618237D02*
X140242904Y-112618237D01*
X140242904Y-112618237D02*
X140147666Y-112665856D01*
X140147666Y-112665856D02*
X140100047Y-112713475D01*
X140100047Y-112713475D02*
X140052428Y-112808713D01*
X140052428Y-112808713D02*
X140004809Y-112999189D01*
X140004809Y-112999189D02*
X139957190Y-113094427D01*
X139957190Y-113094427D02*
X139909571Y-113142046D01*
X139909571Y-113142046D02*
X139814333Y-113189665D01*
X139814333Y-113189665D02*
X139719095Y-113189665D01*
X139719095Y-113189665D02*
X139623857Y-113142046D01*
X139623857Y-113142046D02*
X139576238Y-113094427D01*
X139576238Y-113094427D02*
X139528619Y-112999189D01*
X139528619Y-112999189D02*
X139528619Y-112761094D01*
X139528619Y-112761094D02*
X139576238Y-112618237D01*
X140481000Y-111808713D02*
X140528619Y-111903951D01*
X140528619Y-111903951D02*
X140528619Y-112094427D01*
X140528619Y-112094427D02*
X140481000Y-112189665D01*
X140481000Y-112189665D02*
X140385761Y-112237284D01*
X140385761Y-112237284D02*
X140004809Y-112237284D01*
X140004809Y-112237284D02*
X139909571Y-112189665D01*
X139909571Y-112189665D02*
X139861952Y-112094427D01*
X139861952Y-112094427D02*
X139861952Y-111903951D01*
X139861952Y-111903951D02*
X139909571Y-111808713D01*
X139909571Y-111808713D02*
X140004809Y-111761094D01*
X140004809Y-111761094D02*
X140100047Y-111761094D01*
X140100047Y-111761094D02*
X140195285Y-112237284D01*
X139861952Y-111332522D02*
X140528619Y-111332522D01*
X139957190Y-111332522D02*
X139909571Y-111284903D01*
X139909571Y-111284903D02*
X139861952Y-111189665D01*
X139861952Y-111189665D02*
X139861952Y-111046808D01*
X139861952Y-111046808D02*
X139909571Y-110951570D01*
X139909571Y-110951570D02*
X140004809Y-110903951D01*
X140004809Y-110903951D02*
X140528619Y-110903951D01*
X140481000Y-110475379D02*
X140528619Y-110380141D01*
X140528619Y-110380141D02*
X140528619Y-110189665D01*
X140528619Y-110189665D02*
X140481000Y-110094427D01*
X140481000Y-110094427D02*
X140385761Y-110046808D01*
X140385761Y-110046808D02*
X140338142Y-110046808D01*
X140338142Y-110046808D02*
X140242904Y-110094427D01*
X140242904Y-110094427D02*
X140195285Y-110189665D01*
X140195285Y-110189665D02*
X140195285Y-110332522D01*
X140195285Y-110332522D02*
X140147666Y-110427760D01*
X140147666Y-110427760D02*
X140052428Y-110475379D01*
X140052428Y-110475379D02*
X140004809Y-110475379D01*
X140004809Y-110475379D02*
X139909571Y-110427760D01*
X139909571Y-110427760D02*
X139861952Y-110332522D01*
X139861952Y-110332522D02*
X139861952Y-110189665D01*
X139861952Y-110189665D02*
X139909571Y-110094427D01*
X140528619Y-109475379D02*
X140481000Y-109570617D01*
X140481000Y-109570617D02*
X140433380Y-109618236D01*
X140433380Y-109618236D02*
X140338142Y-109665855D01*
X140338142Y-109665855D02*
X140052428Y-109665855D01*
X140052428Y-109665855D02*
X139957190Y-109618236D01*
X139957190Y-109618236D02*
X139909571Y-109570617D01*
X139909571Y-109570617D02*
X139861952Y-109475379D01*
X139861952Y-109475379D02*
X139861952Y-109332522D01*
X139861952Y-109332522D02*
X139909571Y-109237284D01*
X139909571Y-109237284D02*
X139957190Y-109189665D01*
X139957190Y-109189665D02*
X140052428Y-109142046D01*
X140052428Y-109142046D02*
X140338142Y-109142046D01*
X140338142Y-109142046D02*
X140433380Y-109189665D01*
X140433380Y-109189665D02*
X140481000Y-109237284D01*
X140481000Y-109237284D02*
X140528619Y-109332522D01*
X140528619Y-109332522D02*
X140528619Y-109475379D01*
X140528619Y-108713474D02*
X139861952Y-108713474D01*
X140052428Y-108713474D02*
X139957190Y-108665855D01*
X139957190Y-108665855D02*
X139909571Y-108618236D01*
X139909571Y-108618236D02*
X139861952Y-108522998D01*
X139861952Y-108522998D02*
X139861952Y-108427760D01*
X139861952Y-107427759D02*
X140528619Y-107189664D01*
X140528619Y-107189664D02*
X139861952Y-106951569D01*
X140433380Y-106570616D02*
X140481000Y-106522997D01*
X140481000Y-106522997D02*
X140528619Y-106570616D01*
X140528619Y-106570616D02*
X140481000Y-106618235D01*
X140481000Y-106618235D02*
X140433380Y-106570616D01*
X140433380Y-106570616D02*
X140528619Y-106570616D01*
X140528619Y-105570617D02*
X140528619Y-106142045D01*
X140528619Y-105856331D02*
X139528619Y-105856331D01*
X139528619Y-105856331D02*
X139671476Y-105951569D01*
X139671476Y-105951569D02*
X139766714Y-106046807D01*
X139766714Y-106046807D02*
X139814333Y-106142045D01*
X139623857Y-105189664D02*
X139576238Y-105142045D01*
X139576238Y-105142045D02*
X139528619Y-105046807D01*
X139528619Y-105046807D02*
X139528619Y-104808712D01*
X139528619Y-104808712D02*
X139576238Y-104713474D01*
X139576238Y-104713474D02*
X139623857Y-104665855D01*
X139623857Y-104665855D02*
X139719095Y-104618236D01*
X139719095Y-104618236D02*
X139814333Y-104618236D01*
X139814333Y-104618236D02*
X139957190Y-104665855D01*
X139957190Y-104665855D02*
X140528619Y-105237283D01*
X140528619Y-105237283D02*
X140528619Y-104618236D01*
X141243857Y-120332523D02*
X141196238Y-120284904D01*
X141196238Y-120284904D02*
X141148619Y-120189666D01*
X141148619Y-120189666D02*
X141148619Y-119951571D01*
X141148619Y-119951571D02*
X141196238Y-119856333D01*
X141196238Y-119856333D02*
X141243857Y-119808714D01*
X141243857Y-119808714D02*
X141339095Y-119761095D01*
X141339095Y-119761095D02*
X141434333Y-119761095D01*
X141434333Y-119761095D02*
X141577190Y-119808714D01*
X141577190Y-119808714D02*
X142148619Y-120380142D01*
X142148619Y-120380142D02*
X142148619Y-119761095D01*
X141148619Y-119142047D02*
X141148619Y-119046809D01*
X141148619Y-119046809D02*
X141196238Y-118951571D01*
X141196238Y-118951571D02*
X141243857Y-118903952D01*
X141243857Y-118903952D02*
X141339095Y-118856333D01*
X141339095Y-118856333D02*
X141529571Y-118808714D01*
X141529571Y-118808714D02*
X141767666Y-118808714D01*
X141767666Y-118808714D02*
X141958142Y-118856333D01*
X141958142Y-118856333D02*
X142053380Y-118903952D01*
X142053380Y-118903952D02*
X142101000Y-118951571D01*
X142101000Y-118951571D02*
X142148619Y-119046809D01*
X142148619Y-119046809D02*
X142148619Y-119142047D01*
X142148619Y-119142047D02*
X142101000Y-119237285D01*
X142101000Y-119237285D02*
X142053380Y-119284904D01*
X142053380Y-119284904D02*
X141958142Y-119332523D01*
X141958142Y-119332523D02*
X141767666Y-119380142D01*
X141767666Y-119380142D02*
X141529571Y-119380142D01*
X141529571Y-119380142D02*
X141339095Y-119332523D01*
X141339095Y-119332523D02*
X141243857Y-119284904D01*
X141243857Y-119284904D02*
X141196238Y-119237285D01*
X141196238Y-119237285D02*
X141148619Y-119142047D01*
X141243857Y-118427761D02*
X141196238Y-118380142D01*
X141196238Y-118380142D02*
X141148619Y-118284904D01*
X141148619Y-118284904D02*
X141148619Y-118046809D01*
X141148619Y-118046809D02*
X141196238Y-117951571D01*
X141196238Y-117951571D02*
X141243857Y-117903952D01*
X141243857Y-117903952D02*
X141339095Y-117856333D01*
X141339095Y-117856333D02*
X141434333Y-117856333D01*
X141434333Y-117856333D02*
X141577190Y-117903952D01*
X141577190Y-117903952D02*
X142148619Y-118475380D01*
X142148619Y-118475380D02*
X142148619Y-117856333D01*
X141481952Y-116999190D02*
X142148619Y-116999190D01*
X141101000Y-117237285D02*
X141815285Y-117475380D01*
X141815285Y-117475380D02*
X141815285Y-116856333D01*
X141148619Y-116284904D02*
X141148619Y-116189666D01*
X141148619Y-116189666D02*
X141196238Y-116094428D01*
X141196238Y-116094428D02*
X141243857Y-116046809D01*
X141243857Y-116046809D02*
X141339095Y-115999190D01*
X141339095Y-115999190D02*
X141529571Y-115951571D01*
X141529571Y-115951571D02*
X141767666Y-115951571D01*
X141767666Y-115951571D02*
X141958142Y-115999190D01*
X141958142Y-115999190D02*
X142053380Y-116046809D01*
X142053380Y-116046809D02*
X142101000Y-116094428D01*
X142101000Y-116094428D02*
X142148619Y-116189666D01*
X142148619Y-116189666D02*
X142148619Y-116284904D01*
X142148619Y-116284904D02*
X142101000Y-116380142D01*
X142101000Y-116380142D02*
X142053380Y-116427761D01*
X142053380Y-116427761D02*
X141958142Y-116475380D01*
X141958142Y-116475380D02*
X141767666Y-116522999D01*
X141767666Y-116522999D02*
X141529571Y-116522999D01*
X141529571Y-116522999D02*
X141339095Y-116475380D01*
X141339095Y-116475380D02*
X141243857Y-116427761D01*
X141243857Y-116427761D02*
X141196238Y-116380142D01*
X141196238Y-116380142D02*
X141148619Y-116284904D01*
X142148619Y-114999190D02*
X142148619Y-115570618D01*
X142148619Y-115284904D02*
X141148619Y-115284904D01*
X141148619Y-115284904D02*
X141291476Y-115380142D01*
X141291476Y-115380142D02*
X141386714Y-115475380D01*
X141386714Y-115475380D02*
X141434333Y-115570618D01*
X141148619Y-114380142D02*
X141148619Y-114284904D01*
X141148619Y-114284904D02*
X141196238Y-114189666D01*
X141196238Y-114189666D02*
X141243857Y-114142047D01*
X141243857Y-114142047D02*
X141339095Y-114094428D01*
X141339095Y-114094428D02*
X141529571Y-114046809D01*
X141529571Y-114046809D02*
X141767666Y-114046809D01*
X141767666Y-114046809D02*
X141958142Y-114094428D01*
X141958142Y-114094428D02*
X142053380Y-114142047D01*
X142053380Y-114142047D02*
X142101000Y-114189666D01*
X142101000Y-114189666D02*
X142148619Y-114284904D01*
X142148619Y-114284904D02*
X142148619Y-114380142D01*
X142148619Y-114380142D02*
X142101000Y-114475380D01*
X142101000Y-114475380D02*
X142053380Y-114522999D01*
X142053380Y-114522999D02*
X141958142Y-114570618D01*
X141958142Y-114570618D02*
X141767666Y-114618237D01*
X141767666Y-114618237D02*
X141529571Y-114618237D01*
X141529571Y-114618237D02*
X141339095Y-114570618D01*
X141339095Y-114570618D02*
X141243857Y-114522999D01*
X141243857Y-114522999D02*
X141196238Y-114475380D01*
X141196238Y-114475380D02*
X141148619Y-114380142D01*
X141481952Y-113189666D02*
X142148619Y-113189666D01*
X141101000Y-113427761D02*
X141815285Y-113665856D01*
X141815285Y-113665856D02*
X141815285Y-113046809D01*
X143482904Y-120332523D02*
X143482904Y-119856333D01*
X143768619Y-120427761D02*
X142768619Y-120094428D01*
X142768619Y-120094428D02*
X143768619Y-119761095D01*
X142768619Y-119427761D02*
X143578142Y-119427761D01*
X143578142Y-119427761D02*
X143673380Y-119380142D01*
X143673380Y-119380142D02*
X143721000Y-119332523D01*
X143721000Y-119332523D02*
X143768619Y-119237285D01*
X143768619Y-119237285D02*
X143768619Y-119046809D01*
X143768619Y-119046809D02*
X143721000Y-118951571D01*
X143721000Y-118951571D02*
X143673380Y-118903952D01*
X143673380Y-118903952D02*
X143578142Y-118856333D01*
X143578142Y-118856333D02*
X142768619Y-118856333D01*
X142721000Y-117665857D02*
X144006714Y-118522999D01*
X143482904Y-117380142D02*
X143482904Y-116903952D01*
X143768619Y-117475380D02*
X142768619Y-117142047D01*
X142768619Y-117142047D02*
X143768619Y-116808714D01*
X142768619Y-116475380D02*
X143578142Y-116475380D01*
X143578142Y-116475380D02*
X143673380Y-116427761D01*
X143673380Y-116427761D02*
X143721000Y-116380142D01*
X143721000Y-116380142D02*
X143768619Y-116284904D01*
X143768619Y-116284904D02*
X143768619Y-116094428D01*
X143768619Y-116094428D02*
X143721000Y-115999190D01*
X143721000Y-115999190D02*
X143673380Y-115951571D01*
X143673380Y-115951571D02*
X143578142Y-115903952D01*
X143578142Y-115903952D02*
X142768619Y-115903952D01*
X143768619Y-115427761D02*
X142768619Y-115427761D01*
X142768619Y-115427761D02*
X142768619Y-115189666D01*
X142768619Y-115189666D02*
X142816238Y-115046809D01*
X142816238Y-115046809D02*
X142911476Y-114951571D01*
X142911476Y-114951571D02*
X143006714Y-114903952D01*
X143006714Y-114903952D02*
X143197190Y-114856333D01*
X143197190Y-114856333D02*
X143340047Y-114856333D01*
X143340047Y-114856333D02*
X143530523Y-114903952D01*
X143530523Y-114903952D02*
X143625761Y-114951571D01*
X143625761Y-114951571D02*
X143721000Y-115046809D01*
X143721000Y-115046809D02*
X143768619Y-115189666D01*
X143768619Y-115189666D02*
X143768619Y-115427761D01*
X153466704Y-64749219D02*
X152895276Y-64749219D01*
X153180990Y-64749219D02*
X153180990Y-63749219D01*
X153180990Y-63749219D02*
X153085752Y-63892076D01*
X153085752Y-63892076D02*
X152990514Y-63987314D01*
X152990514Y-63987314D02*
X152895276Y-64034933D01*
X154038133Y-64177790D02*
X153942895Y-64130171D01*
X153942895Y-64130171D02*
X153895276Y-64082552D01*
X153895276Y-64082552D02*
X153847657Y-63987314D01*
X153847657Y-63987314D02*
X153847657Y-63939695D01*
X153847657Y-63939695D02*
X153895276Y-63844457D01*
X153895276Y-63844457D02*
X153942895Y-63796838D01*
X153942895Y-63796838D02*
X154038133Y-63749219D01*
X154038133Y-63749219D02*
X154228609Y-63749219D01*
X154228609Y-63749219D02*
X154323847Y-63796838D01*
X154323847Y-63796838D02*
X154371466Y-63844457D01*
X154371466Y-63844457D02*
X154419085Y-63939695D01*
X154419085Y-63939695D02*
X154419085Y-63987314D01*
X154419085Y-63987314D02*
X154371466Y-64082552D01*
X154371466Y-64082552D02*
X154323847Y-64130171D01*
X154323847Y-64130171D02*
X154228609Y-64177790D01*
X154228609Y-64177790D02*
X154038133Y-64177790D01*
X154038133Y-64177790D02*
X153942895Y-64225409D01*
X153942895Y-64225409D02*
X153895276Y-64273028D01*
X153895276Y-64273028D02*
X153847657Y-64368266D01*
X153847657Y-64368266D02*
X153847657Y-64558742D01*
X153847657Y-64558742D02*
X153895276Y-64653980D01*
X153895276Y-64653980D02*
X153942895Y-64701600D01*
X153942895Y-64701600D02*
X154038133Y-64749219D01*
X154038133Y-64749219D02*
X154228609Y-64749219D01*
X154228609Y-64749219D02*
X154323847Y-64701600D01*
X154323847Y-64701600D02*
X154371466Y-64653980D01*
X154371466Y-64653980D02*
X154419085Y-64558742D01*
X154419085Y-64558742D02*
X154419085Y-64368266D01*
X154419085Y-64368266D02*
X154371466Y-64273028D01*
X154371466Y-64273028D02*
X154323847Y-64225409D01*
X154323847Y-64225409D02*
X154228609Y-64177790D01*
X155038133Y-63749219D02*
X155133371Y-63749219D01*
X155133371Y-63749219D02*
X155228609Y-63796838D01*
X155228609Y-63796838D02*
X155276228Y-63844457D01*
X155276228Y-63844457D02*
X155323847Y-63939695D01*
X155323847Y-63939695D02*
X155371466Y-64130171D01*
X155371466Y-64130171D02*
X155371466Y-64368266D01*
X155371466Y-64368266D02*
X155323847Y-64558742D01*
X155323847Y-64558742D02*
X155276228Y-64653980D01*
X155276228Y-64653980D02*
X155228609Y-64701600D01*
X155228609Y-64701600D02*
X155133371Y-64749219D01*
X155133371Y-64749219D02*
X155038133Y-64749219D01*
X155038133Y-64749219D02*
X154942895Y-64701600D01*
X154942895Y-64701600D02*
X154895276Y-64653980D01*
X154895276Y-64653980D02*
X154847657Y-64558742D01*
X154847657Y-64558742D02*
X154800038Y-64368266D01*
X154800038Y-64368266D02*
X154800038Y-64130171D01*
X154800038Y-64130171D02*
X154847657Y-63939695D01*
X154847657Y-63939695D02*
X154895276Y-63844457D01*
X154895276Y-63844457D02*
X154942895Y-63796838D01*
X154942895Y-63796838D02*
X155038133Y-63749219D01*
X155942895Y-63749219D02*
X155847657Y-63796838D01*
X155847657Y-63796838D02*
X155800038Y-63892076D01*
X155800038Y-63892076D02*
X155847657Y-63987314D01*
X155847657Y-63987314D02*
X155942895Y-64034933D01*
X155942895Y-64034933D02*
X156038133Y-63987314D01*
X156038133Y-63987314D02*
X156085752Y-63892076D01*
X156085752Y-63892076D02*
X156038133Y-63796838D01*
X156038133Y-63796838D02*
X155942895Y-63749219D01*
X157276229Y-64701600D02*
X157419086Y-64749219D01*
X157419086Y-64749219D02*
X157657181Y-64749219D01*
X157657181Y-64749219D02*
X157752419Y-64701600D01*
X157752419Y-64701600D02*
X157800038Y-64653980D01*
X157800038Y-64653980D02*
X157847657Y-64558742D01*
X157847657Y-64558742D02*
X157847657Y-64463504D01*
X157847657Y-64463504D02*
X157800038Y-64368266D01*
X157800038Y-64368266D02*
X157752419Y-64320647D01*
X157752419Y-64320647D02*
X157657181Y-64273028D01*
X157657181Y-64273028D02*
X157466705Y-64225409D01*
X157466705Y-64225409D02*
X157371467Y-64177790D01*
X157371467Y-64177790D02*
X157323848Y-64130171D01*
X157323848Y-64130171D02*
X157276229Y-64034933D01*
X157276229Y-64034933D02*
X157276229Y-63939695D01*
X157276229Y-63939695D02*
X157323848Y-63844457D01*
X157323848Y-63844457D02*
X157371467Y-63796838D01*
X157371467Y-63796838D02*
X157466705Y-63749219D01*
X157466705Y-63749219D02*
X157704800Y-63749219D01*
X157704800Y-63749219D02*
X157847657Y-63796838D01*
X158657181Y-64701600D02*
X158561943Y-64749219D01*
X158561943Y-64749219D02*
X158371467Y-64749219D01*
X158371467Y-64749219D02*
X158276229Y-64701600D01*
X158276229Y-64701600D02*
X158228610Y-64606361D01*
X158228610Y-64606361D02*
X158228610Y-64225409D01*
X158228610Y-64225409D02*
X158276229Y-64130171D01*
X158276229Y-64130171D02*
X158371467Y-64082552D01*
X158371467Y-64082552D02*
X158561943Y-64082552D01*
X158561943Y-64082552D02*
X158657181Y-64130171D01*
X158657181Y-64130171D02*
X158704800Y-64225409D01*
X158704800Y-64225409D02*
X158704800Y-64320647D01*
X158704800Y-64320647D02*
X158228610Y-64415885D01*
X159133372Y-64082552D02*
X159133372Y-64749219D01*
X159133372Y-64177790D02*
X159180991Y-64130171D01*
X159180991Y-64130171D02*
X159276229Y-64082552D01*
X159276229Y-64082552D02*
X159419086Y-64082552D01*
X159419086Y-64082552D02*
X159514324Y-64130171D01*
X159514324Y-64130171D02*
X159561943Y-64225409D01*
X159561943Y-64225409D02*
X159561943Y-64749219D01*
X159990515Y-64701600D02*
X160085753Y-64749219D01*
X160085753Y-64749219D02*
X160276229Y-64749219D01*
X160276229Y-64749219D02*
X160371467Y-64701600D01*
X160371467Y-64701600D02*
X160419086Y-64606361D01*
X160419086Y-64606361D02*
X160419086Y-64558742D01*
X160419086Y-64558742D02*
X160371467Y-64463504D01*
X160371467Y-64463504D02*
X160276229Y-64415885D01*
X160276229Y-64415885D02*
X160133372Y-64415885D01*
X160133372Y-64415885D02*
X160038134Y-64368266D01*
X160038134Y-64368266D02*
X159990515Y-64273028D01*
X159990515Y-64273028D02*
X159990515Y-64225409D01*
X159990515Y-64225409D02*
X160038134Y-64130171D01*
X160038134Y-64130171D02*
X160133372Y-64082552D01*
X160133372Y-64082552D02*
X160276229Y-64082552D01*
X160276229Y-64082552D02*
X160371467Y-64130171D01*
X160990515Y-64749219D02*
X160895277Y-64701600D01*
X160895277Y-64701600D02*
X160847658Y-64653980D01*
X160847658Y-64653980D02*
X160800039Y-64558742D01*
X160800039Y-64558742D02*
X160800039Y-64273028D01*
X160800039Y-64273028D02*
X160847658Y-64177790D01*
X160847658Y-64177790D02*
X160895277Y-64130171D01*
X160895277Y-64130171D02*
X160990515Y-64082552D01*
X160990515Y-64082552D02*
X161133372Y-64082552D01*
X161133372Y-64082552D02*
X161228610Y-64130171D01*
X161228610Y-64130171D02*
X161276229Y-64177790D01*
X161276229Y-64177790D02*
X161323848Y-64273028D01*
X161323848Y-64273028D02*
X161323848Y-64558742D01*
X161323848Y-64558742D02*
X161276229Y-64653980D01*
X161276229Y-64653980D02*
X161228610Y-64701600D01*
X161228610Y-64701600D02*
X161133372Y-64749219D01*
X161133372Y-64749219D02*
X160990515Y-64749219D01*
X161752420Y-64749219D02*
X161752420Y-64082552D01*
X161752420Y-64273028D02*
X161800039Y-64177790D01*
X161800039Y-64177790D02*
X161847658Y-64130171D01*
X161847658Y-64130171D02*
X161942896Y-64082552D01*
X161942896Y-64082552D02*
X162038134Y-64082552D01*
X142900304Y-84510419D02*
X142328876Y-84510419D01*
X142614590Y-84510419D02*
X142614590Y-83510419D01*
X142614590Y-83510419D02*
X142519352Y-83653276D01*
X142519352Y-83653276D02*
X142424114Y-83748514D01*
X142424114Y-83748514D02*
X142328876Y-83796133D01*
X151315847Y-107768219D02*
X150839657Y-107768219D01*
X150839657Y-107768219D02*
X150792038Y-108244409D01*
X150792038Y-108244409D02*
X150839657Y-108196790D01*
X150839657Y-108196790D02*
X150934895Y-108149171D01*
X150934895Y-108149171D02*
X151172990Y-108149171D01*
X151172990Y-108149171D02*
X151268228Y-108196790D01*
X151268228Y-108196790D02*
X151315847Y-108244409D01*
X151315847Y-108244409D02*
X151363466Y-108339647D01*
X151363466Y-108339647D02*
X151363466Y-108577742D01*
X151363466Y-108577742D02*
X151315847Y-108672980D01*
X151315847Y-108672980D02*
X151268228Y-108720600D01*
X151268228Y-108720600D02*
X151172990Y-108768219D01*
X151172990Y-108768219D02*
X150934895Y-108768219D01*
X150934895Y-108768219D02*
X150839657Y-108720600D01*
X150839657Y-108720600D02*
X150792038Y-108672980D01*
X151792038Y-108672980D02*
X151839657Y-108720600D01*
X151839657Y-108720600D02*
X151792038Y-108768219D01*
X151792038Y-108768219D02*
X151744419Y-108720600D01*
X151744419Y-108720600D02*
X151792038Y-108672980D01*
X151792038Y-108672980D02*
X151792038Y-108768219D01*
X152792037Y-108768219D02*
X152220609Y-108768219D01*
X152506323Y-108768219D02*
X152506323Y-107768219D01*
X152506323Y-107768219D02*
X152411085Y-107911076D01*
X152411085Y-107911076D02*
X152315847Y-108006314D01*
X152315847Y-108006314D02*
X152220609Y-108053933D01*
X153220609Y-108768219D02*
X153220609Y-107768219D01*
X153315847Y-108387266D02*
X153601561Y-108768219D01*
X153601561Y-108101552D02*
X153220609Y-108482504D01*
D11*
%TO.C,R1*%
X151920836Y-109247000D02*
X152374964Y-109247000D01*
X151920836Y-110717000D02*
X152374964Y-110717000D01*
D12*
%TO.C,IC1*%
X143463000Y-82450000D02*
X143463000Y-83820000D01*
X143463000Y-102970000D02*
X153463000Y-102970000D01*
X153463000Y-82450000D02*
X143463000Y-82450000D01*
D11*
%TO.C,J4*%
X158182000Y-85344000D02*
X158182000Y-118424000D01*
X158182000Y-85344000D02*
X160842000Y-85344000D01*
X158182000Y-118424000D02*
X160842000Y-118424000D01*
X159512000Y-82744000D02*
X160842000Y-82744000D01*
X160842000Y-82744000D02*
X160842000Y-84074000D01*
X160842000Y-85344000D02*
X160842000Y-118424000D01*
%TO.C,J3*%
X140917600Y-65755200D02*
X133097600Y-65755200D01*
X139317600Y-65755200D02*
X139317600Y-66675200D01*
X133097600Y-65755200D02*
X133097600Y-75875200D01*
X136957600Y-66515200D02*
X135357600Y-66515200D01*
X135357600Y-66515200D02*
X135357600Y-67515200D01*
X140917600Y-66675200D02*
X140917600Y-65755200D01*
X139317600Y-66675200D02*
X140917600Y-66675200D01*
X139317600Y-66955200D02*
X139317600Y-66675200D01*
X139317600Y-66955200D02*
X140532600Y-66955200D01*
X135357600Y-67015200D02*
X133097600Y-67015200D01*
X136957600Y-67515200D02*
X136957600Y-66515200D01*
X135357600Y-67515200D02*
X136957600Y-67515200D01*
X135357600Y-67515200D02*
X133097600Y-67515200D01*
X137457600Y-68315200D02*
X137457600Y-73315200D01*
X133097600Y-68315200D02*
X137457600Y-68315200D01*
X137457600Y-73315200D02*
X133097600Y-73315200D01*
X136957600Y-74115200D02*
X136957600Y-75115200D01*
X135357600Y-74115200D02*
X136957600Y-74115200D01*
X140917600Y-74955200D02*
X139317600Y-74955200D01*
X139317600Y-74955200D02*
X139317600Y-74675200D01*
X136957600Y-75115200D02*
X135357600Y-75115200D01*
X135357600Y-75115200D02*
X135357600Y-74115200D01*
X140917600Y-75875200D02*
X140917600Y-74955200D01*
X139317600Y-75875200D02*
X139317600Y-74955200D01*
X133097600Y-75875200D02*
X140917600Y-75875200D01*
%TO.C,J2*%
X154230400Y-75878000D02*
X162050400Y-75878000D01*
X155830400Y-75878000D02*
X155830400Y-74958000D01*
X162050400Y-75878000D02*
X162050400Y-65758000D01*
X158190400Y-75118000D02*
X159790400Y-75118000D01*
X159790400Y-75118000D02*
X159790400Y-74118000D01*
X154230400Y-74958000D02*
X154230400Y-75878000D01*
X155830400Y-74958000D02*
X154230400Y-74958000D01*
X155830400Y-74678000D02*
X155830400Y-74958000D01*
X155830400Y-74678000D02*
X154615400Y-74678000D01*
X159790400Y-74618000D02*
X162050400Y-74618000D01*
X158190400Y-74118000D02*
X158190400Y-75118000D01*
X159790400Y-74118000D02*
X158190400Y-74118000D01*
X159790400Y-74118000D02*
X162050400Y-74118000D01*
X157690400Y-73318000D02*
X157690400Y-68318000D01*
X162050400Y-73318000D02*
X157690400Y-73318000D01*
X157690400Y-68318000D02*
X162050400Y-68318000D01*
X158190400Y-67518000D02*
X158190400Y-66518000D01*
X159790400Y-67518000D02*
X158190400Y-67518000D01*
X154230400Y-66678000D02*
X155830400Y-66678000D01*
X155830400Y-66678000D02*
X155830400Y-66958000D01*
X158190400Y-66518000D02*
X159790400Y-66518000D01*
X159790400Y-66518000D02*
X159790400Y-67518000D01*
X154230400Y-65758000D02*
X154230400Y-66678000D01*
X155830400Y-65758000D02*
X155830400Y-66678000D01*
X162050400Y-65758000D02*
X154230400Y-65758000D01*
%TO.C,R2*%
X152371164Y-107415000D02*
X151917036Y-107415000D01*
X152371164Y-105945000D02*
X151917036Y-105945000D01*
%TO.C,J5*%
X135576000Y-85344000D02*
X135576000Y-118424000D01*
X135576000Y-85344000D02*
X138236000Y-85344000D01*
X135576000Y-118424000D02*
X138236000Y-118424000D01*
X136906000Y-82744000D02*
X138236000Y-82744000D01*
X138236000Y-82744000D02*
X138236000Y-84074000D01*
X138236000Y-85344000D02*
X138236000Y-118424000D01*
%TD*%
M02*
