%TF.GenerationSoftware,KiCad,Pcbnew,7.0.2-0*%
%TF.CreationDate,2024-01-04T15:38:00-05:00*%
%TF.ProjectId,Turbidity_v12,54757262-6964-4697-9479-5f7631322e6b,12*%
%TF.SameCoordinates,Original*%
%TF.FileFunction,Copper,L1,Top*%
%TF.FilePolarity,Positive*%
%FSLAX46Y46*%
G04 Gerber Fmt 4.6, Leading zero omitted, Abs format (unit mm)*
G04 Created by KiCad (PCBNEW 7.0.2-0) date 2024-01-04 15:38:00*
%MOMM*%
%LPD*%
G01*
G04 APERTURE LIST*
G04 Aperture macros list*
%AMRoundRect*
0 Rectangle with rounded corners*
0 $1 Rounding radius*
0 $2 $3 $4 $5 $6 $7 $8 $9 X,Y pos of 4 corners*
0 Add a 4 corners polygon primitive as box body*
4,1,4,$2,$3,$4,$5,$6,$7,$8,$9,$2,$3,0*
0 Add four circle primitives for the rounded corners*
1,1,$1+$1,$2,$3*
1,1,$1+$1,$4,$5*
1,1,$1+$1,$6,$7*
1,1,$1+$1,$8,$9*
0 Add four rect primitives between the rounded corners*
20,1,$1+$1,$2,$3,$4,$5,0*
20,1,$1+$1,$4,$5,$6,$7,0*
20,1,$1+$1,$6,$7,$8,$9,0*
20,1,$1+$1,$8,$9,$2,$3,0*%
G04 Aperture macros list end*
%TA.AperFunction,SMDPad,CuDef*%
%ADD10RoundRect,0.250000X-0.262500X-0.450000X0.262500X-0.450000X0.262500X0.450000X-0.262500X0.450000X0*%
%TD*%
%TA.AperFunction,ComponentPad*%
%ADD11C,3.800000*%
%TD*%
%TA.AperFunction,ComponentPad*%
%ADD12R,1.425000X1.425000*%
%TD*%
%TA.AperFunction,ComponentPad*%
%ADD13C,1.425000*%
%TD*%
%TA.AperFunction,ComponentPad*%
%ADD14R,1.700000X1.700000*%
%TD*%
%TA.AperFunction,ComponentPad*%
%ADD15O,1.700000X1.700000*%
%TD*%
%TA.AperFunction,ComponentPad*%
%ADD16RoundRect,0.250000X-0.625000X0.350000X-0.625000X-0.350000X0.625000X-0.350000X0.625000X0.350000X0*%
%TD*%
%TA.AperFunction,ComponentPad*%
%ADD17O,1.750000X1.200000*%
%TD*%
%TA.AperFunction,ComponentPad*%
%ADD18RoundRect,0.250000X0.625000X-0.350000X0.625000X0.350000X-0.625000X0.350000X-0.625000X-0.350000X0*%
%TD*%
%TA.AperFunction,SMDPad,CuDef*%
%ADD19RoundRect,0.250000X0.262500X0.450000X-0.262500X0.450000X-0.262500X-0.450000X0.262500X-0.450000X0*%
%TD*%
%TA.AperFunction,ViaPad*%
%ADD20C,0.800000*%
%TD*%
%TA.AperFunction,Conductor*%
%ADD21C,0.250000*%
%TD*%
G04 APERTURE END LIST*
D10*
%TO.P,R1,1*%
%TO.N,/SCL*%
X151235400Y-109982000D03*
%TO.P,R1,2*%
%TO.N,/3.3V*%
X153060400Y-109982000D03*
%TD*%
D11*
%TO.P,REF\u002A\u002A,1*%
%TO.N,N/C*%
X135001000Y-121310400D03*
%TD*%
D12*
%TO.P,IC1,1,1*%
%TO.N,/1(SCL)*%
X144653000Y-83820000D03*
D13*
%TO.P,IC1,2,2*%
%TO.N,unconnected-(IC1-Pad2)*%
X144653000Y-86360000D03*
%TO.P,IC1,3,3*%
%TO.N,/SCL*%
X144653000Y-88900000D03*
%TO.P,IC1,4,4*%
%TO.N,unconnected-(IC1-Pad4)*%
X144653000Y-91440000D03*
%TO.P,IC1,5,5*%
%TO.N,/5(SCL)*%
X144653000Y-93980000D03*
%TO.P,IC1,6,6*%
%TO.N,/GND*%
X144653000Y-96520000D03*
%TO.P,IC1,7,7*%
X144653000Y-99060000D03*
%TO.P,IC1,8,8*%
X144653000Y-101600000D03*
%TO.P,IC1,9,9*%
%TO.N,/D8*%
X152273000Y-101600000D03*
%TO.P,IC1,10,10*%
%TO.N,/D6*%
X152273000Y-99060000D03*
%TO.P,IC1,11,11*%
%TO.N,unconnected-(IC1-Pad11)*%
X152273000Y-96520000D03*
%TO.P,IC1,12,12*%
%TO.N,/12(SDA)*%
X152273000Y-93980000D03*
%TO.P,IC1,13,13*%
%TO.N,/SDA*%
X152273000Y-91440000D03*
%TO.P,IC1,14,14*%
%TO.N,/14(SDA)*%
X152273000Y-88900000D03*
%TO.P,IC1,15,15*%
%TO.N,unconnected-(IC1-Pad15)*%
X152273000Y-86360000D03*
%TO.P,IC1,16,16*%
%TO.N,/3.3V*%
X152273000Y-83820000D03*
%TD*%
D14*
%TO.P,J4,1,Pin_1*%
%TO.N,unconnected-(J4-Pin_1-Pad1)*%
X159512000Y-84074000D03*
D15*
%TO.P,J4,2,Pin_2*%
%TO.N,unconnected-(J4-Pin_2-Pad2)*%
X159512000Y-86614000D03*
%TO.P,J4,3,Pin_3*%
%TO.N,/3.3V*%
X159512000Y-89154000D03*
%TO.P,J4,4,Pin_4*%
%TO.N,/GND*%
X159512000Y-91694000D03*
%TO.P,J4,5,Pin_5*%
%TO.N,unconnected-(J4-Pin_5-Pad5)*%
X159512000Y-94234000D03*
%TO.P,J4,6,Pin_6*%
%TO.N,unconnected-(J4-Pin_6-Pad6)*%
X159512000Y-96774000D03*
%TO.P,J4,7,Pin_7*%
%TO.N,unconnected-(J4-Pin_7-Pad7)*%
X159512000Y-99314000D03*
%TO.P,J4,8,Pin_8*%
%TO.N,/SCL*%
X159512000Y-101854000D03*
%TO.P,J4,9,Pin_9*%
%TO.N,/SDA*%
X159512000Y-104394000D03*
%TO.P,J4,10,Pin_10*%
%TO.N,unconnected-(J4-Pin_10-Pad10)*%
X159512000Y-106934000D03*
%TO.P,J4,11,Pin_11*%
%TO.N,unconnected-(J4-Pin_11-Pad11)*%
X159512000Y-109474000D03*
%TO.P,J4,12,Pin_12*%
%TO.N,/D8*%
X159512000Y-112014000D03*
%TO.P,J4,13,Pin_13*%
%TO.N,unconnected-(J4-Pin_13-Pad13)*%
X159512000Y-114554000D03*
%TO.P,J4,14,Pin_14*%
%TO.N,/D6*%
X159512000Y-117094000D03*
%TD*%
D11*
%TO.P,REF\u002A\u002A,1*%
%TO.N,N/C*%
X160147000Y-60071000D03*
%TD*%
D16*
%TO.P,J3,1,Pin_1*%
%TO.N,/GND*%
X139457600Y-67815200D03*
D17*
%TO.P,J3,2,Pin_2*%
%TO.N,/12(SDA)*%
X139457600Y-69815200D03*
%TO.P,J3,3,Pin_3*%
%TO.N,/1(SCL)*%
X139457600Y-71815200D03*
%TO.P,J3,4,Pin_4*%
%TO.N,/3.3V*%
X139457600Y-73815200D03*
%TD*%
D11*
%TO.P,REF\u002A\u002A,1*%
%TO.N,N/C*%
X135001000Y-60071000D03*
%TD*%
D18*
%TO.P,J2,1,Pin_1*%
%TO.N,/GND*%
X155690400Y-73818000D03*
D17*
%TO.P,J2,2,Pin_2*%
%TO.N,/14(SDA)*%
X155690400Y-71818000D03*
%TO.P,J2,3,Pin_3*%
%TO.N,/5(SCL)*%
X155690400Y-69818000D03*
%TO.P,J2,4,Pin_4*%
%TO.N,/3.3V*%
X155690400Y-67818000D03*
%TD*%
D19*
%TO.P,R2,1*%
%TO.N,/3.3V*%
X153056600Y-106680000D03*
%TO.P,R2,2*%
%TO.N,/SDA*%
X151231600Y-106680000D03*
%TD*%
D14*
%TO.P,J5,1,Pin_1*%
%TO.N,unconnected-(J5-Pin_1-Pad1)*%
X136906000Y-84074000D03*
D15*
%TO.P,J5,2,Pin_2*%
%TO.N,unconnected-(J5-Pin_2-Pad2)*%
X136906000Y-86614000D03*
%TO.P,J5,3,Pin_3*%
%TO.N,unconnected-(J5-Pin_3-Pad3)*%
X136906000Y-89154000D03*
%TO.P,J5,4,Pin_4*%
%TO.N,unconnected-(J5-Pin_4-Pad4)*%
X136906000Y-91694000D03*
%TO.P,J5,5,Pin_5*%
%TO.N,unconnected-(J5-Pin_5-Pad5)*%
X136906000Y-94234000D03*
%TO.P,J5,6,Pin_6*%
%TO.N,unconnected-(J5-Pin_6-Pad6)*%
X136906000Y-96774000D03*
%TO.P,J5,7,Pin_7*%
%TO.N,unconnected-(J5-Pin_7-Pad7)*%
X136906000Y-99314000D03*
%TO.P,J5,8,Pin_8*%
%TO.N,unconnected-(J5-Pin_8-Pad8)*%
X136906000Y-101854000D03*
%TO.P,J5,9,Pin_9*%
%TO.N,unconnected-(J5-Pin_9-Pad9)*%
X136906000Y-104394000D03*
%TO.P,J5,10,Pin_10*%
%TO.N,unconnected-(J5-Pin_10-Pad10)*%
X136906000Y-106934000D03*
%TO.P,J5,11,Pin_11*%
%TO.N,unconnected-(J5-Pin_11-Pad11)*%
X136906000Y-109474000D03*
%TO.P,J5,12,Pin_12*%
%TO.N,unconnected-(J5-Pin_12-Pad12)*%
X136906000Y-112014000D03*
%TO.P,J5,13,Pin_13*%
%TO.N,unconnected-(J5-Pin_13-Pad13)*%
X136906000Y-114554000D03*
%TO.P,J5,14,Pin_14*%
%TO.N,unconnected-(J5-Pin_14-Pad14)*%
X136906000Y-117094000D03*
%TD*%
D11*
%TO.P,REF\u002A\u002A,1*%
%TO.N,N/C*%
X160147000Y-121310400D03*
%TD*%
D20*
%TO.N,/3.3V*%
X149504400Y-74218800D03*
%TO.N,/SCL*%
X149860000Y-105003600D03*
%TO.N,/SDA*%
X156514800Y-96418400D03*
%TO.N,/D8*%
X154635200Y-102057200D03*
%TO.N,/5(SCL)*%
X147828000Y-90017600D03*
%TD*%
D21*
%TO.N,/GND*%
X138257600Y-69015200D02*
X138257600Y-90124600D01*
X144653000Y-101600000D02*
X144653000Y-99060000D01*
X138257600Y-90124600D02*
X144653000Y-96520000D01*
X155723500Y-95482500D02*
X145690500Y-95482500D01*
X139457600Y-67815200D02*
X138257600Y-69015200D01*
X159512000Y-91694000D02*
X155723500Y-95482500D01*
X145690500Y-95482500D02*
X144653000Y-96520000D01*
X144653000Y-96520000D02*
X144653000Y-99060000D01*
%TO.N,/3.3V*%
X159512000Y-89154000D02*
X157607000Y-89154000D01*
X149504400Y-79146400D02*
X159512000Y-89154000D01*
X157607000Y-89154000D02*
X152273000Y-83820000D01*
X157378400Y-105569000D02*
X159998701Y-105569000D01*
X160687000Y-104880701D02*
X160687000Y-90329000D01*
X153056600Y-106680000D02*
X154167600Y-105569000D01*
X159998701Y-105569000D02*
X160687000Y-104880701D01*
X154167600Y-105569000D02*
X157378400Y-105569000D01*
X149504400Y-74218800D02*
X149504400Y-79146400D01*
X160687000Y-90329000D02*
X159512000Y-89154000D01*
X153060400Y-109982000D02*
X153060400Y-109887000D01*
X153060400Y-109887000D02*
X157378400Y-105569000D01*
%TO.N,/SCL*%
X149860000Y-108606600D02*
X149860000Y-105003600D01*
X151235400Y-109982000D02*
X149860000Y-108606600D01*
%TO.N,/SDA*%
X151231600Y-106680000D02*
X156514800Y-101396800D01*
X156514800Y-101396800D02*
X156514800Y-96418400D01*
X159512000Y-104394000D02*
X156514800Y-101396800D01*
%TO.N,/D8*%
X154635200Y-102057200D02*
X154178000Y-101600000D01*
X154178000Y-101600000D02*
X152273000Y-101600000D01*
%TO.N,/D6*%
X149098000Y-109370273D02*
X149098000Y-102235000D01*
X159512000Y-117094000D02*
X156821727Y-117094000D01*
X156821727Y-117094000D02*
X149098000Y-109370273D01*
X149098000Y-102235000D02*
X152273000Y-99060000D01*
%TO.N,/1(SCL)*%
X144653000Y-77010600D02*
X144653000Y-83820000D01*
X139457600Y-71815200D02*
X144653000Y-77010600D01*
%TO.N,/5(SCL)*%
X147828000Y-90805000D02*
X144653000Y-93980000D01*
X147828000Y-90017600D02*
X147828000Y-90805000D01*
%TO.N,/12(SDA)*%
X139457600Y-69815200D02*
X148553000Y-78910600D01*
X148553000Y-78910600D02*
X148553000Y-90260000D01*
X148553000Y-90260000D02*
X152273000Y-93980000D01*
%TD*%
M02*
