%TF.GenerationSoftware,KiCad,Pcbnew,7.0.2-0*%
%TF.CreationDate,2024-01-04T15:38:00-05:00*%
%TF.ProjectId,Turbidity_v12,54757262-6964-4697-9479-5f7631322e6b,12*%
%TF.SameCoordinates,Original*%
%TF.FileFunction,Legend,Bot*%
%TF.FilePolarity,Positive*%
%FSLAX46Y46*%
G04 Gerber Fmt 4.6, Leading zero omitted, Abs format (unit mm)*
G04 Created by KiCad (PCBNEW 7.0.2-0) date 2024-01-04 15:38:00*
%MOMM*%
%LPD*%
G01*
G04 APERTURE LIST*
%ADD10C,0.000000*%
%ADD11C,0.100000*%
G04 APERTURE END LIST*
D10*
G36*
X146212719Y-63082488D02*
G01*
X145905537Y-63018988D01*
X145905537Y-59399488D01*
X146212719Y-59335988D01*
X146212719Y-63082488D01*
G37*
G36*
X148346319Y-66802000D02*
G01*
X148336000Y-66802000D01*
X148123275Y-66559112D01*
X147597018Y-66775013D01*
X147597018Y-67711637D01*
X148123275Y-67927537D01*
X148336000Y-67683856D01*
X148346319Y-67683856D01*
X148346319Y-68625244D01*
X148336000Y-68625244D01*
X148123275Y-68380769D01*
X145906331Y-67424299D01*
X145906331Y-67229832D01*
X146484975Y-67229832D01*
X147373975Y-67610038D01*
X147373975Y-66863913D01*
X146484975Y-67229832D01*
X145906331Y-67229832D01*
X145906331Y-67218718D01*
X147373975Y-66609696D01*
X148123275Y-66298763D01*
X148336000Y-66060637D01*
X148346319Y-66060637D01*
X148346319Y-66802000D01*
G37*
G36*
X148346319Y-82866706D02*
G01*
X148336000Y-82866706D01*
X148123275Y-82623025D01*
X147597018Y-82838925D01*
X147597018Y-83776342D01*
X148123275Y-83992244D01*
X148336000Y-83748561D01*
X148346319Y-83748561D01*
X148346319Y-84689949D01*
X148336000Y-84689949D01*
X148123275Y-84446268D01*
X145906331Y-83490592D01*
X145906331Y-83295331D01*
X146484975Y-83295331D01*
X147373975Y-83675538D01*
X147373975Y-82929413D01*
X146484975Y-83295331D01*
X145906331Y-83295331D01*
X145906331Y-83285011D01*
X147373975Y-82676516D01*
X148123275Y-82365851D01*
X148336000Y-82127725D01*
X148346319Y-82127725D01*
X148346319Y-82866706D01*
G37*
G36*
X150479125Y-79023371D02*
G01*
X149393275Y-79023371D01*
X149393275Y-78771752D01*
X150479125Y-78771752D01*
X150479125Y-79023371D01*
G37*
G36*
X149548850Y-79765524D02*
G01*
X150479125Y-79765524D01*
X150479125Y-80014761D01*
X149548850Y-80014761D01*
X149548850Y-80390205D01*
X149390100Y-80390205D01*
X149390100Y-79395638D01*
X149548850Y-79395638D01*
X149548850Y-79765524D01*
G37*
G36*
X148179078Y-60847749D02*
G01*
X148181730Y-60849120D01*
X148184404Y-60851378D01*
X148187093Y-60854504D01*
X148189789Y-60858476D01*
X148192486Y-60863272D01*
X148195176Y-60868872D01*
X148197850Y-60875255D01*
X148203126Y-60890284D01*
X148208254Y-60908191D01*
X148213175Y-60928807D01*
X148217830Y-60951963D01*
X148222160Y-60977492D01*
X148226104Y-61005224D01*
X148229605Y-61034990D01*
X148232601Y-61066623D01*
X148235036Y-61099953D01*
X148236848Y-61134813D01*
X148237978Y-61171032D01*
X148238369Y-61208444D01*
X148237108Y-61282075D01*
X148233494Y-61350264D01*
X148227779Y-61411664D01*
X148224211Y-61439396D01*
X148220212Y-61464924D01*
X148215812Y-61488081D01*
X148211045Y-61508697D01*
X148205940Y-61526603D01*
X148200529Y-61541633D01*
X148194844Y-61553615D01*
X148188916Y-61562383D01*
X148182776Y-61567768D01*
X148179637Y-61569138D01*
X148176456Y-61569600D01*
X148173305Y-61569283D01*
X148170250Y-61568342D01*
X148167291Y-61566790D01*
X148164426Y-61564637D01*
X148161654Y-61561899D01*
X148158974Y-61558586D01*
X148156384Y-61554712D01*
X148153884Y-61550289D01*
X148151472Y-61545331D01*
X148149148Y-61539849D01*
X148146909Y-61533856D01*
X148144756Y-61527365D01*
X148140699Y-61512940D01*
X148136967Y-61496674D01*
X148133552Y-61478669D01*
X148130443Y-61459025D01*
X148127633Y-61437845D01*
X148125110Y-61415228D01*
X148122867Y-61391276D01*
X148120894Y-61366091D01*
X148119181Y-61339774D01*
X148117719Y-61312425D01*
X148121351Y-61310500D01*
X148124897Y-61308461D01*
X148128355Y-61306308D01*
X148131724Y-61304046D01*
X148135000Y-61301678D01*
X148138183Y-61299206D01*
X148141271Y-61296634D01*
X148144261Y-61293964D01*
X148147152Y-61291200D01*
X148149942Y-61288344D01*
X148152629Y-61285400D01*
X148155212Y-61282370D01*
X148157688Y-61279258D01*
X148160055Y-61276066D01*
X148162312Y-61272798D01*
X148164457Y-61269457D01*
X148166488Y-61266045D01*
X148168403Y-61262565D01*
X148170201Y-61259021D01*
X148171879Y-61255415D01*
X148173435Y-61251751D01*
X148174868Y-61248032D01*
X148176176Y-61244259D01*
X148177358Y-61240438D01*
X148178410Y-61236570D01*
X148179331Y-61232658D01*
X148180120Y-61228706D01*
X148180775Y-61224717D01*
X148181293Y-61220693D01*
X148181674Y-61216637D01*
X148181914Y-61212553D01*
X148182012Y-61208444D01*
X148181674Y-61200251D01*
X148180775Y-61192171D01*
X148179331Y-61184229D01*
X148177358Y-61176450D01*
X148174868Y-61168856D01*
X148171879Y-61161472D01*
X148168403Y-61154323D01*
X148164457Y-61147431D01*
X148160055Y-61140821D01*
X148155212Y-61134517D01*
X148149942Y-61128543D01*
X148144261Y-61122923D01*
X148138183Y-61117681D01*
X148131724Y-61112841D01*
X148124897Y-61108427D01*
X148117719Y-61104463D01*
X148121382Y-61050796D01*
X148126338Y-61001660D01*
X148132466Y-60957862D01*
X148135932Y-60938219D01*
X148139646Y-60920213D01*
X148143592Y-60903947D01*
X148147756Y-60889522D01*
X148152121Y-60877039D01*
X148156674Y-60866598D01*
X148161400Y-60858301D01*
X148166282Y-60852250D01*
X148171306Y-60848545D01*
X148173866Y-60847604D01*
X148176456Y-60847287D01*
X148179078Y-60847749D01*
G37*
G36*
X150332903Y-77197183D02*
G01*
X150355831Y-77231645D01*
X150377237Y-77266946D01*
X150397103Y-77303034D01*
X150415412Y-77339857D01*
X150432148Y-77377365D01*
X150447294Y-77415506D01*
X150460834Y-77454228D01*
X150472749Y-77493481D01*
X150483024Y-77533212D01*
X150491642Y-77573370D01*
X150498586Y-77613904D01*
X150503840Y-77654762D01*
X150507385Y-77695893D01*
X150509207Y-77737246D01*
X150509287Y-77778768D01*
X150508199Y-77826545D01*
X150504822Y-77875157D01*
X150498990Y-77924065D01*
X150490535Y-77972727D01*
X150479289Y-78020604D01*
X150472567Y-78044079D01*
X150465085Y-78067154D01*
X150456822Y-78089763D01*
X150447756Y-78111837D01*
X150437867Y-78133309D01*
X150427134Y-78154111D01*
X150415536Y-78174177D01*
X150403052Y-78193437D01*
X150389661Y-78211826D01*
X150375342Y-78229274D01*
X150360074Y-78245715D01*
X150343837Y-78261081D01*
X150326609Y-78275304D01*
X150308369Y-78288317D01*
X150289097Y-78300052D01*
X150268771Y-78310442D01*
X150247372Y-78319419D01*
X150224876Y-78326915D01*
X150201265Y-78332863D01*
X150176517Y-78337195D01*
X150150610Y-78339844D01*
X150123525Y-78340742D01*
X150099211Y-78339904D01*
X150076108Y-78337435D01*
X150054184Y-78333400D01*
X150033406Y-78327867D01*
X150013743Y-78320900D01*
X149995164Y-78312566D01*
X149977636Y-78302932D01*
X149961128Y-78292063D01*
X149945609Y-78280025D01*
X149931046Y-78266885D01*
X149917408Y-78252709D01*
X149904663Y-78237562D01*
X149892780Y-78221512D01*
X149881727Y-78204623D01*
X149861984Y-78168598D01*
X149845180Y-78130014D01*
X149831062Y-78089401D01*
X149819376Y-78047288D01*
X149809869Y-78004205D01*
X149802288Y-77960680D01*
X149796379Y-77917242D01*
X149791888Y-77874420D01*
X149788562Y-77832743D01*
X149779831Y-77704764D01*
X149776858Y-77672859D01*
X149773159Y-77641746D01*
X149768529Y-77611803D01*
X149762765Y-77583407D01*
X149759394Y-77569907D01*
X149755662Y-77556936D01*
X149751544Y-77544541D01*
X149747014Y-77532769D01*
X149742048Y-77521668D01*
X149736618Y-77511284D01*
X149730700Y-77501664D01*
X149724269Y-77492857D01*
X149717297Y-77484909D01*
X149709761Y-77477867D01*
X149701634Y-77471779D01*
X149692891Y-77466693D01*
X149683505Y-77462654D01*
X149673453Y-77459711D01*
X149662708Y-77457910D01*
X149651243Y-77457299D01*
X149639725Y-77457722D01*
X149628823Y-77458968D01*
X149618520Y-77461005D01*
X149608801Y-77463801D01*
X149599649Y-77467324D01*
X149591047Y-77471541D01*
X149582978Y-77476421D01*
X149575428Y-77481930D01*
X149568379Y-77488037D01*
X149561814Y-77494710D01*
X149555717Y-77501915D01*
X149550073Y-77509621D01*
X149544864Y-77517796D01*
X149540074Y-77526408D01*
X149531685Y-77544810D01*
X149524775Y-77564570D01*
X149519213Y-77585431D01*
X149514867Y-77607133D01*
X149511606Y-77629419D01*
X149509298Y-77652030D01*
X149507812Y-77674709D01*
X149507017Y-77697197D01*
X149506781Y-77719236D01*
X149507571Y-77749522D01*
X149509350Y-77779708D01*
X149512113Y-77809772D01*
X149515853Y-77839689D01*
X149520564Y-77869437D01*
X149526238Y-77898992D01*
X149532870Y-77928331D01*
X149540453Y-77957430D01*
X149548980Y-77986267D01*
X149558446Y-78014819D01*
X149568843Y-78043061D01*
X149580165Y-78070970D01*
X149592406Y-78098524D01*
X149605559Y-78125698D01*
X149619617Y-78152471D01*
X149634575Y-78178817D01*
X149504399Y-78270100D01*
X149485578Y-78238990D01*
X149467990Y-78207271D01*
X149451644Y-78174981D01*
X149436551Y-78142156D01*
X149422721Y-78108833D01*
X149410163Y-78075050D01*
X149398888Y-78040844D01*
X149388905Y-78006251D01*
X149380225Y-77971308D01*
X149372857Y-77936053D01*
X149366811Y-77900522D01*
X149362097Y-77864753D01*
X149358726Y-77828782D01*
X149356706Y-77792646D01*
X149356048Y-77756384D01*
X149356762Y-77720030D01*
X149357809Y-77675678D01*
X149361044Y-77631019D01*
X149366609Y-77586490D01*
X149374647Y-77542528D01*
X149379636Y-77520897D01*
X149385297Y-77499571D01*
X149391647Y-77478606D01*
X149398704Y-77458056D01*
X149406485Y-77437975D01*
X149415008Y-77418419D01*
X149424291Y-77399442D01*
X149434351Y-77381099D01*
X149445207Y-77363444D01*
X149456876Y-77346532D01*
X149469376Y-77330418D01*
X149482724Y-77315156D01*
X149496938Y-77300800D01*
X149512036Y-77287407D01*
X149528036Y-77275029D01*
X149544955Y-77263723D01*
X149562812Y-77253542D01*
X149581623Y-77244541D01*
X149601407Y-77236775D01*
X149622182Y-77230298D01*
X149643964Y-77225166D01*
X149666772Y-77221432D01*
X149690624Y-77219152D01*
X149715537Y-77218380D01*
X149738724Y-77219307D01*
X149760824Y-77222036D01*
X149781862Y-77226492D01*
X149801864Y-77232597D01*
X149820854Y-77240277D01*
X149838858Y-77249454D01*
X149855900Y-77260052D01*
X149872005Y-77271995D01*
X149887199Y-77285206D01*
X149901506Y-77299610D01*
X149914952Y-77315130D01*
X149927561Y-77331689D01*
X149939359Y-77349211D01*
X149950370Y-77367621D01*
X149970133Y-77406796D01*
X149987049Y-77448603D01*
X150001318Y-77492432D01*
X150013142Y-77537673D01*
X150022718Y-77583715D01*
X150030249Y-77629947D01*
X150035933Y-77675760D01*
X150039971Y-77720543D01*
X150042562Y-77763685D01*
X150045221Y-77824830D01*
X150046847Y-77855094D01*
X150048950Y-77884794D01*
X150051735Y-77913661D01*
X150055413Y-77941428D01*
X150057651Y-77954814D01*
X150060190Y-77967824D01*
X150063056Y-77980425D01*
X150066276Y-77992583D01*
X150069874Y-78004263D01*
X150073877Y-78015434D01*
X150078312Y-78026061D01*
X150083203Y-78036110D01*
X150088578Y-78045548D01*
X150094462Y-78054342D01*
X150100881Y-78062458D01*
X150107861Y-78069861D01*
X150115428Y-78076520D01*
X150123608Y-78082400D01*
X150132428Y-78087467D01*
X150141913Y-78091688D01*
X150152089Y-78095030D01*
X150162982Y-78097458D01*
X150174619Y-78098940D01*
X150187025Y-78099441D01*
X150199533Y-78099030D01*
X150211467Y-78097809D01*
X150222838Y-78095795D01*
X150233658Y-78093007D01*
X150243938Y-78089462D01*
X150253691Y-78085178D01*
X150262927Y-78080172D01*
X150271658Y-78074463D01*
X150279897Y-78068067D01*
X150287654Y-78061004D01*
X150294942Y-78053289D01*
X150301771Y-78044942D01*
X150308154Y-78035980D01*
X150314102Y-78026421D01*
X150324740Y-78005581D01*
X150333779Y-77982564D01*
X150341310Y-77957512D01*
X150347428Y-77930568D01*
X150352224Y-77901872D01*
X150355793Y-77871568D01*
X150358227Y-77839796D01*
X150359619Y-77806698D01*
X150360063Y-77772417D01*
X150359348Y-77738096D01*
X150357161Y-77703951D01*
X150353516Y-77670026D01*
X150348429Y-77636365D01*
X150341916Y-77603013D01*
X150333994Y-77570014D01*
X150324676Y-77537412D01*
X150313980Y-77505252D01*
X150301921Y-77473578D01*
X150288515Y-77442433D01*
X150273778Y-77411863D01*
X150257725Y-77381912D01*
X150240373Y-77352624D01*
X150221736Y-77324043D01*
X150201832Y-77296214D01*
X150180675Y-77269180D01*
X150308469Y-77163611D01*
X150332903Y-77197183D01*
G37*
G36*
X150125823Y-68994727D02*
G01*
X150148789Y-68996817D01*
X150171516Y-69000250D01*
X150193946Y-69005004D01*
X150216024Y-69011058D01*
X150237691Y-69018390D01*
X150258891Y-69026980D01*
X150279567Y-69036806D01*
X150299662Y-69047848D01*
X150319119Y-69060083D01*
X150337882Y-69073492D01*
X150355892Y-69088052D01*
X150373094Y-69103743D01*
X150389431Y-69120544D01*
X150406120Y-69143178D01*
X150421687Y-69166469D01*
X150436121Y-69190376D01*
X150449409Y-69214857D01*
X150461538Y-69239869D01*
X150472495Y-69265370D01*
X150482267Y-69291319D01*
X150490843Y-69317674D01*
X150498209Y-69344392D01*
X150504353Y-69371431D01*
X150509262Y-69398749D01*
X150512924Y-69426304D01*
X150515326Y-69454055D01*
X150516455Y-69481958D01*
X150516298Y-69509973D01*
X150514844Y-69538056D01*
X150516119Y-69566018D01*
X150516036Y-69593892D01*
X150514611Y-69621631D01*
X150511857Y-69649192D01*
X150507792Y-69676526D01*
X150502428Y-69703589D01*
X150495781Y-69730335D01*
X150487867Y-69756718D01*
X150478699Y-69782693D01*
X150468294Y-69808213D01*
X150456665Y-69833232D01*
X150443828Y-69857705D01*
X150429799Y-69881586D01*
X150414590Y-69904829D01*
X150398219Y-69927389D01*
X150380699Y-69949219D01*
X150364467Y-69965243D01*
X150347466Y-69980261D01*
X150329744Y-69994255D01*
X150311347Y-70007206D01*
X150292324Y-70019097D01*
X150272721Y-70029907D01*
X150252586Y-70039621D01*
X150231967Y-70048218D01*
X150210910Y-70055681D01*
X150189464Y-70061992D01*
X150167676Y-70067132D01*
X150145593Y-70071083D01*
X150123263Y-70073826D01*
X150100733Y-70075344D01*
X150078050Y-70075619D01*
X150055262Y-70074631D01*
X149393275Y-70074631D01*
X149393275Y-69893655D01*
X150033831Y-69893655D01*
X150068505Y-69892579D01*
X150101894Y-69889290D01*
X150133867Y-69883693D01*
X150149281Y-69880001D01*
X150164292Y-69875697D01*
X150178883Y-69870769D01*
X150193038Y-69865207D01*
X150206740Y-69858999D01*
X150219973Y-69852132D01*
X150232721Y-69844596D01*
X150244967Y-69836378D01*
X150256695Y-69827468D01*
X150267888Y-69817852D01*
X150278530Y-69807521D01*
X150288605Y-69796461D01*
X150298095Y-69784662D01*
X150306985Y-69772113D01*
X150315258Y-69758800D01*
X150322898Y-69744713D01*
X150329889Y-69729840D01*
X150336213Y-69714169D01*
X150341854Y-69697689D01*
X150346797Y-69680388D01*
X150351025Y-69662255D01*
X150354520Y-69643277D01*
X150357267Y-69623444D01*
X150359250Y-69602743D01*
X150360452Y-69581164D01*
X150360856Y-69558693D01*
X150360445Y-69538594D01*
X150359225Y-69519219D01*
X150357215Y-69500562D01*
X150354432Y-69482619D01*
X150350896Y-69465383D01*
X150346624Y-69448850D01*
X150341637Y-69433012D01*
X150335952Y-69417865D01*
X150329588Y-69403403D01*
X150322564Y-69389620D01*
X150314898Y-69376510D01*
X150306608Y-69364068D01*
X150297714Y-69352289D01*
X150288234Y-69341166D01*
X150278187Y-69330694D01*
X150267590Y-69320867D01*
X150256464Y-69311679D01*
X150244826Y-69303125D01*
X150232695Y-69295200D01*
X150220089Y-69287897D01*
X150207028Y-69281210D01*
X150193530Y-69275135D01*
X150179613Y-69269666D01*
X150165296Y-69264796D01*
X150150597Y-69260520D01*
X150135536Y-69256833D01*
X150104400Y-69251201D01*
X150072036Y-69247856D01*
X150038593Y-69246750D01*
X149393275Y-69246750D01*
X149393275Y-68996719D01*
X150056056Y-68996719D01*
X150079399Y-68994656D01*
X150102674Y-68993999D01*
X150125823Y-68994727D01*
G37*
G36*
X150479125Y-72416987D02*
G01*
X149393275Y-72416987D01*
X149393275Y-72165369D01*
X150479125Y-72165369D01*
X150479125Y-72416987D01*
G37*
G36*
X147202871Y-71835382D02*
G01*
X147273543Y-71840727D01*
X147342284Y-71849518D01*
X147409067Y-71861660D01*
X147473867Y-71877059D01*
X147536657Y-71895618D01*
X147597411Y-71917244D01*
X147656103Y-71941840D01*
X147712707Y-71969311D01*
X147767196Y-71999563D01*
X147819545Y-72032500D01*
X147869727Y-72068026D01*
X147917717Y-72106047D01*
X147963487Y-72146468D01*
X148007012Y-72189192D01*
X148048265Y-72234126D01*
X148087221Y-72281174D01*
X148123854Y-72330240D01*
X148158136Y-72381230D01*
X148190043Y-72434048D01*
X148219547Y-72488598D01*
X148246623Y-72544787D01*
X148271245Y-72602519D01*
X148293385Y-72661697D01*
X148313019Y-72722229D01*
X148330120Y-72784017D01*
X148344662Y-72846967D01*
X148356619Y-72910983D01*
X148365964Y-72975972D01*
X148372671Y-73041836D01*
X148376715Y-73108481D01*
X148378069Y-73175813D01*
X148375808Y-73238862D01*
X148371096Y-73301605D01*
X148363955Y-73363974D01*
X148354409Y-73425902D01*
X148342481Y-73487320D01*
X148328193Y-73548163D01*
X148311568Y-73608361D01*
X148292629Y-73667848D01*
X148271399Y-73726557D01*
X148247901Y-73784419D01*
X148222158Y-73841369D01*
X148194193Y-73897337D01*
X148164029Y-73952257D01*
X148131688Y-74006062D01*
X148097193Y-74058684D01*
X148060569Y-74110055D01*
X147203319Y-74110055D01*
X147203319Y-73270268D01*
X147213637Y-73270268D01*
X147433506Y-73713180D01*
X147817681Y-73713180D01*
X147846097Y-73712697D01*
X147872484Y-73711210D01*
X147884950Y-73710073D01*
X147896949Y-73708665D01*
X147908496Y-73706979D01*
X147919603Y-73705007D01*
X147930285Y-73702744D01*
X147940555Y-73700182D01*
X147950427Y-73697315D01*
X147959914Y-73694135D01*
X147969030Y-73690636D01*
X147977789Y-73686811D01*
X147986205Y-73682654D01*
X147994290Y-73678156D01*
X148002060Y-73673312D01*
X148009526Y-73668115D01*
X148016704Y-73662558D01*
X148023606Y-73656633D01*
X148030247Y-73650335D01*
X148036640Y-73643656D01*
X148042799Y-73636590D01*
X148048737Y-73629130D01*
X148054468Y-73621268D01*
X148060005Y-73612998D01*
X148065363Y-73604314D01*
X148070555Y-73595208D01*
X148075595Y-73585673D01*
X148080496Y-73575703D01*
X148089937Y-73554430D01*
X148098721Y-73533498D01*
X148106928Y-73512364D01*
X148114553Y-73491040D01*
X148121596Y-73469538D01*
X148128054Y-73447869D01*
X148133925Y-73426047D01*
X148139205Y-73404083D01*
X148143893Y-73381989D01*
X148147986Y-73359777D01*
X148151483Y-73337459D01*
X148154379Y-73315048D01*
X148156674Y-73292554D01*
X148158365Y-73269991D01*
X148159449Y-73247371D01*
X148159924Y-73224705D01*
X148159787Y-73202005D01*
X148158580Y-73153921D01*
X148154987Y-73106590D01*
X148149048Y-73060063D01*
X148140806Y-73014390D01*
X148130300Y-72969623D01*
X148117574Y-72925811D01*
X148102667Y-72883006D01*
X148085621Y-72841258D01*
X148066478Y-72800619D01*
X148045279Y-72761138D01*
X148022064Y-72722866D01*
X147996876Y-72685855D01*
X147969756Y-72650155D01*
X147940744Y-72615817D01*
X147909883Y-72582891D01*
X147877212Y-72551428D01*
X147842775Y-72521479D01*
X147806611Y-72493094D01*
X147768763Y-72466325D01*
X147729271Y-72441222D01*
X147688177Y-72417836D01*
X147645522Y-72396217D01*
X147601347Y-72376416D01*
X147555694Y-72358485D01*
X147508604Y-72342473D01*
X147460118Y-72328431D01*
X147410277Y-72316410D01*
X147359123Y-72306461D01*
X147306697Y-72298635D01*
X147253040Y-72292982D01*
X147198194Y-72289553D01*
X147142200Y-72288399D01*
X147096956Y-72288399D01*
X147042897Y-72289419D01*
X146989843Y-72292458D01*
X146937841Y-72297483D01*
X146886936Y-72304462D01*
X146837177Y-72313362D01*
X146788608Y-72324151D01*
X146741278Y-72336797D01*
X146695232Y-72351266D01*
X146650517Y-72367528D01*
X146607181Y-72385549D01*
X146565269Y-72405297D01*
X146524828Y-72426739D01*
X146485906Y-72449844D01*
X146448547Y-72474578D01*
X146412801Y-72500910D01*
X146378712Y-72528806D01*
X146346327Y-72558235D01*
X146315694Y-72589164D01*
X146286859Y-72621560D01*
X146259868Y-72655392D01*
X146234768Y-72690627D01*
X146211606Y-72727232D01*
X146190429Y-72765175D01*
X146171282Y-72804423D01*
X146154214Y-72844945D01*
X146139270Y-72886707D01*
X146126497Y-72929678D01*
X146115942Y-72973825D01*
X146107651Y-73019115D01*
X146101671Y-73065517D01*
X146098049Y-73112997D01*
X146096831Y-73161524D01*
X146097865Y-73209461D01*
X146101195Y-73257746D01*
X146107165Y-73306410D01*
X146116117Y-73355484D01*
X146128394Y-73405000D01*
X146144340Y-73454990D01*
X146164297Y-73505484D01*
X146188608Y-73556514D01*
X146217617Y-73608111D01*
X146251667Y-73660307D01*
X146291099Y-73713134D01*
X146336258Y-73766622D01*
X146387487Y-73820803D01*
X146445128Y-73875708D01*
X146509524Y-73931369D01*
X146581019Y-73987818D01*
X146581019Y-73998137D01*
X146025394Y-73998137D01*
X146025394Y-73998136D01*
X146007175Y-73948018D01*
X145990066Y-73897557D01*
X145974070Y-73846772D01*
X145959192Y-73795681D01*
X145945433Y-73744302D01*
X145932798Y-73692656D01*
X145921291Y-73640759D01*
X145910914Y-73588630D01*
X145901672Y-73536289D01*
X145893567Y-73483753D01*
X145886603Y-73431041D01*
X145880784Y-73378172D01*
X145876114Y-73325163D01*
X145872594Y-73272035D01*
X145870230Y-73218805D01*
X145869025Y-73165491D01*
X145870416Y-73099726D01*
X145874566Y-73034509D01*
X145881438Y-72969939D01*
X145890994Y-72906120D01*
X145903198Y-72843151D01*
X145918014Y-72781133D01*
X145935405Y-72720168D01*
X145955333Y-72660357D01*
X145977762Y-72601800D01*
X146002655Y-72544599D01*
X146029976Y-72488854D01*
X146059688Y-72434667D01*
X146091753Y-72382138D01*
X146126136Y-72331370D01*
X146162799Y-72282461D01*
X146201705Y-72235515D01*
X146242819Y-72190631D01*
X146286102Y-72147911D01*
X146331519Y-72107455D01*
X146379032Y-72069365D01*
X146428606Y-72033742D01*
X146480202Y-72000687D01*
X146533784Y-71970300D01*
X146589316Y-71942683D01*
X146646760Y-71917937D01*
X146706080Y-71896163D01*
X146767240Y-71877461D01*
X146830202Y-71861933D01*
X146894929Y-71849680D01*
X146961385Y-71840803D01*
X147029534Y-71835402D01*
X147099337Y-71833580D01*
X147130293Y-71833580D01*
X147202871Y-71835382D01*
G37*
G36*
X150479125Y-70762018D02*
G01*
X149685375Y-70762018D01*
X150479125Y-71407338D01*
X150479125Y-71622443D01*
X149393275Y-71622443D01*
X149393275Y-71441467D01*
X150107650Y-71441467D01*
X149393275Y-70861237D01*
X149393275Y-70581043D01*
X150479125Y-70581043D01*
X150479125Y-70762018D01*
G37*
G36*
X148181366Y-77956423D02*
G01*
X148225359Y-78067322D01*
X148267100Y-78182723D01*
X148304944Y-78300858D01*
X148321890Y-78360399D01*
X148337245Y-78419961D01*
X148350801Y-78479323D01*
X148362355Y-78538264D01*
X148371699Y-78596563D01*
X148378628Y-78653999D01*
X148382937Y-78710352D01*
X148384419Y-78765400D01*
X148383488Y-78819170D01*
X148380729Y-78871380D01*
X148376193Y-78922023D01*
X148369931Y-78971088D01*
X148361994Y-79018565D01*
X148352434Y-79064445D01*
X148341301Y-79108717D01*
X148328645Y-79151372D01*
X148314519Y-79192401D01*
X148298973Y-79231794D01*
X148282058Y-79269540D01*
X148263826Y-79305631D01*
X148244327Y-79340056D01*
X148223612Y-79372805D01*
X148201732Y-79403870D01*
X148178738Y-79433240D01*
X148154682Y-79460905D01*
X148129614Y-79486856D01*
X148103585Y-79511082D01*
X148076647Y-79533576D01*
X148048850Y-79554325D01*
X148020245Y-79573322D01*
X147990884Y-79590555D01*
X147960817Y-79606016D01*
X147930095Y-79619694D01*
X147898770Y-79631580D01*
X147866892Y-79641664D01*
X147834513Y-79649937D01*
X147801683Y-79656388D01*
X147768453Y-79661008D01*
X147734875Y-79663787D01*
X147701000Y-79664716D01*
X147679569Y-79664716D01*
X147638686Y-79663818D01*
X147599065Y-79661133D01*
X147560682Y-79656674D01*
X147523510Y-79650455D01*
X147487524Y-79642487D01*
X147452699Y-79632784D01*
X147419008Y-79621358D01*
X147386427Y-79608223D01*
X147354929Y-79593392D01*
X147324490Y-79576877D01*
X147295082Y-79558692D01*
X147266682Y-79538849D01*
X147239263Y-79517362D01*
X147212800Y-79494243D01*
X147187267Y-79469505D01*
X147162639Y-79443161D01*
X147115994Y-79385707D01*
X147072660Y-79321986D01*
X147032433Y-79252099D01*
X146995108Y-79176152D01*
X146960481Y-79094246D01*
X146928346Y-79006486D01*
X146898500Y-78912976D01*
X146870737Y-78813818D01*
X146853649Y-78752247D01*
X146836459Y-78693545D01*
X146818936Y-78637863D01*
X146800850Y-78585354D01*
X146781969Y-78536171D01*
X146762060Y-78490466D01*
X146751649Y-78468965D01*
X146740894Y-78448390D01*
X146729767Y-78428761D01*
X146718238Y-78410097D01*
X146706279Y-78392417D01*
X146693862Y-78375739D01*
X146680956Y-78360082D01*
X146667533Y-78345467D01*
X146653564Y-78331911D01*
X146639020Y-78319435D01*
X146623873Y-78308056D01*
X146608093Y-78297794D01*
X146591651Y-78288668D01*
X146574519Y-78280697D01*
X146556668Y-78273900D01*
X146538068Y-78268297D01*
X146518691Y-78263905D01*
X146498507Y-78260745D01*
X146477489Y-78258834D01*
X146455606Y-78258193D01*
X146438144Y-78258193D01*
X146410242Y-78259450D01*
X146381546Y-78263336D01*
X146352412Y-78270023D01*
X146323199Y-78279686D01*
X146294265Y-78292498D01*
X146265968Y-78308632D01*
X146252171Y-78317998D01*
X146238667Y-78328260D01*
X146225501Y-78339440D01*
X146212719Y-78351557D01*
X146200364Y-78364636D01*
X146188482Y-78378696D01*
X146177118Y-78393760D01*
X146166315Y-78409850D01*
X146156120Y-78426986D01*
X146146576Y-78445192D01*
X146137729Y-78464487D01*
X146129623Y-78484895D01*
X146122303Y-78506436D01*
X146115814Y-78529133D01*
X146110200Y-78553006D01*
X146105507Y-78578079D01*
X146101778Y-78604371D01*
X146099060Y-78631906D01*
X146097396Y-78660704D01*
X146096831Y-78690787D01*
X146097360Y-78717663D01*
X146098938Y-78744412D01*
X146101555Y-78771026D01*
X146105200Y-78797499D01*
X146109862Y-78823825D01*
X146115531Y-78849996D01*
X146122196Y-78876007D01*
X146129846Y-78901849D01*
X146138471Y-78927517D01*
X146148059Y-78953004D01*
X146170082Y-79003409D01*
X146195832Y-79053008D01*
X146225220Y-79101750D01*
X146258162Y-79149580D01*
X146294571Y-79196445D01*
X146334361Y-79242291D01*
X146377447Y-79287065D01*
X146423741Y-79330714D01*
X146473159Y-79373184D01*
X146525613Y-79414422D01*
X146581019Y-79454373D01*
X146581019Y-79464694D01*
X146025394Y-79464694D01*
X146007692Y-79418344D01*
X145991024Y-79371658D01*
X145975394Y-79324651D01*
X145960805Y-79277342D01*
X145947261Y-79229748D01*
X145934765Y-79181886D01*
X145923320Y-79133774D01*
X145912931Y-79085428D01*
X145903601Y-79036868D01*
X145895332Y-78988109D01*
X145888130Y-78939170D01*
X145881997Y-78890068D01*
X145876937Y-78840820D01*
X145872954Y-78791443D01*
X145870051Y-78741956D01*
X145868231Y-78692375D01*
X145869132Y-78646178D01*
X145871800Y-78601065D01*
X145876184Y-78557064D01*
X145882233Y-78514197D01*
X145889896Y-78472491D01*
X145899122Y-78431970D01*
X145909860Y-78392660D01*
X145922057Y-78354585D01*
X145935664Y-78317771D01*
X145950629Y-78282241D01*
X145966901Y-78248023D01*
X145984429Y-78215139D01*
X146003161Y-78183616D01*
X146023046Y-78153479D01*
X146044034Y-78124752D01*
X146066073Y-78097460D01*
X146089112Y-78071628D01*
X146113100Y-78047282D01*
X146137985Y-78024446D01*
X146163717Y-78003146D01*
X146190244Y-77983406D01*
X146217515Y-77965251D01*
X146245479Y-77948707D01*
X146274085Y-77933798D01*
X146303282Y-77920550D01*
X146333018Y-77908987D01*
X146363243Y-77899134D01*
X146393904Y-77891016D01*
X146424952Y-77884659D01*
X146456335Y-77880088D01*
X146488001Y-77877326D01*
X146519900Y-77876400D01*
X146544506Y-77876400D01*
X146577477Y-77877123D01*
X146609716Y-77879287D01*
X146641226Y-77882887D01*
X146672011Y-77887920D01*
X146702075Y-77894381D01*
X146731419Y-77902263D01*
X146760048Y-77911563D01*
X146787964Y-77922276D01*
X146815171Y-77934398D01*
X146841672Y-77947922D01*
X146867470Y-77962845D01*
X146892568Y-77979161D01*
X146916970Y-77996867D01*
X146940679Y-78015956D01*
X146963698Y-78036425D01*
X146986029Y-78058268D01*
X147028645Y-78106059D01*
X147068552Y-78159290D01*
X147105774Y-78217923D01*
X147140339Y-78281919D01*
X147172272Y-78351241D01*
X147201598Y-78425850D01*
X147228342Y-78505707D01*
X147252531Y-78590775D01*
X147271082Y-78660815D01*
X147290288Y-78728459D01*
X147310394Y-78793416D01*
X147331645Y-78855391D01*
X147354287Y-78914092D01*
X147378565Y-78969226D01*
X147391394Y-78995364D01*
X147404724Y-79020500D01*
X147418586Y-79044598D01*
X147433010Y-79067620D01*
X147448027Y-79089531D01*
X147463667Y-79110294D01*
X147479962Y-79129873D01*
X147496942Y-79148229D01*
X147514638Y-79165328D01*
X147533080Y-79181132D01*
X147552299Y-79195605D01*
X147572325Y-79208709D01*
X147593190Y-79220409D01*
X147614924Y-79230668D01*
X147637558Y-79239450D01*
X147661121Y-79246716D01*
X147685646Y-79252432D01*
X147711163Y-79256560D01*
X147737702Y-79259064D01*
X147765293Y-79259906D01*
X147782756Y-79259906D01*
X147820301Y-79257945D01*
X147838731Y-79255496D01*
X147856899Y-79252070D01*
X147874779Y-79247667D01*
X147892345Y-79242289D01*
X147909573Y-79235938D01*
X147926437Y-79228615D01*
X147942912Y-79220321D01*
X147958971Y-79211058D01*
X147974590Y-79200826D01*
X147989743Y-79189627D01*
X148004405Y-79177463D01*
X148018551Y-79164334D01*
X148032154Y-79150242D01*
X148045190Y-79135189D01*
X148057632Y-79119175D01*
X148069457Y-79102202D01*
X148080637Y-79084272D01*
X148091148Y-79065384D01*
X148100964Y-79045542D01*
X148110061Y-79024746D01*
X148118411Y-79002997D01*
X148125991Y-78980297D01*
X148132774Y-78956647D01*
X148138735Y-78932048D01*
X148143849Y-78906502D01*
X148148090Y-78880010D01*
X148151433Y-78852574D01*
X148153853Y-78824193D01*
X148155323Y-78794871D01*
X148155819Y-78764608D01*
X148155094Y-78732792D01*
X148152934Y-78701331D01*
X148149359Y-78670212D01*
X148144388Y-78639425D01*
X148138043Y-78608956D01*
X148130343Y-78578793D01*
X148121308Y-78548925D01*
X148110959Y-78519339D01*
X148099316Y-78490022D01*
X148086399Y-78460963D01*
X148056825Y-78403569D01*
X148022397Y-78347058D01*
X147983277Y-78291333D01*
X147939628Y-78236297D01*
X147891610Y-78181851D01*
X147839385Y-78127899D01*
X147783116Y-78074341D01*
X147722963Y-78021082D01*
X147659088Y-77968023D01*
X147591652Y-77915066D01*
X147520819Y-77862113D01*
X147520819Y-77851793D01*
X148136769Y-77851793D01*
X148181366Y-77956423D01*
G37*
G36*
X145303081Y-58281888D02*
G01*
X148230431Y-58281888D01*
X148428888Y-58288509D01*
X148624830Y-58308349D01*
X148817697Y-58341078D01*
X149006931Y-58386368D01*
X149191973Y-58443890D01*
X149372264Y-58513314D01*
X149547246Y-58594312D01*
X149716361Y-58686556D01*
X149879048Y-58789716D01*
X150034751Y-58903463D01*
X150182909Y-59027470D01*
X150322965Y-59161405D01*
X150454359Y-59304942D01*
X150479919Y-59336910D01*
X150576534Y-59457751D01*
X150688930Y-59619503D01*
X150790989Y-59789869D01*
X150791028Y-59789941D01*
X150791069Y-59790013D01*
X150820438Y-59843988D01*
X150899500Y-60005941D01*
X150968021Y-60171316D01*
X151026000Y-60339624D01*
X151073438Y-60510376D01*
X151110334Y-60683083D01*
X151136688Y-60857256D01*
X151152500Y-61032407D01*
X151157771Y-61208047D01*
X151152500Y-61383687D01*
X151136688Y-61558838D01*
X151110334Y-61733011D01*
X151073438Y-61905718D01*
X151026000Y-62076470D01*
X150968021Y-62244778D01*
X150899500Y-62410153D01*
X150820438Y-62572106D01*
X150791069Y-62626082D01*
X150741371Y-62712324D01*
X150689020Y-62796454D01*
X150634083Y-62878430D01*
X150576632Y-62958212D01*
X150516737Y-63035758D01*
X150454466Y-63111027D01*
X150389889Y-63183979D01*
X150323078Y-63254571D01*
X150254100Y-63322764D01*
X150183027Y-63388515D01*
X150109927Y-63451784D01*
X150034872Y-63512529D01*
X149957930Y-63570710D01*
X149879171Y-63626286D01*
X149798665Y-63679214D01*
X149716482Y-63729455D01*
X149632692Y-63776966D01*
X149547364Y-63821708D01*
X149460569Y-63863638D01*
X149372376Y-63902716D01*
X149282854Y-63938900D01*
X149192075Y-63972150D01*
X149100107Y-64002425D01*
X149007020Y-64029682D01*
X148912885Y-64053882D01*
X148817770Y-64074983D01*
X148721746Y-64092943D01*
X148624883Y-64107723D01*
X148527250Y-64119280D01*
X148428917Y-64127573D01*
X148329954Y-64132563D01*
X148230431Y-64134206D01*
X145002250Y-64134206D01*
X145002250Y-58582719D01*
X145303081Y-58582719D01*
X145303081Y-63838138D01*
X148230431Y-63838138D01*
X148350909Y-63835461D01*
X148470687Y-63827289D01*
X148589592Y-63813687D01*
X148707449Y-63794722D01*
X148824085Y-63770460D01*
X148939325Y-63740968D01*
X149052995Y-63706312D01*
X149164923Y-63666557D01*
X149274933Y-63621771D01*
X149382852Y-63572020D01*
X149488506Y-63517369D01*
X149591721Y-63457885D01*
X149692323Y-63393635D01*
X149790138Y-63324684D01*
X149884993Y-63251099D01*
X149976712Y-63172947D01*
X146790569Y-62510194D01*
X146541331Y-62698313D01*
X146438937Y-62698313D01*
X146438937Y-62024419D01*
X146891375Y-62024419D01*
X147099337Y-61869638D01*
X148535231Y-62161738D01*
X148535231Y-62465744D01*
X148741606Y-62507813D01*
X148741606Y-62496700D01*
X149190868Y-62496700D01*
X149395656Y-62342713D01*
X150479125Y-62564169D01*
X150495024Y-62537876D01*
X150510577Y-62511385D01*
X150525782Y-62484695D01*
X150540640Y-62457807D01*
X150555151Y-62430720D01*
X150569315Y-62403435D01*
X150583131Y-62375951D01*
X150596600Y-62348269D01*
X150596600Y-62347475D01*
X149702044Y-62045850D01*
X149702044Y-60372625D01*
X150596600Y-60069413D01*
X150583143Y-60041917D01*
X150569365Y-60014595D01*
X150555263Y-59987446D01*
X150540839Y-59960471D01*
X150526093Y-59933669D01*
X150511024Y-59907041D01*
X150495633Y-59880587D01*
X150479919Y-59854307D01*
X149395656Y-60075763D01*
X149190868Y-59921775D01*
X149190868Y-62496700D01*
X148741606Y-62496700D01*
X148741606Y-59909869D01*
X148535231Y-59951938D01*
X148535231Y-60255944D01*
X147097750Y-60548838D01*
X146891375Y-60393263D01*
X146891375Y-62024419D01*
X146438937Y-62024419D01*
X146438937Y-59720163D01*
X146541331Y-59720163D01*
X146790569Y-59908282D01*
X148741606Y-59503781D01*
X149975887Y-59247882D01*
X149884166Y-59169731D01*
X149789310Y-59096148D01*
X149691494Y-59027198D01*
X149590891Y-58962950D01*
X149487676Y-58903468D01*
X149382022Y-58848819D01*
X149274104Y-58799069D01*
X149164094Y-58754284D01*
X149052168Y-58714532D01*
X148938500Y-58679877D01*
X148823263Y-58650387D01*
X148706631Y-58626127D01*
X148588778Y-58607164D01*
X148469879Y-58593564D01*
X148350107Y-58585394D01*
X148229637Y-58582719D01*
X145303081Y-58582719D01*
X145002250Y-58582719D01*
X145002250Y-58281888D01*
X145303081Y-58281888D01*
G37*
G36*
X150479125Y-75963462D02*
G01*
X150025100Y-75963462D01*
X150025100Y-76251593D01*
X150479125Y-76538137D01*
X150479125Y-76855638D01*
X149986999Y-76524644D01*
X149985489Y-76541099D01*
X149983317Y-76557432D01*
X149980491Y-76573623D01*
X149977019Y-76589654D01*
X149972909Y-76605506D01*
X149968168Y-76621161D01*
X149962805Y-76636600D01*
X149956826Y-76651804D01*
X149950240Y-76666756D01*
X149943054Y-76681436D01*
X149935276Y-76695825D01*
X149926914Y-76709906D01*
X149917976Y-76723659D01*
X149908469Y-76737066D01*
X149898402Y-76750109D01*
X149887781Y-76762769D01*
X149879420Y-76771528D01*
X149870673Y-76779824D01*
X149861559Y-76787648D01*
X149852098Y-76794990D01*
X149842310Y-76801842D01*
X149832215Y-76808193D01*
X149821832Y-76814034D01*
X149811181Y-76819357D01*
X149800282Y-76824151D01*
X149789156Y-76828408D01*
X149777820Y-76832119D01*
X149766297Y-76835273D01*
X149754604Y-76837862D01*
X149742763Y-76839876D01*
X149730792Y-76841307D01*
X149718712Y-76842144D01*
X149704013Y-76842223D01*
X149689389Y-76841589D01*
X149674865Y-76840250D01*
X149660464Y-76838215D01*
X149646211Y-76835494D01*
X149632129Y-76832094D01*
X149618242Y-76828025D01*
X149604574Y-76823296D01*
X149591149Y-76817915D01*
X149577991Y-76811893D01*
X149565123Y-76805237D01*
X149552571Y-76797956D01*
X149540357Y-76790060D01*
X149528506Y-76781558D01*
X149517041Y-76772458D01*
X149505987Y-76762769D01*
X149491379Y-76746958D01*
X149477899Y-76730383D01*
X149465521Y-76712891D01*
X149454220Y-76694332D01*
X149443970Y-76674555D01*
X149434745Y-76653407D01*
X149426520Y-76630739D01*
X149419270Y-76606399D01*
X149412969Y-76580236D01*
X149407590Y-76552099D01*
X149403109Y-76521836D01*
X149399501Y-76489296D01*
X149396739Y-76454329D01*
X149394797Y-76416783D01*
X149393651Y-76376507D01*
X149393275Y-76333350D01*
X149393275Y-75965842D01*
X149539325Y-75965842D01*
X149539325Y-76294455D01*
X149539629Y-76322550D01*
X149540639Y-76349886D01*
X149542506Y-76376317D01*
X149545377Y-76401698D01*
X149547236Y-76413950D01*
X149549402Y-76425884D01*
X149551893Y-76437483D01*
X149554729Y-76448729D01*
X149557927Y-76459604D01*
X149561506Y-76470089D01*
X149565486Y-76480166D01*
X149569884Y-76489817D01*
X149574720Y-76499024D01*
X149580011Y-76507768D01*
X149585776Y-76516032D01*
X149592035Y-76523798D01*
X149598805Y-76531046D01*
X149606105Y-76537760D01*
X149613954Y-76543920D01*
X149622371Y-76549509D01*
X149631373Y-76554509D01*
X149640981Y-76558901D01*
X149651211Y-76562667D01*
X149662083Y-76565789D01*
X149673616Y-76568249D01*
X149685828Y-76570028D01*
X149698737Y-76571109D01*
X149712362Y-76571474D01*
X149722555Y-76571171D01*
X149732443Y-76570273D01*
X149742027Y-76568793D01*
X149751304Y-76566744D01*
X149760274Y-76564140D01*
X149768935Y-76560994D01*
X149777286Y-76557320D01*
X149785325Y-76553131D01*
X149793052Y-76548441D01*
X149800465Y-76543263D01*
X149807562Y-76537612D01*
X149814342Y-76531500D01*
X149820805Y-76524940D01*
X149826948Y-76517948D01*
X149832770Y-76510535D01*
X149838271Y-76502715D01*
X149848301Y-76485911D01*
X149857028Y-76467643D01*
X149864441Y-76448020D01*
X149870529Y-76427148D01*
X149875283Y-76405138D01*
X149878692Y-76382095D01*
X149880745Y-76358130D01*
X149881431Y-76333350D01*
X149881431Y-75965842D01*
X149539325Y-75965842D01*
X149393275Y-75965842D01*
X149393275Y-75714224D01*
X149539325Y-75713904D01*
X150479125Y-75711843D01*
X150479125Y-75963462D01*
G37*
G36*
X146558000Y-79953642D02*
G01*
X146129375Y-80260028D01*
X146129375Y-80852960D01*
X148123275Y-80852960D01*
X148336000Y-80614836D01*
X148346319Y-80614836D01*
X148346319Y-81514157D01*
X148336000Y-81514157D01*
X148123275Y-81274442D01*
X146130169Y-81274442D01*
X146130169Y-81870548D01*
X146558794Y-82173762D01*
X146558000Y-82177728D01*
X145906331Y-82177728D01*
X145906331Y-79943324D01*
X146558000Y-79943324D01*
X146558000Y-79953642D01*
G37*
G36*
X150479125Y-73293286D02*
G01*
X150479125Y-73457594D01*
X149393274Y-74029094D01*
X149393274Y-73819545D01*
X150183056Y-73436957D01*
X149393275Y-73040081D01*
X149393275Y-72751950D01*
X150479125Y-73293286D01*
G37*
G36*
X150479125Y-75295125D02*
G01*
X150320375Y-75295125D01*
X150320375Y-74580749D01*
X149990968Y-74580749D01*
X149990968Y-75004612D01*
X149836981Y-75004612D01*
X149836981Y-74580749D01*
X149552025Y-74580749D01*
X149552025Y-75253056D01*
X149393275Y-75253056D01*
X149393275Y-74329131D01*
X150479125Y-74329131D01*
X150479125Y-75295125D01*
G37*
G36*
X146129375Y-68972113D02*
G01*
X147252531Y-68972113D01*
X147329658Y-68973799D01*
X147403609Y-68978781D01*
X147474432Y-68986946D01*
X147542176Y-68998183D01*
X147606887Y-69012377D01*
X147668613Y-69029416D01*
X147727402Y-69049188D01*
X147783302Y-69071580D01*
X147836360Y-69096478D01*
X147886624Y-69123770D01*
X147934142Y-69153344D01*
X147978961Y-69185086D01*
X148021129Y-69218884D01*
X148060694Y-69254624D01*
X148097703Y-69292195D01*
X148132205Y-69331483D01*
X148164245Y-69372376D01*
X148193874Y-69414760D01*
X148221137Y-69458524D01*
X148246083Y-69503553D01*
X148268759Y-69549736D01*
X148289214Y-69596960D01*
X148307494Y-69645111D01*
X148323647Y-69694078D01*
X148349765Y-69794005D01*
X148367948Y-69895839D01*
X148378579Y-69998678D01*
X148382037Y-70101618D01*
X148377979Y-70200666D01*
X148365758Y-70298496D01*
X148345302Y-70394397D01*
X148331964Y-70441401D01*
X148316541Y-70487654D01*
X148299023Y-70533068D01*
X148279403Y-70577553D01*
X148257671Y-70621020D01*
X148233818Y-70663380D01*
X148207836Y-70704543D01*
X148179716Y-70744421D01*
X148149448Y-70782924D01*
X148117024Y-70819963D01*
X148082435Y-70855448D01*
X148045672Y-70889291D01*
X148006727Y-70921401D01*
X147965590Y-70951691D01*
X147922252Y-70980070D01*
X147876706Y-71006450D01*
X147828941Y-71030741D01*
X147778949Y-71052854D01*
X147726721Y-71072699D01*
X147672248Y-71090188D01*
X147615522Y-71105232D01*
X147556533Y-71117740D01*
X147495272Y-71127624D01*
X147431732Y-71134794D01*
X147365902Y-71139162D01*
X147297775Y-71140638D01*
X146129375Y-71140638D01*
X145916650Y-71385905D01*
X145906331Y-71385905D01*
X145906331Y-70639781D01*
X145916650Y-70639781D01*
X146129375Y-70883463D01*
X147328731Y-70883463D01*
X147380485Y-70882551D01*
X147430526Y-70879840D01*
X147478861Y-70875370D01*
X147525493Y-70869180D01*
X147570427Y-70861307D01*
X147613667Y-70851792D01*
X147655218Y-70840672D01*
X147695084Y-70827987D01*
X147733270Y-70813775D01*
X147769781Y-70798075D01*
X147804620Y-70780927D01*
X147837793Y-70762368D01*
X147869304Y-70742437D01*
X147899157Y-70721174D01*
X147927357Y-70698617D01*
X147953909Y-70674806D01*
X147978816Y-70649778D01*
X148002084Y-70623572D01*
X148023717Y-70596228D01*
X148043719Y-70567784D01*
X148062095Y-70538279D01*
X148078849Y-70507752D01*
X148093987Y-70476242D01*
X148107512Y-70443787D01*
X148119429Y-70410426D01*
X148129742Y-70376199D01*
X148138456Y-70341143D01*
X148145576Y-70305298D01*
X148151106Y-70268702D01*
X148155050Y-70231395D01*
X148157413Y-70193415D01*
X148158200Y-70154800D01*
X148157347Y-70114030D01*
X148154793Y-70074186D01*
X148150541Y-70035293D01*
X148144598Y-69997374D01*
X148136967Y-69960454D01*
X148127654Y-69924557D01*
X148116664Y-69889708D01*
X148104002Y-69855929D01*
X148089672Y-69823245D01*
X148073680Y-69791681D01*
X148056030Y-69761260D01*
X148036728Y-69732008D01*
X148015779Y-69703946D01*
X147993186Y-69677101D01*
X147968956Y-69651496D01*
X147943094Y-69627155D01*
X147915603Y-69604102D01*
X147886490Y-69582362D01*
X147855758Y-69561958D01*
X147823414Y-69542915D01*
X147789462Y-69525257D01*
X147753906Y-69509007D01*
X147716753Y-69494191D01*
X147678006Y-69480832D01*
X147637671Y-69468954D01*
X147595752Y-69458582D01*
X147552256Y-69449739D01*
X147507185Y-69442450D01*
X147460547Y-69436738D01*
X147412344Y-69432629D01*
X147362583Y-69430145D01*
X147311269Y-69429312D01*
X146129375Y-69429312D01*
X145916650Y-69662676D01*
X145906331Y-69662676D01*
X145906331Y-68728432D01*
X145916650Y-68728432D01*
X146129375Y-68972113D01*
G37*
G36*
X148533644Y-61951394D02*
G01*
X147407312Y-61722000D01*
X147407312Y-61514038D01*
X147407317Y-61513317D01*
X147407369Y-61512604D01*
X147407465Y-61511899D01*
X147407606Y-61511206D01*
X147407789Y-61510525D01*
X147408015Y-61509860D01*
X147408281Y-61509211D01*
X147408588Y-61508581D01*
X147408934Y-61507971D01*
X147409318Y-61507384D01*
X147409739Y-61506821D01*
X147410196Y-61506285D01*
X147410688Y-61505777D01*
X147411215Y-61505299D01*
X147411774Y-61504853D01*
X147412365Y-61504440D01*
X147412982Y-61504067D01*
X147413617Y-61503737D01*
X147414267Y-61503451D01*
X147414931Y-61503207D01*
X147415607Y-61503007D01*
X147416292Y-61502851D01*
X147416985Y-61502738D01*
X147417682Y-61502670D01*
X147418383Y-61502645D01*
X147419084Y-61502665D01*
X147419784Y-61502729D01*
X147420480Y-61502837D01*
X147421171Y-61502990D01*
X147421854Y-61503188D01*
X147422526Y-61503431D01*
X147423187Y-61503719D01*
X147431412Y-61507378D01*
X147439735Y-61510789D01*
X147448153Y-61513950D01*
X147456659Y-61516859D01*
X147465247Y-61519515D01*
X147473912Y-61521916D01*
X147482648Y-61524059D01*
X147491450Y-61525944D01*
X147500581Y-61526285D01*
X147512410Y-61527184D01*
X147540067Y-61529913D01*
X147566236Y-61532641D01*
X147576205Y-61533540D01*
X147582731Y-61533881D01*
X147612720Y-61534620D01*
X147642496Y-61536865D01*
X147672009Y-61540592D01*
X147701206Y-61545781D01*
X147730036Y-61552409D01*
X147758447Y-61560455D01*
X147786388Y-61569897D01*
X147813808Y-61580713D01*
X147840654Y-61592882D01*
X147866876Y-61606380D01*
X147892422Y-61621187D01*
X147917240Y-61637281D01*
X147941278Y-61654640D01*
X147964486Y-61673241D01*
X147986812Y-61693064D01*
X148008204Y-61714086D01*
X148010499Y-61716389D01*
X148012898Y-61718561D01*
X148015396Y-61720601D01*
X148017987Y-61722506D01*
X148020664Y-61724273D01*
X148023423Y-61725900D01*
X148026257Y-61727384D01*
X148029162Y-61728723D01*
X148032130Y-61729914D01*
X148035157Y-61730955D01*
X148038236Y-61731843D01*
X148041362Y-61732576D01*
X148044529Y-61733152D01*
X148047731Y-61733567D01*
X148050963Y-61733819D01*
X148054219Y-61733906D01*
X148201856Y-61733906D01*
X148209238Y-61733215D01*
X148216497Y-61731162D01*
X148223625Y-61727783D01*
X148230614Y-61723113D01*
X148237459Y-61717186D01*
X148244150Y-61710037D01*
X148250682Y-61701700D01*
X148257047Y-61692210D01*
X148263237Y-61681601D01*
X148269246Y-61669908D01*
X148275065Y-61657166D01*
X148280689Y-61643410D01*
X148286109Y-61628673D01*
X148291318Y-61612990D01*
X148301075Y-61578927D01*
X148309902Y-61541496D01*
X148317741Y-61500975D01*
X148324533Y-61457640D01*
X148330221Y-61411768D01*
X148334746Y-61363636D01*
X148338050Y-61313520D01*
X148340075Y-61261697D01*
X148340763Y-61208444D01*
X148340049Y-61155191D01*
X148337952Y-61103368D01*
X148334542Y-61053252D01*
X148329886Y-61005120D01*
X148324054Y-60959248D01*
X148317113Y-60915913D01*
X148309133Y-60875392D01*
X148300182Y-60837961D01*
X148290329Y-60803898D01*
X148279642Y-60773478D01*
X148268191Y-60746980D01*
X148256042Y-60724678D01*
X148243266Y-60706851D01*
X148229931Y-60693775D01*
X148223075Y-60689105D01*
X148216105Y-60685726D01*
X148209029Y-60683673D01*
X148201856Y-60682981D01*
X148055012Y-60682981D01*
X148053199Y-60683051D01*
X148051391Y-60683172D01*
X148049589Y-60683344D01*
X148047794Y-60683567D01*
X148046009Y-60683841D01*
X148044232Y-60684165D01*
X148042467Y-60684540D01*
X148040713Y-60684964D01*
X148038972Y-60685438D01*
X148037245Y-60685962D01*
X148035532Y-60686535D01*
X148033836Y-60687156D01*
X148032156Y-60687826D01*
X148030495Y-60688545D01*
X148028853Y-60689311D01*
X148027231Y-60690125D01*
X148022297Y-60694580D01*
X148017330Y-60699923D01*
X148012348Y-60706175D01*
X148007369Y-60713361D01*
X148002410Y-60721503D01*
X147997491Y-60730623D01*
X147992629Y-60740744D01*
X147987841Y-60751889D01*
X147983147Y-60764080D01*
X147978564Y-60777341D01*
X147969802Y-60807160D01*
X147961701Y-60841528D01*
X147954405Y-60880625D01*
X147948057Y-60924634D01*
X147942802Y-60973736D01*
X147938785Y-61028112D01*
X147936148Y-61087943D01*
X147935037Y-61153411D01*
X147935596Y-61224697D01*
X147937969Y-61301983D01*
X147942300Y-61385450D01*
X147939914Y-61383943D01*
X147937052Y-61381662D01*
X147935239Y-61380023D01*
X147933184Y-61378009D01*
X147930898Y-61375585D01*
X147928391Y-61372718D01*
X147925672Y-61369376D01*
X147922752Y-61365526D01*
X147919641Y-61361133D01*
X147916349Y-61356166D01*
X147912885Y-61350590D01*
X147909260Y-61344374D01*
X147905484Y-61337482D01*
X147901567Y-61329884D01*
X147897519Y-61321545D01*
X147893349Y-61312431D01*
X147889069Y-61302511D01*
X147884688Y-61291751D01*
X147880215Y-61280118D01*
X147875662Y-61267578D01*
X147871038Y-61254099D01*
X147866353Y-61239648D01*
X147861617Y-61224190D01*
X147856840Y-61207694D01*
X147852032Y-61190125D01*
X147847204Y-61171452D01*
X147842365Y-61151640D01*
X147837525Y-61130657D01*
X147835255Y-61117561D01*
X147832417Y-61104691D01*
X147829024Y-61092058D01*
X147825091Y-61079676D01*
X147820631Y-61067557D01*
X147815660Y-61055713D01*
X147810192Y-61044155D01*
X147804240Y-61032898D01*
X147797819Y-61021952D01*
X147790942Y-61011330D01*
X147783626Y-61001045D01*
X147775882Y-60991108D01*
X147767727Y-60981533D01*
X147759173Y-60972331D01*
X147750236Y-60963515D01*
X147740929Y-60955097D01*
X147731267Y-60947089D01*
X147721264Y-60939504D01*
X147710933Y-60932354D01*
X147700290Y-60925651D01*
X147689349Y-60919408D01*
X147678123Y-60913637D01*
X147666627Y-60908350D01*
X147654876Y-60903560D01*
X147642883Y-60899279D01*
X147630662Y-60895519D01*
X147618229Y-60892292D01*
X147605596Y-60889612D01*
X147592779Y-60887489D01*
X147579792Y-60885937D01*
X147566648Y-60884968D01*
X147553362Y-60884594D01*
X147545775Y-60884671D01*
X147538194Y-60884924D01*
X147530624Y-60885355D01*
X147523067Y-60885962D01*
X147515527Y-60886746D01*
X147508005Y-60887705D01*
X147500507Y-60888840D01*
X147493034Y-60890151D01*
X147484233Y-60892036D01*
X147475498Y-60894179D01*
X147466834Y-60896580D01*
X147458246Y-60899236D01*
X147449740Y-60902145D01*
X147441323Y-60905306D01*
X147432999Y-60908717D01*
X147424775Y-60912375D01*
X147424114Y-60912663D01*
X147423441Y-60912906D01*
X147422758Y-60913104D01*
X147422068Y-60913257D01*
X147421371Y-60913366D01*
X147420671Y-60913429D01*
X147419970Y-60913449D01*
X147419270Y-60913425D01*
X147418572Y-60913356D01*
X147417880Y-60913243D01*
X147417194Y-60913087D01*
X147416519Y-60912887D01*
X147415854Y-60912644D01*
X147415204Y-60912357D01*
X147414569Y-60912027D01*
X147413952Y-60911654D01*
X147413653Y-60911452D01*
X147413361Y-60911242D01*
X147413078Y-60911023D01*
X147412802Y-60910796D01*
X147412276Y-60910318D01*
X147411784Y-60909809D01*
X147411327Y-60909273D01*
X147410906Y-60908710D01*
X147410522Y-60908123D01*
X147410176Y-60907513D01*
X147409869Y-60906883D01*
X147409602Y-60906234D01*
X147409376Y-60905569D01*
X147409193Y-60904888D01*
X147409052Y-60904195D01*
X147408956Y-60903490D01*
X147408925Y-60903135D01*
X147408905Y-60902777D01*
X147408896Y-60902417D01*
X147408900Y-60902056D01*
X147408900Y-60695682D01*
X148533644Y-60466288D01*
X148533644Y-61951394D01*
G37*
G36*
X146129375Y-74940319D02*
G01*
X147252531Y-74940319D01*
X147329658Y-74942005D01*
X147403609Y-74946987D01*
X147474432Y-74955152D01*
X147542176Y-74966389D01*
X147606887Y-74980583D01*
X147668613Y-74997622D01*
X147727402Y-75017394D01*
X147783302Y-75039786D01*
X147836360Y-75064684D01*
X147886624Y-75091976D01*
X147934142Y-75121550D01*
X147978961Y-75153292D01*
X148021129Y-75187090D01*
X148060694Y-75222830D01*
X148097703Y-75260401D01*
X148132205Y-75299689D01*
X148164245Y-75340582D01*
X148193874Y-75382966D01*
X148221137Y-75426730D01*
X148246083Y-75471759D01*
X148268759Y-75517942D01*
X148289214Y-75565166D01*
X148307494Y-75613318D01*
X148323647Y-75662284D01*
X148349765Y-75762212D01*
X148367948Y-75864046D01*
X148378579Y-75966884D01*
X148382037Y-76069826D01*
X148377979Y-76168872D01*
X148365758Y-76266703D01*
X148345302Y-76362604D01*
X148331964Y-76409607D01*
X148316541Y-76455860D01*
X148299023Y-76501274D01*
X148279403Y-76545759D01*
X148257671Y-76589226D01*
X148233818Y-76631586D01*
X148207836Y-76672750D01*
X148179716Y-76712627D01*
X148149448Y-76751130D01*
X148117024Y-76788169D01*
X148082435Y-76823654D01*
X148045672Y-76857497D01*
X148006727Y-76889607D01*
X147965590Y-76919897D01*
X147922252Y-76948276D01*
X147876706Y-76974656D01*
X147828941Y-76998947D01*
X147778949Y-77021060D01*
X147726721Y-77040906D01*
X147672248Y-77058395D01*
X147615522Y-77073438D01*
X147556533Y-77085946D01*
X147495272Y-77095830D01*
X147431732Y-77103000D01*
X147365902Y-77107368D01*
X147297775Y-77108844D01*
X146129375Y-77108844D01*
X145916650Y-77354112D01*
X145906331Y-77354112D01*
X145906331Y-76607987D01*
X145916650Y-76607987D01*
X146129375Y-76851669D01*
X147328731Y-76851669D01*
X147380485Y-76850757D01*
X147430526Y-76848046D01*
X147478861Y-76843576D01*
X147525493Y-76837386D01*
X147570427Y-76829513D01*
X147613667Y-76819998D01*
X147655218Y-76808878D01*
X147695084Y-76796193D01*
X147733270Y-76781981D01*
X147769781Y-76766281D01*
X147804620Y-76749133D01*
X147837793Y-76730574D01*
X147869304Y-76710643D01*
X147899157Y-76689380D01*
X147927357Y-76666823D01*
X147953909Y-76643012D01*
X147978816Y-76617984D01*
X148002084Y-76591778D01*
X148023717Y-76564434D01*
X148043719Y-76535990D01*
X148062095Y-76506485D01*
X148078849Y-76475958D01*
X148093987Y-76444448D01*
X148107512Y-76411993D01*
X148119429Y-76378632D01*
X148129742Y-76344405D01*
X148138456Y-76309349D01*
X148145576Y-76273504D01*
X148151106Y-76236908D01*
X148155050Y-76199601D01*
X148157413Y-76161621D01*
X148158200Y-76123006D01*
X148157347Y-76082236D01*
X148154793Y-76042392D01*
X148150541Y-76003499D01*
X148144598Y-75965580D01*
X148136967Y-75928660D01*
X148127654Y-75892763D01*
X148116664Y-75857914D01*
X148104002Y-75824135D01*
X148089672Y-75791451D01*
X148073680Y-75759887D01*
X148056030Y-75729466D01*
X148036728Y-75700214D01*
X148015779Y-75672152D01*
X147993186Y-75645307D01*
X147968956Y-75619702D01*
X147943094Y-75595361D01*
X147915603Y-75572308D01*
X147886490Y-75550568D01*
X147855758Y-75530164D01*
X147823414Y-75511121D01*
X147789462Y-75493463D01*
X147753906Y-75477213D01*
X147716753Y-75462397D01*
X147678006Y-75449038D01*
X147637671Y-75437160D01*
X147595752Y-75426788D01*
X147552256Y-75417945D01*
X147507185Y-75410656D01*
X147460547Y-75404944D01*
X147412344Y-75400835D01*
X147362583Y-75398351D01*
X147311269Y-75397518D01*
X146129375Y-75397518D01*
X145916650Y-75630882D01*
X145906331Y-75630882D01*
X145906331Y-74696638D01*
X145916650Y-74696638D01*
X146129375Y-74940319D01*
G37*
G36*
X150047325Y-81004567D02*
G01*
X150479125Y-81004567D01*
X150479125Y-81254600D01*
X150047325Y-81254600D01*
X149393275Y-81754661D01*
X149393275Y-81528443D01*
X149890956Y-81181575D01*
X149393275Y-80824387D01*
X149393275Y-80516413D01*
X150047325Y-81004567D01*
G37*
D11*
X150791069Y-59791600D02*
X150820438Y-59844782D01*
X150791069Y-62626875D02*
X150820438Y-62573694D01*
M02*
