M48
; DRILL file {KiCad 7.0.2-0} date 2024 January 04, Thursday 15:37:57
; FORMAT={-:-/ absolute / inch / decimal}
; #@! TF.CreationDate,2024-01-04T15:37:57-05:00
; #@! TF.GenerationSoftware,Kicad,Pcbnew,7.0.2-0
; #@! TF.FileFunction,MixedPlating,1,2
FMAT,2
INCH
; #@! TA.AperFunction,Plated,PTH,ViaDrill
T1C0.0157
; #@! TA.AperFunction,Plated,PTH,ComponentDrill
T2C0.0295
; #@! TA.AperFunction,Plated,PTH,ComponentDrill
T3C0.0374
; #@! TA.AperFunction,Plated,PTH,ComponentDrill
T4C0.0394
; #@! TA.AperFunction,Plated,PTH,ComponentDrill
T5C0.0866
%
G90
G05
T1
X5.82Y-3.544
X5.886Y-2.922
X5.9Y-4.134
X6.088Y-4.018
X6.162Y-3.796
T2
X5.4905Y-2.6699
X5.4905Y-2.7486
X5.4905Y-2.8274
X5.4905Y-2.9061
X6.1295Y-2.67
X6.1295Y-2.7487
X6.1295Y-2.8275
X6.1295Y-2.9062
T3
X5.695Y-3.3
X5.695Y-3.4
X5.695Y-3.5
X5.695Y-3.6
X5.695Y-3.7
X5.695Y-3.8
X5.695Y-3.9
X5.695Y-4.0
X5.995Y-3.3
X5.995Y-3.4
X5.995Y-3.5
X5.995Y-3.6
X5.995Y-3.7
X5.995Y-3.8
X5.995Y-3.9
X5.995Y-4.0
T4
X5.39Y-3.31
X5.39Y-3.41
X5.39Y-3.51
X5.39Y-3.61
X5.39Y-3.71
X5.39Y-3.81
X5.39Y-3.91
X5.39Y-4.01
X5.39Y-4.11
X5.39Y-4.21
X5.39Y-4.31
X5.39Y-4.41
X5.39Y-4.51
X5.39Y-4.61
X6.28Y-3.31
X6.28Y-3.41
X6.28Y-3.51
X6.28Y-3.61
X6.28Y-3.71
X6.28Y-3.81
X6.28Y-3.91
X6.28Y-4.01
X6.28Y-4.11
X6.28Y-4.21
X6.28Y-4.31
X6.28Y-4.41
X6.28Y-4.51
X6.28Y-4.61
T5
X5.315Y-2.365
X5.315Y-4.776
X6.305Y-2.365
X6.305Y-4.776
T0
M30
