%TF.GenerationSoftware,KiCad,Pcbnew,7.0.2-0*%
%TF.CreationDate,2024-01-04T15:38:00-05:00*%
%TF.ProjectId,Turbidity_v12,54757262-6964-4697-9479-5f7631322e6b,12*%
%TF.SameCoordinates,Original*%
%TF.FileFunction,Other,User*%
%FSLAX46Y46*%
G04 Gerber Fmt 4.6, Leading zero omitted, Abs format (unit mm)*
G04 Created by KiCad (PCBNEW 7.0.2-0) date 2024-01-04 15:38:00*
%MOMM*%
%LPD*%
G01*
G04 APERTURE LIST*
%ADD10C,0.050000*%
G04 APERTURE END LIST*
D10*
%TO.C,R1*%
X150467900Y-109032000D02*
X153827900Y-109032000D01*
X150467900Y-110932000D02*
X150467900Y-109032000D01*
X153827900Y-109032000D02*
X153827900Y-110932000D01*
X153827900Y-110932000D02*
X150467900Y-110932000D01*
%TO.C,REF\u002A\u002A*%
X137151000Y-121310400D02*
G75*
G03*
X137151000Y-121310400I-2150000J0D01*
G01*
%TO.C,IC1*%
X143213000Y-82200000D02*
X153713000Y-82200000D01*
X143213000Y-103220000D02*
X143213000Y-82200000D01*
X153713000Y-82200000D02*
X153713000Y-103220000D01*
X153713000Y-103220000D02*
X143213000Y-103220000D01*
%TO.C,J4*%
X157712000Y-82274000D02*
X161262000Y-82274000D01*
X157712000Y-118874000D02*
X157712000Y-82274000D01*
X161262000Y-82274000D02*
X161262000Y-118874000D01*
X161262000Y-118874000D02*
X157712000Y-118874000D01*
%TO.C,REF\u002A\u002A*%
X162297000Y-60071000D02*
G75*
G03*
X162297000Y-60071000I-2150000J0D01*
G01*
%TO.C,J3*%
X141307600Y-65365200D02*
X132707600Y-65365200D01*
X132707600Y-65365200D02*
X132707600Y-76265200D01*
X141307600Y-76265200D02*
X141307600Y-65365200D01*
X132707600Y-76265200D02*
X141307600Y-76265200D01*
%TO.C,REF\u002A\u002A*%
X137151000Y-60071000D02*
G75*
G03*
X137151000Y-60071000I-2150000J0D01*
G01*
%TO.C,J2*%
X153840400Y-76268000D02*
X162440400Y-76268000D01*
X162440400Y-76268000D02*
X162440400Y-65368000D01*
X153840400Y-65368000D02*
X153840400Y-76268000D01*
X162440400Y-65368000D02*
X153840400Y-65368000D01*
%TO.C,R2*%
X153824100Y-107630000D02*
X150464100Y-107630000D01*
X153824100Y-105730000D02*
X153824100Y-107630000D01*
X150464100Y-107630000D02*
X150464100Y-105730000D01*
X150464100Y-105730000D02*
X153824100Y-105730000D01*
%TO.C,J5*%
X135106000Y-82274000D02*
X138656000Y-82274000D01*
X135106000Y-118874000D02*
X135106000Y-82274000D01*
X138656000Y-82274000D02*
X138656000Y-118874000D01*
X138656000Y-118874000D02*
X135106000Y-118874000D01*
%TO.C,REF\u002A\u002A*%
X162297000Y-121310400D02*
G75*
G03*
X162297000Y-121310400I-2150000J0D01*
G01*
%TD*%
M02*
