%TF.GenerationSoftware,KiCad,Pcbnew,7.0.2-0*%
%TF.CreationDate,2024-01-11T17:10:38-05:00*%
%TF.ProjectId,SolarCharger_v2,536f6c61-7243-4686-9172-6765725f7632,2*%
%TF.SameCoordinates,Original*%
%TF.FileFunction,Copper,L2,Bot*%
%TF.FilePolarity,Positive*%
%FSLAX46Y46*%
G04 Gerber Fmt 4.6, Leading zero omitted, Abs format (unit mm)*
G04 Created by KiCad (PCBNEW 7.0.2-0) date 2024-01-11 17:10:38*
%MOMM*%
%LPD*%
G01*
G04 APERTURE LIST*
%TA.AperFunction,ComponentPad*%
%ADD10C,3.000000*%
%TD*%
%TA.AperFunction,ViaPad*%
%ADD11C,0.800000*%
%TD*%
%TA.AperFunction,Conductor*%
%ADD12C,0.250000*%
%TD*%
G04 APERTURE END LIST*
D10*
%TO.P,J1,1,1*%
%TO.N,Net-(IC1-IN)*%
X151547600Y-66828125D03*
%TO.P,J1,2,2*%
%TO.N,Net-(D1-K)*%
X151547600Y-72828125D03*
%TO.P,J1,3,3*%
%TO.N,unconnected-(J1-Pad3)*%
X156247600Y-69828125D03*
%TD*%
D11*
%TO.N,Net-(D1-K)*%
X162864800Y-69697600D03*
X160197800Y-68910200D03*
%TO.N,Net-(IC1-OUT_1)*%
X162407600Y-78435200D03*
X165150800Y-74574400D03*
%TO.N,Net-(IC1-BAT_1)*%
X158242000Y-74523600D03*
X166573200Y-79806800D03*
%TO.N,Net-(IC1-~{PGOOD})*%
X163576000Y-76149200D03*
X163982400Y-73152000D03*
%TO.N,Net-(IC1-~{CHG})*%
X165608000Y-78536800D03*
X164236400Y-75285600D03*
%TD*%
D12*
%TO.N,Net-(D1-K)*%
X162864800Y-69697600D02*
X160985200Y-69697600D01*
X160985200Y-69697600D02*
X160197800Y-68910200D01*
%TO.N,Net-(IC1-OUT_1)*%
X165150800Y-74574400D02*
X165150800Y-75692000D01*
X165150800Y-75692000D02*
X162407600Y-78435200D01*
%TO.N,Net-(IC1-BAT_1)*%
X166573200Y-79806800D02*
X160629600Y-79806800D01*
X160629600Y-79806800D02*
X158242000Y-77419200D01*
X158242000Y-77419200D02*
X158242000Y-74523600D01*
%TO.N,Net-(IC1-~{PGOOD})*%
X163511400Y-73623000D02*
X163982400Y-73152000D01*
X163511400Y-76084600D02*
X163511400Y-73623000D01*
X163576000Y-76149200D02*
X163511400Y-76084600D01*
%TO.N,Net-(IC1-~{CHG})*%
X165912800Y-74311095D02*
X165912800Y-78232000D01*
X164236400Y-74463495D02*
X164850495Y-73849400D01*
X165451105Y-73849400D02*
X165912800Y-74311095D01*
X164236400Y-75285600D02*
X164236400Y-74463495D01*
X165912800Y-78232000D02*
X165608000Y-78536800D01*
X164850495Y-73849400D02*
X165451105Y-73849400D01*
%TD*%
M02*
