%TF.GenerationSoftware,KiCad,Pcbnew,7.0.2-0*%
%TF.CreationDate,2024-01-11T17:10:39-05:00*%
%TF.ProjectId,SolarCharger_v2,536f6c61-7243-4686-9172-6765725f7632,2*%
%TF.SameCoordinates,Original*%
%TF.FileFunction,Legend,Top*%
%TF.FilePolarity,Positive*%
%FSLAX46Y46*%
G04 Gerber Fmt 4.6, Leading zero omitted, Abs format (unit mm)*
G04 Created by KiCad (PCBNEW 7.0.2-0) date 2024-01-11 17:10:39*
%MOMM*%
%LPD*%
G01*
G04 APERTURE LIST*
%ADD10C,0.100000*%
%ADD11C,0.150000*%
%ADD12C,0.120000*%
%ADD13C,0.200000*%
%ADD14C,0.250000*%
G04 APERTURE END LIST*
D10*
X146811980Y-82591200D02*
X146926266Y-82629295D01*
X146926266Y-82629295D02*
X147116742Y-82629295D01*
X147116742Y-82629295D02*
X147192933Y-82591200D01*
X147192933Y-82591200D02*
X147231028Y-82553104D01*
X147231028Y-82553104D02*
X147269123Y-82476914D01*
X147269123Y-82476914D02*
X147269123Y-82400723D01*
X147269123Y-82400723D02*
X147231028Y-82324533D01*
X147231028Y-82324533D02*
X147192933Y-82286438D01*
X147192933Y-82286438D02*
X147116742Y-82248342D01*
X147116742Y-82248342D02*
X146964361Y-82210247D01*
X146964361Y-82210247D02*
X146888171Y-82172152D01*
X146888171Y-82172152D02*
X146850076Y-82134057D01*
X146850076Y-82134057D02*
X146811980Y-82057866D01*
X146811980Y-82057866D02*
X146811980Y-81981676D01*
X146811980Y-81981676D02*
X146850076Y-81905485D01*
X146850076Y-81905485D02*
X146888171Y-81867390D01*
X146888171Y-81867390D02*
X146964361Y-81829295D01*
X146964361Y-81829295D02*
X147154838Y-81829295D01*
X147154838Y-81829295D02*
X147269123Y-81867390D01*
X147726266Y-82629295D02*
X147650076Y-82591200D01*
X147650076Y-82591200D02*
X147611981Y-82553104D01*
X147611981Y-82553104D02*
X147573885Y-82476914D01*
X147573885Y-82476914D02*
X147573885Y-82248342D01*
X147573885Y-82248342D02*
X147611981Y-82172152D01*
X147611981Y-82172152D02*
X147650076Y-82134057D01*
X147650076Y-82134057D02*
X147726266Y-82095961D01*
X147726266Y-82095961D02*
X147840552Y-82095961D01*
X147840552Y-82095961D02*
X147916743Y-82134057D01*
X147916743Y-82134057D02*
X147954838Y-82172152D01*
X147954838Y-82172152D02*
X147992933Y-82248342D01*
X147992933Y-82248342D02*
X147992933Y-82476914D01*
X147992933Y-82476914D02*
X147954838Y-82553104D01*
X147954838Y-82553104D02*
X147916743Y-82591200D01*
X147916743Y-82591200D02*
X147840552Y-82629295D01*
X147840552Y-82629295D02*
X147726266Y-82629295D01*
X148450076Y-82629295D02*
X148373886Y-82591200D01*
X148373886Y-82591200D02*
X148335791Y-82515009D01*
X148335791Y-82515009D02*
X148335791Y-81829295D01*
X149097696Y-82629295D02*
X149097696Y-82210247D01*
X149097696Y-82210247D02*
X149059601Y-82134057D01*
X149059601Y-82134057D02*
X148983410Y-82095961D01*
X148983410Y-82095961D02*
X148831029Y-82095961D01*
X148831029Y-82095961D02*
X148754839Y-82134057D01*
X149097696Y-82591200D02*
X149021505Y-82629295D01*
X149021505Y-82629295D02*
X148831029Y-82629295D01*
X148831029Y-82629295D02*
X148754839Y-82591200D01*
X148754839Y-82591200D02*
X148716743Y-82515009D01*
X148716743Y-82515009D02*
X148716743Y-82438819D01*
X148716743Y-82438819D02*
X148754839Y-82362628D01*
X148754839Y-82362628D02*
X148831029Y-82324533D01*
X148831029Y-82324533D02*
X149021505Y-82324533D01*
X149021505Y-82324533D02*
X149097696Y-82286438D01*
X149478649Y-82629295D02*
X149478649Y-82095961D01*
X149478649Y-82248342D02*
X149516744Y-82172152D01*
X149516744Y-82172152D02*
X149554839Y-82134057D01*
X149554839Y-82134057D02*
X149631030Y-82095961D01*
X149631030Y-82095961D02*
X149707220Y-82095961D01*
X151040554Y-82553104D02*
X151002458Y-82591200D01*
X151002458Y-82591200D02*
X150888173Y-82629295D01*
X150888173Y-82629295D02*
X150811982Y-82629295D01*
X150811982Y-82629295D02*
X150697696Y-82591200D01*
X150697696Y-82591200D02*
X150621506Y-82515009D01*
X150621506Y-82515009D02*
X150583411Y-82438819D01*
X150583411Y-82438819D02*
X150545315Y-82286438D01*
X150545315Y-82286438D02*
X150545315Y-82172152D01*
X150545315Y-82172152D02*
X150583411Y-82019771D01*
X150583411Y-82019771D02*
X150621506Y-81943580D01*
X150621506Y-81943580D02*
X150697696Y-81867390D01*
X150697696Y-81867390D02*
X150811982Y-81829295D01*
X150811982Y-81829295D02*
X150888173Y-81829295D01*
X150888173Y-81829295D02*
X151002458Y-81867390D01*
X151002458Y-81867390D02*
X151040554Y-81905485D01*
X151383411Y-82629295D02*
X151383411Y-81829295D01*
X151726268Y-82629295D02*
X151726268Y-82210247D01*
X151726268Y-82210247D02*
X151688173Y-82134057D01*
X151688173Y-82134057D02*
X151611982Y-82095961D01*
X151611982Y-82095961D02*
X151497696Y-82095961D01*
X151497696Y-82095961D02*
X151421506Y-82134057D01*
X151421506Y-82134057D02*
X151383411Y-82172152D01*
X152450078Y-82629295D02*
X152450078Y-82210247D01*
X152450078Y-82210247D02*
X152411983Y-82134057D01*
X152411983Y-82134057D02*
X152335792Y-82095961D01*
X152335792Y-82095961D02*
X152183411Y-82095961D01*
X152183411Y-82095961D02*
X152107221Y-82134057D01*
X152450078Y-82591200D02*
X152373887Y-82629295D01*
X152373887Y-82629295D02*
X152183411Y-82629295D01*
X152183411Y-82629295D02*
X152107221Y-82591200D01*
X152107221Y-82591200D02*
X152069125Y-82515009D01*
X152069125Y-82515009D02*
X152069125Y-82438819D01*
X152069125Y-82438819D02*
X152107221Y-82362628D01*
X152107221Y-82362628D02*
X152183411Y-82324533D01*
X152183411Y-82324533D02*
X152373887Y-82324533D01*
X152373887Y-82324533D02*
X152450078Y-82286438D01*
X152831031Y-82629295D02*
X152831031Y-82095961D01*
X152831031Y-82248342D02*
X152869126Y-82172152D01*
X152869126Y-82172152D02*
X152907221Y-82134057D01*
X152907221Y-82134057D02*
X152983412Y-82095961D01*
X152983412Y-82095961D02*
X153059602Y-82095961D01*
X153669126Y-82095961D02*
X153669126Y-82743580D01*
X153669126Y-82743580D02*
X153631031Y-82819771D01*
X153631031Y-82819771D02*
X153592935Y-82857866D01*
X153592935Y-82857866D02*
X153516745Y-82895961D01*
X153516745Y-82895961D02*
X153402459Y-82895961D01*
X153402459Y-82895961D02*
X153326269Y-82857866D01*
X153669126Y-82591200D02*
X153592935Y-82629295D01*
X153592935Y-82629295D02*
X153440554Y-82629295D01*
X153440554Y-82629295D02*
X153364364Y-82591200D01*
X153364364Y-82591200D02*
X153326269Y-82553104D01*
X153326269Y-82553104D02*
X153288173Y-82476914D01*
X153288173Y-82476914D02*
X153288173Y-82248342D01*
X153288173Y-82248342D02*
X153326269Y-82172152D01*
X153326269Y-82172152D02*
X153364364Y-82134057D01*
X153364364Y-82134057D02*
X153440554Y-82095961D01*
X153440554Y-82095961D02*
X153592935Y-82095961D01*
X153592935Y-82095961D02*
X153669126Y-82134057D01*
X154354841Y-82591200D02*
X154278650Y-82629295D01*
X154278650Y-82629295D02*
X154126269Y-82629295D01*
X154126269Y-82629295D02*
X154050079Y-82591200D01*
X154050079Y-82591200D02*
X154011983Y-82515009D01*
X154011983Y-82515009D02*
X154011983Y-82210247D01*
X154011983Y-82210247D02*
X154050079Y-82134057D01*
X154050079Y-82134057D02*
X154126269Y-82095961D01*
X154126269Y-82095961D02*
X154278650Y-82095961D01*
X154278650Y-82095961D02*
X154354841Y-82134057D01*
X154354841Y-82134057D02*
X154392936Y-82210247D01*
X154392936Y-82210247D02*
X154392936Y-82286438D01*
X154392936Y-82286438D02*
X154011983Y-82362628D01*
X154735793Y-82629295D02*
X154735793Y-82095961D01*
X154735793Y-82248342D02*
X154773888Y-82172152D01*
X154773888Y-82172152D02*
X154811983Y-82134057D01*
X154811983Y-82134057D02*
X154888174Y-82095961D01*
X154888174Y-82095961D02*
X154964364Y-82095961D01*
X155764364Y-82095961D02*
X155954840Y-82629295D01*
X155954840Y-82629295D02*
X156145317Y-82095961D01*
X156411983Y-81905485D02*
X156450079Y-81867390D01*
X156450079Y-81867390D02*
X156526269Y-81829295D01*
X156526269Y-81829295D02*
X156716745Y-81829295D01*
X156716745Y-81829295D02*
X156792936Y-81867390D01*
X156792936Y-81867390D02*
X156831031Y-81905485D01*
X156831031Y-81905485D02*
X156869126Y-81981676D01*
X156869126Y-81981676D02*
X156869126Y-82057866D01*
X156869126Y-82057866D02*
X156831031Y-82172152D01*
X156831031Y-82172152D02*
X156373888Y-82629295D01*
X156373888Y-82629295D02*
X156869126Y-82629295D01*
X146811980Y-83201485D02*
X146850076Y-83163390D01*
X146850076Y-83163390D02*
X146926266Y-83125295D01*
X146926266Y-83125295D02*
X147116742Y-83125295D01*
X147116742Y-83125295D02*
X147192933Y-83163390D01*
X147192933Y-83163390D02*
X147231028Y-83201485D01*
X147231028Y-83201485D02*
X147269123Y-83277676D01*
X147269123Y-83277676D02*
X147269123Y-83353866D01*
X147269123Y-83353866D02*
X147231028Y-83468152D01*
X147231028Y-83468152D02*
X146773885Y-83925295D01*
X146773885Y-83925295D02*
X147269123Y-83925295D01*
X147764362Y-83125295D02*
X147840552Y-83125295D01*
X147840552Y-83125295D02*
X147916743Y-83163390D01*
X147916743Y-83163390D02*
X147954838Y-83201485D01*
X147954838Y-83201485D02*
X147992933Y-83277676D01*
X147992933Y-83277676D02*
X148031028Y-83430057D01*
X148031028Y-83430057D02*
X148031028Y-83620533D01*
X148031028Y-83620533D02*
X147992933Y-83772914D01*
X147992933Y-83772914D02*
X147954838Y-83849104D01*
X147954838Y-83849104D02*
X147916743Y-83887200D01*
X147916743Y-83887200D02*
X147840552Y-83925295D01*
X147840552Y-83925295D02*
X147764362Y-83925295D01*
X147764362Y-83925295D02*
X147688171Y-83887200D01*
X147688171Y-83887200D02*
X147650076Y-83849104D01*
X147650076Y-83849104D02*
X147611981Y-83772914D01*
X147611981Y-83772914D02*
X147573885Y-83620533D01*
X147573885Y-83620533D02*
X147573885Y-83430057D01*
X147573885Y-83430057D02*
X147611981Y-83277676D01*
X147611981Y-83277676D02*
X147650076Y-83201485D01*
X147650076Y-83201485D02*
X147688171Y-83163390D01*
X147688171Y-83163390D02*
X147764362Y-83125295D01*
X148335790Y-83201485D02*
X148373886Y-83163390D01*
X148373886Y-83163390D02*
X148450076Y-83125295D01*
X148450076Y-83125295D02*
X148640552Y-83125295D01*
X148640552Y-83125295D02*
X148716743Y-83163390D01*
X148716743Y-83163390D02*
X148754838Y-83201485D01*
X148754838Y-83201485D02*
X148792933Y-83277676D01*
X148792933Y-83277676D02*
X148792933Y-83353866D01*
X148792933Y-83353866D02*
X148754838Y-83468152D01*
X148754838Y-83468152D02*
X148297695Y-83925295D01*
X148297695Y-83925295D02*
X148792933Y-83925295D01*
X149478648Y-83391961D02*
X149478648Y-83925295D01*
X149288172Y-83087200D02*
X149097695Y-83658628D01*
X149097695Y-83658628D02*
X149592934Y-83658628D01*
X150050077Y-83125295D02*
X150126267Y-83125295D01*
X150126267Y-83125295D02*
X150202458Y-83163390D01*
X150202458Y-83163390D02*
X150240553Y-83201485D01*
X150240553Y-83201485D02*
X150278648Y-83277676D01*
X150278648Y-83277676D02*
X150316743Y-83430057D01*
X150316743Y-83430057D02*
X150316743Y-83620533D01*
X150316743Y-83620533D02*
X150278648Y-83772914D01*
X150278648Y-83772914D02*
X150240553Y-83849104D01*
X150240553Y-83849104D02*
X150202458Y-83887200D01*
X150202458Y-83887200D02*
X150126267Y-83925295D01*
X150126267Y-83925295D02*
X150050077Y-83925295D01*
X150050077Y-83925295D02*
X149973886Y-83887200D01*
X149973886Y-83887200D02*
X149935791Y-83849104D01*
X149935791Y-83849104D02*
X149897696Y-83772914D01*
X149897696Y-83772914D02*
X149859600Y-83620533D01*
X149859600Y-83620533D02*
X149859600Y-83430057D01*
X149859600Y-83430057D02*
X149897696Y-83277676D01*
X149897696Y-83277676D02*
X149935791Y-83201485D01*
X149935791Y-83201485D02*
X149973886Y-83163390D01*
X149973886Y-83163390D02*
X150050077Y-83125295D01*
X151078648Y-83925295D02*
X150621505Y-83925295D01*
X150850077Y-83925295D02*
X150850077Y-83125295D01*
X150850077Y-83125295D02*
X150773886Y-83239580D01*
X150773886Y-83239580D02*
X150697696Y-83315771D01*
X150697696Y-83315771D02*
X150621505Y-83353866D01*
X151573887Y-83125295D02*
X151650077Y-83125295D01*
X151650077Y-83125295D02*
X151726268Y-83163390D01*
X151726268Y-83163390D02*
X151764363Y-83201485D01*
X151764363Y-83201485D02*
X151802458Y-83277676D01*
X151802458Y-83277676D02*
X151840553Y-83430057D01*
X151840553Y-83430057D02*
X151840553Y-83620533D01*
X151840553Y-83620533D02*
X151802458Y-83772914D01*
X151802458Y-83772914D02*
X151764363Y-83849104D01*
X151764363Y-83849104D02*
X151726268Y-83887200D01*
X151726268Y-83887200D02*
X151650077Y-83925295D01*
X151650077Y-83925295D02*
X151573887Y-83925295D01*
X151573887Y-83925295D02*
X151497696Y-83887200D01*
X151497696Y-83887200D02*
X151459601Y-83849104D01*
X151459601Y-83849104D02*
X151421506Y-83772914D01*
X151421506Y-83772914D02*
X151383410Y-83620533D01*
X151383410Y-83620533D02*
X151383410Y-83430057D01*
X151383410Y-83430057D02*
X151421506Y-83277676D01*
X151421506Y-83277676D02*
X151459601Y-83201485D01*
X151459601Y-83201485D02*
X151497696Y-83163390D01*
X151497696Y-83163390D02*
X151573887Y-83125295D01*
X152564363Y-83125295D02*
X152183411Y-83125295D01*
X152183411Y-83125295D02*
X152145315Y-83506247D01*
X152145315Y-83506247D02*
X152183411Y-83468152D01*
X152183411Y-83468152D02*
X152259601Y-83430057D01*
X152259601Y-83430057D02*
X152450077Y-83430057D01*
X152450077Y-83430057D02*
X152526268Y-83468152D01*
X152526268Y-83468152D02*
X152564363Y-83506247D01*
X152564363Y-83506247D02*
X152602458Y-83582438D01*
X152602458Y-83582438D02*
X152602458Y-83772914D01*
X152602458Y-83772914D02*
X152564363Y-83849104D01*
X152564363Y-83849104D02*
X152526268Y-83887200D01*
X152526268Y-83887200D02*
X152450077Y-83925295D01*
X152450077Y-83925295D02*
X152259601Y-83925295D01*
X152259601Y-83925295D02*
X152183411Y-83887200D01*
X152183411Y-83887200D02*
X152145315Y-83849104D01*
X153135792Y-84191961D02*
X153135792Y-83049104D01*
X153669125Y-83696723D02*
X154050078Y-83696723D01*
X153592935Y-83925295D02*
X153859602Y-83125295D01*
X153859602Y-83125295D02*
X154126268Y-83925295D01*
X154392935Y-83125295D02*
X154392935Y-83772914D01*
X154392935Y-83772914D02*
X154431030Y-83849104D01*
X154431030Y-83849104D02*
X154469125Y-83887200D01*
X154469125Y-83887200D02*
X154545316Y-83925295D01*
X154545316Y-83925295D02*
X154697697Y-83925295D01*
X154697697Y-83925295D02*
X154773887Y-83887200D01*
X154773887Y-83887200D02*
X154811982Y-83849104D01*
X154811982Y-83849104D02*
X154850078Y-83772914D01*
X154850078Y-83772914D02*
X154850078Y-83125295D01*
X155802458Y-83087200D02*
X155116744Y-84115771D01*
X156031029Y-83696723D02*
X156411982Y-83696723D01*
X155954839Y-83925295D02*
X156221506Y-83125295D01*
X156221506Y-83125295D02*
X156488172Y-83925295D01*
X156754839Y-83125295D02*
X156754839Y-83772914D01*
X156754839Y-83772914D02*
X156792934Y-83849104D01*
X156792934Y-83849104D02*
X156831029Y-83887200D01*
X156831029Y-83887200D02*
X156907220Y-83925295D01*
X156907220Y-83925295D02*
X157059601Y-83925295D01*
X157059601Y-83925295D02*
X157135791Y-83887200D01*
X157135791Y-83887200D02*
X157173886Y-83849104D01*
X157173886Y-83849104D02*
X157211982Y-83772914D01*
X157211982Y-83772914D02*
X157211982Y-83125295D01*
X157592934Y-83925295D02*
X157592934Y-83125295D01*
X157592934Y-83125295D02*
X157783410Y-83125295D01*
X157783410Y-83125295D02*
X157897696Y-83163390D01*
X157897696Y-83163390D02*
X157973886Y-83239580D01*
X157973886Y-83239580D02*
X158011981Y-83315771D01*
X158011981Y-83315771D02*
X158050077Y-83468152D01*
X158050077Y-83468152D02*
X158050077Y-83582438D01*
X158050077Y-83582438D02*
X158011981Y-83734819D01*
X158011981Y-83734819D02*
X157973886Y-83811009D01*
X157973886Y-83811009D02*
X157897696Y-83887200D01*
X157897696Y-83887200D02*
X157783410Y-83925295D01*
X157783410Y-83925295D02*
X157592934Y-83925295D01*
D11*
%TO.C,J2*%
X173268409Y-80708381D02*
X173316028Y-80565524D01*
X173316028Y-80565524D02*
X173363647Y-80517905D01*
X173363647Y-80517905D02*
X173458885Y-80470286D01*
X173458885Y-80470286D02*
X173601742Y-80470286D01*
X173601742Y-80470286D02*
X173696980Y-80517905D01*
X173696980Y-80517905D02*
X173744600Y-80565524D01*
X173744600Y-80565524D02*
X173792219Y-80660762D01*
X173792219Y-80660762D02*
X173792219Y-81041714D01*
X173792219Y-81041714D02*
X172792219Y-81041714D01*
X172792219Y-81041714D02*
X172792219Y-80708381D01*
X172792219Y-80708381D02*
X172839838Y-80613143D01*
X172839838Y-80613143D02*
X172887457Y-80565524D01*
X172887457Y-80565524D02*
X172982695Y-80517905D01*
X172982695Y-80517905D02*
X173077933Y-80517905D01*
X173077933Y-80517905D02*
X173173171Y-80565524D01*
X173173171Y-80565524D02*
X173220790Y-80613143D01*
X173220790Y-80613143D02*
X173268409Y-80708381D01*
X173268409Y-80708381D02*
X173268409Y-81041714D01*
X173792219Y-79613143D02*
X173268409Y-79613143D01*
X173268409Y-79613143D02*
X173173171Y-79660762D01*
X173173171Y-79660762D02*
X173125552Y-79756000D01*
X173125552Y-79756000D02*
X173125552Y-79946476D01*
X173125552Y-79946476D02*
X173173171Y-80041714D01*
X173744600Y-79613143D02*
X173792219Y-79708381D01*
X173792219Y-79708381D02*
X173792219Y-79946476D01*
X173792219Y-79946476D02*
X173744600Y-80041714D01*
X173744600Y-80041714D02*
X173649361Y-80089333D01*
X173649361Y-80089333D02*
X173554123Y-80089333D01*
X173554123Y-80089333D02*
X173458885Y-80041714D01*
X173458885Y-80041714D02*
X173411266Y-79946476D01*
X173411266Y-79946476D02*
X173411266Y-79708381D01*
X173411266Y-79708381D02*
X173363647Y-79613143D01*
X173125552Y-79279809D02*
X173125552Y-78898857D01*
X172792219Y-79136952D02*
X173649361Y-79136952D01*
X173649361Y-79136952D02*
X173744600Y-79089333D01*
X173744600Y-79089333D02*
X173792219Y-78994095D01*
X173792219Y-78994095D02*
X173792219Y-78898857D01*
X173125552Y-78708380D02*
X173125552Y-78327428D01*
X172792219Y-78565523D02*
X173649361Y-78565523D01*
X173649361Y-78565523D02*
X173744600Y-78517904D01*
X173744600Y-78517904D02*
X173792219Y-78422666D01*
X173792219Y-78422666D02*
X173792219Y-78327428D01*
%TO.C,J3*%
X174401819Y-70643619D02*
X174401819Y-71119809D01*
X174401819Y-71119809D02*
X173401819Y-71119809D01*
X174401819Y-70167428D02*
X174354200Y-70262666D01*
X174354200Y-70262666D02*
X174306580Y-70310285D01*
X174306580Y-70310285D02*
X174211342Y-70357904D01*
X174211342Y-70357904D02*
X173925628Y-70357904D01*
X173925628Y-70357904D02*
X173830390Y-70310285D01*
X173830390Y-70310285D02*
X173782771Y-70262666D01*
X173782771Y-70262666D02*
X173735152Y-70167428D01*
X173735152Y-70167428D02*
X173735152Y-70024571D01*
X173735152Y-70024571D02*
X173782771Y-69929333D01*
X173782771Y-69929333D02*
X173830390Y-69881714D01*
X173830390Y-69881714D02*
X173925628Y-69834095D01*
X173925628Y-69834095D02*
X174211342Y-69834095D01*
X174211342Y-69834095D02*
X174306580Y-69881714D01*
X174306580Y-69881714D02*
X174354200Y-69929333D01*
X174354200Y-69929333D02*
X174401819Y-70024571D01*
X174401819Y-70024571D02*
X174401819Y-70167428D01*
X174401819Y-68976952D02*
X173878009Y-68976952D01*
X173878009Y-68976952D02*
X173782771Y-69024571D01*
X173782771Y-69024571D02*
X173735152Y-69119809D01*
X173735152Y-69119809D02*
X173735152Y-69310285D01*
X173735152Y-69310285D02*
X173782771Y-69405523D01*
X174354200Y-68976952D02*
X174401819Y-69072190D01*
X174401819Y-69072190D02*
X174401819Y-69310285D01*
X174401819Y-69310285D02*
X174354200Y-69405523D01*
X174354200Y-69405523D02*
X174258961Y-69453142D01*
X174258961Y-69453142D02*
X174163723Y-69453142D01*
X174163723Y-69453142D02*
X174068485Y-69405523D01*
X174068485Y-69405523D02*
X174020866Y-69310285D01*
X174020866Y-69310285D02*
X174020866Y-69072190D01*
X174020866Y-69072190D02*
X173973247Y-68976952D01*
X174401819Y-68072190D02*
X173401819Y-68072190D01*
X174354200Y-68072190D02*
X174401819Y-68167428D01*
X174401819Y-68167428D02*
X174401819Y-68357904D01*
X174401819Y-68357904D02*
X174354200Y-68453142D01*
X174354200Y-68453142D02*
X174306580Y-68500761D01*
X174306580Y-68500761D02*
X174211342Y-68548380D01*
X174211342Y-68548380D02*
X173925628Y-68548380D01*
X173925628Y-68548380D02*
X173830390Y-68500761D01*
X173830390Y-68500761D02*
X173782771Y-68453142D01*
X173782771Y-68453142D02*
X173735152Y-68357904D01*
X173735152Y-68357904D02*
X173735152Y-68167428D01*
X173735152Y-68167428D02*
X173782771Y-68072190D01*
D12*
%TO.C,J2*%
X168907200Y-83850800D02*
X168907200Y-82830800D01*
X173157200Y-83850800D02*
X168907200Y-83850800D01*
X168907200Y-82830800D02*
X170507200Y-82830800D01*
X170507200Y-82830800D02*
X170507200Y-81550800D01*
X176727200Y-82130800D02*
X176727200Y-77450800D01*
X170507200Y-81550800D02*
X167617200Y-81550800D01*
X168907200Y-76750800D02*
X170507200Y-76750800D01*
X170507200Y-76750800D02*
X170507200Y-78030800D01*
X168907200Y-75730800D02*
X168907200Y-76750800D01*
X173157200Y-75730800D02*
X168907200Y-75730800D01*
D13*
%TO.C,D1*%
X164050000Y-84184000D02*
X166150000Y-84184000D01*
X166150000Y-84184000D02*
X166150000Y-81534000D01*
X164050000Y-81534000D02*
X164050000Y-84184000D01*
D12*
%TO.C,C2*%
X161877836Y-80166800D02*
X161662164Y-80166800D01*
X161877836Y-79446800D02*
X161662164Y-79446800D01*
%TO.C,R3*%
X161619200Y-71019159D02*
X161619200Y-71326441D01*
X160859200Y-71019159D02*
X160859200Y-71326441D01*
D13*
%TO.C,D2*%
X166810400Y-66590400D02*
X164710400Y-66590400D01*
X164710400Y-66590400D02*
X164710400Y-69240400D01*
X166810400Y-69240400D02*
X166810400Y-66590400D01*
D12*
%TO.C,J3*%
X168902000Y-73554400D02*
X168902000Y-72534400D01*
X173152000Y-73554400D02*
X168902000Y-73554400D01*
X168902000Y-72534400D02*
X170502000Y-72534400D01*
X170502000Y-72534400D02*
X170502000Y-71254400D01*
X176722000Y-71834400D02*
X176722000Y-67154400D01*
X170502000Y-71254400D02*
X167612000Y-71254400D01*
X168902000Y-66454400D02*
X170502000Y-66454400D01*
X170502000Y-66454400D02*
X170502000Y-67734400D01*
X168902000Y-65434400D02*
X168902000Y-66454400D01*
X173152000Y-65434400D02*
X168902000Y-65434400D01*
%TO.C,C1*%
X161832236Y-68889200D02*
X161616564Y-68889200D01*
X161832236Y-68169200D02*
X161616564Y-68169200D01*
%TO.C,R6*%
X165916041Y-71296800D02*
X165608759Y-71296800D01*
X165916041Y-70536800D02*
X165608759Y-70536800D01*
%TO.C,R5*%
X165200841Y-80136000D02*
X164893559Y-80136000D01*
X165200841Y-79376000D02*
X164893559Y-79376000D01*
%TO.C,R4*%
X162484800Y-71377241D02*
X162484800Y-71069959D01*
X163244800Y-71377241D02*
X163244800Y-71069959D01*
D14*
%TO.C,IC1*%
X159565800Y-73074400D02*
G75*
G03*
X159565800Y-73074400I-125000J0D01*
G01*
D13*
%TO.C,J1*%
X155847600Y-80528125D02*
X155847600Y-73328125D01*
X146847600Y-80528125D02*
X155847600Y-80528125D01*
X146847600Y-66128125D02*
X146847600Y-80528125D01*
X151705450Y-64777125D02*
G75*
G03*
X151705450Y-64777125I-118850J0D01*
G01*
D12*
%TO.C,R1*%
X158622000Y-72843959D02*
X158622000Y-73151241D01*
X157862000Y-72843959D02*
X157862000Y-73151241D01*
%TO.C,R2*%
X159640000Y-71326441D02*
X159640000Y-71019159D01*
X160400000Y-71326441D02*
X160400000Y-71019159D01*
%TD*%
M02*
