%TF.GenerationSoftware,KiCad,Pcbnew,7.0.2-0*%
%TF.CreationDate,2024-01-11T17:10:39-05:00*%
%TF.ProjectId,SolarCharger_v2,536f6c61-7243-4686-9172-6765725f7632,2*%
%TF.SameCoordinates,Original*%
%TF.FileFunction,Soldermask,Top*%
%TF.FilePolarity,Negative*%
%FSLAX46Y46*%
G04 Gerber Fmt 4.6, Leading zero omitted, Abs format (unit mm)*
G04 Created by KiCad (PCBNEW 7.0.2-0) date 2024-01-11 17:10:39*
%MOMM*%
%LPD*%
G01*
G04 APERTURE LIST*
G04 Aperture macros list*
%AMRoundRect*
0 Rectangle with rounded corners*
0 $1 Rounding radius*
0 $2 $3 $4 $5 $6 $7 $8 $9 X,Y pos of 4 corners*
0 Add a 4 corners polygon primitive as box body*
4,1,4,$2,$3,$4,$5,$6,$7,$8,$9,$2,$3,0*
0 Add four circle primitives for the rounded corners*
1,1,$1+$1,$2,$3*
1,1,$1+$1,$4,$5*
1,1,$1+$1,$6,$7*
1,1,$1+$1,$8,$9*
0 Add four rect primitives between the rounded corners*
20,1,$1+$1,$2,$3,$4,$5,0*
20,1,$1+$1,$4,$5,$6,$7,0*
20,1,$1+$1,$6,$7,$8,$9,0*
20,1,$1+$1,$8,$9,$2,$3,0*%
G04 Aperture macros list end*
%ADD10RoundRect,0.250000X1.500000X-0.250000X1.500000X0.250000X-1.500000X0.250000X-1.500000X-0.250000X0*%
%ADD11RoundRect,0.250001X1.449999X-0.499999X1.449999X0.499999X-1.449999X0.499999X-1.449999X-0.499999X0*%
%ADD12R,1.400000X1.000000*%
%ADD13RoundRect,0.140000X0.140000X0.170000X-0.140000X0.170000X-0.140000X-0.170000X0.140000X-0.170000X0*%
%ADD14RoundRect,0.135000X-0.185000X0.135000X-0.185000X-0.135000X0.185000X-0.135000X0.185000X0.135000X0*%
%ADD15RoundRect,0.135000X0.135000X0.185000X-0.135000X0.185000X-0.135000X-0.185000X0.135000X-0.185000X0*%
%ADD16RoundRect,0.135000X0.185000X-0.135000X0.185000X0.135000X-0.185000X0.135000X-0.185000X-0.135000X0*%
%ADD17R,0.800000X0.300000*%
%ADD18R,0.300000X0.800000*%
%ADD19R,1.750000X1.750000*%
%ADD20C,3.000000*%
G04 APERTURE END LIST*
D10*
%TO.C,J2*%
X169367200Y-80790800D03*
X169367200Y-78790800D03*
D11*
X175117200Y-83140800D03*
X175117200Y-76440800D03*
%TD*%
D12*
%TO.C,D1*%
X165100000Y-83334000D03*
X165100000Y-81534000D03*
%TD*%
D13*
%TO.C,C2*%
X162250000Y-79806800D03*
X161290000Y-79806800D03*
%TD*%
D14*
%TO.C,R3*%
X161239200Y-70662800D03*
X161239200Y-71682800D03*
%TD*%
D12*
%TO.C,D2*%
X165760400Y-67440400D03*
X165760400Y-69240400D03*
%TD*%
D10*
%TO.C,J3*%
X169362000Y-70494400D03*
X169362000Y-68494400D03*
D11*
X175112000Y-72844400D03*
X175112000Y-66144400D03*
%TD*%
D13*
%TO.C,C1*%
X162204400Y-68529200D03*
X161244400Y-68529200D03*
%TD*%
D15*
%TO.C,R6*%
X166272400Y-70916800D03*
X165252400Y-70916800D03*
%TD*%
%TO.C,R5*%
X165557200Y-79756000D03*
X164537200Y-79756000D03*
%TD*%
D16*
%TO.C,R4*%
X162864800Y-71733600D03*
X162864800Y-70713600D03*
%TD*%
D17*
%TO.C,IC1*%
X159840800Y-73824400D03*
X159840800Y-74324400D03*
X159840800Y-74824400D03*
X159840800Y-75324400D03*
D18*
X160590800Y-76074400D03*
X161090800Y-76074400D03*
X161590800Y-76074400D03*
X162090800Y-76074400D03*
D17*
X162840800Y-75324400D03*
X162840800Y-74824400D03*
X162840800Y-74324400D03*
X162840800Y-73824400D03*
D18*
X162090800Y-73074400D03*
X161590800Y-73074400D03*
X161090800Y-73074400D03*
X160590800Y-73074400D03*
D19*
X161340800Y-74574400D03*
%TD*%
D20*
%TO.C,J1*%
X151547600Y-66828125D03*
X151547600Y-72828125D03*
X156247600Y-69828125D03*
%TD*%
D14*
%TO.C,R1*%
X158242000Y-72487600D03*
X158242000Y-73507600D03*
%TD*%
D16*
%TO.C,R2*%
X160020000Y-71682800D03*
X160020000Y-70662800D03*
%TD*%
M02*
