%TF.GenerationSoftware,KiCad,Pcbnew,7.0.2-0*%
%TF.CreationDate,2024-01-11T17:10:39-05:00*%
%TF.ProjectId,SolarCharger_v2,536f6c61-7243-4686-9172-6765725f7632,2*%
%TF.SameCoordinates,Original*%
%TF.FileFunction,Legend,Bot*%
%TF.FilePolarity,Positive*%
%FSLAX46Y46*%
G04 Gerber Fmt 4.6, Leading zero omitted, Abs format (unit mm)*
G04 Created by KiCad (PCBNEW 7.0.2-0) date 2024-01-11 17:10:39*
%MOMM*%
%LPD*%
G01*
G04 APERTURE LIST*
%ADD10C,0.100000*%
G04 APERTURE END LIST*
D10*
X175983980Y-70281295D02*
X176250647Y-69900342D01*
X176441123Y-70281295D02*
X176441123Y-69481295D01*
X176441123Y-69481295D02*
X176136361Y-69481295D01*
X176136361Y-69481295D02*
X176060171Y-69519390D01*
X176060171Y-69519390D02*
X176022076Y-69557485D01*
X176022076Y-69557485D02*
X175983980Y-69633676D01*
X175983980Y-69633676D02*
X175983980Y-69747961D01*
X175983980Y-69747961D02*
X176022076Y-69824152D01*
X176022076Y-69824152D02*
X176060171Y-69862247D01*
X176060171Y-69862247D02*
X176136361Y-69900342D01*
X176136361Y-69900342D02*
X176441123Y-69900342D01*
X175222076Y-70281295D02*
X175679219Y-70281295D01*
X175450647Y-70281295D02*
X175450647Y-69481295D01*
X175450647Y-69481295D02*
X175526838Y-69595580D01*
X175526838Y-69595580D02*
X175603028Y-69671771D01*
X175603028Y-69671771D02*
X175679219Y-69709866D01*
X174269694Y-69976533D02*
X173660171Y-69976533D01*
X172250647Y-70281295D02*
X172707790Y-70281295D01*
X172479218Y-70281295D02*
X172479218Y-69481295D01*
X172479218Y-69481295D02*
X172555409Y-69595580D01*
X172555409Y-69595580D02*
X172631599Y-69671771D01*
X172631599Y-69671771D02*
X172707790Y-69709866D01*
X171755408Y-69481295D02*
X171679218Y-69481295D01*
X171679218Y-69481295D02*
X171603027Y-69519390D01*
X171603027Y-69519390D02*
X171564932Y-69557485D01*
X171564932Y-69557485D02*
X171526837Y-69633676D01*
X171526837Y-69633676D02*
X171488742Y-69786057D01*
X171488742Y-69786057D02*
X171488742Y-69976533D01*
X171488742Y-69976533D02*
X171526837Y-70128914D01*
X171526837Y-70128914D02*
X171564932Y-70205104D01*
X171564932Y-70205104D02*
X171603027Y-70243200D01*
X171603027Y-70243200D02*
X171679218Y-70281295D01*
X171679218Y-70281295D02*
X171755408Y-70281295D01*
X171755408Y-70281295D02*
X171831599Y-70243200D01*
X171831599Y-70243200D02*
X171869694Y-70205104D01*
X171869694Y-70205104D02*
X171907789Y-70128914D01*
X171907789Y-70128914D02*
X171945885Y-69976533D01*
X171945885Y-69976533D02*
X171945885Y-69786057D01*
X171945885Y-69786057D02*
X171907789Y-69633676D01*
X171907789Y-69633676D02*
X171869694Y-69557485D01*
X171869694Y-69557485D02*
X171831599Y-69519390D01*
X171831599Y-69519390D02*
X171755408Y-69481295D01*
X170536360Y-70281295D02*
X170536360Y-69481295D01*
X170460170Y-69976533D02*
X170231598Y-70281295D01*
X170231598Y-69747961D02*
X170536360Y-70052723D01*
X169926837Y-70281295D02*
X169736360Y-70281295D01*
X169736360Y-70281295D02*
X169736360Y-70128914D01*
X169736360Y-70128914D02*
X169812551Y-70090819D01*
X169812551Y-70090819D02*
X169888741Y-70014628D01*
X169888741Y-70014628D02*
X169926837Y-69900342D01*
X169926837Y-69900342D02*
X169926837Y-69709866D01*
X169926837Y-69709866D02*
X169888741Y-69595580D01*
X169888741Y-69595580D02*
X169812551Y-69519390D01*
X169812551Y-69519390D02*
X169698265Y-69481295D01*
X169698265Y-69481295D02*
X169545884Y-69481295D01*
X169545884Y-69481295D02*
X169431598Y-69519390D01*
X169431598Y-69519390D02*
X169355408Y-69595580D01*
X169355408Y-69595580D02*
X169317313Y-69709866D01*
X169317313Y-69709866D02*
X169317313Y-69900342D01*
X169317313Y-69900342D02*
X169355408Y-70014628D01*
X169355408Y-70014628D02*
X169431598Y-70090819D01*
X169431598Y-70090819D02*
X169507789Y-70128914D01*
X169507789Y-70128914D02*
X169507789Y-70281295D01*
X169507789Y-70281295D02*
X169317313Y-70281295D01*
X175983980Y-71577295D02*
X176250647Y-71196342D01*
X176441123Y-71577295D02*
X176441123Y-70777295D01*
X176441123Y-70777295D02*
X176136361Y-70777295D01*
X176136361Y-70777295D02*
X176060171Y-70815390D01*
X176060171Y-70815390D02*
X176022076Y-70853485D01*
X176022076Y-70853485D02*
X175983980Y-70929676D01*
X175983980Y-70929676D02*
X175983980Y-71043961D01*
X175983980Y-71043961D02*
X176022076Y-71120152D01*
X176022076Y-71120152D02*
X176060171Y-71158247D01*
X176060171Y-71158247D02*
X176136361Y-71196342D01*
X176136361Y-71196342D02*
X176441123Y-71196342D01*
X175679219Y-70853485D02*
X175641123Y-70815390D01*
X175641123Y-70815390D02*
X175564933Y-70777295D01*
X175564933Y-70777295D02*
X175374457Y-70777295D01*
X175374457Y-70777295D02*
X175298266Y-70815390D01*
X175298266Y-70815390D02*
X175260171Y-70853485D01*
X175260171Y-70853485D02*
X175222076Y-70929676D01*
X175222076Y-70929676D02*
X175222076Y-71005866D01*
X175222076Y-71005866D02*
X175260171Y-71120152D01*
X175260171Y-71120152D02*
X175717314Y-71577295D01*
X175717314Y-71577295D02*
X175222076Y-71577295D01*
X174269694Y-71272533D02*
X173660171Y-71272533D01*
X172326837Y-71043961D02*
X172326837Y-71577295D01*
X172517313Y-70739200D02*
X172707790Y-71310628D01*
X172707790Y-71310628D02*
X172212551Y-71310628D01*
X171907789Y-71501104D02*
X171869694Y-71539200D01*
X171869694Y-71539200D02*
X171907789Y-71577295D01*
X171907789Y-71577295D02*
X171945885Y-71539200D01*
X171945885Y-71539200D02*
X171907789Y-71501104D01*
X171907789Y-71501104D02*
X171907789Y-71577295D01*
X171603028Y-70777295D02*
X171069694Y-70777295D01*
X171069694Y-70777295D02*
X171412552Y-71577295D01*
X170155408Y-71577295D02*
X170155408Y-70777295D01*
X170079218Y-71272533D02*
X169850646Y-71577295D01*
X169850646Y-71043961D02*
X170155408Y-71348723D01*
X169545885Y-71577295D02*
X169355408Y-71577295D01*
X169355408Y-71577295D02*
X169355408Y-71424914D01*
X169355408Y-71424914D02*
X169431599Y-71386819D01*
X169431599Y-71386819D02*
X169507789Y-71310628D01*
X169507789Y-71310628D02*
X169545885Y-71196342D01*
X169545885Y-71196342D02*
X169545885Y-71005866D01*
X169545885Y-71005866D02*
X169507789Y-70891580D01*
X169507789Y-70891580D02*
X169431599Y-70815390D01*
X169431599Y-70815390D02*
X169317313Y-70777295D01*
X169317313Y-70777295D02*
X169164932Y-70777295D01*
X169164932Y-70777295D02*
X169050646Y-70815390D01*
X169050646Y-70815390D02*
X168974456Y-70891580D01*
X168974456Y-70891580D02*
X168936361Y-71005866D01*
X168936361Y-71005866D02*
X168936361Y-71196342D01*
X168936361Y-71196342D02*
X168974456Y-71310628D01*
X168974456Y-71310628D02*
X169050646Y-71386819D01*
X169050646Y-71386819D02*
X169126837Y-71424914D01*
X169126837Y-71424914D02*
X169126837Y-71577295D01*
X169126837Y-71577295D02*
X168936361Y-71577295D01*
X175983980Y-72873295D02*
X176250647Y-72492342D01*
X176441123Y-72873295D02*
X176441123Y-72073295D01*
X176441123Y-72073295D02*
X176136361Y-72073295D01*
X176136361Y-72073295D02*
X176060171Y-72111390D01*
X176060171Y-72111390D02*
X176022076Y-72149485D01*
X176022076Y-72149485D02*
X175983980Y-72225676D01*
X175983980Y-72225676D02*
X175983980Y-72339961D01*
X175983980Y-72339961D02*
X176022076Y-72416152D01*
X176022076Y-72416152D02*
X176060171Y-72454247D01*
X176060171Y-72454247D02*
X176136361Y-72492342D01*
X176136361Y-72492342D02*
X176441123Y-72492342D01*
X175717314Y-72073295D02*
X175222076Y-72073295D01*
X175222076Y-72073295D02*
X175488742Y-72378057D01*
X175488742Y-72378057D02*
X175374457Y-72378057D01*
X175374457Y-72378057D02*
X175298266Y-72416152D01*
X175298266Y-72416152D02*
X175260171Y-72454247D01*
X175260171Y-72454247D02*
X175222076Y-72530438D01*
X175222076Y-72530438D02*
X175222076Y-72720914D01*
X175222076Y-72720914D02*
X175260171Y-72797104D01*
X175260171Y-72797104D02*
X175298266Y-72835200D01*
X175298266Y-72835200D02*
X175374457Y-72873295D01*
X175374457Y-72873295D02*
X175603028Y-72873295D01*
X175603028Y-72873295D02*
X175679219Y-72835200D01*
X175679219Y-72835200D02*
X175717314Y-72797104D01*
X174269694Y-72568533D02*
X173660171Y-72568533D01*
X172250647Y-72873295D02*
X172707790Y-72873295D01*
X172479218Y-72873295D02*
X172479218Y-72073295D01*
X172479218Y-72073295D02*
X172555409Y-72187580D01*
X172555409Y-72187580D02*
X172631599Y-72263771D01*
X172631599Y-72263771D02*
X172707790Y-72301866D01*
X171907789Y-72797104D02*
X171869694Y-72835200D01*
X171869694Y-72835200D02*
X171907789Y-72873295D01*
X171907789Y-72873295D02*
X171945885Y-72835200D01*
X171945885Y-72835200D02*
X171907789Y-72797104D01*
X171907789Y-72797104D02*
X171907789Y-72873295D01*
X171107790Y-72873295D02*
X171564933Y-72873295D01*
X171336361Y-72873295D02*
X171336361Y-72073295D01*
X171336361Y-72073295D02*
X171412552Y-72187580D01*
X171412552Y-72187580D02*
X171488742Y-72263771D01*
X171488742Y-72263771D02*
X171564933Y-72301866D01*
X170155408Y-72873295D02*
X170155408Y-72073295D01*
X170079218Y-72568533D02*
X169850646Y-72873295D01*
X169850646Y-72339961D02*
X170155408Y-72644723D01*
X169545885Y-72873295D02*
X169355408Y-72873295D01*
X169355408Y-72873295D02*
X169355408Y-72720914D01*
X169355408Y-72720914D02*
X169431599Y-72682819D01*
X169431599Y-72682819D02*
X169507789Y-72606628D01*
X169507789Y-72606628D02*
X169545885Y-72492342D01*
X169545885Y-72492342D02*
X169545885Y-72301866D01*
X169545885Y-72301866D02*
X169507789Y-72187580D01*
X169507789Y-72187580D02*
X169431599Y-72111390D01*
X169431599Y-72111390D02*
X169317313Y-72073295D01*
X169317313Y-72073295D02*
X169164932Y-72073295D01*
X169164932Y-72073295D02*
X169050646Y-72111390D01*
X169050646Y-72111390D02*
X168974456Y-72187580D01*
X168974456Y-72187580D02*
X168936361Y-72301866D01*
X168936361Y-72301866D02*
X168936361Y-72492342D01*
X168936361Y-72492342D02*
X168974456Y-72606628D01*
X168974456Y-72606628D02*
X169050646Y-72682819D01*
X169050646Y-72682819D02*
X169126837Y-72720914D01*
X169126837Y-72720914D02*
X169126837Y-72873295D01*
X169126837Y-72873295D02*
X168936361Y-72873295D01*
X175983980Y-74169295D02*
X176250647Y-73788342D01*
X176441123Y-74169295D02*
X176441123Y-73369295D01*
X176441123Y-73369295D02*
X176136361Y-73369295D01*
X176136361Y-73369295D02*
X176060171Y-73407390D01*
X176060171Y-73407390D02*
X176022076Y-73445485D01*
X176022076Y-73445485D02*
X175983980Y-73521676D01*
X175983980Y-73521676D02*
X175983980Y-73635961D01*
X175983980Y-73635961D02*
X176022076Y-73712152D01*
X176022076Y-73712152D02*
X176060171Y-73750247D01*
X176060171Y-73750247D02*
X176136361Y-73788342D01*
X176136361Y-73788342D02*
X176441123Y-73788342D01*
X175260171Y-73369295D02*
X175641123Y-73369295D01*
X175641123Y-73369295D02*
X175679219Y-73750247D01*
X175679219Y-73750247D02*
X175641123Y-73712152D01*
X175641123Y-73712152D02*
X175564933Y-73674057D01*
X175564933Y-73674057D02*
X175374457Y-73674057D01*
X175374457Y-73674057D02*
X175298266Y-73712152D01*
X175298266Y-73712152D02*
X175260171Y-73750247D01*
X175260171Y-73750247D02*
X175222076Y-73826438D01*
X175222076Y-73826438D02*
X175222076Y-74016914D01*
X175222076Y-74016914D02*
X175260171Y-74093104D01*
X175260171Y-74093104D02*
X175298266Y-74131200D01*
X175298266Y-74131200D02*
X175374457Y-74169295D01*
X175374457Y-74169295D02*
X175564933Y-74169295D01*
X175564933Y-74169295D02*
X175641123Y-74131200D01*
X175641123Y-74131200D02*
X175679219Y-74093104D01*
X174269694Y-73864533D02*
X173660171Y-73864533D01*
X172250647Y-74169295D02*
X172707790Y-74169295D01*
X172479218Y-74169295D02*
X172479218Y-73369295D01*
X172479218Y-73369295D02*
X172555409Y-73483580D01*
X172555409Y-73483580D02*
X172631599Y-73559771D01*
X172631599Y-73559771D02*
X172707790Y-73597866D01*
X171907789Y-74093104D02*
X171869694Y-74131200D01*
X171869694Y-74131200D02*
X171907789Y-74169295D01*
X171907789Y-74169295D02*
X171945885Y-74131200D01*
X171945885Y-74131200D02*
X171907789Y-74093104D01*
X171907789Y-74093104D02*
X171907789Y-74169295D01*
X171564933Y-73445485D02*
X171526837Y-73407390D01*
X171526837Y-73407390D02*
X171450647Y-73369295D01*
X171450647Y-73369295D02*
X171260171Y-73369295D01*
X171260171Y-73369295D02*
X171183980Y-73407390D01*
X171183980Y-73407390D02*
X171145885Y-73445485D01*
X171145885Y-73445485D02*
X171107790Y-73521676D01*
X171107790Y-73521676D02*
X171107790Y-73597866D01*
X171107790Y-73597866D02*
X171145885Y-73712152D01*
X171145885Y-73712152D02*
X171603028Y-74169295D01*
X171603028Y-74169295D02*
X171107790Y-74169295D01*
X170155408Y-74169295D02*
X170155408Y-73369295D01*
X170079218Y-73864533D02*
X169850646Y-74169295D01*
X169850646Y-73635961D02*
X170155408Y-73940723D01*
X169545885Y-74169295D02*
X169355408Y-74169295D01*
X169355408Y-74169295D02*
X169355408Y-74016914D01*
X169355408Y-74016914D02*
X169431599Y-73978819D01*
X169431599Y-73978819D02*
X169507789Y-73902628D01*
X169507789Y-73902628D02*
X169545885Y-73788342D01*
X169545885Y-73788342D02*
X169545885Y-73597866D01*
X169545885Y-73597866D02*
X169507789Y-73483580D01*
X169507789Y-73483580D02*
X169431599Y-73407390D01*
X169431599Y-73407390D02*
X169317313Y-73369295D01*
X169317313Y-73369295D02*
X169164932Y-73369295D01*
X169164932Y-73369295D02*
X169050646Y-73407390D01*
X169050646Y-73407390D02*
X168974456Y-73483580D01*
X168974456Y-73483580D02*
X168936361Y-73597866D01*
X168936361Y-73597866D02*
X168936361Y-73788342D01*
X168936361Y-73788342D02*
X168974456Y-73902628D01*
X168974456Y-73902628D02*
X169050646Y-73978819D01*
X169050646Y-73978819D02*
X169126837Y-74016914D01*
X169126837Y-74016914D02*
X169126837Y-74169295D01*
X169126837Y-74169295D02*
X168936361Y-74169295D01*
X175983980Y-75465295D02*
X176250647Y-75084342D01*
X176441123Y-75465295D02*
X176441123Y-74665295D01*
X176441123Y-74665295D02*
X176136361Y-74665295D01*
X176136361Y-74665295D02*
X176060171Y-74703390D01*
X176060171Y-74703390D02*
X176022076Y-74741485D01*
X176022076Y-74741485D02*
X175983980Y-74817676D01*
X175983980Y-74817676D02*
X175983980Y-74931961D01*
X175983980Y-74931961D02*
X176022076Y-75008152D01*
X176022076Y-75008152D02*
X176060171Y-75046247D01*
X176060171Y-75046247D02*
X176136361Y-75084342D01*
X176136361Y-75084342D02*
X176441123Y-75084342D01*
X175298266Y-74665295D02*
X175450647Y-74665295D01*
X175450647Y-74665295D02*
X175526838Y-74703390D01*
X175526838Y-74703390D02*
X175564933Y-74741485D01*
X175564933Y-74741485D02*
X175641123Y-74855771D01*
X175641123Y-74855771D02*
X175679219Y-75008152D01*
X175679219Y-75008152D02*
X175679219Y-75312914D01*
X175679219Y-75312914D02*
X175641123Y-75389104D01*
X175641123Y-75389104D02*
X175603028Y-75427200D01*
X175603028Y-75427200D02*
X175526838Y-75465295D01*
X175526838Y-75465295D02*
X175374457Y-75465295D01*
X175374457Y-75465295D02*
X175298266Y-75427200D01*
X175298266Y-75427200D02*
X175260171Y-75389104D01*
X175260171Y-75389104D02*
X175222076Y-75312914D01*
X175222076Y-75312914D02*
X175222076Y-75122438D01*
X175222076Y-75122438D02*
X175260171Y-75046247D01*
X175260171Y-75046247D02*
X175298266Y-75008152D01*
X175298266Y-75008152D02*
X175374457Y-74970057D01*
X175374457Y-74970057D02*
X175526838Y-74970057D01*
X175526838Y-74970057D02*
X175603028Y-75008152D01*
X175603028Y-75008152D02*
X175641123Y-75046247D01*
X175641123Y-75046247D02*
X175679219Y-75122438D01*
X174269694Y-75160533D02*
X173660171Y-75160533D01*
X172250647Y-75465295D02*
X172707790Y-75465295D01*
X172479218Y-75465295D02*
X172479218Y-74665295D01*
X172479218Y-74665295D02*
X172555409Y-74779580D01*
X172555409Y-74779580D02*
X172631599Y-74855771D01*
X172631599Y-74855771D02*
X172707790Y-74893866D01*
X171907789Y-75389104D02*
X171869694Y-75427200D01*
X171869694Y-75427200D02*
X171907789Y-75465295D01*
X171907789Y-75465295D02*
X171945885Y-75427200D01*
X171945885Y-75427200D02*
X171907789Y-75389104D01*
X171907789Y-75389104D02*
X171907789Y-75465295D01*
X171145885Y-74665295D02*
X171526837Y-74665295D01*
X171526837Y-74665295D02*
X171564933Y-75046247D01*
X171564933Y-75046247D02*
X171526837Y-75008152D01*
X171526837Y-75008152D02*
X171450647Y-74970057D01*
X171450647Y-74970057D02*
X171260171Y-74970057D01*
X171260171Y-74970057D02*
X171183980Y-75008152D01*
X171183980Y-75008152D02*
X171145885Y-75046247D01*
X171145885Y-75046247D02*
X171107790Y-75122438D01*
X171107790Y-75122438D02*
X171107790Y-75312914D01*
X171107790Y-75312914D02*
X171145885Y-75389104D01*
X171145885Y-75389104D02*
X171183980Y-75427200D01*
X171183980Y-75427200D02*
X171260171Y-75465295D01*
X171260171Y-75465295D02*
X171450647Y-75465295D01*
X171450647Y-75465295D02*
X171526837Y-75427200D01*
X171526837Y-75427200D02*
X171564933Y-75389104D01*
X170155408Y-75465295D02*
X170155408Y-74665295D01*
X170079218Y-75160533D02*
X169850646Y-75465295D01*
X169850646Y-74931961D02*
X170155408Y-75236723D01*
X169545885Y-75465295D02*
X169355408Y-75465295D01*
X169355408Y-75465295D02*
X169355408Y-75312914D01*
X169355408Y-75312914D02*
X169431599Y-75274819D01*
X169431599Y-75274819D02*
X169507789Y-75198628D01*
X169507789Y-75198628D02*
X169545885Y-75084342D01*
X169545885Y-75084342D02*
X169545885Y-74893866D01*
X169545885Y-74893866D02*
X169507789Y-74779580D01*
X169507789Y-74779580D02*
X169431599Y-74703390D01*
X169431599Y-74703390D02*
X169317313Y-74665295D01*
X169317313Y-74665295D02*
X169164932Y-74665295D01*
X169164932Y-74665295D02*
X169050646Y-74703390D01*
X169050646Y-74703390D02*
X168974456Y-74779580D01*
X168974456Y-74779580D02*
X168936361Y-74893866D01*
X168936361Y-74893866D02*
X168936361Y-75084342D01*
X168936361Y-75084342D02*
X168974456Y-75198628D01*
X168974456Y-75198628D02*
X169050646Y-75274819D01*
X169050646Y-75274819D02*
X169126837Y-75312914D01*
X169126837Y-75312914D02*
X169126837Y-75465295D01*
X169126837Y-75465295D02*
X168936361Y-75465295D01*
X175983980Y-76761295D02*
X176250647Y-76380342D01*
X176441123Y-76761295D02*
X176441123Y-75961295D01*
X176441123Y-75961295D02*
X176136361Y-75961295D01*
X176136361Y-75961295D02*
X176060171Y-75999390D01*
X176060171Y-75999390D02*
X176022076Y-76037485D01*
X176022076Y-76037485D02*
X175983980Y-76113676D01*
X175983980Y-76113676D02*
X175983980Y-76227961D01*
X175983980Y-76227961D02*
X176022076Y-76304152D01*
X176022076Y-76304152D02*
X176060171Y-76342247D01*
X176060171Y-76342247D02*
X176136361Y-76380342D01*
X176136361Y-76380342D02*
X176441123Y-76380342D01*
X175717314Y-75961295D02*
X175183980Y-75961295D01*
X175183980Y-75961295D02*
X175526838Y-76761295D01*
X174269694Y-76456533D02*
X173660171Y-76456533D01*
X172250647Y-76761295D02*
X172707790Y-76761295D01*
X172479218Y-76761295D02*
X172479218Y-75961295D01*
X172479218Y-75961295D02*
X172555409Y-76075580D01*
X172555409Y-76075580D02*
X172631599Y-76151771D01*
X172631599Y-76151771D02*
X172707790Y-76189866D01*
X171907789Y-76685104D02*
X171869694Y-76723200D01*
X171869694Y-76723200D02*
X171907789Y-76761295D01*
X171907789Y-76761295D02*
X171945885Y-76723200D01*
X171945885Y-76723200D02*
X171907789Y-76685104D01*
X171907789Y-76685104D02*
X171907789Y-76761295D01*
X171145885Y-75961295D02*
X171526837Y-75961295D01*
X171526837Y-75961295D02*
X171564933Y-76342247D01*
X171564933Y-76342247D02*
X171526837Y-76304152D01*
X171526837Y-76304152D02*
X171450647Y-76266057D01*
X171450647Y-76266057D02*
X171260171Y-76266057D01*
X171260171Y-76266057D02*
X171183980Y-76304152D01*
X171183980Y-76304152D02*
X171145885Y-76342247D01*
X171145885Y-76342247D02*
X171107790Y-76418438D01*
X171107790Y-76418438D02*
X171107790Y-76608914D01*
X171107790Y-76608914D02*
X171145885Y-76685104D01*
X171145885Y-76685104D02*
X171183980Y-76723200D01*
X171183980Y-76723200D02*
X171260171Y-76761295D01*
X171260171Y-76761295D02*
X171450647Y-76761295D01*
X171450647Y-76761295D02*
X171526837Y-76723200D01*
X171526837Y-76723200D02*
X171564933Y-76685104D01*
X170155408Y-76761295D02*
X170155408Y-75961295D01*
X170079218Y-76456533D02*
X169850646Y-76761295D01*
X169850646Y-76227961D02*
X170155408Y-76532723D01*
X169545885Y-76761295D02*
X169355408Y-76761295D01*
X169355408Y-76761295D02*
X169355408Y-76608914D01*
X169355408Y-76608914D02*
X169431599Y-76570819D01*
X169431599Y-76570819D02*
X169507789Y-76494628D01*
X169507789Y-76494628D02*
X169545885Y-76380342D01*
X169545885Y-76380342D02*
X169545885Y-76189866D01*
X169545885Y-76189866D02*
X169507789Y-76075580D01*
X169507789Y-76075580D02*
X169431599Y-75999390D01*
X169431599Y-75999390D02*
X169317313Y-75961295D01*
X169317313Y-75961295D02*
X169164932Y-75961295D01*
X169164932Y-75961295D02*
X169050646Y-75999390D01*
X169050646Y-75999390D02*
X168974456Y-76075580D01*
X168974456Y-76075580D02*
X168936361Y-76189866D01*
X168936361Y-76189866D02*
X168936361Y-76380342D01*
X168936361Y-76380342D02*
X168974456Y-76494628D01*
X168974456Y-76494628D02*
X169050646Y-76570819D01*
X169050646Y-76570819D02*
X169126837Y-76608914D01*
X169126837Y-76608914D02*
X169126837Y-76761295D01*
X169126837Y-76761295D02*
X168936361Y-76761295D01*
X175983980Y-77981104D02*
X176022076Y-78019200D01*
X176022076Y-78019200D02*
X176136361Y-78057295D01*
X176136361Y-78057295D02*
X176212552Y-78057295D01*
X176212552Y-78057295D02*
X176326838Y-78019200D01*
X176326838Y-78019200D02*
X176403028Y-77943009D01*
X176403028Y-77943009D02*
X176441123Y-77866819D01*
X176441123Y-77866819D02*
X176479219Y-77714438D01*
X176479219Y-77714438D02*
X176479219Y-77600152D01*
X176479219Y-77600152D02*
X176441123Y-77447771D01*
X176441123Y-77447771D02*
X176403028Y-77371580D01*
X176403028Y-77371580D02*
X176326838Y-77295390D01*
X176326838Y-77295390D02*
X176212552Y-77257295D01*
X176212552Y-77257295D02*
X176136361Y-77257295D01*
X176136361Y-77257295D02*
X176022076Y-77295390D01*
X176022076Y-77295390D02*
X175983980Y-77333485D01*
X175222076Y-78057295D02*
X175679219Y-78057295D01*
X175450647Y-78057295D02*
X175450647Y-77257295D01*
X175450647Y-77257295D02*
X175526838Y-77371580D01*
X175526838Y-77371580D02*
X175603028Y-77447771D01*
X175603028Y-77447771D02*
X175679219Y-77485866D01*
X174269694Y-77752533D02*
X173660171Y-77752533D01*
X172250647Y-78057295D02*
X172707790Y-78057295D01*
X172479218Y-78057295D02*
X172479218Y-77257295D01*
X172479218Y-77257295D02*
X172555409Y-77371580D01*
X172555409Y-77371580D02*
X172631599Y-77447771D01*
X172631599Y-77447771D02*
X172707790Y-77485866D01*
X171298265Y-77523961D02*
X171298265Y-78323961D01*
X170917313Y-77943009D02*
X170879218Y-78019200D01*
X170879218Y-78019200D02*
X170803027Y-78057295D01*
X171298265Y-77943009D02*
X171260170Y-78019200D01*
X171260170Y-78019200D02*
X171183980Y-78057295D01*
X171183980Y-78057295D02*
X171031599Y-78057295D01*
X171031599Y-78057295D02*
X170955408Y-78019200D01*
X170955408Y-78019200D02*
X170917313Y-77943009D01*
X170917313Y-77943009D02*
X170917313Y-77523961D01*
X170193504Y-77638247D02*
X170460170Y-77638247D01*
X170460170Y-78057295D02*
X170460170Y-77257295D01*
X170460170Y-77257295D02*
X170079218Y-77257295D01*
X175983980Y-79277104D02*
X176022076Y-79315200D01*
X176022076Y-79315200D02*
X176136361Y-79353295D01*
X176136361Y-79353295D02*
X176212552Y-79353295D01*
X176212552Y-79353295D02*
X176326838Y-79315200D01*
X176326838Y-79315200D02*
X176403028Y-79239009D01*
X176403028Y-79239009D02*
X176441123Y-79162819D01*
X176441123Y-79162819D02*
X176479219Y-79010438D01*
X176479219Y-79010438D02*
X176479219Y-78896152D01*
X176479219Y-78896152D02*
X176441123Y-78743771D01*
X176441123Y-78743771D02*
X176403028Y-78667580D01*
X176403028Y-78667580D02*
X176326838Y-78591390D01*
X176326838Y-78591390D02*
X176212552Y-78553295D01*
X176212552Y-78553295D02*
X176136361Y-78553295D01*
X176136361Y-78553295D02*
X176022076Y-78591390D01*
X176022076Y-78591390D02*
X175983980Y-78629485D01*
X175679219Y-78629485D02*
X175641123Y-78591390D01*
X175641123Y-78591390D02*
X175564933Y-78553295D01*
X175564933Y-78553295D02*
X175374457Y-78553295D01*
X175374457Y-78553295D02*
X175298266Y-78591390D01*
X175298266Y-78591390D02*
X175260171Y-78629485D01*
X175260171Y-78629485D02*
X175222076Y-78705676D01*
X175222076Y-78705676D02*
X175222076Y-78781866D01*
X175222076Y-78781866D02*
X175260171Y-78896152D01*
X175260171Y-78896152D02*
X175717314Y-79353295D01*
X175717314Y-79353295D02*
X175222076Y-79353295D01*
X174269694Y-79048533D02*
X173660171Y-79048533D01*
X172326837Y-78819961D02*
X172326837Y-79353295D01*
X172517313Y-78515200D02*
X172707790Y-79086628D01*
X172707790Y-79086628D02*
X172212551Y-79086628D01*
X171983980Y-78553295D02*
X171450646Y-78553295D01*
X171450646Y-78553295D02*
X171793504Y-79353295D01*
X170536360Y-78819961D02*
X170536360Y-79619961D01*
X170155408Y-79239009D02*
X170117313Y-79315200D01*
X170117313Y-79315200D02*
X170041122Y-79353295D01*
X170536360Y-79239009D02*
X170498265Y-79315200D01*
X170498265Y-79315200D02*
X170422075Y-79353295D01*
X170422075Y-79353295D02*
X170269694Y-79353295D01*
X170269694Y-79353295D02*
X170193503Y-79315200D01*
X170193503Y-79315200D02*
X170155408Y-79239009D01*
X170155408Y-79239009D02*
X170155408Y-78819961D01*
X169431599Y-78934247D02*
X169698265Y-78934247D01*
X169698265Y-79353295D02*
X169698265Y-78553295D01*
X169698265Y-78553295D02*
X169317313Y-78553295D01*
X154953236Y-76277504D02*
X154991332Y-76315600D01*
X154991332Y-76315600D02*
X155105617Y-76353695D01*
X155105617Y-76353695D02*
X155181808Y-76353695D01*
X155181808Y-76353695D02*
X155296094Y-76315600D01*
X155296094Y-76315600D02*
X155372284Y-76239409D01*
X155372284Y-76239409D02*
X155410379Y-76163219D01*
X155410379Y-76163219D02*
X155448475Y-76010838D01*
X155448475Y-76010838D02*
X155448475Y-75896552D01*
X155448475Y-75896552D02*
X155410379Y-75744171D01*
X155410379Y-75744171D02*
X155372284Y-75667980D01*
X155372284Y-75667980D02*
X155296094Y-75591790D01*
X155296094Y-75591790D02*
X155181808Y-75553695D01*
X155181808Y-75553695D02*
X155105617Y-75553695D01*
X155105617Y-75553695D02*
X154991332Y-75591790D01*
X154991332Y-75591790D02*
X154953236Y-75629885D01*
X154191332Y-76353695D02*
X154648475Y-76353695D01*
X154419903Y-76353695D02*
X154419903Y-75553695D01*
X154419903Y-75553695D02*
X154496094Y-75667980D01*
X154496094Y-75667980D02*
X154572284Y-75744171D01*
X154572284Y-75744171D02*
X154648475Y-75782266D01*
X156781808Y-77649695D02*
X157048475Y-77268742D01*
X157238951Y-77649695D02*
X157238951Y-76849695D01*
X157238951Y-76849695D02*
X156934189Y-76849695D01*
X156934189Y-76849695D02*
X156857999Y-76887790D01*
X156857999Y-76887790D02*
X156819904Y-76925885D01*
X156819904Y-76925885D02*
X156781808Y-77002076D01*
X156781808Y-77002076D02*
X156781808Y-77116361D01*
X156781808Y-77116361D02*
X156819904Y-77192552D01*
X156819904Y-77192552D02*
X156857999Y-77230647D01*
X156857999Y-77230647D02*
X156934189Y-77268742D01*
X156934189Y-77268742D02*
X157238951Y-77268742D01*
X156477047Y-76925885D02*
X156438951Y-76887790D01*
X156438951Y-76887790D02*
X156362761Y-76849695D01*
X156362761Y-76849695D02*
X156172285Y-76849695D01*
X156172285Y-76849695D02*
X156096094Y-76887790D01*
X156096094Y-76887790D02*
X156057999Y-76925885D01*
X156057999Y-76925885D02*
X156019904Y-77002076D01*
X156019904Y-77002076D02*
X156019904Y-77078266D01*
X156019904Y-77078266D02*
X156057999Y-77192552D01*
X156057999Y-77192552D02*
X156515142Y-77649695D01*
X156515142Y-77649695D02*
X156019904Y-77649695D01*
X154610379Y-77649695D02*
X154877046Y-77268742D01*
X155067522Y-77649695D02*
X155067522Y-76849695D01*
X155067522Y-76849695D02*
X154762760Y-76849695D01*
X154762760Y-76849695D02*
X154686570Y-76887790D01*
X154686570Y-76887790D02*
X154648475Y-76925885D01*
X154648475Y-76925885D02*
X154610379Y-77002076D01*
X154610379Y-77002076D02*
X154610379Y-77116361D01*
X154610379Y-77116361D02*
X154648475Y-77192552D01*
X154648475Y-77192552D02*
X154686570Y-77230647D01*
X154686570Y-77230647D02*
X154762760Y-77268742D01*
X154762760Y-77268742D02*
X155067522Y-77268742D01*
X154343713Y-76849695D02*
X153848475Y-76849695D01*
X153848475Y-76849695D02*
X154115141Y-77154457D01*
X154115141Y-77154457D02*
X154000856Y-77154457D01*
X154000856Y-77154457D02*
X153924665Y-77192552D01*
X153924665Y-77192552D02*
X153886570Y-77230647D01*
X153886570Y-77230647D02*
X153848475Y-77306838D01*
X153848475Y-77306838D02*
X153848475Y-77497314D01*
X153848475Y-77497314D02*
X153886570Y-77573504D01*
X153886570Y-77573504D02*
X153924665Y-77611600D01*
X153924665Y-77611600D02*
X154000856Y-77649695D01*
X154000856Y-77649695D02*
X154229427Y-77649695D01*
X154229427Y-77649695D02*
X154305618Y-77611600D01*
X154305618Y-77611600D02*
X154343713Y-77573504D01*
X152438950Y-77649695D02*
X152705617Y-77268742D01*
X152896093Y-77649695D02*
X152896093Y-76849695D01*
X152896093Y-76849695D02*
X152591331Y-76849695D01*
X152591331Y-76849695D02*
X152515141Y-76887790D01*
X152515141Y-76887790D02*
X152477046Y-76925885D01*
X152477046Y-76925885D02*
X152438950Y-77002076D01*
X152438950Y-77002076D02*
X152438950Y-77116361D01*
X152438950Y-77116361D02*
X152477046Y-77192552D01*
X152477046Y-77192552D02*
X152515141Y-77230647D01*
X152515141Y-77230647D02*
X152591331Y-77268742D01*
X152591331Y-77268742D02*
X152896093Y-77268742D01*
X151753236Y-77116361D02*
X151753236Y-77649695D01*
X151943712Y-76811600D02*
X152134189Y-77383028D01*
X152134189Y-77383028D02*
X151638950Y-77383028D01*
X158610380Y-78945695D02*
X158877047Y-78564742D01*
X159067523Y-78945695D02*
X159067523Y-78145695D01*
X159067523Y-78145695D02*
X158762761Y-78145695D01*
X158762761Y-78145695D02*
X158686571Y-78183790D01*
X158686571Y-78183790D02*
X158648476Y-78221885D01*
X158648476Y-78221885D02*
X158610380Y-78298076D01*
X158610380Y-78298076D02*
X158610380Y-78412361D01*
X158610380Y-78412361D02*
X158648476Y-78488552D01*
X158648476Y-78488552D02*
X158686571Y-78526647D01*
X158686571Y-78526647D02*
X158762761Y-78564742D01*
X158762761Y-78564742D02*
X159067523Y-78564742D01*
X157848476Y-78945695D02*
X158305619Y-78945695D01*
X158077047Y-78945695D02*
X158077047Y-78145695D01*
X158077047Y-78145695D02*
X158153238Y-78259980D01*
X158153238Y-78259980D02*
X158229428Y-78336171D01*
X158229428Y-78336171D02*
X158305619Y-78374266D01*
X150953235Y-78945695D02*
X151219902Y-78564742D01*
X151410378Y-78945695D02*
X151410378Y-78145695D01*
X151410378Y-78145695D02*
X151105616Y-78145695D01*
X151105616Y-78145695D02*
X151029426Y-78183790D01*
X151029426Y-78183790D02*
X150991331Y-78221885D01*
X150991331Y-78221885D02*
X150953235Y-78298076D01*
X150953235Y-78298076D02*
X150953235Y-78412361D01*
X150953235Y-78412361D02*
X150991331Y-78488552D01*
X150991331Y-78488552D02*
X151029426Y-78526647D01*
X151029426Y-78526647D02*
X151105616Y-78564742D01*
X151105616Y-78564742D02*
X151410378Y-78564742D01*
X150229426Y-78145695D02*
X150610378Y-78145695D01*
X150610378Y-78145695D02*
X150648474Y-78526647D01*
X150648474Y-78526647D02*
X150610378Y-78488552D01*
X150610378Y-78488552D02*
X150534188Y-78450457D01*
X150534188Y-78450457D02*
X150343712Y-78450457D01*
X150343712Y-78450457D02*
X150267521Y-78488552D01*
X150267521Y-78488552D02*
X150229426Y-78526647D01*
X150229426Y-78526647D02*
X150191331Y-78602838D01*
X150191331Y-78602838D02*
X150191331Y-78793314D01*
X150191331Y-78793314D02*
X150229426Y-78869504D01*
X150229426Y-78869504D02*
X150267521Y-78907600D01*
X150267521Y-78907600D02*
X150343712Y-78945695D01*
X150343712Y-78945695D02*
X150534188Y-78945695D01*
X150534188Y-78945695D02*
X150610378Y-78907600D01*
X150610378Y-78907600D02*
X150648474Y-78869504D01*
X148172282Y-78945695D02*
X148438949Y-78564742D01*
X148629425Y-78945695D02*
X148629425Y-78145695D01*
X148629425Y-78145695D02*
X148324663Y-78145695D01*
X148324663Y-78145695D02*
X148248473Y-78183790D01*
X148248473Y-78183790D02*
X148210378Y-78221885D01*
X148210378Y-78221885D02*
X148172282Y-78298076D01*
X148172282Y-78298076D02*
X148172282Y-78412361D01*
X148172282Y-78412361D02*
X148210378Y-78488552D01*
X148210378Y-78488552D02*
X148248473Y-78526647D01*
X148248473Y-78526647D02*
X148324663Y-78564742D01*
X148324663Y-78564742D02*
X148629425Y-78564742D01*
X147486568Y-78145695D02*
X147638949Y-78145695D01*
X147638949Y-78145695D02*
X147715140Y-78183790D01*
X147715140Y-78183790D02*
X147753235Y-78221885D01*
X147753235Y-78221885D02*
X147829425Y-78336171D01*
X147829425Y-78336171D02*
X147867521Y-78488552D01*
X147867521Y-78488552D02*
X147867521Y-78793314D01*
X147867521Y-78793314D02*
X147829425Y-78869504D01*
X147829425Y-78869504D02*
X147791330Y-78907600D01*
X147791330Y-78907600D02*
X147715140Y-78945695D01*
X147715140Y-78945695D02*
X147562759Y-78945695D01*
X147562759Y-78945695D02*
X147486568Y-78907600D01*
X147486568Y-78907600D02*
X147448473Y-78869504D01*
X147448473Y-78869504D02*
X147410378Y-78793314D01*
X147410378Y-78793314D02*
X147410378Y-78602838D01*
X147410378Y-78602838D02*
X147448473Y-78526647D01*
X147448473Y-78526647D02*
X147486568Y-78488552D01*
X147486568Y-78488552D02*
X147562759Y-78450457D01*
X147562759Y-78450457D02*
X147715140Y-78450457D01*
X147715140Y-78450457D02*
X147791330Y-78488552D01*
X147791330Y-78488552D02*
X147829425Y-78526647D01*
X147829425Y-78526647D02*
X147867521Y-78602838D01*
X148248472Y-80241695D02*
X148515139Y-79860742D01*
X148705615Y-80241695D02*
X148705615Y-79441695D01*
X148705615Y-79441695D02*
X148400853Y-79441695D01*
X148400853Y-79441695D02*
X148324663Y-79479790D01*
X148324663Y-79479790D02*
X148286568Y-79517885D01*
X148286568Y-79517885D02*
X148248472Y-79594076D01*
X148248472Y-79594076D02*
X148248472Y-79708361D01*
X148248472Y-79708361D02*
X148286568Y-79784552D01*
X148286568Y-79784552D02*
X148324663Y-79822647D01*
X148324663Y-79822647D02*
X148400853Y-79860742D01*
X148400853Y-79860742D02*
X148705615Y-79860742D01*
X147981806Y-79441695D02*
X147448472Y-79441695D01*
X147448472Y-79441695D02*
X147791330Y-80241695D01*
X154953236Y-81461504D02*
X154991332Y-81499600D01*
X154991332Y-81499600D02*
X155105617Y-81537695D01*
X155105617Y-81537695D02*
X155181808Y-81537695D01*
X155181808Y-81537695D02*
X155296094Y-81499600D01*
X155296094Y-81499600D02*
X155372284Y-81423409D01*
X155372284Y-81423409D02*
X155410379Y-81347219D01*
X155410379Y-81347219D02*
X155448475Y-81194838D01*
X155448475Y-81194838D02*
X155448475Y-81080552D01*
X155448475Y-81080552D02*
X155410379Y-80928171D01*
X155410379Y-80928171D02*
X155372284Y-80851980D01*
X155372284Y-80851980D02*
X155296094Y-80775790D01*
X155296094Y-80775790D02*
X155181808Y-80737695D01*
X155181808Y-80737695D02*
X155105617Y-80737695D01*
X155105617Y-80737695D02*
X154991332Y-80775790D01*
X154991332Y-80775790D02*
X154953236Y-80813885D01*
X154648475Y-80813885D02*
X154610379Y-80775790D01*
X154610379Y-80775790D02*
X154534189Y-80737695D01*
X154534189Y-80737695D02*
X154343713Y-80737695D01*
X154343713Y-80737695D02*
X154267522Y-80775790D01*
X154267522Y-80775790D02*
X154229427Y-80813885D01*
X154229427Y-80813885D02*
X154191332Y-80890076D01*
X154191332Y-80890076D02*
X154191332Y-80966266D01*
X154191332Y-80966266D02*
X154229427Y-81080552D01*
X154229427Y-81080552D02*
X154686570Y-81537695D01*
X154686570Y-81537695D02*
X154191332Y-81537695D01*
M02*
