%TF.GenerationSoftware,KiCad,Pcbnew,7.0.2-0*%
%TF.CreationDate,2023-12-19T13:33:06-05:00*%
%TF.ProjectId,TLS2591_v2,544c5332-3539-4315-9f76-322e6b696361,2*%
%TF.SameCoordinates,Original*%
%TF.FileFunction,Copper,L1,Top*%
%TF.FilePolarity,Positive*%
%FSLAX46Y46*%
G04 Gerber Fmt 4.6, Leading zero omitted, Abs format (unit mm)*
G04 Created by KiCad (PCBNEW 7.0.2-0) date 2023-12-19 13:33:06*
%MOMM*%
%LPD*%
G01*
G04 APERTURE LIST*
G04 Aperture macros list*
%AMRoundRect*
0 Rectangle with rounded corners*
0 $1 Rounding radius*
0 $2 $3 $4 $5 $6 $7 $8 $9 X,Y pos of 4 corners*
0 Add a 4 corners polygon primitive as box body*
4,1,4,$2,$3,$4,$5,$6,$7,$8,$9,$2,$3,0*
0 Add four circle primitives for the rounded corners*
1,1,$1+$1,$2,$3*
1,1,$1+$1,$4,$5*
1,1,$1+$1,$6,$7*
1,1,$1+$1,$8,$9*
0 Add four rect primitives between the rounded corners*
20,1,$1+$1,$2,$3,$4,$5,0*
20,1,$1+$1,$4,$5,$6,$7,0*
20,1,$1+$1,$6,$7,$8,$9,0*
20,1,$1+$1,$8,$9,$2,$3,0*%
G04 Aperture macros list end*
%TA.AperFunction,SMDPad,CuDef*%
%ADD10R,1.200000X0.350000*%
%TD*%
%TA.AperFunction,ComponentPad*%
%ADD11C,1.400000*%
%TD*%
%TA.AperFunction,ComponentPad*%
%ADD12O,1.400000X1.400000*%
%TD*%
%TA.AperFunction,ComponentPad*%
%ADD13RoundRect,0.250000X0.350000X0.625000X-0.350000X0.625000X-0.350000X-0.625000X0.350000X-0.625000X0*%
%TD*%
%TA.AperFunction,ComponentPad*%
%ADD14O,1.200000X1.750000*%
%TD*%
%TA.AperFunction,ViaPad*%
%ADD15C,0.800000*%
%TD*%
%TA.AperFunction,Conductor*%
%ADD16C,0.250000*%
%TD*%
G04 APERTURE END LIST*
D10*
%TO.P,IC1,1,SCL*%
%TO.N,Net-(IC1-SCL)*%
X151130000Y-96490000D03*
%TO.P,IC1,2,INT*%
%TO.N,unconnected-(IC1-INT-Pad2)*%
X151130000Y-97140000D03*
%TO.P,IC1,3,GND*%
%TO.N,Net-(IC1-GND)*%
X151130000Y-97790000D03*
%TO.P,IC1,4,NC*%
%TO.N,unconnected-(IC1-NC-Pad4)*%
X152630000Y-97790000D03*
%TO.P,IC1,5,VDD*%
%TO.N,Net-(IC1-VDD)*%
X152630000Y-97140000D03*
%TO.P,IC1,6,SDA*%
%TO.N,Net-(IC1-SDA)*%
X152630000Y-96490000D03*
%TD*%
D11*
%TO.P,R2,1*%
%TO.N,Net-(IC1-SDA)*%
X149352000Y-86233000D03*
D12*
%TO.P,R2,2*%
%TO.N,Net-(IC1-VDD)*%
X154432000Y-86233000D03*
%TD*%
D11*
%TO.P,R1,1*%
%TO.N,Net-(IC1-SCL)*%
X149352000Y-83058000D03*
D12*
%TO.P,R1,2*%
%TO.N,Net-(IC1-VDD)*%
X154432000Y-83058000D03*
%TD*%
D13*
%TO.P,J1,1,Pin_1*%
%TO.N,Net-(IC1-VDD)*%
X155314400Y-77724000D03*
D14*
%TO.P,J1,2,Pin_2*%
%TO.N,Net-(IC1-SDA)*%
X153314400Y-77724000D03*
%TO.P,J1,3,Pin_3*%
%TO.N,Net-(IC1-SCL)*%
X151314400Y-77724000D03*
%TO.P,J1,4,Pin_4*%
%TO.N,Net-(IC1-GND)*%
X149314400Y-77724000D03*
%TD*%
D15*
%TO.N,Net-(IC1-SCL)*%
X147320000Y-83058000D03*
X149733000Y-93091000D03*
%TO.N,Net-(IC1-SDA)*%
X153162000Y-80772000D03*
%TD*%
D16*
%TO.N,Net-(IC1-SCL)*%
X151314400Y-79317600D02*
X149352000Y-81280000D01*
X149733000Y-93091000D02*
X149733000Y-96393000D01*
X149733000Y-96393000D02*
X149830000Y-96490000D01*
X149830000Y-96490000D02*
X151130000Y-96490000D01*
X151314400Y-77724000D02*
X151314400Y-79317600D01*
X149352000Y-83058000D02*
X147320000Y-83058000D01*
X149352000Y-81280000D02*
X149352000Y-83058000D01*
%TO.N,Net-(IC1-GND)*%
X148971000Y-97790000D02*
X151130000Y-97790000D01*
X145796000Y-86106000D02*
X148971000Y-89281000D01*
X149314400Y-77724000D02*
X148590000Y-77724000D01*
X145796000Y-80518000D02*
X145796000Y-86106000D01*
X148971000Y-89281000D02*
X148971000Y-97790000D01*
X148590000Y-77724000D02*
X145796000Y-80518000D01*
%TO.N,Net-(IC1-VDD)*%
X156337000Y-87630000D02*
X156337000Y-86233000D01*
X155314400Y-82035400D02*
X156337000Y-83058000D01*
X154432000Y-86233000D02*
X156337000Y-86233000D01*
X154813000Y-89154000D02*
X156337000Y-87630000D01*
X152630000Y-97140000D02*
X154447000Y-97140000D01*
X155314400Y-77724000D02*
X155314400Y-82035400D01*
X154813000Y-96774000D02*
X154813000Y-89154000D01*
X156337000Y-86233000D02*
X156337000Y-83058000D01*
X154447000Y-97140000D02*
X154813000Y-96774000D01*
X154432000Y-83058000D02*
X156337000Y-83058000D01*
%TO.N,Net-(IC1-SDA)*%
X149352000Y-86233000D02*
X152630000Y-89511000D01*
X153314400Y-80619600D02*
X153162000Y-80772000D01*
X152630000Y-89511000D02*
X152630000Y-96490000D01*
X153314400Y-77724000D02*
X153314400Y-80619600D01*
%TD*%
M02*
