%TF.GenerationSoftware,KiCad,Pcbnew,7.0.2-0*%
%TF.CreationDate,2024-02-15T09:00:13-05:00*%
%TF.ProjectId,Turbidity_v13,54757262-6964-4697-9479-5f7631332e6b,13*%
%TF.SameCoordinates,Original*%
%TF.FileFunction,Legend,Top*%
%TF.FilePolarity,Positive*%
%FSLAX46Y46*%
G04 Gerber Fmt 4.6, Leading zero omitted, Abs format (unit mm)*
G04 Created by KiCad (PCBNEW 7.0.2-0) date 2024-02-15 09:00:13*
%MOMM*%
%LPD*%
G01*
G04 APERTURE LIST*
%ADD10C,0.150000*%
%ADD11C,0.120000*%
%ADD12C,0.200000*%
G04 APERTURE END LIST*
D10*
X148518419Y-114757295D02*
X148518419Y-115328723D01*
X148518419Y-115043009D02*
X147518419Y-115043009D01*
X147518419Y-115043009D02*
X147661276Y-115138247D01*
X147661276Y-115138247D02*
X147756514Y-115233485D01*
X147756514Y-115233485D02*
X147804133Y-115328723D01*
X147518419Y-114138247D02*
X147518419Y-114043009D01*
X147518419Y-114043009D02*
X147566038Y-113947771D01*
X147566038Y-113947771D02*
X147613657Y-113900152D01*
X147613657Y-113900152D02*
X147708895Y-113852533D01*
X147708895Y-113852533D02*
X147899371Y-113804914D01*
X147899371Y-113804914D02*
X148137466Y-113804914D01*
X148137466Y-113804914D02*
X148327942Y-113852533D01*
X148327942Y-113852533D02*
X148423180Y-113900152D01*
X148423180Y-113900152D02*
X148470800Y-113947771D01*
X148470800Y-113947771D02*
X148518419Y-114043009D01*
X148518419Y-114043009D02*
X148518419Y-114138247D01*
X148518419Y-114138247D02*
X148470800Y-114233485D01*
X148470800Y-114233485D02*
X148423180Y-114281104D01*
X148423180Y-114281104D02*
X148327942Y-114328723D01*
X148327942Y-114328723D02*
X148137466Y-114376342D01*
X148137466Y-114376342D02*
X147899371Y-114376342D01*
X147899371Y-114376342D02*
X147708895Y-114328723D01*
X147708895Y-114328723D02*
X147613657Y-114281104D01*
X147613657Y-114281104D02*
X147566038Y-114233485D01*
X147566038Y-114233485D02*
X147518419Y-114138247D01*
X147518419Y-113185866D02*
X147518419Y-113090628D01*
X147518419Y-113090628D02*
X147566038Y-112995390D01*
X147566038Y-112995390D02*
X147613657Y-112947771D01*
X147613657Y-112947771D02*
X147708895Y-112900152D01*
X147708895Y-112900152D02*
X147899371Y-112852533D01*
X147899371Y-112852533D02*
X148137466Y-112852533D01*
X148137466Y-112852533D02*
X148327942Y-112900152D01*
X148327942Y-112900152D02*
X148423180Y-112947771D01*
X148423180Y-112947771D02*
X148470800Y-112995390D01*
X148470800Y-112995390D02*
X148518419Y-113090628D01*
X148518419Y-113090628D02*
X148518419Y-113185866D01*
X148518419Y-113185866D02*
X148470800Y-113281104D01*
X148470800Y-113281104D02*
X148423180Y-113328723D01*
X148423180Y-113328723D02*
X148327942Y-113376342D01*
X148327942Y-113376342D02*
X148137466Y-113423961D01*
X148137466Y-113423961D02*
X147899371Y-113423961D01*
X147899371Y-113423961D02*
X147708895Y-113376342D01*
X147708895Y-113376342D02*
X147613657Y-113328723D01*
X147613657Y-113328723D02*
X147566038Y-113281104D01*
X147566038Y-113281104D02*
X147518419Y-113185866D01*
X136836114Y-64901619D02*
X137026590Y-64901619D01*
X137026590Y-64901619D02*
X137121828Y-64854000D01*
X137121828Y-64854000D02*
X137169447Y-64806380D01*
X137169447Y-64806380D02*
X137264685Y-64663523D01*
X137264685Y-64663523D02*
X137312304Y-64473047D01*
X137312304Y-64473047D02*
X137312304Y-64092095D01*
X137312304Y-64092095D02*
X137264685Y-63996857D01*
X137264685Y-63996857D02*
X137217066Y-63949238D01*
X137217066Y-63949238D02*
X137121828Y-63901619D01*
X137121828Y-63901619D02*
X136931352Y-63901619D01*
X136931352Y-63901619D02*
X136836114Y-63949238D01*
X136836114Y-63949238D02*
X136788495Y-63996857D01*
X136788495Y-63996857D02*
X136740876Y-64092095D01*
X136740876Y-64092095D02*
X136740876Y-64330190D01*
X136740876Y-64330190D02*
X136788495Y-64425428D01*
X136788495Y-64425428D02*
X136836114Y-64473047D01*
X136836114Y-64473047D02*
X136931352Y-64520666D01*
X136931352Y-64520666D02*
X137121828Y-64520666D01*
X137121828Y-64520666D02*
X137217066Y-64473047D01*
X137217066Y-64473047D02*
X137264685Y-64425428D01*
X137264685Y-64425428D02*
X137312304Y-64330190D01*
X137931352Y-63901619D02*
X138026590Y-63901619D01*
X138026590Y-63901619D02*
X138121828Y-63949238D01*
X138121828Y-63949238D02*
X138169447Y-63996857D01*
X138169447Y-63996857D02*
X138217066Y-64092095D01*
X138217066Y-64092095D02*
X138264685Y-64282571D01*
X138264685Y-64282571D02*
X138264685Y-64520666D01*
X138264685Y-64520666D02*
X138217066Y-64711142D01*
X138217066Y-64711142D02*
X138169447Y-64806380D01*
X138169447Y-64806380D02*
X138121828Y-64854000D01*
X138121828Y-64854000D02*
X138026590Y-64901619D01*
X138026590Y-64901619D02*
X137931352Y-64901619D01*
X137931352Y-64901619D02*
X137836114Y-64854000D01*
X137836114Y-64854000D02*
X137788495Y-64806380D01*
X137788495Y-64806380D02*
X137740876Y-64711142D01*
X137740876Y-64711142D02*
X137693257Y-64520666D01*
X137693257Y-64520666D02*
X137693257Y-64282571D01*
X137693257Y-64282571D02*
X137740876Y-64092095D01*
X137740876Y-64092095D02*
X137788495Y-63996857D01*
X137788495Y-63996857D02*
X137836114Y-63949238D01*
X137836114Y-63949238D02*
X137931352Y-63901619D01*
X138836114Y-63901619D02*
X138740876Y-63949238D01*
X138740876Y-63949238D02*
X138693257Y-64044476D01*
X138693257Y-64044476D02*
X138740876Y-64139714D01*
X138740876Y-64139714D02*
X138836114Y-64187333D01*
X138836114Y-64187333D02*
X138931352Y-64139714D01*
X138931352Y-64139714D02*
X138978971Y-64044476D01*
X138978971Y-64044476D02*
X138931352Y-63949238D01*
X138931352Y-63949238D02*
X138836114Y-63901619D01*
X140169448Y-64854000D02*
X140312305Y-64901619D01*
X140312305Y-64901619D02*
X140550400Y-64901619D01*
X140550400Y-64901619D02*
X140645638Y-64854000D01*
X140645638Y-64854000D02*
X140693257Y-64806380D01*
X140693257Y-64806380D02*
X140740876Y-64711142D01*
X140740876Y-64711142D02*
X140740876Y-64615904D01*
X140740876Y-64615904D02*
X140693257Y-64520666D01*
X140693257Y-64520666D02*
X140645638Y-64473047D01*
X140645638Y-64473047D02*
X140550400Y-64425428D01*
X140550400Y-64425428D02*
X140359924Y-64377809D01*
X140359924Y-64377809D02*
X140264686Y-64330190D01*
X140264686Y-64330190D02*
X140217067Y-64282571D01*
X140217067Y-64282571D02*
X140169448Y-64187333D01*
X140169448Y-64187333D02*
X140169448Y-64092095D01*
X140169448Y-64092095D02*
X140217067Y-63996857D01*
X140217067Y-63996857D02*
X140264686Y-63949238D01*
X140264686Y-63949238D02*
X140359924Y-63901619D01*
X140359924Y-63901619D02*
X140598019Y-63901619D01*
X140598019Y-63901619D02*
X140740876Y-63949238D01*
X141550400Y-64854000D02*
X141455162Y-64901619D01*
X141455162Y-64901619D02*
X141264686Y-64901619D01*
X141264686Y-64901619D02*
X141169448Y-64854000D01*
X141169448Y-64854000D02*
X141121829Y-64758761D01*
X141121829Y-64758761D02*
X141121829Y-64377809D01*
X141121829Y-64377809D02*
X141169448Y-64282571D01*
X141169448Y-64282571D02*
X141264686Y-64234952D01*
X141264686Y-64234952D02*
X141455162Y-64234952D01*
X141455162Y-64234952D02*
X141550400Y-64282571D01*
X141550400Y-64282571D02*
X141598019Y-64377809D01*
X141598019Y-64377809D02*
X141598019Y-64473047D01*
X141598019Y-64473047D02*
X141121829Y-64568285D01*
X142026591Y-64234952D02*
X142026591Y-64901619D01*
X142026591Y-64330190D02*
X142074210Y-64282571D01*
X142074210Y-64282571D02*
X142169448Y-64234952D01*
X142169448Y-64234952D02*
X142312305Y-64234952D01*
X142312305Y-64234952D02*
X142407543Y-64282571D01*
X142407543Y-64282571D02*
X142455162Y-64377809D01*
X142455162Y-64377809D02*
X142455162Y-64901619D01*
X142883734Y-64854000D02*
X142978972Y-64901619D01*
X142978972Y-64901619D02*
X143169448Y-64901619D01*
X143169448Y-64901619D02*
X143264686Y-64854000D01*
X143264686Y-64854000D02*
X143312305Y-64758761D01*
X143312305Y-64758761D02*
X143312305Y-64711142D01*
X143312305Y-64711142D02*
X143264686Y-64615904D01*
X143264686Y-64615904D02*
X143169448Y-64568285D01*
X143169448Y-64568285D02*
X143026591Y-64568285D01*
X143026591Y-64568285D02*
X142931353Y-64520666D01*
X142931353Y-64520666D02*
X142883734Y-64425428D01*
X142883734Y-64425428D02*
X142883734Y-64377809D01*
X142883734Y-64377809D02*
X142931353Y-64282571D01*
X142931353Y-64282571D02*
X143026591Y-64234952D01*
X143026591Y-64234952D02*
X143169448Y-64234952D01*
X143169448Y-64234952D02*
X143264686Y-64282571D01*
X143883734Y-64901619D02*
X143788496Y-64854000D01*
X143788496Y-64854000D02*
X143740877Y-64806380D01*
X143740877Y-64806380D02*
X143693258Y-64711142D01*
X143693258Y-64711142D02*
X143693258Y-64425428D01*
X143693258Y-64425428D02*
X143740877Y-64330190D01*
X143740877Y-64330190D02*
X143788496Y-64282571D01*
X143788496Y-64282571D02*
X143883734Y-64234952D01*
X143883734Y-64234952D02*
X144026591Y-64234952D01*
X144026591Y-64234952D02*
X144121829Y-64282571D01*
X144121829Y-64282571D02*
X144169448Y-64330190D01*
X144169448Y-64330190D02*
X144217067Y-64425428D01*
X144217067Y-64425428D02*
X144217067Y-64711142D01*
X144217067Y-64711142D02*
X144169448Y-64806380D01*
X144169448Y-64806380D02*
X144121829Y-64854000D01*
X144121829Y-64854000D02*
X144026591Y-64901619D01*
X144026591Y-64901619D02*
X143883734Y-64901619D01*
X144645639Y-64901619D02*
X144645639Y-64234952D01*
X144645639Y-64425428D02*
X144693258Y-64330190D01*
X144693258Y-64330190D02*
X144740877Y-64282571D01*
X144740877Y-64282571D02*
X144836115Y-64234952D01*
X144836115Y-64234952D02*
X144931353Y-64234952D01*
X141281219Y-122993161D02*
X141281219Y-122421733D01*
X142281219Y-122707447D02*
X141281219Y-122707447D01*
X141614552Y-121659828D02*
X142281219Y-121659828D01*
X141614552Y-122088399D02*
X142138361Y-122088399D01*
X142138361Y-122088399D02*
X142233600Y-122040780D01*
X142233600Y-122040780D02*
X142281219Y-121945542D01*
X142281219Y-121945542D02*
X142281219Y-121802685D01*
X142281219Y-121802685D02*
X142233600Y-121707447D01*
X142233600Y-121707447D02*
X142185980Y-121659828D01*
X142281219Y-121183637D02*
X141614552Y-121183637D01*
X141805028Y-121183637D02*
X141709790Y-121136018D01*
X141709790Y-121136018D02*
X141662171Y-121088399D01*
X141662171Y-121088399D02*
X141614552Y-120993161D01*
X141614552Y-120993161D02*
X141614552Y-120897923D01*
X142281219Y-120564589D02*
X141281219Y-120564589D01*
X141662171Y-120564589D02*
X141614552Y-120469351D01*
X141614552Y-120469351D02*
X141614552Y-120278875D01*
X141614552Y-120278875D02*
X141662171Y-120183637D01*
X141662171Y-120183637D02*
X141709790Y-120136018D01*
X141709790Y-120136018D02*
X141805028Y-120088399D01*
X141805028Y-120088399D02*
X142090742Y-120088399D01*
X142090742Y-120088399D02*
X142185980Y-120136018D01*
X142185980Y-120136018D02*
X142233600Y-120183637D01*
X142233600Y-120183637D02*
X142281219Y-120278875D01*
X142281219Y-120278875D02*
X142281219Y-120469351D01*
X142281219Y-120469351D02*
X142233600Y-120564589D01*
X142281219Y-119659827D02*
X141614552Y-119659827D01*
X141281219Y-119659827D02*
X141328838Y-119707446D01*
X141328838Y-119707446D02*
X141376457Y-119659827D01*
X141376457Y-119659827D02*
X141328838Y-119612208D01*
X141328838Y-119612208D02*
X141281219Y-119659827D01*
X141281219Y-119659827D02*
X141376457Y-119659827D01*
X142281219Y-118755066D02*
X141281219Y-118755066D01*
X142233600Y-118755066D02*
X142281219Y-118850304D01*
X142281219Y-118850304D02*
X142281219Y-119040780D01*
X142281219Y-119040780D02*
X142233600Y-119136018D01*
X142233600Y-119136018D02*
X142185980Y-119183637D01*
X142185980Y-119183637D02*
X142090742Y-119231256D01*
X142090742Y-119231256D02*
X141805028Y-119231256D01*
X141805028Y-119231256D02*
X141709790Y-119183637D01*
X141709790Y-119183637D02*
X141662171Y-119136018D01*
X141662171Y-119136018D02*
X141614552Y-119040780D01*
X141614552Y-119040780D02*
X141614552Y-118850304D01*
X141614552Y-118850304D02*
X141662171Y-118755066D01*
X142281219Y-118278875D02*
X141614552Y-118278875D01*
X141281219Y-118278875D02*
X141328838Y-118326494D01*
X141328838Y-118326494D02*
X141376457Y-118278875D01*
X141376457Y-118278875D02*
X141328838Y-118231256D01*
X141328838Y-118231256D02*
X141281219Y-118278875D01*
X141281219Y-118278875D02*
X141376457Y-118278875D01*
X141614552Y-117945542D02*
X141614552Y-117564590D01*
X141281219Y-117802685D02*
X142138361Y-117802685D01*
X142138361Y-117802685D02*
X142233600Y-117755066D01*
X142233600Y-117755066D02*
X142281219Y-117659828D01*
X142281219Y-117659828D02*
X142281219Y-117564590D01*
X141614552Y-117326494D02*
X142281219Y-117088399D01*
X141614552Y-116850304D02*
X142281219Y-117088399D01*
X142281219Y-117088399D02*
X142519314Y-117183637D01*
X142519314Y-117183637D02*
X142566933Y-117231256D01*
X142566933Y-117231256D02*
X142614552Y-117326494D01*
X142233600Y-115755065D02*
X142281219Y-115612208D01*
X142281219Y-115612208D02*
X142281219Y-115374113D01*
X142281219Y-115374113D02*
X142233600Y-115278875D01*
X142233600Y-115278875D02*
X142185980Y-115231256D01*
X142185980Y-115231256D02*
X142090742Y-115183637D01*
X142090742Y-115183637D02*
X141995504Y-115183637D01*
X141995504Y-115183637D02*
X141900266Y-115231256D01*
X141900266Y-115231256D02*
X141852647Y-115278875D01*
X141852647Y-115278875D02*
X141805028Y-115374113D01*
X141805028Y-115374113D02*
X141757409Y-115564589D01*
X141757409Y-115564589D02*
X141709790Y-115659827D01*
X141709790Y-115659827D02*
X141662171Y-115707446D01*
X141662171Y-115707446D02*
X141566933Y-115755065D01*
X141566933Y-115755065D02*
X141471695Y-115755065D01*
X141471695Y-115755065D02*
X141376457Y-115707446D01*
X141376457Y-115707446D02*
X141328838Y-115659827D01*
X141328838Y-115659827D02*
X141281219Y-115564589D01*
X141281219Y-115564589D02*
X141281219Y-115326494D01*
X141281219Y-115326494D02*
X141328838Y-115183637D01*
X142233600Y-114374113D02*
X142281219Y-114469351D01*
X142281219Y-114469351D02*
X142281219Y-114659827D01*
X142281219Y-114659827D02*
X142233600Y-114755065D01*
X142233600Y-114755065D02*
X142138361Y-114802684D01*
X142138361Y-114802684D02*
X141757409Y-114802684D01*
X141757409Y-114802684D02*
X141662171Y-114755065D01*
X141662171Y-114755065D02*
X141614552Y-114659827D01*
X141614552Y-114659827D02*
X141614552Y-114469351D01*
X141614552Y-114469351D02*
X141662171Y-114374113D01*
X141662171Y-114374113D02*
X141757409Y-114326494D01*
X141757409Y-114326494D02*
X141852647Y-114326494D01*
X141852647Y-114326494D02*
X141947885Y-114802684D01*
X141614552Y-113897922D02*
X142281219Y-113897922D01*
X141709790Y-113897922D02*
X141662171Y-113850303D01*
X141662171Y-113850303D02*
X141614552Y-113755065D01*
X141614552Y-113755065D02*
X141614552Y-113612208D01*
X141614552Y-113612208D02*
X141662171Y-113516970D01*
X141662171Y-113516970D02*
X141757409Y-113469351D01*
X141757409Y-113469351D02*
X142281219Y-113469351D01*
X142233600Y-113040779D02*
X142281219Y-112945541D01*
X142281219Y-112945541D02*
X142281219Y-112755065D01*
X142281219Y-112755065D02*
X142233600Y-112659827D01*
X142233600Y-112659827D02*
X142138361Y-112612208D01*
X142138361Y-112612208D02*
X142090742Y-112612208D01*
X142090742Y-112612208D02*
X141995504Y-112659827D01*
X141995504Y-112659827D02*
X141947885Y-112755065D01*
X141947885Y-112755065D02*
X141947885Y-112897922D01*
X141947885Y-112897922D02*
X141900266Y-112993160D01*
X141900266Y-112993160D02*
X141805028Y-113040779D01*
X141805028Y-113040779D02*
X141757409Y-113040779D01*
X141757409Y-113040779D02*
X141662171Y-112993160D01*
X141662171Y-112993160D02*
X141614552Y-112897922D01*
X141614552Y-112897922D02*
X141614552Y-112755065D01*
X141614552Y-112755065D02*
X141662171Y-112659827D01*
X142281219Y-112040779D02*
X142233600Y-112136017D01*
X142233600Y-112136017D02*
X142185980Y-112183636D01*
X142185980Y-112183636D02*
X142090742Y-112231255D01*
X142090742Y-112231255D02*
X141805028Y-112231255D01*
X141805028Y-112231255D02*
X141709790Y-112183636D01*
X141709790Y-112183636D02*
X141662171Y-112136017D01*
X141662171Y-112136017D02*
X141614552Y-112040779D01*
X141614552Y-112040779D02*
X141614552Y-111897922D01*
X141614552Y-111897922D02*
X141662171Y-111802684D01*
X141662171Y-111802684D02*
X141709790Y-111755065D01*
X141709790Y-111755065D02*
X141805028Y-111707446D01*
X141805028Y-111707446D02*
X142090742Y-111707446D01*
X142090742Y-111707446D02*
X142185980Y-111755065D01*
X142185980Y-111755065D02*
X142233600Y-111802684D01*
X142233600Y-111802684D02*
X142281219Y-111897922D01*
X142281219Y-111897922D02*
X142281219Y-112040779D01*
X142281219Y-111278874D02*
X141614552Y-111278874D01*
X141805028Y-111278874D02*
X141709790Y-111231255D01*
X141709790Y-111231255D02*
X141662171Y-111183636D01*
X141662171Y-111183636D02*
X141614552Y-111088398D01*
X141614552Y-111088398D02*
X141614552Y-110993160D01*
X141614552Y-109993159D02*
X142281219Y-109755064D01*
X142281219Y-109755064D02*
X141614552Y-109516969D01*
X142185980Y-109136016D02*
X142233600Y-109088397D01*
X142233600Y-109088397D02*
X142281219Y-109136016D01*
X142281219Y-109136016D02*
X142233600Y-109183635D01*
X142233600Y-109183635D02*
X142185980Y-109136016D01*
X142185980Y-109136016D02*
X142281219Y-109136016D01*
X142281219Y-108136017D02*
X142281219Y-108707445D01*
X142281219Y-108421731D02*
X141281219Y-108421731D01*
X141281219Y-108421731D02*
X141424076Y-108516969D01*
X141424076Y-108516969D02*
X141519314Y-108612207D01*
X141519314Y-108612207D02*
X141566933Y-108707445D01*
X141281219Y-107802683D02*
X141281219Y-107183636D01*
X141281219Y-107183636D02*
X141662171Y-107516969D01*
X141662171Y-107516969D02*
X141662171Y-107374112D01*
X141662171Y-107374112D02*
X141709790Y-107278874D01*
X141709790Y-107278874D02*
X141757409Y-107231255D01*
X141757409Y-107231255D02*
X141852647Y-107183636D01*
X141852647Y-107183636D02*
X142090742Y-107183636D01*
X142090742Y-107183636D02*
X142185980Y-107231255D01*
X142185980Y-107231255D02*
X142233600Y-107278874D01*
X142233600Y-107278874D02*
X142281219Y-107374112D01*
X142281219Y-107374112D02*
X142281219Y-107659826D01*
X142281219Y-107659826D02*
X142233600Y-107755064D01*
X142233600Y-107755064D02*
X142185980Y-107802683D01*
X142996457Y-122897923D02*
X142948838Y-122850304D01*
X142948838Y-122850304D02*
X142901219Y-122755066D01*
X142901219Y-122755066D02*
X142901219Y-122516971D01*
X142901219Y-122516971D02*
X142948838Y-122421733D01*
X142948838Y-122421733D02*
X142996457Y-122374114D01*
X142996457Y-122374114D02*
X143091695Y-122326495D01*
X143091695Y-122326495D02*
X143186933Y-122326495D01*
X143186933Y-122326495D02*
X143329790Y-122374114D01*
X143329790Y-122374114D02*
X143901219Y-122945542D01*
X143901219Y-122945542D02*
X143901219Y-122326495D01*
X142901219Y-121707447D02*
X142901219Y-121612209D01*
X142901219Y-121612209D02*
X142948838Y-121516971D01*
X142948838Y-121516971D02*
X142996457Y-121469352D01*
X142996457Y-121469352D02*
X143091695Y-121421733D01*
X143091695Y-121421733D02*
X143282171Y-121374114D01*
X143282171Y-121374114D02*
X143520266Y-121374114D01*
X143520266Y-121374114D02*
X143710742Y-121421733D01*
X143710742Y-121421733D02*
X143805980Y-121469352D01*
X143805980Y-121469352D02*
X143853600Y-121516971D01*
X143853600Y-121516971D02*
X143901219Y-121612209D01*
X143901219Y-121612209D02*
X143901219Y-121707447D01*
X143901219Y-121707447D02*
X143853600Y-121802685D01*
X143853600Y-121802685D02*
X143805980Y-121850304D01*
X143805980Y-121850304D02*
X143710742Y-121897923D01*
X143710742Y-121897923D02*
X143520266Y-121945542D01*
X143520266Y-121945542D02*
X143282171Y-121945542D01*
X143282171Y-121945542D02*
X143091695Y-121897923D01*
X143091695Y-121897923D02*
X142996457Y-121850304D01*
X142996457Y-121850304D02*
X142948838Y-121802685D01*
X142948838Y-121802685D02*
X142901219Y-121707447D01*
X142996457Y-120993161D02*
X142948838Y-120945542D01*
X142948838Y-120945542D02*
X142901219Y-120850304D01*
X142901219Y-120850304D02*
X142901219Y-120612209D01*
X142901219Y-120612209D02*
X142948838Y-120516971D01*
X142948838Y-120516971D02*
X142996457Y-120469352D01*
X142996457Y-120469352D02*
X143091695Y-120421733D01*
X143091695Y-120421733D02*
X143186933Y-120421733D01*
X143186933Y-120421733D02*
X143329790Y-120469352D01*
X143329790Y-120469352D02*
X143901219Y-121040780D01*
X143901219Y-121040780D02*
X143901219Y-120421733D01*
X143234552Y-119564590D02*
X143901219Y-119564590D01*
X142853600Y-119802685D02*
X143567885Y-120040780D01*
X143567885Y-120040780D02*
X143567885Y-119421733D01*
X142901219Y-118850304D02*
X142901219Y-118755066D01*
X142901219Y-118755066D02*
X142948838Y-118659828D01*
X142948838Y-118659828D02*
X142996457Y-118612209D01*
X142996457Y-118612209D02*
X143091695Y-118564590D01*
X143091695Y-118564590D02*
X143282171Y-118516971D01*
X143282171Y-118516971D02*
X143520266Y-118516971D01*
X143520266Y-118516971D02*
X143710742Y-118564590D01*
X143710742Y-118564590D02*
X143805980Y-118612209D01*
X143805980Y-118612209D02*
X143853600Y-118659828D01*
X143853600Y-118659828D02*
X143901219Y-118755066D01*
X143901219Y-118755066D02*
X143901219Y-118850304D01*
X143901219Y-118850304D02*
X143853600Y-118945542D01*
X143853600Y-118945542D02*
X143805980Y-118993161D01*
X143805980Y-118993161D02*
X143710742Y-119040780D01*
X143710742Y-119040780D02*
X143520266Y-119088399D01*
X143520266Y-119088399D02*
X143282171Y-119088399D01*
X143282171Y-119088399D02*
X143091695Y-119040780D01*
X143091695Y-119040780D02*
X142996457Y-118993161D01*
X142996457Y-118993161D02*
X142948838Y-118945542D01*
X142948838Y-118945542D02*
X142901219Y-118850304D01*
X142996457Y-118136018D02*
X142948838Y-118088399D01*
X142948838Y-118088399D02*
X142901219Y-117993161D01*
X142901219Y-117993161D02*
X142901219Y-117755066D01*
X142901219Y-117755066D02*
X142948838Y-117659828D01*
X142948838Y-117659828D02*
X142996457Y-117612209D01*
X142996457Y-117612209D02*
X143091695Y-117564590D01*
X143091695Y-117564590D02*
X143186933Y-117564590D01*
X143186933Y-117564590D02*
X143329790Y-117612209D01*
X143329790Y-117612209D02*
X143901219Y-118183637D01*
X143901219Y-118183637D02*
X143901219Y-117564590D01*
X143901219Y-116612209D02*
X143901219Y-117183637D01*
X143901219Y-116897923D02*
X142901219Y-116897923D01*
X142901219Y-116897923D02*
X143044076Y-116993161D01*
X143044076Y-116993161D02*
X143139314Y-117088399D01*
X143139314Y-117088399D02*
X143186933Y-117183637D01*
X143234552Y-115755066D02*
X143901219Y-115755066D01*
X142853600Y-115993161D02*
X143567885Y-116231256D01*
X143567885Y-116231256D02*
X143567885Y-115612209D01*
X145235504Y-122897923D02*
X145235504Y-122421733D01*
X145521219Y-122993161D02*
X144521219Y-122659828D01*
X144521219Y-122659828D02*
X145521219Y-122326495D01*
X144521219Y-121993161D02*
X145330742Y-121993161D01*
X145330742Y-121993161D02*
X145425980Y-121945542D01*
X145425980Y-121945542D02*
X145473600Y-121897923D01*
X145473600Y-121897923D02*
X145521219Y-121802685D01*
X145521219Y-121802685D02*
X145521219Y-121612209D01*
X145521219Y-121612209D02*
X145473600Y-121516971D01*
X145473600Y-121516971D02*
X145425980Y-121469352D01*
X145425980Y-121469352D02*
X145330742Y-121421733D01*
X145330742Y-121421733D02*
X144521219Y-121421733D01*
X144473600Y-120231257D02*
X145759314Y-121088399D01*
X145235504Y-119945542D02*
X145235504Y-119469352D01*
X145521219Y-120040780D02*
X144521219Y-119707447D01*
X144521219Y-119707447D02*
X145521219Y-119374114D01*
X144521219Y-119040780D02*
X145330742Y-119040780D01*
X145330742Y-119040780D02*
X145425980Y-118993161D01*
X145425980Y-118993161D02*
X145473600Y-118945542D01*
X145473600Y-118945542D02*
X145521219Y-118850304D01*
X145521219Y-118850304D02*
X145521219Y-118659828D01*
X145521219Y-118659828D02*
X145473600Y-118564590D01*
X145473600Y-118564590D02*
X145425980Y-118516971D01*
X145425980Y-118516971D02*
X145330742Y-118469352D01*
X145330742Y-118469352D02*
X144521219Y-118469352D01*
X145521219Y-117993161D02*
X144521219Y-117993161D01*
X144521219Y-117993161D02*
X144521219Y-117755066D01*
X144521219Y-117755066D02*
X144568838Y-117612209D01*
X144568838Y-117612209D02*
X144664076Y-117516971D01*
X144664076Y-117516971D02*
X144759314Y-117469352D01*
X144759314Y-117469352D02*
X144949790Y-117421733D01*
X144949790Y-117421733D02*
X145092647Y-117421733D01*
X145092647Y-117421733D02*
X145283123Y-117469352D01*
X145283123Y-117469352D02*
X145378361Y-117516971D01*
X145378361Y-117516971D02*
X145473600Y-117612209D01*
X145473600Y-117612209D02*
X145521219Y-117755066D01*
X145521219Y-117755066D02*
X145521219Y-117993161D01*
X154919219Y-121104114D02*
X154919219Y-121580304D01*
X154919219Y-121580304D02*
X153919219Y-121580304D01*
X154395409Y-120770780D02*
X154395409Y-120437447D01*
X154919219Y-120294590D02*
X154919219Y-120770780D01*
X154919219Y-120770780D02*
X153919219Y-120770780D01*
X153919219Y-120770780D02*
X153919219Y-120294590D01*
X154919219Y-119866018D02*
X153919219Y-119866018D01*
X153919219Y-119866018D02*
X153919219Y-119627923D01*
X153919219Y-119627923D02*
X153966838Y-119485066D01*
X153966838Y-119485066D02*
X154062076Y-119389828D01*
X154062076Y-119389828D02*
X154157314Y-119342209D01*
X154157314Y-119342209D02*
X154347790Y-119294590D01*
X154347790Y-119294590D02*
X154490647Y-119294590D01*
X154490647Y-119294590D02*
X154681123Y-119342209D01*
X154681123Y-119342209D02*
X154776361Y-119389828D01*
X154776361Y-119389828D02*
X154871600Y-119485066D01*
X154871600Y-119485066D02*
X154919219Y-119627923D01*
X154919219Y-119627923D02*
X154919219Y-119866018D01*
X154538266Y-118866018D02*
X154538266Y-118104114D01*
X154919219Y-118485066D02*
X154157314Y-118485066D01*
X153466704Y-64749219D02*
X152895276Y-64749219D01*
X153180990Y-64749219D02*
X153180990Y-63749219D01*
X153180990Y-63749219D02*
X153085752Y-63892076D01*
X153085752Y-63892076D02*
X152990514Y-63987314D01*
X152990514Y-63987314D02*
X152895276Y-64034933D01*
X154038133Y-64177790D02*
X153942895Y-64130171D01*
X153942895Y-64130171D02*
X153895276Y-64082552D01*
X153895276Y-64082552D02*
X153847657Y-63987314D01*
X153847657Y-63987314D02*
X153847657Y-63939695D01*
X153847657Y-63939695D02*
X153895276Y-63844457D01*
X153895276Y-63844457D02*
X153942895Y-63796838D01*
X153942895Y-63796838D02*
X154038133Y-63749219D01*
X154038133Y-63749219D02*
X154228609Y-63749219D01*
X154228609Y-63749219D02*
X154323847Y-63796838D01*
X154323847Y-63796838D02*
X154371466Y-63844457D01*
X154371466Y-63844457D02*
X154419085Y-63939695D01*
X154419085Y-63939695D02*
X154419085Y-63987314D01*
X154419085Y-63987314D02*
X154371466Y-64082552D01*
X154371466Y-64082552D02*
X154323847Y-64130171D01*
X154323847Y-64130171D02*
X154228609Y-64177790D01*
X154228609Y-64177790D02*
X154038133Y-64177790D01*
X154038133Y-64177790D02*
X153942895Y-64225409D01*
X153942895Y-64225409D02*
X153895276Y-64273028D01*
X153895276Y-64273028D02*
X153847657Y-64368266D01*
X153847657Y-64368266D02*
X153847657Y-64558742D01*
X153847657Y-64558742D02*
X153895276Y-64653980D01*
X153895276Y-64653980D02*
X153942895Y-64701600D01*
X153942895Y-64701600D02*
X154038133Y-64749219D01*
X154038133Y-64749219D02*
X154228609Y-64749219D01*
X154228609Y-64749219D02*
X154323847Y-64701600D01*
X154323847Y-64701600D02*
X154371466Y-64653980D01*
X154371466Y-64653980D02*
X154419085Y-64558742D01*
X154419085Y-64558742D02*
X154419085Y-64368266D01*
X154419085Y-64368266D02*
X154371466Y-64273028D01*
X154371466Y-64273028D02*
X154323847Y-64225409D01*
X154323847Y-64225409D02*
X154228609Y-64177790D01*
X155038133Y-63749219D02*
X155133371Y-63749219D01*
X155133371Y-63749219D02*
X155228609Y-63796838D01*
X155228609Y-63796838D02*
X155276228Y-63844457D01*
X155276228Y-63844457D02*
X155323847Y-63939695D01*
X155323847Y-63939695D02*
X155371466Y-64130171D01*
X155371466Y-64130171D02*
X155371466Y-64368266D01*
X155371466Y-64368266D02*
X155323847Y-64558742D01*
X155323847Y-64558742D02*
X155276228Y-64653980D01*
X155276228Y-64653980D02*
X155228609Y-64701600D01*
X155228609Y-64701600D02*
X155133371Y-64749219D01*
X155133371Y-64749219D02*
X155038133Y-64749219D01*
X155038133Y-64749219D02*
X154942895Y-64701600D01*
X154942895Y-64701600D02*
X154895276Y-64653980D01*
X154895276Y-64653980D02*
X154847657Y-64558742D01*
X154847657Y-64558742D02*
X154800038Y-64368266D01*
X154800038Y-64368266D02*
X154800038Y-64130171D01*
X154800038Y-64130171D02*
X154847657Y-63939695D01*
X154847657Y-63939695D02*
X154895276Y-63844457D01*
X154895276Y-63844457D02*
X154942895Y-63796838D01*
X154942895Y-63796838D02*
X155038133Y-63749219D01*
X155942895Y-63749219D02*
X155847657Y-63796838D01*
X155847657Y-63796838D02*
X155800038Y-63892076D01*
X155800038Y-63892076D02*
X155847657Y-63987314D01*
X155847657Y-63987314D02*
X155942895Y-64034933D01*
X155942895Y-64034933D02*
X156038133Y-63987314D01*
X156038133Y-63987314D02*
X156085752Y-63892076D01*
X156085752Y-63892076D02*
X156038133Y-63796838D01*
X156038133Y-63796838D02*
X155942895Y-63749219D01*
X157276229Y-64701600D02*
X157419086Y-64749219D01*
X157419086Y-64749219D02*
X157657181Y-64749219D01*
X157657181Y-64749219D02*
X157752419Y-64701600D01*
X157752419Y-64701600D02*
X157800038Y-64653980D01*
X157800038Y-64653980D02*
X157847657Y-64558742D01*
X157847657Y-64558742D02*
X157847657Y-64463504D01*
X157847657Y-64463504D02*
X157800038Y-64368266D01*
X157800038Y-64368266D02*
X157752419Y-64320647D01*
X157752419Y-64320647D02*
X157657181Y-64273028D01*
X157657181Y-64273028D02*
X157466705Y-64225409D01*
X157466705Y-64225409D02*
X157371467Y-64177790D01*
X157371467Y-64177790D02*
X157323848Y-64130171D01*
X157323848Y-64130171D02*
X157276229Y-64034933D01*
X157276229Y-64034933D02*
X157276229Y-63939695D01*
X157276229Y-63939695D02*
X157323848Y-63844457D01*
X157323848Y-63844457D02*
X157371467Y-63796838D01*
X157371467Y-63796838D02*
X157466705Y-63749219D01*
X157466705Y-63749219D02*
X157704800Y-63749219D01*
X157704800Y-63749219D02*
X157847657Y-63796838D01*
X158657181Y-64701600D02*
X158561943Y-64749219D01*
X158561943Y-64749219D02*
X158371467Y-64749219D01*
X158371467Y-64749219D02*
X158276229Y-64701600D01*
X158276229Y-64701600D02*
X158228610Y-64606361D01*
X158228610Y-64606361D02*
X158228610Y-64225409D01*
X158228610Y-64225409D02*
X158276229Y-64130171D01*
X158276229Y-64130171D02*
X158371467Y-64082552D01*
X158371467Y-64082552D02*
X158561943Y-64082552D01*
X158561943Y-64082552D02*
X158657181Y-64130171D01*
X158657181Y-64130171D02*
X158704800Y-64225409D01*
X158704800Y-64225409D02*
X158704800Y-64320647D01*
X158704800Y-64320647D02*
X158228610Y-64415885D01*
X159133372Y-64082552D02*
X159133372Y-64749219D01*
X159133372Y-64177790D02*
X159180991Y-64130171D01*
X159180991Y-64130171D02*
X159276229Y-64082552D01*
X159276229Y-64082552D02*
X159419086Y-64082552D01*
X159419086Y-64082552D02*
X159514324Y-64130171D01*
X159514324Y-64130171D02*
X159561943Y-64225409D01*
X159561943Y-64225409D02*
X159561943Y-64749219D01*
X159990515Y-64701600D02*
X160085753Y-64749219D01*
X160085753Y-64749219D02*
X160276229Y-64749219D01*
X160276229Y-64749219D02*
X160371467Y-64701600D01*
X160371467Y-64701600D02*
X160419086Y-64606361D01*
X160419086Y-64606361D02*
X160419086Y-64558742D01*
X160419086Y-64558742D02*
X160371467Y-64463504D01*
X160371467Y-64463504D02*
X160276229Y-64415885D01*
X160276229Y-64415885D02*
X160133372Y-64415885D01*
X160133372Y-64415885D02*
X160038134Y-64368266D01*
X160038134Y-64368266D02*
X159990515Y-64273028D01*
X159990515Y-64273028D02*
X159990515Y-64225409D01*
X159990515Y-64225409D02*
X160038134Y-64130171D01*
X160038134Y-64130171D02*
X160133372Y-64082552D01*
X160133372Y-64082552D02*
X160276229Y-64082552D01*
X160276229Y-64082552D02*
X160371467Y-64130171D01*
X160990515Y-64749219D02*
X160895277Y-64701600D01*
X160895277Y-64701600D02*
X160847658Y-64653980D01*
X160847658Y-64653980D02*
X160800039Y-64558742D01*
X160800039Y-64558742D02*
X160800039Y-64273028D01*
X160800039Y-64273028D02*
X160847658Y-64177790D01*
X160847658Y-64177790D02*
X160895277Y-64130171D01*
X160895277Y-64130171D02*
X160990515Y-64082552D01*
X160990515Y-64082552D02*
X161133372Y-64082552D01*
X161133372Y-64082552D02*
X161228610Y-64130171D01*
X161228610Y-64130171D02*
X161276229Y-64177790D01*
X161276229Y-64177790D02*
X161323848Y-64273028D01*
X161323848Y-64273028D02*
X161323848Y-64558742D01*
X161323848Y-64558742D02*
X161276229Y-64653980D01*
X161276229Y-64653980D02*
X161228610Y-64701600D01*
X161228610Y-64701600D02*
X161133372Y-64749219D01*
X161133372Y-64749219D02*
X160990515Y-64749219D01*
X161752420Y-64749219D02*
X161752420Y-64082552D01*
X161752420Y-64273028D02*
X161800039Y-64177790D01*
X161800039Y-64177790D02*
X161847658Y-64130171D01*
X161847658Y-64130171D02*
X161942896Y-64082552D01*
X161942896Y-64082552D02*
X162038134Y-64082552D01*
X142900304Y-84510419D02*
X142328876Y-84510419D01*
X142614590Y-84510419D02*
X142614590Y-83510419D01*
X142614590Y-83510419D02*
X142519352Y-83653276D01*
X142519352Y-83653276D02*
X142424114Y-83748514D01*
X142424114Y-83748514D02*
X142328876Y-83796133D01*
X151315847Y-107768219D02*
X150839657Y-107768219D01*
X150839657Y-107768219D02*
X150792038Y-108244409D01*
X150792038Y-108244409D02*
X150839657Y-108196790D01*
X150839657Y-108196790D02*
X150934895Y-108149171D01*
X150934895Y-108149171D02*
X151172990Y-108149171D01*
X151172990Y-108149171D02*
X151268228Y-108196790D01*
X151268228Y-108196790D02*
X151315847Y-108244409D01*
X151315847Y-108244409D02*
X151363466Y-108339647D01*
X151363466Y-108339647D02*
X151363466Y-108577742D01*
X151363466Y-108577742D02*
X151315847Y-108672980D01*
X151315847Y-108672980D02*
X151268228Y-108720600D01*
X151268228Y-108720600D02*
X151172990Y-108768219D01*
X151172990Y-108768219D02*
X150934895Y-108768219D01*
X150934895Y-108768219D02*
X150839657Y-108720600D01*
X150839657Y-108720600D02*
X150792038Y-108672980D01*
X151792038Y-108672980D02*
X151839657Y-108720600D01*
X151839657Y-108720600D02*
X151792038Y-108768219D01*
X151792038Y-108768219D02*
X151744419Y-108720600D01*
X151744419Y-108720600D02*
X151792038Y-108672980D01*
X151792038Y-108672980D02*
X151792038Y-108768219D01*
X152792037Y-108768219D02*
X152220609Y-108768219D01*
X152506323Y-108768219D02*
X152506323Y-107768219D01*
X152506323Y-107768219D02*
X152411085Y-107911076D01*
X152411085Y-107911076D02*
X152315847Y-108006314D01*
X152315847Y-108006314D02*
X152220609Y-108053933D01*
X153220609Y-108768219D02*
X153220609Y-107768219D01*
X153315847Y-108387266D02*
X153601561Y-108768219D01*
X153601561Y-108101552D02*
X153220609Y-108482504D01*
D11*
%TO.C,J1*%
X147173200Y-123461200D02*
X147173200Y-116721200D01*
X152953200Y-117241200D02*
X147173200Y-117241200D01*
X152953200Y-123461200D02*
X147173200Y-123461200D01*
X153193200Y-117121200D02*
X153193200Y-116481200D01*
X152953200Y-123461200D02*
X152953200Y-116721200D01*
X152953200Y-122341200D02*
X147173200Y-122341200D01*
X152953200Y-116721200D02*
X147173200Y-116721200D01*
X153193200Y-116481200D02*
X152793200Y-116481200D01*
%TO.C,R1*%
X151920836Y-109247000D02*
X152374964Y-109247000D01*
X151920836Y-110717000D02*
X152374964Y-110717000D01*
D12*
%TO.C,IC1*%
X143463000Y-82450000D02*
X143463000Y-83820000D01*
X143463000Y-102970000D02*
X153463000Y-102970000D01*
X153463000Y-82450000D02*
X143463000Y-82450000D01*
D11*
%TO.C,J4*%
X158182000Y-85344000D02*
X158182000Y-118424000D01*
X158182000Y-85344000D02*
X160842000Y-85344000D01*
X158182000Y-118424000D02*
X160842000Y-118424000D01*
X159512000Y-82744000D02*
X160842000Y-82744000D01*
X160842000Y-82744000D02*
X160842000Y-84074000D01*
X160842000Y-85344000D02*
X160842000Y-118424000D01*
%TO.C,R3*%
X150745564Y-115035000D02*
X150291436Y-115035000D01*
X150745564Y-113565000D02*
X150291436Y-113565000D01*
%TO.C,J3*%
X144665200Y-65755200D02*
X136845200Y-65755200D01*
X143065200Y-65755200D02*
X143065200Y-66675200D01*
X136845200Y-65755200D02*
X136845200Y-75875200D01*
X140705200Y-66515200D02*
X139105200Y-66515200D01*
X139105200Y-66515200D02*
X139105200Y-67515200D01*
X144665200Y-66675200D02*
X144665200Y-65755200D01*
X143065200Y-66675200D02*
X144665200Y-66675200D01*
X143065200Y-66955200D02*
X143065200Y-66675200D01*
X143065200Y-66955200D02*
X144280200Y-66955200D01*
X139105200Y-67015200D02*
X136845200Y-67015200D01*
X140705200Y-67515200D02*
X140705200Y-66515200D01*
X139105200Y-67515200D02*
X140705200Y-67515200D01*
X139105200Y-67515200D02*
X136845200Y-67515200D01*
X141205200Y-68315200D02*
X141205200Y-73315200D01*
X136845200Y-68315200D02*
X141205200Y-68315200D01*
X141205200Y-73315200D02*
X136845200Y-73315200D01*
X140705200Y-74115200D02*
X140705200Y-75115200D01*
X139105200Y-74115200D02*
X140705200Y-74115200D01*
X144665200Y-74955200D02*
X143065200Y-74955200D01*
X143065200Y-74955200D02*
X143065200Y-74675200D01*
X140705200Y-75115200D02*
X139105200Y-75115200D01*
X139105200Y-75115200D02*
X139105200Y-74115200D01*
X144665200Y-75875200D02*
X144665200Y-74955200D01*
X143065200Y-75875200D02*
X143065200Y-74955200D01*
X136845200Y-75875200D02*
X144665200Y-75875200D01*
%TO.C,J2*%
X154230400Y-75878000D02*
X162050400Y-75878000D01*
X155830400Y-75878000D02*
X155830400Y-74958000D01*
X162050400Y-75878000D02*
X162050400Y-65758000D01*
X158190400Y-75118000D02*
X159790400Y-75118000D01*
X159790400Y-75118000D02*
X159790400Y-74118000D01*
X154230400Y-74958000D02*
X154230400Y-75878000D01*
X155830400Y-74958000D02*
X154230400Y-74958000D01*
X155830400Y-74678000D02*
X155830400Y-74958000D01*
X155830400Y-74678000D02*
X154615400Y-74678000D01*
X159790400Y-74618000D02*
X162050400Y-74618000D01*
X158190400Y-74118000D02*
X158190400Y-75118000D01*
X159790400Y-74118000D02*
X158190400Y-74118000D01*
X159790400Y-74118000D02*
X162050400Y-74118000D01*
X157690400Y-73318000D02*
X157690400Y-68318000D01*
X162050400Y-73318000D02*
X157690400Y-73318000D01*
X157690400Y-68318000D02*
X162050400Y-68318000D01*
X158190400Y-67518000D02*
X158190400Y-66518000D01*
X159790400Y-67518000D02*
X158190400Y-67518000D01*
X154230400Y-66678000D02*
X155830400Y-66678000D01*
X155830400Y-66678000D02*
X155830400Y-66958000D01*
X158190400Y-66518000D02*
X159790400Y-66518000D01*
X159790400Y-66518000D02*
X159790400Y-67518000D01*
X154230400Y-65758000D02*
X154230400Y-66678000D01*
X155830400Y-65758000D02*
X155830400Y-66678000D01*
X162050400Y-65758000D02*
X154230400Y-65758000D01*
%TO.C,R2*%
X152371164Y-107415000D02*
X151917036Y-107415000D01*
X152371164Y-105945000D02*
X151917036Y-105945000D01*
%TO.C,J5*%
X137912800Y-85293200D02*
X137912800Y-118373200D01*
X137912800Y-85293200D02*
X140572800Y-85293200D01*
X137912800Y-118373200D02*
X140572800Y-118373200D01*
X139242800Y-82693200D02*
X140572800Y-82693200D01*
X140572800Y-82693200D02*
X140572800Y-84023200D01*
X140572800Y-85293200D02*
X140572800Y-118373200D01*
%TD*%
M02*
