%TF.GenerationSoftware,KiCad,Pcbnew,7.0.2-0*%
%TF.CreationDate,2024-02-15T09:00:13-05:00*%
%TF.ProjectId,Turbidity_v13,54757262-6964-4697-9479-5f7631332e6b,13*%
%TF.SameCoordinates,Original*%
%TF.FileFunction,Other,User*%
%FSLAX46Y46*%
G04 Gerber Fmt 4.6, Leading zero omitted, Abs format (unit mm)*
G04 Created by KiCad (PCBNEW 7.0.2-0) date 2024-02-15 09:00:13*
%MOMM*%
%LPD*%
G01*
G04 APERTURE LIST*
%ADD10C,0.050000*%
G04 APERTURE END LIST*
D10*
%TO.C,J1*%
X153333200Y-116341200D02*
X146793200Y-116341200D01*
X146793200Y-123841200D02*
X153333200Y-123841200D01*
X146793200Y-116341200D02*
X146793200Y-123841200D01*
X153333200Y-123841200D02*
X153333200Y-116341200D01*
%TO.C,R1*%
X150467900Y-109032000D02*
X153827900Y-109032000D01*
X150467900Y-110932000D02*
X150467900Y-109032000D01*
X153827900Y-109032000D02*
X153827900Y-110932000D01*
X153827900Y-110932000D02*
X150467900Y-110932000D01*
%TO.C,REF\u002A\u002A*%
X140783200Y-121310400D02*
G75*
G03*
X140783200Y-121310400I-2150000J0D01*
G01*
%TO.C,IC1*%
X143213000Y-82200000D02*
X153713000Y-82200000D01*
X143213000Y-103220000D02*
X143213000Y-82200000D01*
X153713000Y-82200000D02*
X153713000Y-103220000D01*
X153713000Y-103220000D02*
X143213000Y-103220000D01*
%TO.C,J4*%
X157712000Y-82274000D02*
X161262000Y-82274000D01*
X157712000Y-118874000D02*
X157712000Y-82274000D01*
X161262000Y-82274000D02*
X161262000Y-118874000D01*
X161262000Y-118874000D02*
X157712000Y-118874000D01*
%TO.C,R3*%
X152198500Y-115250000D02*
X148838500Y-115250000D01*
X152198500Y-113350000D02*
X152198500Y-115250000D01*
X148838500Y-115250000D02*
X148838500Y-113350000D01*
X148838500Y-113350000D02*
X152198500Y-113350000D01*
%TO.C,REF\u002A\u002A*%
X162297000Y-60071000D02*
G75*
G03*
X162297000Y-60071000I-2150000J0D01*
G01*
%TO.C,J3*%
X145055200Y-65365200D02*
X136455200Y-65365200D01*
X136455200Y-65365200D02*
X136455200Y-76265200D01*
X145055200Y-76265200D02*
X145055200Y-65365200D01*
X136455200Y-76265200D02*
X145055200Y-76265200D01*
%TO.C,REF\u002A\u002A*%
X140834000Y-60071000D02*
G75*
G03*
X140834000Y-60071000I-2150000J0D01*
G01*
%TO.C,J2*%
X153840400Y-76268000D02*
X162440400Y-76268000D01*
X162440400Y-76268000D02*
X162440400Y-65368000D01*
X153840400Y-65368000D02*
X153840400Y-76268000D01*
X162440400Y-65368000D02*
X153840400Y-65368000D01*
%TO.C,R2*%
X153824100Y-107630000D02*
X150464100Y-107630000D01*
X153824100Y-105730000D02*
X153824100Y-107630000D01*
X150464100Y-107630000D02*
X150464100Y-105730000D01*
X150464100Y-105730000D02*
X153824100Y-105730000D01*
%TO.C,J5*%
X137442800Y-82223200D02*
X140992800Y-82223200D01*
X137442800Y-118823200D02*
X137442800Y-82223200D01*
X140992800Y-82223200D02*
X140992800Y-118823200D01*
X140992800Y-118823200D02*
X137442800Y-118823200D01*
%TO.C,REF\u002A\u002A*%
X162297000Y-121310400D02*
G75*
G03*
X162297000Y-121310400I-2150000J0D01*
G01*
%TD*%
M02*
