%TF.GenerationSoftware,KiCad,Pcbnew,7.0.2-0*%
%TF.CreationDate,2024-02-15T09:00:13-05:00*%
%TF.ProjectId,Turbidity_v13,54757262-6964-4697-9479-5f7631332e6b,13*%
%TF.SameCoordinates,Original*%
%TF.FileFunction,Legend,Bot*%
%TF.FilePolarity,Positive*%
%FSLAX46Y46*%
G04 Gerber Fmt 4.6, Leading zero omitted, Abs format (unit mm)*
G04 Created by KiCad (PCBNEW 7.0.2-0) date 2024-02-15 09:00:13*
%MOMM*%
%LPD*%
G01*
G04 APERTURE LIST*
%ADD10C,0.000000*%
%ADD11C,0.100000*%
G04 APERTURE END LIST*
D10*
G36*
X147315225Y-63082488D02*
G01*
X147008043Y-63018988D01*
X147008043Y-59399488D01*
X147315225Y-59335988D01*
X147315225Y-63082488D01*
G37*
G36*
X149448825Y-66802000D02*
G01*
X149438506Y-66802000D01*
X149225781Y-66559112D01*
X148699524Y-66775013D01*
X148699524Y-67711637D01*
X149225781Y-67927537D01*
X149438506Y-67683856D01*
X149448825Y-67683856D01*
X149448825Y-68625244D01*
X149438506Y-68625244D01*
X149225781Y-68380769D01*
X147008837Y-67424299D01*
X147008837Y-67229832D01*
X147587481Y-67229832D01*
X148476481Y-67610038D01*
X148476481Y-66863913D01*
X147587481Y-67229832D01*
X147008837Y-67229832D01*
X147008837Y-67218718D01*
X148476481Y-66609696D01*
X149225781Y-66298763D01*
X149438506Y-66060637D01*
X149448825Y-66060637D01*
X149448825Y-66802000D01*
G37*
G36*
X149448825Y-82866706D02*
G01*
X149438506Y-82866706D01*
X149225781Y-82623025D01*
X148699524Y-82838925D01*
X148699524Y-83776342D01*
X149225781Y-83992244D01*
X149438506Y-83748561D01*
X149448825Y-83748561D01*
X149448825Y-84689949D01*
X149438506Y-84689949D01*
X149225781Y-84446268D01*
X147008837Y-83490592D01*
X147008837Y-83295331D01*
X147587481Y-83295331D01*
X148476481Y-83675538D01*
X148476481Y-82929413D01*
X147587481Y-83295331D01*
X147008837Y-83295331D01*
X147008837Y-83285011D01*
X148476481Y-82676516D01*
X149225781Y-82365851D01*
X149438506Y-82127725D01*
X149448825Y-82127725D01*
X149448825Y-82866706D01*
G37*
G36*
X151581631Y-79023371D02*
G01*
X150495781Y-79023371D01*
X150495781Y-78771752D01*
X151581631Y-78771752D01*
X151581631Y-79023371D01*
G37*
G36*
X150651356Y-79765524D02*
G01*
X151581631Y-79765524D01*
X151581631Y-80014761D01*
X150651356Y-80014761D01*
X150651356Y-80390205D01*
X150492606Y-80390205D01*
X150492606Y-79395638D01*
X150651356Y-79395638D01*
X150651356Y-79765524D01*
G37*
G36*
X149281584Y-60847749D02*
G01*
X149284236Y-60849120D01*
X149286910Y-60851378D01*
X149289599Y-60854504D01*
X149292295Y-60858476D01*
X149294992Y-60863272D01*
X149297682Y-60868872D01*
X149300356Y-60875255D01*
X149305632Y-60890284D01*
X149310760Y-60908191D01*
X149315681Y-60928807D01*
X149320336Y-60951963D01*
X149324666Y-60977492D01*
X149328610Y-61005224D01*
X149332111Y-61034990D01*
X149335107Y-61066623D01*
X149337542Y-61099953D01*
X149339354Y-61134813D01*
X149340484Y-61171032D01*
X149340875Y-61208444D01*
X149339614Y-61282075D01*
X149336000Y-61350264D01*
X149330285Y-61411664D01*
X149326717Y-61439396D01*
X149322718Y-61464924D01*
X149318318Y-61488081D01*
X149313551Y-61508697D01*
X149308446Y-61526603D01*
X149303035Y-61541633D01*
X149297350Y-61553615D01*
X149291422Y-61562383D01*
X149285282Y-61567768D01*
X149282143Y-61569138D01*
X149278962Y-61569600D01*
X149275811Y-61569283D01*
X149272756Y-61568342D01*
X149269797Y-61566790D01*
X149266932Y-61564637D01*
X149264160Y-61561899D01*
X149261480Y-61558586D01*
X149258890Y-61554712D01*
X149256390Y-61550289D01*
X149253978Y-61545331D01*
X149251654Y-61539849D01*
X149249415Y-61533856D01*
X149247262Y-61527365D01*
X149243205Y-61512940D01*
X149239473Y-61496674D01*
X149236058Y-61478669D01*
X149232949Y-61459025D01*
X149230139Y-61437845D01*
X149227616Y-61415228D01*
X149225373Y-61391276D01*
X149223400Y-61366091D01*
X149221687Y-61339774D01*
X149220225Y-61312425D01*
X149223857Y-61310500D01*
X149227403Y-61308461D01*
X149230861Y-61306308D01*
X149234230Y-61304046D01*
X149237506Y-61301678D01*
X149240689Y-61299206D01*
X149243777Y-61296634D01*
X149246767Y-61293964D01*
X149249658Y-61291200D01*
X149252448Y-61288344D01*
X149255135Y-61285400D01*
X149257718Y-61282370D01*
X149260194Y-61279258D01*
X149262561Y-61276066D01*
X149264818Y-61272798D01*
X149266963Y-61269457D01*
X149268994Y-61266045D01*
X149270909Y-61262565D01*
X149272707Y-61259021D01*
X149274385Y-61255415D01*
X149275941Y-61251751D01*
X149277374Y-61248032D01*
X149278682Y-61244259D01*
X149279864Y-61240438D01*
X149280916Y-61236570D01*
X149281837Y-61232658D01*
X149282626Y-61228706D01*
X149283281Y-61224717D01*
X149283799Y-61220693D01*
X149284180Y-61216637D01*
X149284420Y-61212553D01*
X149284518Y-61208444D01*
X149284180Y-61200251D01*
X149283281Y-61192171D01*
X149281837Y-61184229D01*
X149279864Y-61176450D01*
X149277374Y-61168856D01*
X149274385Y-61161472D01*
X149270909Y-61154323D01*
X149266963Y-61147431D01*
X149262561Y-61140821D01*
X149257718Y-61134517D01*
X149252448Y-61128543D01*
X149246767Y-61122923D01*
X149240689Y-61117681D01*
X149234230Y-61112841D01*
X149227403Y-61108427D01*
X149220225Y-61104463D01*
X149223888Y-61050796D01*
X149228844Y-61001660D01*
X149234972Y-60957862D01*
X149238438Y-60938219D01*
X149242152Y-60920213D01*
X149246098Y-60903947D01*
X149250262Y-60889522D01*
X149254627Y-60877039D01*
X149259180Y-60866598D01*
X149263906Y-60858301D01*
X149268788Y-60852250D01*
X149273812Y-60848545D01*
X149276372Y-60847604D01*
X149278962Y-60847287D01*
X149281584Y-60847749D01*
G37*
G36*
X151435409Y-77197183D02*
G01*
X151458337Y-77231645D01*
X151479743Y-77266946D01*
X151499609Y-77303034D01*
X151517918Y-77339857D01*
X151534654Y-77377365D01*
X151549800Y-77415506D01*
X151563340Y-77454228D01*
X151575255Y-77493481D01*
X151585530Y-77533212D01*
X151594148Y-77573370D01*
X151601092Y-77613904D01*
X151606346Y-77654762D01*
X151609891Y-77695893D01*
X151611713Y-77737246D01*
X151611793Y-77778768D01*
X151610705Y-77826545D01*
X151607328Y-77875157D01*
X151601496Y-77924065D01*
X151593041Y-77972727D01*
X151581795Y-78020604D01*
X151575073Y-78044079D01*
X151567591Y-78067154D01*
X151559328Y-78089763D01*
X151550262Y-78111837D01*
X151540373Y-78133309D01*
X151529640Y-78154111D01*
X151518042Y-78174177D01*
X151505558Y-78193437D01*
X151492167Y-78211826D01*
X151477848Y-78229274D01*
X151462580Y-78245715D01*
X151446343Y-78261081D01*
X151429115Y-78275304D01*
X151410875Y-78288317D01*
X151391603Y-78300052D01*
X151371277Y-78310442D01*
X151349878Y-78319419D01*
X151327382Y-78326915D01*
X151303771Y-78332863D01*
X151279023Y-78337195D01*
X151253116Y-78339844D01*
X151226031Y-78340742D01*
X151201717Y-78339904D01*
X151178614Y-78337435D01*
X151156690Y-78333400D01*
X151135912Y-78327867D01*
X151116249Y-78320900D01*
X151097670Y-78312566D01*
X151080142Y-78302932D01*
X151063634Y-78292063D01*
X151048115Y-78280025D01*
X151033552Y-78266885D01*
X151019914Y-78252709D01*
X151007169Y-78237562D01*
X150995286Y-78221512D01*
X150984233Y-78204623D01*
X150964490Y-78168598D01*
X150947686Y-78130014D01*
X150933568Y-78089401D01*
X150921882Y-78047288D01*
X150912375Y-78004205D01*
X150904794Y-77960680D01*
X150898885Y-77917242D01*
X150894394Y-77874420D01*
X150891068Y-77832743D01*
X150882337Y-77704764D01*
X150879364Y-77672859D01*
X150875665Y-77641746D01*
X150871035Y-77611803D01*
X150865271Y-77583407D01*
X150861900Y-77569907D01*
X150858168Y-77556936D01*
X150854050Y-77544541D01*
X150849520Y-77532769D01*
X150844554Y-77521668D01*
X150839124Y-77511284D01*
X150833206Y-77501664D01*
X150826775Y-77492857D01*
X150819803Y-77484909D01*
X150812267Y-77477867D01*
X150804140Y-77471779D01*
X150795397Y-77466693D01*
X150786011Y-77462654D01*
X150775959Y-77459711D01*
X150765214Y-77457910D01*
X150753749Y-77457299D01*
X150742231Y-77457722D01*
X150731329Y-77458968D01*
X150721026Y-77461005D01*
X150711307Y-77463801D01*
X150702155Y-77467324D01*
X150693553Y-77471541D01*
X150685484Y-77476421D01*
X150677934Y-77481930D01*
X150670885Y-77488037D01*
X150664320Y-77494710D01*
X150658223Y-77501915D01*
X150652579Y-77509621D01*
X150647370Y-77517796D01*
X150642580Y-77526408D01*
X150634191Y-77544810D01*
X150627281Y-77564570D01*
X150621719Y-77585431D01*
X150617373Y-77607133D01*
X150614112Y-77629419D01*
X150611804Y-77652030D01*
X150610318Y-77674709D01*
X150609523Y-77697197D01*
X150609287Y-77719236D01*
X150610077Y-77749522D01*
X150611856Y-77779708D01*
X150614619Y-77809772D01*
X150618359Y-77839689D01*
X150623070Y-77869437D01*
X150628744Y-77898992D01*
X150635376Y-77928331D01*
X150642959Y-77957430D01*
X150651486Y-77986267D01*
X150660952Y-78014819D01*
X150671349Y-78043061D01*
X150682671Y-78070970D01*
X150694912Y-78098524D01*
X150708065Y-78125698D01*
X150722123Y-78152471D01*
X150737081Y-78178817D01*
X150606905Y-78270100D01*
X150588084Y-78238990D01*
X150570496Y-78207271D01*
X150554150Y-78174981D01*
X150539057Y-78142156D01*
X150525227Y-78108833D01*
X150512669Y-78075050D01*
X150501394Y-78040844D01*
X150491411Y-78006251D01*
X150482731Y-77971308D01*
X150475363Y-77936053D01*
X150469317Y-77900522D01*
X150464603Y-77864753D01*
X150461232Y-77828782D01*
X150459212Y-77792646D01*
X150458554Y-77756384D01*
X150459268Y-77720030D01*
X150460315Y-77675678D01*
X150463550Y-77631019D01*
X150469115Y-77586490D01*
X150477153Y-77542528D01*
X150482142Y-77520897D01*
X150487803Y-77499571D01*
X150494153Y-77478606D01*
X150501210Y-77458056D01*
X150508991Y-77437975D01*
X150517514Y-77418419D01*
X150526797Y-77399442D01*
X150536857Y-77381099D01*
X150547713Y-77363444D01*
X150559382Y-77346532D01*
X150571882Y-77330418D01*
X150585230Y-77315156D01*
X150599444Y-77300800D01*
X150614542Y-77287407D01*
X150630542Y-77275029D01*
X150647461Y-77263723D01*
X150665318Y-77253542D01*
X150684129Y-77244541D01*
X150703913Y-77236775D01*
X150724688Y-77230298D01*
X150746470Y-77225166D01*
X150769278Y-77221432D01*
X150793130Y-77219152D01*
X150818043Y-77218380D01*
X150841230Y-77219307D01*
X150863330Y-77222036D01*
X150884368Y-77226492D01*
X150904370Y-77232597D01*
X150923360Y-77240277D01*
X150941364Y-77249454D01*
X150958406Y-77260052D01*
X150974511Y-77271995D01*
X150989705Y-77285206D01*
X151004012Y-77299610D01*
X151017458Y-77315130D01*
X151030067Y-77331689D01*
X151041865Y-77349211D01*
X151052876Y-77367621D01*
X151072639Y-77406796D01*
X151089555Y-77448603D01*
X151103824Y-77492432D01*
X151115648Y-77537673D01*
X151125224Y-77583715D01*
X151132755Y-77629947D01*
X151138439Y-77675760D01*
X151142477Y-77720543D01*
X151145068Y-77763685D01*
X151147727Y-77824830D01*
X151149353Y-77855094D01*
X151151456Y-77884794D01*
X151154241Y-77913661D01*
X151157919Y-77941428D01*
X151160157Y-77954814D01*
X151162696Y-77967824D01*
X151165562Y-77980425D01*
X151168782Y-77992583D01*
X151172380Y-78004263D01*
X151176383Y-78015434D01*
X151180818Y-78026061D01*
X151185709Y-78036110D01*
X151191084Y-78045548D01*
X151196968Y-78054342D01*
X151203387Y-78062458D01*
X151210367Y-78069861D01*
X151217934Y-78076520D01*
X151226114Y-78082400D01*
X151234934Y-78087467D01*
X151244419Y-78091688D01*
X151254595Y-78095030D01*
X151265488Y-78097458D01*
X151277125Y-78098940D01*
X151289531Y-78099441D01*
X151302039Y-78099030D01*
X151313973Y-78097809D01*
X151325344Y-78095795D01*
X151336164Y-78093007D01*
X151346444Y-78089462D01*
X151356197Y-78085178D01*
X151365433Y-78080172D01*
X151374164Y-78074463D01*
X151382403Y-78068067D01*
X151390160Y-78061004D01*
X151397448Y-78053289D01*
X151404277Y-78044942D01*
X151410660Y-78035980D01*
X151416608Y-78026421D01*
X151427246Y-78005581D01*
X151436285Y-77982564D01*
X151443816Y-77957512D01*
X151449934Y-77930568D01*
X151454730Y-77901872D01*
X151458299Y-77871568D01*
X151460733Y-77839796D01*
X151462125Y-77806698D01*
X151462569Y-77772417D01*
X151461854Y-77738096D01*
X151459667Y-77703951D01*
X151456022Y-77670026D01*
X151450935Y-77636365D01*
X151444422Y-77603013D01*
X151436500Y-77570014D01*
X151427182Y-77537412D01*
X151416486Y-77505252D01*
X151404427Y-77473578D01*
X151391021Y-77442433D01*
X151376284Y-77411863D01*
X151360231Y-77381912D01*
X151342879Y-77352624D01*
X151324242Y-77324043D01*
X151304338Y-77296214D01*
X151283181Y-77269180D01*
X151410975Y-77163611D01*
X151435409Y-77197183D01*
G37*
G36*
X151228329Y-68994727D02*
G01*
X151251295Y-68996817D01*
X151274022Y-69000250D01*
X151296452Y-69005004D01*
X151318530Y-69011058D01*
X151340197Y-69018390D01*
X151361397Y-69026980D01*
X151382073Y-69036806D01*
X151402168Y-69047848D01*
X151421625Y-69060083D01*
X151440388Y-69073492D01*
X151458398Y-69088052D01*
X151475600Y-69103743D01*
X151491937Y-69120544D01*
X151508626Y-69143178D01*
X151524193Y-69166469D01*
X151538627Y-69190376D01*
X151551915Y-69214857D01*
X151564044Y-69239869D01*
X151575001Y-69265370D01*
X151584773Y-69291319D01*
X151593349Y-69317674D01*
X151600715Y-69344392D01*
X151606859Y-69371431D01*
X151611768Y-69398749D01*
X151615430Y-69426304D01*
X151617832Y-69454055D01*
X151618961Y-69481958D01*
X151618804Y-69509973D01*
X151617350Y-69538056D01*
X151618625Y-69566018D01*
X151618542Y-69593892D01*
X151617117Y-69621631D01*
X151614363Y-69649192D01*
X151610298Y-69676526D01*
X151604934Y-69703589D01*
X151598287Y-69730335D01*
X151590373Y-69756718D01*
X151581205Y-69782693D01*
X151570800Y-69808213D01*
X151559171Y-69833232D01*
X151546334Y-69857705D01*
X151532305Y-69881586D01*
X151517096Y-69904829D01*
X151500725Y-69927389D01*
X151483205Y-69949219D01*
X151466973Y-69965243D01*
X151449972Y-69980261D01*
X151432250Y-69994255D01*
X151413853Y-70007206D01*
X151394830Y-70019097D01*
X151375227Y-70029907D01*
X151355092Y-70039621D01*
X151334473Y-70048218D01*
X151313416Y-70055681D01*
X151291970Y-70061992D01*
X151270182Y-70067132D01*
X151248099Y-70071083D01*
X151225769Y-70073826D01*
X151203239Y-70075344D01*
X151180556Y-70075619D01*
X151157768Y-70074631D01*
X150495781Y-70074631D01*
X150495781Y-69893655D01*
X151136337Y-69893655D01*
X151171011Y-69892579D01*
X151204400Y-69889290D01*
X151236373Y-69883693D01*
X151251787Y-69880001D01*
X151266798Y-69875697D01*
X151281389Y-69870769D01*
X151295544Y-69865207D01*
X151309246Y-69858999D01*
X151322479Y-69852132D01*
X151335227Y-69844596D01*
X151347473Y-69836378D01*
X151359201Y-69827468D01*
X151370394Y-69817852D01*
X151381036Y-69807521D01*
X151391111Y-69796461D01*
X151400601Y-69784662D01*
X151409491Y-69772113D01*
X151417764Y-69758800D01*
X151425404Y-69744713D01*
X151432395Y-69729840D01*
X151438719Y-69714169D01*
X151444360Y-69697689D01*
X151449303Y-69680388D01*
X151453531Y-69662255D01*
X151457026Y-69643277D01*
X151459773Y-69623444D01*
X151461756Y-69602743D01*
X151462958Y-69581164D01*
X151463362Y-69558693D01*
X151462951Y-69538594D01*
X151461731Y-69519219D01*
X151459721Y-69500562D01*
X151456938Y-69482619D01*
X151453402Y-69465383D01*
X151449130Y-69448850D01*
X151444143Y-69433012D01*
X151438458Y-69417865D01*
X151432094Y-69403403D01*
X151425070Y-69389620D01*
X151417404Y-69376510D01*
X151409114Y-69364068D01*
X151400220Y-69352289D01*
X151390740Y-69341166D01*
X151380693Y-69330694D01*
X151370096Y-69320867D01*
X151358970Y-69311679D01*
X151347332Y-69303125D01*
X151335201Y-69295200D01*
X151322595Y-69287897D01*
X151309534Y-69281210D01*
X151296036Y-69275135D01*
X151282119Y-69269666D01*
X151267802Y-69264796D01*
X151253103Y-69260520D01*
X151238042Y-69256833D01*
X151206906Y-69251201D01*
X151174542Y-69247856D01*
X151141099Y-69246750D01*
X150495781Y-69246750D01*
X150495781Y-68996719D01*
X151158562Y-68996719D01*
X151181905Y-68994656D01*
X151205180Y-68993999D01*
X151228329Y-68994727D01*
G37*
G36*
X151581631Y-72416987D02*
G01*
X150495781Y-72416987D01*
X150495781Y-72165369D01*
X151581631Y-72165369D01*
X151581631Y-72416987D01*
G37*
G36*
X148305377Y-71835382D02*
G01*
X148376049Y-71840727D01*
X148444790Y-71849518D01*
X148511573Y-71861660D01*
X148576373Y-71877059D01*
X148639163Y-71895618D01*
X148699917Y-71917244D01*
X148758609Y-71941840D01*
X148815213Y-71969311D01*
X148869702Y-71999563D01*
X148922051Y-72032500D01*
X148972233Y-72068026D01*
X149020223Y-72106047D01*
X149065993Y-72146468D01*
X149109518Y-72189192D01*
X149150771Y-72234126D01*
X149189727Y-72281174D01*
X149226360Y-72330240D01*
X149260642Y-72381230D01*
X149292549Y-72434048D01*
X149322053Y-72488598D01*
X149349129Y-72544787D01*
X149373751Y-72602519D01*
X149395891Y-72661697D01*
X149415525Y-72722229D01*
X149432626Y-72784017D01*
X149447168Y-72846967D01*
X149459125Y-72910983D01*
X149468470Y-72975972D01*
X149475177Y-73041836D01*
X149479221Y-73108481D01*
X149480575Y-73175813D01*
X149478314Y-73238862D01*
X149473602Y-73301605D01*
X149466461Y-73363974D01*
X149456915Y-73425902D01*
X149444987Y-73487320D01*
X149430699Y-73548163D01*
X149414074Y-73608361D01*
X149395135Y-73667848D01*
X149373905Y-73726557D01*
X149350407Y-73784419D01*
X149324664Y-73841369D01*
X149296699Y-73897337D01*
X149266535Y-73952257D01*
X149234194Y-74006062D01*
X149199699Y-74058684D01*
X149163075Y-74110055D01*
X148305825Y-74110055D01*
X148305825Y-73270268D01*
X148316143Y-73270268D01*
X148536012Y-73713180D01*
X148920187Y-73713180D01*
X148948603Y-73712697D01*
X148974990Y-73711210D01*
X148987456Y-73710073D01*
X148999455Y-73708665D01*
X149011002Y-73706979D01*
X149022109Y-73705007D01*
X149032791Y-73702744D01*
X149043061Y-73700182D01*
X149052933Y-73697315D01*
X149062420Y-73694135D01*
X149071536Y-73690636D01*
X149080295Y-73686811D01*
X149088711Y-73682654D01*
X149096796Y-73678156D01*
X149104566Y-73673312D01*
X149112032Y-73668115D01*
X149119210Y-73662558D01*
X149126112Y-73656633D01*
X149132753Y-73650335D01*
X149139146Y-73643656D01*
X149145305Y-73636590D01*
X149151243Y-73629130D01*
X149156974Y-73621268D01*
X149162511Y-73612998D01*
X149167869Y-73604314D01*
X149173061Y-73595208D01*
X149178101Y-73585673D01*
X149183002Y-73575703D01*
X149192443Y-73554430D01*
X149201227Y-73533498D01*
X149209434Y-73512364D01*
X149217059Y-73491040D01*
X149224102Y-73469538D01*
X149230560Y-73447869D01*
X149236431Y-73426047D01*
X149241711Y-73404083D01*
X149246399Y-73381989D01*
X149250492Y-73359777D01*
X149253989Y-73337459D01*
X149256885Y-73315048D01*
X149259180Y-73292554D01*
X149260871Y-73269991D01*
X149261955Y-73247371D01*
X149262430Y-73224705D01*
X149262293Y-73202005D01*
X149261086Y-73153921D01*
X149257493Y-73106590D01*
X149251554Y-73060063D01*
X149243312Y-73014390D01*
X149232806Y-72969623D01*
X149220080Y-72925811D01*
X149205173Y-72883006D01*
X149188127Y-72841258D01*
X149168984Y-72800619D01*
X149147785Y-72761138D01*
X149124570Y-72722866D01*
X149099382Y-72685855D01*
X149072262Y-72650155D01*
X149043250Y-72615817D01*
X149012389Y-72582891D01*
X148979718Y-72551428D01*
X148945281Y-72521479D01*
X148909117Y-72493094D01*
X148871269Y-72466325D01*
X148831777Y-72441222D01*
X148790683Y-72417836D01*
X148748028Y-72396217D01*
X148703853Y-72376416D01*
X148658200Y-72358485D01*
X148611110Y-72342473D01*
X148562624Y-72328431D01*
X148512783Y-72316410D01*
X148461629Y-72306461D01*
X148409203Y-72298635D01*
X148355546Y-72292982D01*
X148300700Y-72289553D01*
X148244706Y-72288399D01*
X148199462Y-72288399D01*
X148145403Y-72289419D01*
X148092349Y-72292458D01*
X148040347Y-72297483D01*
X147989442Y-72304462D01*
X147939683Y-72313362D01*
X147891114Y-72324151D01*
X147843784Y-72336797D01*
X147797738Y-72351266D01*
X147753023Y-72367528D01*
X147709687Y-72385549D01*
X147667775Y-72405297D01*
X147627334Y-72426739D01*
X147588412Y-72449844D01*
X147551053Y-72474578D01*
X147515307Y-72500910D01*
X147481218Y-72528806D01*
X147448833Y-72558235D01*
X147418200Y-72589164D01*
X147389365Y-72621560D01*
X147362374Y-72655392D01*
X147337274Y-72690627D01*
X147314112Y-72727232D01*
X147292935Y-72765175D01*
X147273788Y-72804423D01*
X147256720Y-72844945D01*
X147241776Y-72886707D01*
X147229003Y-72929678D01*
X147218448Y-72973825D01*
X147210157Y-73019115D01*
X147204177Y-73065517D01*
X147200555Y-73112997D01*
X147199337Y-73161524D01*
X147200371Y-73209461D01*
X147203701Y-73257746D01*
X147209671Y-73306410D01*
X147218623Y-73355484D01*
X147230900Y-73405000D01*
X147246846Y-73454990D01*
X147266803Y-73505484D01*
X147291114Y-73556514D01*
X147320123Y-73608111D01*
X147354173Y-73660307D01*
X147393605Y-73713134D01*
X147438764Y-73766622D01*
X147489993Y-73820803D01*
X147547634Y-73875708D01*
X147612030Y-73931369D01*
X147683525Y-73987818D01*
X147683525Y-73998137D01*
X147127900Y-73998137D01*
X147127900Y-73998136D01*
X147109681Y-73948018D01*
X147092572Y-73897557D01*
X147076576Y-73846772D01*
X147061698Y-73795681D01*
X147047939Y-73744302D01*
X147035304Y-73692656D01*
X147023797Y-73640759D01*
X147013420Y-73588630D01*
X147004178Y-73536289D01*
X146996073Y-73483753D01*
X146989109Y-73431041D01*
X146983290Y-73378172D01*
X146978620Y-73325163D01*
X146975100Y-73272035D01*
X146972736Y-73218805D01*
X146971531Y-73165491D01*
X146972922Y-73099726D01*
X146977072Y-73034509D01*
X146983944Y-72969939D01*
X146993500Y-72906120D01*
X147005704Y-72843151D01*
X147020520Y-72781133D01*
X147037911Y-72720168D01*
X147057839Y-72660357D01*
X147080268Y-72601800D01*
X147105161Y-72544599D01*
X147132482Y-72488854D01*
X147162194Y-72434667D01*
X147194259Y-72382138D01*
X147228642Y-72331370D01*
X147265305Y-72282461D01*
X147304211Y-72235515D01*
X147345325Y-72190631D01*
X147388608Y-72147911D01*
X147434025Y-72107455D01*
X147481538Y-72069365D01*
X147531112Y-72033742D01*
X147582708Y-72000687D01*
X147636290Y-71970300D01*
X147691822Y-71942683D01*
X147749266Y-71917937D01*
X147808586Y-71896163D01*
X147869746Y-71877461D01*
X147932708Y-71861933D01*
X147997435Y-71849680D01*
X148063891Y-71840803D01*
X148132040Y-71835402D01*
X148201843Y-71833580D01*
X148232799Y-71833580D01*
X148305377Y-71835382D01*
G37*
G36*
X151581631Y-70762018D02*
G01*
X150787881Y-70762018D01*
X151581631Y-71407338D01*
X151581631Y-71622443D01*
X150495781Y-71622443D01*
X150495781Y-71441467D01*
X151210156Y-71441467D01*
X150495781Y-70861237D01*
X150495781Y-70581043D01*
X151581631Y-70581043D01*
X151581631Y-70762018D01*
G37*
G36*
X149283872Y-77956423D02*
G01*
X149327865Y-78067322D01*
X149369606Y-78182723D01*
X149407450Y-78300858D01*
X149424396Y-78360399D01*
X149439751Y-78419961D01*
X149453307Y-78479323D01*
X149464861Y-78538264D01*
X149474205Y-78596563D01*
X149481134Y-78653999D01*
X149485443Y-78710352D01*
X149486925Y-78765400D01*
X149485994Y-78819170D01*
X149483235Y-78871380D01*
X149478699Y-78922023D01*
X149472437Y-78971088D01*
X149464500Y-79018565D01*
X149454940Y-79064445D01*
X149443807Y-79108717D01*
X149431151Y-79151372D01*
X149417025Y-79192401D01*
X149401479Y-79231794D01*
X149384564Y-79269540D01*
X149366332Y-79305631D01*
X149346833Y-79340056D01*
X149326118Y-79372805D01*
X149304238Y-79403870D01*
X149281244Y-79433240D01*
X149257188Y-79460905D01*
X149232120Y-79486856D01*
X149206091Y-79511082D01*
X149179153Y-79533576D01*
X149151356Y-79554325D01*
X149122751Y-79573322D01*
X149093390Y-79590555D01*
X149063323Y-79606016D01*
X149032601Y-79619694D01*
X149001276Y-79631580D01*
X148969398Y-79641664D01*
X148937019Y-79649937D01*
X148904189Y-79656388D01*
X148870959Y-79661008D01*
X148837381Y-79663787D01*
X148803506Y-79664716D01*
X148782075Y-79664716D01*
X148741192Y-79663818D01*
X148701571Y-79661133D01*
X148663188Y-79656674D01*
X148626016Y-79650455D01*
X148590030Y-79642487D01*
X148555205Y-79632784D01*
X148521514Y-79621358D01*
X148488933Y-79608223D01*
X148457435Y-79593392D01*
X148426996Y-79576877D01*
X148397588Y-79558692D01*
X148369188Y-79538849D01*
X148341769Y-79517362D01*
X148315306Y-79494243D01*
X148289773Y-79469505D01*
X148265145Y-79443161D01*
X148218500Y-79385707D01*
X148175166Y-79321986D01*
X148134939Y-79252099D01*
X148097614Y-79176152D01*
X148062987Y-79094246D01*
X148030852Y-79006486D01*
X148001006Y-78912976D01*
X147973243Y-78813818D01*
X147956155Y-78752247D01*
X147938965Y-78693545D01*
X147921442Y-78637863D01*
X147903356Y-78585354D01*
X147884475Y-78536171D01*
X147864566Y-78490466D01*
X147854155Y-78468965D01*
X147843400Y-78448390D01*
X147832273Y-78428761D01*
X147820744Y-78410097D01*
X147808785Y-78392417D01*
X147796368Y-78375739D01*
X147783462Y-78360082D01*
X147770039Y-78345467D01*
X147756070Y-78331911D01*
X147741526Y-78319435D01*
X147726379Y-78308056D01*
X147710599Y-78297794D01*
X147694157Y-78288668D01*
X147677025Y-78280697D01*
X147659174Y-78273900D01*
X147640574Y-78268297D01*
X147621197Y-78263905D01*
X147601013Y-78260745D01*
X147579995Y-78258834D01*
X147558112Y-78258193D01*
X147540650Y-78258193D01*
X147512748Y-78259450D01*
X147484052Y-78263336D01*
X147454918Y-78270023D01*
X147425705Y-78279686D01*
X147396771Y-78292498D01*
X147368474Y-78308632D01*
X147354677Y-78317998D01*
X147341173Y-78328260D01*
X147328007Y-78339440D01*
X147315225Y-78351557D01*
X147302870Y-78364636D01*
X147290988Y-78378696D01*
X147279624Y-78393760D01*
X147268821Y-78409850D01*
X147258626Y-78426986D01*
X147249082Y-78445192D01*
X147240235Y-78464487D01*
X147232129Y-78484895D01*
X147224809Y-78506436D01*
X147218320Y-78529133D01*
X147212706Y-78553006D01*
X147208013Y-78578079D01*
X147204284Y-78604371D01*
X147201566Y-78631906D01*
X147199902Y-78660704D01*
X147199337Y-78690787D01*
X147199866Y-78717663D01*
X147201444Y-78744412D01*
X147204061Y-78771026D01*
X147207706Y-78797499D01*
X147212368Y-78823825D01*
X147218037Y-78849996D01*
X147224702Y-78876007D01*
X147232352Y-78901849D01*
X147240977Y-78927517D01*
X147250565Y-78953004D01*
X147272588Y-79003409D01*
X147298338Y-79053008D01*
X147327726Y-79101750D01*
X147360668Y-79149580D01*
X147397077Y-79196445D01*
X147436867Y-79242291D01*
X147479953Y-79287065D01*
X147526247Y-79330714D01*
X147575665Y-79373184D01*
X147628119Y-79414422D01*
X147683525Y-79454373D01*
X147683525Y-79464694D01*
X147127900Y-79464694D01*
X147110198Y-79418344D01*
X147093530Y-79371658D01*
X147077900Y-79324651D01*
X147063311Y-79277342D01*
X147049767Y-79229748D01*
X147037271Y-79181886D01*
X147025826Y-79133774D01*
X147015437Y-79085428D01*
X147006107Y-79036868D01*
X146997838Y-78988109D01*
X146990636Y-78939170D01*
X146984503Y-78890068D01*
X146979443Y-78840820D01*
X146975460Y-78791443D01*
X146972557Y-78741956D01*
X146970737Y-78692375D01*
X146971638Y-78646178D01*
X146974306Y-78601065D01*
X146978690Y-78557064D01*
X146984739Y-78514197D01*
X146992402Y-78472491D01*
X147001628Y-78431970D01*
X147012366Y-78392660D01*
X147024563Y-78354585D01*
X147038170Y-78317771D01*
X147053135Y-78282241D01*
X147069407Y-78248023D01*
X147086935Y-78215139D01*
X147105667Y-78183616D01*
X147125552Y-78153479D01*
X147146540Y-78124752D01*
X147168579Y-78097460D01*
X147191618Y-78071628D01*
X147215606Y-78047282D01*
X147240491Y-78024446D01*
X147266223Y-78003146D01*
X147292750Y-77983406D01*
X147320021Y-77965251D01*
X147347985Y-77948707D01*
X147376591Y-77933798D01*
X147405788Y-77920550D01*
X147435524Y-77908987D01*
X147465749Y-77899134D01*
X147496410Y-77891016D01*
X147527458Y-77884659D01*
X147558841Y-77880088D01*
X147590507Y-77877326D01*
X147622406Y-77876400D01*
X147647012Y-77876400D01*
X147679983Y-77877123D01*
X147712222Y-77879287D01*
X147743732Y-77882887D01*
X147774517Y-77887920D01*
X147804581Y-77894381D01*
X147833925Y-77902263D01*
X147862554Y-77911563D01*
X147890470Y-77922276D01*
X147917677Y-77934398D01*
X147944178Y-77947922D01*
X147969976Y-77962845D01*
X147995074Y-77979161D01*
X148019476Y-77996867D01*
X148043185Y-78015956D01*
X148066204Y-78036425D01*
X148088535Y-78058268D01*
X148131151Y-78106059D01*
X148171058Y-78159290D01*
X148208280Y-78217923D01*
X148242845Y-78281919D01*
X148274778Y-78351241D01*
X148304104Y-78425850D01*
X148330848Y-78505707D01*
X148355037Y-78590775D01*
X148373588Y-78660815D01*
X148392794Y-78728459D01*
X148412900Y-78793416D01*
X148434151Y-78855391D01*
X148456793Y-78914092D01*
X148481071Y-78969226D01*
X148493900Y-78995364D01*
X148507230Y-79020500D01*
X148521092Y-79044598D01*
X148535516Y-79067620D01*
X148550533Y-79089531D01*
X148566173Y-79110294D01*
X148582468Y-79129873D01*
X148599448Y-79148229D01*
X148617144Y-79165328D01*
X148635586Y-79181132D01*
X148654805Y-79195605D01*
X148674831Y-79208709D01*
X148695696Y-79220409D01*
X148717430Y-79230668D01*
X148740064Y-79239450D01*
X148763627Y-79246716D01*
X148788152Y-79252432D01*
X148813669Y-79256560D01*
X148840208Y-79259064D01*
X148867799Y-79259906D01*
X148885262Y-79259906D01*
X148922807Y-79257945D01*
X148941237Y-79255496D01*
X148959405Y-79252070D01*
X148977285Y-79247667D01*
X148994851Y-79242289D01*
X149012079Y-79235938D01*
X149028943Y-79228615D01*
X149045418Y-79220321D01*
X149061477Y-79211058D01*
X149077096Y-79200826D01*
X149092249Y-79189627D01*
X149106911Y-79177463D01*
X149121057Y-79164334D01*
X149134660Y-79150242D01*
X149147696Y-79135189D01*
X149160138Y-79119175D01*
X149171963Y-79102202D01*
X149183143Y-79084272D01*
X149193654Y-79065384D01*
X149203470Y-79045542D01*
X149212567Y-79024746D01*
X149220917Y-79002997D01*
X149228497Y-78980297D01*
X149235280Y-78956647D01*
X149241241Y-78932048D01*
X149246355Y-78906502D01*
X149250596Y-78880010D01*
X149253939Y-78852574D01*
X149256359Y-78824193D01*
X149257829Y-78794871D01*
X149258325Y-78764608D01*
X149257600Y-78732792D01*
X149255440Y-78701331D01*
X149251865Y-78670212D01*
X149246894Y-78639425D01*
X149240549Y-78608956D01*
X149232849Y-78578793D01*
X149223814Y-78548925D01*
X149213465Y-78519339D01*
X149201822Y-78490022D01*
X149188905Y-78460963D01*
X149159331Y-78403569D01*
X149124903Y-78347058D01*
X149085783Y-78291333D01*
X149042134Y-78236297D01*
X148994116Y-78181851D01*
X148941891Y-78127899D01*
X148885622Y-78074341D01*
X148825469Y-78021082D01*
X148761594Y-77968023D01*
X148694158Y-77915066D01*
X148623325Y-77862113D01*
X148623325Y-77851793D01*
X149239275Y-77851793D01*
X149283872Y-77956423D01*
G37*
G36*
X146405587Y-58281888D02*
G01*
X149332937Y-58281888D01*
X149531394Y-58288509D01*
X149727336Y-58308349D01*
X149920203Y-58341078D01*
X150109437Y-58386368D01*
X150294479Y-58443890D01*
X150474770Y-58513314D01*
X150649752Y-58594312D01*
X150818867Y-58686556D01*
X150981554Y-58789716D01*
X151137257Y-58903463D01*
X151285415Y-59027470D01*
X151425471Y-59161405D01*
X151556865Y-59304942D01*
X151582425Y-59336910D01*
X151679040Y-59457751D01*
X151791436Y-59619503D01*
X151893495Y-59789869D01*
X151893534Y-59789941D01*
X151893575Y-59790013D01*
X151922944Y-59843988D01*
X152002006Y-60005941D01*
X152070527Y-60171316D01*
X152128506Y-60339624D01*
X152175944Y-60510376D01*
X152212840Y-60683083D01*
X152239194Y-60857256D01*
X152255006Y-61032407D01*
X152260277Y-61208047D01*
X152255006Y-61383687D01*
X152239194Y-61558838D01*
X152212840Y-61733011D01*
X152175944Y-61905718D01*
X152128506Y-62076470D01*
X152070527Y-62244778D01*
X152002006Y-62410153D01*
X151922944Y-62572106D01*
X151893575Y-62626082D01*
X151843877Y-62712324D01*
X151791526Y-62796454D01*
X151736589Y-62878430D01*
X151679138Y-62958212D01*
X151619243Y-63035758D01*
X151556972Y-63111027D01*
X151492395Y-63183979D01*
X151425584Y-63254571D01*
X151356606Y-63322764D01*
X151285533Y-63388515D01*
X151212433Y-63451784D01*
X151137378Y-63512529D01*
X151060436Y-63570710D01*
X150981677Y-63626286D01*
X150901171Y-63679214D01*
X150818988Y-63729455D01*
X150735198Y-63776966D01*
X150649870Y-63821708D01*
X150563075Y-63863638D01*
X150474882Y-63902716D01*
X150385360Y-63938900D01*
X150294581Y-63972150D01*
X150202613Y-64002425D01*
X150109526Y-64029682D01*
X150015391Y-64053882D01*
X149920276Y-64074983D01*
X149824252Y-64092943D01*
X149727389Y-64107723D01*
X149629756Y-64119280D01*
X149531423Y-64127573D01*
X149432460Y-64132563D01*
X149332937Y-64134206D01*
X146104756Y-64134206D01*
X146104756Y-58582719D01*
X146405587Y-58582719D01*
X146405587Y-63838138D01*
X149332937Y-63838138D01*
X149453415Y-63835461D01*
X149573193Y-63827289D01*
X149692098Y-63813687D01*
X149809955Y-63794722D01*
X149926591Y-63770460D01*
X150041831Y-63740968D01*
X150155501Y-63706312D01*
X150267429Y-63666557D01*
X150377439Y-63621771D01*
X150485358Y-63572020D01*
X150591012Y-63517369D01*
X150694227Y-63457885D01*
X150794829Y-63393635D01*
X150892644Y-63324684D01*
X150987499Y-63251099D01*
X151079218Y-63172947D01*
X147893075Y-62510194D01*
X147643837Y-62698313D01*
X147541443Y-62698313D01*
X147541443Y-62024419D01*
X147993881Y-62024419D01*
X148201843Y-61869638D01*
X149637737Y-62161738D01*
X149637737Y-62465744D01*
X149844112Y-62507813D01*
X149844112Y-62496700D01*
X150293374Y-62496700D01*
X150498162Y-62342713D01*
X151581631Y-62564169D01*
X151597530Y-62537876D01*
X151613083Y-62511385D01*
X151628288Y-62484695D01*
X151643146Y-62457807D01*
X151657657Y-62430720D01*
X151671821Y-62403435D01*
X151685637Y-62375951D01*
X151699106Y-62348269D01*
X151699106Y-62347475D01*
X150804550Y-62045850D01*
X150804550Y-60372625D01*
X151699106Y-60069413D01*
X151685649Y-60041917D01*
X151671871Y-60014595D01*
X151657769Y-59987446D01*
X151643345Y-59960471D01*
X151628599Y-59933669D01*
X151613530Y-59907041D01*
X151598139Y-59880587D01*
X151582425Y-59854307D01*
X150498162Y-60075763D01*
X150293374Y-59921775D01*
X150293374Y-62496700D01*
X149844112Y-62496700D01*
X149844112Y-59909869D01*
X149637737Y-59951938D01*
X149637737Y-60255944D01*
X148200256Y-60548838D01*
X147993881Y-60393263D01*
X147993881Y-62024419D01*
X147541443Y-62024419D01*
X147541443Y-59720163D01*
X147643837Y-59720163D01*
X147893075Y-59908282D01*
X149844112Y-59503781D01*
X151078393Y-59247882D01*
X150986672Y-59169731D01*
X150891816Y-59096148D01*
X150794000Y-59027198D01*
X150693397Y-58962950D01*
X150590182Y-58903468D01*
X150484528Y-58848819D01*
X150376610Y-58799069D01*
X150266600Y-58754284D01*
X150154674Y-58714532D01*
X150041006Y-58679877D01*
X149925769Y-58650387D01*
X149809137Y-58626127D01*
X149691284Y-58607164D01*
X149572385Y-58593564D01*
X149452613Y-58585394D01*
X149332143Y-58582719D01*
X146405587Y-58582719D01*
X146104756Y-58582719D01*
X146104756Y-58281888D01*
X146405587Y-58281888D01*
G37*
G36*
X151581631Y-75963462D02*
G01*
X151127606Y-75963462D01*
X151127606Y-76251593D01*
X151581631Y-76538137D01*
X151581631Y-76855638D01*
X151089505Y-76524644D01*
X151087995Y-76541099D01*
X151085823Y-76557432D01*
X151082997Y-76573623D01*
X151079525Y-76589654D01*
X151075415Y-76605506D01*
X151070674Y-76621161D01*
X151065311Y-76636600D01*
X151059332Y-76651804D01*
X151052746Y-76666756D01*
X151045560Y-76681436D01*
X151037782Y-76695825D01*
X151029420Y-76709906D01*
X151020482Y-76723659D01*
X151010975Y-76737066D01*
X151000908Y-76750109D01*
X150990287Y-76762769D01*
X150981926Y-76771528D01*
X150973179Y-76779824D01*
X150964065Y-76787648D01*
X150954604Y-76794990D01*
X150944816Y-76801842D01*
X150934721Y-76808193D01*
X150924338Y-76814034D01*
X150913687Y-76819357D01*
X150902788Y-76824151D01*
X150891662Y-76828408D01*
X150880326Y-76832119D01*
X150868803Y-76835273D01*
X150857110Y-76837862D01*
X150845269Y-76839876D01*
X150833298Y-76841307D01*
X150821218Y-76842144D01*
X150806519Y-76842223D01*
X150791895Y-76841589D01*
X150777371Y-76840250D01*
X150762970Y-76838215D01*
X150748717Y-76835494D01*
X150734635Y-76832094D01*
X150720748Y-76828025D01*
X150707080Y-76823296D01*
X150693655Y-76817915D01*
X150680497Y-76811893D01*
X150667629Y-76805237D01*
X150655077Y-76797956D01*
X150642863Y-76790060D01*
X150631012Y-76781558D01*
X150619547Y-76772458D01*
X150608493Y-76762769D01*
X150593885Y-76746958D01*
X150580405Y-76730383D01*
X150568027Y-76712891D01*
X150556726Y-76694332D01*
X150546476Y-76674555D01*
X150537251Y-76653407D01*
X150529026Y-76630739D01*
X150521776Y-76606399D01*
X150515475Y-76580236D01*
X150510096Y-76552099D01*
X150505615Y-76521836D01*
X150502007Y-76489296D01*
X150499245Y-76454329D01*
X150497303Y-76416783D01*
X150496157Y-76376507D01*
X150495781Y-76333350D01*
X150495781Y-75965842D01*
X150641831Y-75965842D01*
X150641831Y-76294455D01*
X150642135Y-76322550D01*
X150643145Y-76349886D01*
X150645012Y-76376317D01*
X150647883Y-76401698D01*
X150649742Y-76413950D01*
X150651908Y-76425884D01*
X150654399Y-76437483D01*
X150657235Y-76448729D01*
X150660433Y-76459604D01*
X150664012Y-76470089D01*
X150667992Y-76480166D01*
X150672390Y-76489817D01*
X150677226Y-76499024D01*
X150682517Y-76507768D01*
X150688282Y-76516032D01*
X150694541Y-76523798D01*
X150701311Y-76531046D01*
X150708611Y-76537760D01*
X150716460Y-76543920D01*
X150724877Y-76549509D01*
X150733879Y-76554509D01*
X150743487Y-76558901D01*
X150753717Y-76562667D01*
X150764589Y-76565789D01*
X150776122Y-76568249D01*
X150788334Y-76570028D01*
X150801243Y-76571109D01*
X150814868Y-76571474D01*
X150825061Y-76571171D01*
X150834949Y-76570273D01*
X150844533Y-76568793D01*
X150853810Y-76566744D01*
X150862780Y-76564140D01*
X150871441Y-76560994D01*
X150879792Y-76557320D01*
X150887831Y-76553131D01*
X150895558Y-76548441D01*
X150902971Y-76543263D01*
X150910068Y-76537612D01*
X150916848Y-76531500D01*
X150923311Y-76524940D01*
X150929454Y-76517948D01*
X150935276Y-76510535D01*
X150940777Y-76502715D01*
X150950807Y-76485911D01*
X150959534Y-76467643D01*
X150966947Y-76448020D01*
X150973035Y-76427148D01*
X150977789Y-76405138D01*
X150981198Y-76382095D01*
X150983251Y-76358130D01*
X150983937Y-76333350D01*
X150983937Y-75965842D01*
X150641831Y-75965842D01*
X150495781Y-75965842D01*
X150495781Y-75714224D01*
X150641831Y-75713904D01*
X151581631Y-75711843D01*
X151581631Y-75963462D01*
G37*
G36*
X147660506Y-79953642D02*
G01*
X147231881Y-80260028D01*
X147231881Y-80852960D01*
X149225781Y-80852960D01*
X149438506Y-80614836D01*
X149448825Y-80614836D01*
X149448825Y-81514157D01*
X149438506Y-81514157D01*
X149225781Y-81274442D01*
X147232675Y-81274442D01*
X147232675Y-81870548D01*
X147661300Y-82173762D01*
X147660506Y-82177728D01*
X147008837Y-82177728D01*
X147008837Y-79943324D01*
X147660506Y-79943324D01*
X147660506Y-79953642D01*
G37*
G36*
X151581631Y-73293286D02*
G01*
X151581631Y-73457594D01*
X150495780Y-74029094D01*
X150495780Y-73819545D01*
X151285562Y-73436957D01*
X150495781Y-73040081D01*
X150495781Y-72751950D01*
X151581631Y-73293286D01*
G37*
G36*
X151581631Y-75295125D02*
G01*
X151422881Y-75295125D01*
X151422881Y-74580749D01*
X151093474Y-74580749D01*
X151093474Y-75004612D01*
X150939487Y-75004612D01*
X150939487Y-74580749D01*
X150654531Y-74580749D01*
X150654531Y-75253056D01*
X150495781Y-75253056D01*
X150495781Y-74329131D01*
X151581631Y-74329131D01*
X151581631Y-75295125D01*
G37*
G36*
X147231881Y-68972113D02*
G01*
X148355037Y-68972113D01*
X148432164Y-68973799D01*
X148506115Y-68978781D01*
X148576938Y-68986946D01*
X148644682Y-68998183D01*
X148709393Y-69012377D01*
X148771119Y-69029416D01*
X148829908Y-69049188D01*
X148885808Y-69071580D01*
X148938866Y-69096478D01*
X148989130Y-69123770D01*
X149036648Y-69153344D01*
X149081467Y-69185086D01*
X149123635Y-69218884D01*
X149163200Y-69254624D01*
X149200209Y-69292195D01*
X149234711Y-69331483D01*
X149266751Y-69372376D01*
X149296380Y-69414760D01*
X149323643Y-69458524D01*
X149348589Y-69503553D01*
X149371265Y-69549736D01*
X149391720Y-69596960D01*
X149410000Y-69645111D01*
X149426153Y-69694078D01*
X149452271Y-69794005D01*
X149470454Y-69895839D01*
X149481085Y-69998678D01*
X149484543Y-70101618D01*
X149480485Y-70200666D01*
X149468264Y-70298496D01*
X149447808Y-70394397D01*
X149434470Y-70441401D01*
X149419047Y-70487654D01*
X149401529Y-70533068D01*
X149381909Y-70577553D01*
X149360177Y-70621020D01*
X149336324Y-70663380D01*
X149310342Y-70704543D01*
X149282222Y-70744421D01*
X149251954Y-70782924D01*
X149219530Y-70819963D01*
X149184941Y-70855448D01*
X149148178Y-70889291D01*
X149109233Y-70921401D01*
X149068096Y-70951691D01*
X149024758Y-70980070D01*
X148979212Y-71006450D01*
X148931447Y-71030741D01*
X148881455Y-71052854D01*
X148829227Y-71072699D01*
X148774754Y-71090188D01*
X148718028Y-71105232D01*
X148659039Y-71117740D01*
X148597778Y-71127624D01*
X148534238Y-71134794D01*
X148468408Y-71139162D01*
X148400281Y-71140638D01*
X147231881Y-71140638D01*
X147019156Y-71385905D01*
X147008837Y-71385905D01*
X147008837Y-70639781D01*
X147019156Y-70639781D01*
X147231881Y-70883463D01*
X148431237Y-70883463D01*
X148482991Y-70882551D01*
X148533032Y-70879840D01*
X148581367Y-70875370D01*
X148627999Y-70869180D01*
X148672933Y-70861307D01*
X148716173Y-70851792D01*
X148757724Y-70840672D01*
X148797590Y-70827987D01*
X148835776Y-70813775D01*
X148872287Y-70798075D01*
X148907126Y-70780927D01*
X148940299Y-70762368D01*
X148971810Y-70742437D01*
X149001663Y-70721174D01*
X149029863Y-70698617D01*
X149056415Y-70674806D01*
X149081322Y-70649778D01*
X149104590Y-70623572D01*
X149126223Y-70596228D01*
X149146225Y-70567784D01*
X149164601Y-70538279D01*
X149181355Y-70507752D01*
X149196493Y-70476242D01*
X149210018Y-70443787D01*
X149221935Y-70410426D01*
X149232248Y-70376199D01*
X149240962Y-70341143D01*
X149248082Y-70305298D01*
X149253612Y-70268702D01*
X149257556Y-70231395D01*
X149259919Y-70193415D01*
X149260706Y-70154800D01*
X149259853Y-70114030D01*
X149257299Y-70074186D01*
X149253047Y-70035293D01*
X149247104Y-69997374D01*
X149239473Y-69960454D01*
X149230160Y-69924557D01*
X149219170Y-69889708D01*
X149206508Y-69855929D01*
X149192178Y-69823245D01*
X149176186Y-69791681D01*
X149158536Y-69761260D01*
X149139234Y-69732008D01*
X149118285Y-69703946D01*
X149095692Y-69677101D01*
X149071462Y-69651496D01*
X149045600Y-69627155D01*
X149018109Y-69604102D01*
X148988996Y-69582362D01*
X148958264Y-69561958D01*
X148925920Y-69542915D01*
X148891968Y-69525257D01*
X148856412Y-69509007D01*
X148819259Y-69494191D01*
X148780512Y-69480832D01*
X148740177Y-69468954D01*
X148698258Y-69458582D01*
X148654762Y-69449739D01*
X148609691Y-69442450D01*
X148563053Y-69436738D01*
X148514850Y-69432629D01*
X148465089Y-69430145D01*
X148413775Y-69429312D01*
X147231881Y-69429312D01*
X147019156Y-69662676D01*
X147008837Y-69662676D01*
X147008837Y-68728432D01*
X147019156Y-68728432D01*
X147231881Y-68972113D01*
G37*
G36*
X149636150Y-61951394D02*
G01*
X148509818Y-61722000D01*
X148509818Y-61514038D01*
X148509823Y-61513317D01*
X148509875Y-61512604D01*
X148509971Y-61511899D01*
X148510112Y-61511206D01*
X148510295Y-61510525D01*
X148510521Y-61509860D01*
X148510787Y-61509211D01*
X148511094Y-61508581D01*
X148511440Y-61507971D01*
X148511824Y-61507384D01*
X148512245Y-61506821D01*
X148512702Y-61506285D01*
X148513194Y-61505777D01*
X148513721Y-61505299D01*
X148514280Y-61504853D01*
X148514871Y-61504440D01*
X148515488Y-61504067D01*
X148516123Y-61503737D01*
X148516773Y-61503451D01*
X148517437Y-61503207D01*
X148518113Y-61503007D01*
X148518798Y-61502851D01*
X148519491Y-61502738D01*
X148520188Y-61502670D01*
X148520889Y-61502645D01*
X148521590Y-61502665D01*
X148522290Y-61502729D01*
X148522986Y-61502837D01*
X148523677Y-61502990D01*
X148524360Y-61503188D01*
X148525032Y-61503431D01*
X148525693Y-61503719D01*
X148533918Y-61507378D01*
X148542241Y-61510789D01*
X148550659Y-61513950D01*
X148559165Y-61516859D01*
X148567753Y-61519515D01*
X148576418Y-61521916D01*
X148585154Y-61524059D01*
X148593956Y-61525944D01*
X148603087Y-61526285D01*
X148614916Y-61527184D01*
X148642573Y-61529913D01*
X148668742Y-61532641D01*
X148678711Y-61533540D01*
X148685237Y-61533881D01*
X148715226Y-61534620D01*
X148745002Y-61536865D01*
X148774515Y-61540592D01*
X148803712Y-61545781D01*
X148832542Y-61552409D01*
X148860953Y-61560455D01*
X148888894Y-61569897D01*
X148916314Y-61580713D01*
X148943160Y-61592882D01*
X148969382Y-61606380D01*
X148994928Y-61621187D01*
X149019746Y-61637281D01*
X149043784Y-61654640D01*
X149066992Y-61673241D01*
X149089318Y-61693064D01*
X149110710Y-61714086D01*
X149113005Y-61716389D01*
X149115404Y-61718561D01*
X149117902Y-61720601D01*
X149120493Y-61722506D01*
X149123170Y-61724273D01*
X149125929Y-61725900D01*
X149128763Y-61727384D01*
X149131668Y-61728723D01*
X149134636Y-61729914D01*
X149137663Y-61730955D01*
X149140742Y-61731843D01*
X149143868Y-61732576D01*
X149147035Y-61733152D01*
X149150237Y-61733567D01*
X149153469Y-61733819D01*
X149156725Y-61733906D01*
X149304362Y-61733906D01*
X149311744Y-61733215D01*
X149319003Y-61731162D01*
X149326131Y-61727783D01*
X149333120Y-61723113D01*
X149339965Y-61717186D01*
X149346656Y-61710037D01*
X149353188Y-61701700D01*
X149359553Y-61692210D01*
X149365743Y-61681601D01*
X149371752Y-61669908D01*
X149377571Y-61657166D01*
X149383195Y-61643410D01*
X149388615Y-61628673D01*
X149393824Y-61612990D01*
X149403581Y-61578927D01*
X149412408Y-61541496D01*
X149420247Y-61500975D01*
X149427039Y-61457640D01*
X149432727Y-61411768D01*
X149437252Y-61363636D01*
X149440556Y-61313520D01*
X149442581Y-61261697D01*
X149443269Y-61208444D01*
X149442555Y-61155191D01*
X149440458Y-61103368D01*
X149437048Y-61053252D01*
X149432392Y-61005120D01*
X149426560Y-60959248D01*
X149419619Y-60915913D01*
X149411639Y-60875392D01*
X149402688Y-60837961D01*
X149392835Y-60803898D01*
X149382148Y-60773478D01*
X149370697Y-60746980D01*
X149358548Y-60724678D01*
X149345772Y-60706851D01*
X149332437Y-60693775D01*
X149325581Y-60689105D01*
X149318611Y-60685726D01*
X149311535Y-60683673D01*
X149304362Y-60682981D01*
X149157518Y-60682981D01*
X149155705Y-60683051D01*
X149153897Y-60683172D01*
X149152095Y-60683344D01*
X149150300Y-60683567D01*
X149148515Y-60683841D01*
X149146738Y-60684165D01*
X149144973Y-60684540D01*
X149143219Y-60684964D01*
X149141478Y-60685438D01*
X149139751Y-60685962D01*
X149138038Y-60686535D01*
X149136342Y-60687156D01*
X149134662Y-60687826D01*
X149133001Y-60688545D01*
X149131359Y-60689311D01*
X149129737Y-60690125D01*
X149124803Y-60694580D01*
X149119836Y-60699923D01*
X149114854Y-60706175D01*
X149109875Y-60713361D01*
X149104916Y-60721503D01*
X149099997Y-60730623D01*
X149095135Y-60740744D01*
X149090347Y-60751889D01*
X149085653Y-60764080D01*
X149081070Y-60777341D01*
X149072308Y-60807160D01*
X149064207Y-60841528D01*
X149056911Y-60880625D01*
X149050563Y-60924634D01*
X149045308Y-60973736D01*
X149041291Y-61028112D01*
X149038654Y-61087943D01*
X149037543Y-61153411D01*
X149038102Y-61224697D01*
X149040475Y-61301983D01*
X149044806Y-61385450D01*
X149042420Y-61383943D01*
X149039558Y-61381662D01*
X149037745Y-61380023D01*
X149035690Y-61378009D01*
X149033404Y-61375585D01*
X149030897Y-61372718D01*
X149028178Y-61369376D01*
X149025258Y-61365526D01*
X149022147Y-61361133D01*
X149018855Y-61356166D01*
X149015391Y-61350590D01*
X149011766Y-61344374D01*
X149007990Y-61337482D01*
X149004073Y-61329884D01*
X149000025Y-61321545D01*
X148995855Y-61312431D01*
X148991575Y-61302511D01*
X148987194Y-61291751D01*
X148982721Y-61280118D01*
X148978168Y-61267578D01*
X148973544Y-61254099D01*
X148968859Y-61239648D01*
X148964123Y-61224190D01*
X148959346Y-61207694D01*
X148954538Y-61190125D01*
X148949710Y-61171452D01*
X148944871Y-61151640D01*
X148940031Y-61130657D01*
X148937761Y-61117561D01*
X148934923Y-61104691D01*
X148931530Y-61092058D01*
X148927597Y-61079676D01*
X148923137Y-61067557D01*
X148918166Y-61055713D01*
X148912698Y-61044155D01*
X148906746Y-61032898D01*
X148900325Y-61021952D01*
X148893448Y-61011330D01*
X148886132Y-61001045D01*
X148878388Y-60991108D01*
X148870233Y-60981533D01*
X148861679Y-60972331D01*
X148852742Y-60963515D01*
X148843435Y-60955097D01*
X148833773Y-60947089D01*
X148823770Y-60939504D01*
X148813439Y-60932354D01*
X148802796Y-60925651D01*
X148791855Y-60919408D01*
X148780629Y-60913637D01*
X148769133Y-60908350D01*
X148757382Y-60903560D01*
X148745389Y-60899279D01*
X148733168Y-60895519D01*
X148720735Y-60892292D01*
X148708102Y-60889612D01*
X148695285Y-60887489D01*
X148682298Y-60885937D01*
X148669154Y-60884968D01*
X148655868Y-60884594D01*
X148648281Y-60884671D01*
X148640700Y-60884924D01*
X148633130Y-60885355D01*
X148625573Y-60885962D01*
X148618033Y-60886746D01*
X148610511Y-60887705D01*
X148603013Y-60888840D01*
X148595540Y-60890151D01*
X148586739Y-60892036D01*
X148578004Y-60894179D01*
X148569340Y-60896580D01*
X148560752Y-60899236D01*
X148552246Y-60902145D01*
X148543829Y-60905306D01*
X148535505Y-60908717D01*
X148527281Y-60912375D01*
X148526620Y-60912663D01*
X148525947Y-60912906D01*
X148525264Y-60913104D01*
X148524574Y-60913257D01*
X148523877Y-60913366D01*
X148523177Y-60913429D01*
X148522476Y-60913449D01*
X148521776Y-60913425D01*
X148521078Y-60913356D01*
X148520386Y-60913243D01*
X148519700Y-60913087D01*
X148519025Y-60912887D01*
X148518360Y-60912644D01*
X148517710Y-60912357D01*
X148517075Y-60912027D01*
X148516458Y-60911654D01*
X148516159Y-60911452D01*
X148515867Y-60911242D01*
X148515584Y-60911023D01*
X148515308Y-60910796D01*
X148514782Y-60910318D01*
X148514290Y-60909809D01*
X148513833Y-60909273D01*
X148513412Y-60908710D01*
X148513028Y-60908123D01*
X148512682Y-60907513D01*
X148512375Y-60906883D01*
X148512108Y-60906234D01*
X148511882Y-60905569D01*
X148511699Y-60904888D01*
X148511558Y-60904195D01*
X148511462Y-60903490D01*
X148511431Y-60903135D01*
X148511411Y-60902777D01*
X148511402Y-60902417D01*
X148511406Y-60902056D01*
X148511406Y-60695682D01*
X149636150Y-60466288D01*
X149636150Y-61951394D01*
G37*
G36*
X147231881Y-74940319D02*
G01*
X148355037Y-74940319D01*
X148432164Y-74942005D01*
X148506115Y-74946987D01*
X148576938Y-74955152D01*
X148644682Y-74966389D01*
X148709393Y-74980583D01*
X148771119Y-74997622D01*
X148829908Y-75017394D01*
X148885808Y-75039786D01*
X148938866Y-75064684D01*
X148989130Y-75091976D01*
X149036648Y-75121550D01*
X149081467Y-75153292D01*
X149123635Y-75187090D01*
X149163200Y-75222830D01*
X149200209Y-75260401D01*
X149234711Y-75299689D01*
X149266751Y-75340582D01*
X149296380Y-75382966D01*
X149323643Y-75426730D01*
X149348589Y-75471759D01*
X149371265Y-75517942D01*
X149391720Y-75565166D01*
X149410000Y-75613318D01*
X149426153Y-75662284D01*
X149452271Y-75762212D01*
X149470454Y-75864046D01*
X149481085Y-75966884D01*
X149484543Y-76069826D01*
X149480485Y-76168872D01*
X149468264Y-76266703D01*
X149447808Y-76362604D01*
X149434470Y-76409607D01*
X149419047Y-76455860D01*
X149401529Y-76501274D01*
X149381909Y-76545759D01*
X149360177Y-76589226D01*
X149336324Y-76631586D01*
X149310342Y-76672750D01*
X149282222Y-76712627D01*
X149251954Y-76751130D01*
X149219530Y-76788169D01*
X149184941Y-76823654D01*
X149148178Y-76857497D01*
X149109233Y-76889607D01*
X149068096Y-76919897D01*
X149024758Y-76948276D01*
X148979212Y-76974656D01*
X148931447Y-76998947D01*
X148881455Y-77021060D01*
X148829227Y-77040906D01*
X148774754Y-77058395D01*
X148718028Y-77073438D01*
X148659039Y-77085946D01*
X148597778Y-77095830D01*
X148534238Y-77103000D01*
X148468408Y-77107368D01*
X148400281Y-77108844D01*
X147231881Y-77108844D01*
X147019156Y-77354112D01*
X147008837Y-77354112D01*
X147008837Y-76607987D01*
X147019156Y-76607987D01*
X147231881Y-76851669D01*
X148431237Y-76851669D01*
X148482991Y-76850757D01*
X148533032Y-76848046D01*
X148581367Y-76843576D01*
X148627999Y-76837386D01*
X148672933Y-76829513D01*
X148716173Y-76819998D01*
X148757724Y-76808878D01*
X148797590Y-76796193D01*
X148835776Y-76781981D01*
X148872287Y-76766281D01*
X148907126Y-76749133D01*
X148940299Y-76730574D01*
X148971810Y-76710643D01*
X149001663Y-76689380D01*
X149029863Y-76666823D01*
X149056415Y-76643012D01*
X149081322Y-76617984D01*
X149104590Y-76591778D01*
X149126223Y-76564434D01*
X149146225Y-76535990D01*
X149164601Y-76506485D01*
X149181355Y-76475958D01*
X149196493Y-76444448D01*
X149210018Y-76411993D01*
X149221935Y-76378632D01*
X149232248Y-76344405D01*
X149240962Y-76309349D01*
X149248082Y-76273504D01*
X149253612Y-76236908D01*
X149257556Y-76199601D01*
X149259919Y-76161621D01*
X149260706Y-76123006D01*
X149259853Y-76082236D01*
X149257299Y-76042392D01*
X149253047Y-76003499D01*
X149247104Y-75965580D01*
X149239473Y-75928660D01*
X149230160Y-75892763D01*
X149219170Y-75857914D01*
X149206508Y-75824135D01*
X149192178Y-75791451D01*
X149176186Y-75759887D01*
X149158536Y-75729466D01*
X149139234Y-75700214D01*
X149118285Y-75672152D01*
X149095692Y-75645307D01*
X149071462Y-75619702D01*
X149045600Y-75595361D01*
X149018109Y-75572308D01*
X148988996Y-75550568D01*
X148958264Y-75530164D01*
X148925920Y-75511121D01*
X148891968Y-75493463D01*
X148856412Y-75477213D01*
X148819259Y-75462397D01*
X148780512Y-75449038D01*
X148740177Y-75437160D01*
X148698258Y-75426788D01*
X148654762Y-75417945D01*
X148609691Y-75410656D01*
X148563053Y-75404944D01*
X148514850Y-75400835D01*
X148465089Y-75398351D01*
X148413775Y-75397518D01*
X147231881Y-75397518D01*
X147019156Y-75630882D01*
X147008837Y-75630882D01*
X147008837Y-74696638D01*
X147019156Y-74696638D01*
X147231881Y-74940319D01*
G37*
G36*
X151149831Y-81004567D02*
G01*
X151581631Y-81004567D01*
X151581631Y-81254600D01*
X151149831Y-81254600D01*
X150495781Y-81754661D01*
X150495781Y-81528443D01*
X150993462Y-81181575D01*
X150495781Y-80824387D01*
X150495781Y-80516413D01*
X151149831Y-81004567D01*
G37*
D11*
X151893575Y-59791600D02*
X151922944Y-59844782D01*
X151893575Y-62626875D02*
X151922944Y-62573694D01*
M02*
