%TF.GenerationSoftware,KiCad,Pcbnew,7.0.2-0*%
%TF.CreationDate,2024-02-15T09:00:13-05:00*%
%TF.ProjectId,Turbidity_v13,54757262-6964-4697-9479-5f7631332e6b,13*%
%TF.SameCoordinates,Original*%
%TF.FileFunction,AssemblyDrawing,Top*%
%FSLAX46Y46*%
G04 Gerber Fmt 4.6, Leading zero omitted, Abs format (unit mm)*
G04 Created by KiCad (PCBNEW 7.0.2-0) date 2024-02-15 09:00:13*
%MOMM*%
%LPD*%
G01*
G04 APERTURE LIST*
%ADD10C,0.150000*%
%ADD11C,0.100000*%
G04 APERTURE END LIST*
D10*
%TO.C,J4*%
X158974619Y-100917333D02*
X159688904Y-100917333D01*
X159688904Y-100917333D02*
X159831761Y-100964952D01*
X159831761Y-100964952D02*
X159927000Y-101060190D01*
X159927000Y-101060190D02*
X159974619Y-101203047D01*
X159974619Y-101203047D02*
X159974619Y-101298285D01*
X159307952Y-100012571D02*
X159974619Y-100012571D01*
X158927000Y-100250666D02*
X159641285Y-100488761D01*
X159641285Y-100488761D02*
X159641285Y-99869714D01*
%TO.C,REF\u002A\u002A*%
X158813666Y-60533619D02*
X158480333Y-60057428D01*
X158242238Y-60533619D02*
X158242238Y-59533619D01*
X158242238Y-59533619D02*
X158623190Y-59533619D01*
X158623190Y-59533619D02*
X158718428Y-59581238D01*
X158718428Y-59581238D02*
X158766047Y-59628857D01*
X158766047Y-59628857D02*
X158813666Y-59724095D01*
X158813666Y-59724095D02*
X158813666Y-59866952D01*
X158813666Y-59866952D02*
X158766047Y-59962190D01*
X158766047Y-59962190D02*
X158718428Y-60009809D01*
X158718428Y-60009809D02*
X158623190Y-60057428D01*
X158623190Y-60057428D02*
X158242238Y-60057428D01*
X159242238Y-60009809D02*
X159575571Y-60009809D01*
X159718428Y-60533619D02*
X159242238Y-60533619D01*
X159242238Y-60533619D02*
X159242238Y-59533619D01*
X159242238Y-59533619D02*
X159718428Y-59533619D01*
X160480333Y-60009809D02*
X160147000Y-60009809D01*
X160147000Y-60533619D02*
X160147000Y-59533619D01*
X160147000Y-59533619D02*
X160623190Y-59533619D01*
X161147000Y-59533619D02*
X161147000Y-59771714D01*
X160908905Y-59676476D02*
X161147000Y-59771714D01*
X161147000Y-59771714D02*
X161385095Y-59676476D01*
X161004143Y-59962190D02*
X161147000Y-59771714D01*
X161147000Y-59771714D02*
X161289857Y-59962190D01*
X161908905Y-59533619D02*
X161908905Y-59771714D01*
X161670810Y-59676476D02*
X161908905Y-59771714D01*
X161908905Y-59771714D02*
X162147000Y-59676476D01*
X161766048Y-59962190D02*
X161908905Y-59771714D01*
X161908905Y-59771714D02*
X162051762Y-59962190D01*
X137350666Y-60533619D02*
X137017333Y-60057428D01*
X136779238Y-60533619D02*
X136779238Y-59533619D01*
X136779238Y-59533619D02*
X137160190Y-59533619D01*
X137160190Y-59533619D02*
X137255428Y-59581238D01*
X137255428Y-59581238D02*
X137303047Y-59628857D01*
X137303047Y-59628857D02*
X137350666Y-59724095D01*
X137350666Y-59724095D02*
X137350666Y-59866952D01*
X137350666Y-59866952D02*
X137303047Y-59962190D01*
X137303047Y-59962190D02*
X137255428Y-60009809D01*
X137255428Y-60009809D02*
X137160190Y-60057428D01*
X137160190Y-60057428D02*
X136779238Y-60057428D01*
X137779238Y-60009809D02*
X138112571Y-60009809D01*
X138255428Y-60533619D02*
X137779238Y-60533619D01*
X137779238Y-60533619D02*
X137779238Y-59533619D01*
X137779238Y-59533619D02*
X138255428Y-59533619D01*
X139017333Y-60009809D02*
X138684000Y-60009809D01*
X138684000Y-60533619D02*
X138684000Y-59533619D01*
X138684000Y-59533619D02*
X139160190Y-59533619D01*
X139684000Y-59533619D02*
X139684000Y-59771714D01*
X139445905Y-59676476D02*
X139684000Y-59771714D01*
X139684000Y-59771714D02*
X139922095Y-59676476D01*
X139541143Y-59962190D02*
X139684000Y-59771714D01*
X139684000Y-59771714D02*
X139826857Y-59962190D01*
X140445905Y-59533619D02*
X140445905Y-59771714D01*
X140207810Y-59676476D02*
X140445905Y-59771714D01*
X140445905Y-59771714D02*
X140684000Y-59676476D01*
X140303048Y-59962190D02*
X140445905Y-59771714D01*
X140445905Y-59771714D02*
X140588762Y-59962190D01*
%TO.C,J5*%
X138705419Y-100866533D02*
X139419704Y-100866533D01*
X139419704Y-100866533D02*
X139562561Y-100914152D01*
X139562561Y-100914152D02*
X139657800Y-101009390D01*
X139657800Y-101009390D02*
X139705419Y-101152247D01*
X139705419Y-101152247D02*
X139705419Y-101247485D01*
X138705419Y-99914152D02*
X138705419Y-100390342D01*
X138705419Y-100390342D02*
X139181609Y-100437961D01*
X139181609Y-100437961D02*
X139133990Y-100390342D01*
X139133990Y-100390342D02*
X139086371Y-100295104D01*
X139086371Y-100295104D02*
X139086371Y-100057009D01*
X139086371Y-100057009D02*
X139133990Y-99961771D01*
X139133990Y-99961771D02*
X139181609Y-99914152D01*
X139181609Y-99914152D02*
X139276847Y-99866533D01*
X139276847Y-99866533D02*
X139514942Y-99866533D01*
X139514942Y-99866533D02*
X139610180Y-99914152D01*
X139610180Y-99914152D02*
X139657800Y-99961771D01*
X139657800Y-99961771D02*
X139705419Y-100057009D01*
X139705419Y-100057009D02*
X139705419Y-100295104D01*
X139705419Y-100295104D02*
X139657800Y-100390342D01*
X139657800Y-100390342D02*
X139610180Y-100437961D01*
%TO.C,REF\u002A\u002A*%
X158813666Y-121773019D02*
X158480333Y-121296828D01*
X158242238Y-121773019D02*
X158242238Y-120773019D01*
X158242238Y-120773019D02*
X158623190Y-120773019D01*
X158623190Y-120773019D02*
X158718428Y-120820638D01*
X158718428Y-120820638D02*
X158766047Y-120868257D01*
X158766047Y-120868257D02*
X158813666Y-120963495D01*
X158813666Y-120963495D02*
X158813666Y-121106352D01*
X158813666Y-121106352D02*
X158766047Y-121201590D01*
X158766047Y-121201590D02*
X158718428Y-121249209D01*
X158718428Y-121249209D02*
X158623190Y-121296828D01*
X158623190Y-121296828D02*
X158242238Y-121296828D01*
X159242238Y-121249209D02*
X159575571Y-121249209D01*
X159718428Y-121773019D02*
X159242238Y-121773019D01*
X159242238Y-121773019D02*
X159242238Y-120773019D01*
X159242238Y-120773019D02*
X159718428Y-120773019D01*
X160480333Y-121249209D02*
X160147000Y-121249209D01*
X160147000Y-121773019D02*
X160147000Y-120773019D01*
X160147000Y-120773019D02*
X160623190Y-120773019D01*
X161147000Y-120773019D02*
X161147000Y-121011114D01*
X160908905Y-120915876D02*
X161147000Y-121011114D01*
X161147000Y-121011114D02*
X161385095Y-120915876D01*
X161004143Y-121201590D02*
X161147000Y-121011114D01*
X161147000Y-121011114D02*
X161289857Y-121201590D01*
X161908905Y-120773019D02*
X161908905Y-121011114D01*
X161670810Y-120915876D02*
X161908905Y-121011114D01*
X161908905Y-121011114D02*
X162147000Y-120915876D01*
X161766048Y-121201590D02*
X161908905Y-121011114D01*
X161908905Y-121011114D02*
X162051762Y-121201590D01*
D11*
%TO.C,J1*%
X152833200Y-117241200D02*
X152833200Y-123341200D01*
X152833200Y-117241200D02*
X147293200Y-117241200D01*
X152833200Y-123341200D02*
X147293200Y-123341200D01*
X148092200Y-120926200D02*
X149627200Y-119391200D01*
X147293200Y-116841200D02*
X152433200Y-116841200D01*
X152433200Y-116841200D02*
X152833200Y-117241200D01*
X147958200Y-120791200D02*
X149493200Y-119256200D01*
X150632200Y-120926200D02*
X152168200Y-119391200D01*
X150498200Y-120791200D02*
X152034200Y-119256200D01*
X152833200Y-122341200D02*
X147293200Y-122341200D01*
X147293200Y-123341200D02*
X147293200Y-116841200D01*
X149893200Y-120091200D02*
G75*
G03*
X149893200Y-120091200I-1100000J0D01*
G01*
X152433200Y-120091200D02*
G75*
G03*
X152433200Y-120091200I-1100000J0D01*
G01*
%TO.C,R1*%
X151147900Y-109357000D02*
X153147900Y-109357000D01*
X151147900Y-110607000D02*
X151147900Y-109357000D01*
X153147900Y-109357000D02*
X153147900Y-110607000D01*
X153147900Y-110607000D02*
X151147900Y-110607000D01*
%TO.C,IC1*%
X143463000Y-82450000D02*
X153463000Y-82450000D01*
X143463000Y-83720000D02*
X144733000Y-82450000D01*
X143463000Y-102970000D02*
X143463000Y-82450000D01*
X153463000Y-82450000D02*
X153463000Y-102970000D01*
X153463000Y-102970000D02*
X143463000Y-102970000D01*
%TO.C,J4*%
X158242000Y-82804000D02*
X160147000Y-82804000D01*
X158242000Y-118364000D02*
X158242000Y-82804000D01*
X160147000Y-82804000D02*
X160782000Y-83439000D01*
X160782000Y-83439000D02*
X160782000Y-118364000D01*
X160782000Y-118364000D02*
X158242000Y-118364000D01*
%TO.C,R3*%
X151518500Y-114925000D02*
X149518500Y-114925000D01*
X151518500Y-113675000D02*
X151518500Y-114925000D01*
X149518500Y-114925000D02*
X149518500Y-113675000D01*
X149518500Y-113675000D02*
X151518500Y-113675000D01*
%TO.C,J3*%
X144555200Y-65865200D02*
X136955200Y-65865200D01*
X136955200Y-65865200D02*
X136955200Y-75765200D01*
X144555200Y-66565200D02*
X144555200Y-65865200D01*
X142955200Y-66565200D02*
X144555200Y-66565200D01*
X141830200Y-67315200D02*
X141830200Y-68315200D01*
X142330200Y-67815200D02*
X141830200Y-67315200D01*
X141830200Y-68315200D02*
X142330200Y-67815200D01*
X144555200Y-75065200D02*
X142955200Y-75065200D01*
X142955200Y-75065200D02*
X142955200Y-66565200D01*
X144555200Y-75765200D02*
X144555200Y-75065200D01*
X136955200Y-75765200D02*
X144555200Y-75765200D01*
%TO.C,J2*%
X154340400Y-75768000D02*
X161940400Y-75768000D01*
X161940400Y-75768000D02*
X161940400Y-65868000D01*
X154340400Y-75068000D02*
X154340400Y-75768000D01*
X155940400Y-75068000D02*
X154340400Y-75068000D01*
X157065400Y-74318000D02*
X157065400Y-73318000D01*
X156565400Y-73818000D02*
X157065400Y-74318000D01*
X157065400Y-73318000D02*
X156565400Y-73818000D01*
X154340400Y-66568000D02*
X155940400Y-66568000D01*
X155940400Y-66568000D02*
X155940400Y-75068000D01*
X154340400Y-65868000D02*
X154340400Y-66568000D01*
X161940400Y-65868000D02*
X154340400Y-65868000D01*
%TO.C,R2*%
X153144100Y-107305000D02*
X151144100Y-107305000D01*
X153144100Y-106055000D02*
X153144100Y-107305000D01*
X151144100Y-107305000D02*
X151144100Y-106055000D01*
X151144100Y-106055000D02*
X153144100Y-106055000D01*
%TO.C,J5*%
X137972800Y-82753200D02*
X139877800Y-82753200D01*
X137972800Y-118313200D02*
X137972800Y-82753200D01*
X139877800Y-82753200D02*
X140512800Y-83388200D01*
X140512800Y-83388200D02*
X140512800Y-118313200D01*
X140512800Y-118313200D02*
X137972800Y-118313200D01*
%TD*%
M02*
