%TF.GenerationSoftware,KiCad,Pcbnew,7.0.2-0*%
%TF.CreationDate,2023-11-27T08:52:52-05:00*%
%TF.ProjectId,PowerSupply,506f7765-7253-4757-9070-6c792e6b6963,rev?*%
%TF.SameCoordinates,Original*%
%TF.FileFunction,Copper,L2,Bot*%
%TF.FilePolarity,Positive*%
%FSLAX46Y46*%
G04 Gerber Fmt 4.6, Leading zero omitted, Abs format (unit mm)*
G04 Created by KiCad (PCBNEW 7.0.2-0) date 2023-11-27 08:52:52*
%MOMM*%
%LPD*%
G01*
G04 APERTURE LIST*
%TA.AperFunction,ComponentPad*%
%ADD10R,2.400000X2.400000*%
%TD*%
%TA.AperFunction,ComponentPad*%
%ADD11C,2.400000*%
%TD*%
%TA.AperFunction,ComponentPad*%
%ADD12R,2.000000X1.905000*%
%TD*%
%TA.AperFunction,ComponentPad*%
%ADD13O,2.000000X1.905000*%
%TD*%
%TA.AperFunction,ViaPad*%
%ADD14C,0.800000*%
%TD*%
%TA.AperFunction,Conductor*%
%ADD15C,0.250000*%
%TD*%
G04 APERTURE END LIST*
D10*
%TO.P,C2,1*%
%TO.N,Net-(D3-A)*%
X172212000Y-56388000D03*
D11*
%TO.P,C2,2*%
%TO.N,/GND*%
X179712000Y-56388000D03*
%TD*%
D10*
%TO.P,J1,1,Pin_1*%
%TO.N,Net-(D1-A)*%
X150409000Y-56388000D03*
D11*
%TO.P,J1,2,Pin_2*%
%TO.N,/GND*%
X153909000Y-56388000D03*
%TO.P,J1,3,Pin_3*%
X157409000Y-56388000D03*
%TO.P,J1,4,Pin_4*%
%TO.N,Net-(D2-A)*%
X160909000Y-56388000D03*
%TD*%
D12*
%TO.P,U1,1,VI*%
%TO.N,Net-(D1-K)*%
X140335000Y-73533000D03*
D13*
%TO.P,U1,2,GND*%
%TO.N,/GND*%
X140335000Y-76073000D03*
%TO.P,U1,3,VO*%
%TO.N,/+12V*%
X140335000Y-78613000D03*
%TD*%
D10*
%TO.P,C1,1*%
%TO.N,/GND*%
X131565000Y-56388000D03*
D11*
%TO.P,C1,2*%
%TO.N,Net-(D1-K)*%
X139065000Y-56388000D03*
%TD*%
D10*
%TO.P,J2,1,Pin_1*%
%TO.N,/-12V*%
X159273000Y-89027000D03*
D11*
%TO.P,J2,2,Pin_2*%
%TO.N,/GND*%
X155773000Y-89027000D03*
%TO.P,J2,3,Pin_3*%
%TO.N,/+12V*%
X152273000Y-89027000D03*
%TD*%
D12*
%TO.P,U2,1,GND*%
%TO.N,/GND*%
X169037000Y-73533000D03*
D13*
%TO.P,U2,2,VI*%
%TO.N,Net-(D3-A)*%
X169037000Y-76073000D03*
%TO.P,U2,3,VO*%
%TO.N,/-12V*%
X169037000Y-78613000D03*
%TD*%
D14*
%TO.N,/GND*%
X153924000Y-65278000D03*
%TO.N,Net-(D1-A)*%
X153289000Y-76327000D03*
X157988000Y-76327000D03*
%TD*%
D15*
%TO.N,/GND*%
X164973000Y-65278000D02*
X170822000Y-65278000D01*
X153924000Y-65278000D02*
X143129000Y-76073000D01*
X153924000Y-65278000D02*
X164973000Y-65278000D01*
X143002000Y-76256000D02*
X155773000Y-89027000D01*
X155773000Y-84257000D02*
X155773000Y-89027000D01*
X160909000Y-84201000D02*
X155829000Y-84201000D01*
X155829000Y-84201000D02*
X155773000Y-84257000D01*
X165227000Y-79883000D02*
X160909000Y-84201000D01*
X169037000Y-69342000D02*
X169037000Y-73533000D01*
X141905000Y-65278000D02*
X153924000Y-65278000D01*
X170822000Y-65278000D02*
X179712000Y-56388000D01*
X133015000Y-56388000D02*
X141905000Y-65278000D01*
X143002000Y-76073000D02*
X140335000Y-76073000D01*
X169037000Y-73533000D02*
X165227000Y-77343000D01*
X165227000Y-77343000D02*
X165227000Y-79883000D01*
X131565000Y-56388000D02*
X133015000Y-56388000D01*
X143129000Y-76073000D02*
X143002000Y-76073000D01*
X164973000Y-65278000D02*
X169037000Y-69342000D01*
X143002000Y-76073000D02*
X143002000Y-76256000D01*
%TO.N,Net-(D1-A)*%
X157988000Y-76327000D02*
X153289000Y-76327000D01*
%TD*%
M02*
