%TF.GenerationSoftware,KiCad,Pcbnew,7.0.2-0*%
%TF.CreationDate,2023-11-27T08:52:52-05:00*%
%TF.ProjectId,PowerSupply,506f7765-7253-4757-9070-6c792e6b6963,rev?*%
%TF.SameCoordinates,Original*%
%TF.FileFunction,Legend,Top*%
%TF.FilePolarity,Positive*%
%FSLAX46Y46*%
G04 Gerber Fmt 4.6, Leading zero omitted, Abs format (unit mm)*
G04 Created by KiCad (PCBNEW 7.0.2-0) date 2023-11-27 08:52:52*
%MOMM*%
%LPD*%
G01*
G04 APERTURE LIST*
%ADD10C,0.150000*%
%ADD11C,0.200000*%
%ADD12C,0.120000*%
G04 APERTURE END LIST*
D10*
X181035295Y-75544266D02*
X181797200Y-75544266D01*
X181416247Y-75925219D02*
X181416247Y-75163314D01*
X129285904Y-72318419D02*
X128714476Y-72318419D01*
X129000190Y-72318419D02*
X129000190Y-71318419D01*
X129000190Y-71318419D02*
X128904952Y-71461276D01*
X128904952Y-71461276D02*
X128809714Y-71556514D01*
X128809714Y-71556514D02*
X128714476Y-71604133D01*
X129714476Y-72318419D02*
X129714476Y-71318419D01*
X130285904Y-72318419D02*
X129857333Y-71746990D01*
X130285904Y-71318419D02*
X129714476Y-71889847D01*
X154990704Y-93108438D02*
X154895466Y-93060819D01*
X154895466Y-93060819D02*
X154752609Y-93060819D01*
X154752609Y-93060819D02*
X154609752Y-93108438D01*
X154609752Y-93108438D02*
X154514514Y-93203676D01*
X154514514Y-93203676D02*
X154466895Y-93298914D01*
X154466895Y-93298914D02*
X154419276Y-93489390D01*
X154419276Y-93489390D02*
X154419276Y-93632247D01*
X154419276Y-93632247D02*
X154466895Y-93822723D01*
X154466895Y-93822723D02*
X154514514Y-93917961D01*
X154514514Y-93917961D02*
X154609752Y-94013200D01*
X154609752Y-94013200D02*
X154752609Y-94060819D01*
X154752609Y-94060819D02*
X154847847Y-94060819D01*
X154847847Y-94060819D02*
X154990704Y-94013200D01*
X154990704Y-94013200D02*
X155038323Y-93965580D01*
X155038323Y-93965580D02*
X155038323Y-93632247D01*
X155038323Y-93632247D02*
X154847847Y-93632247D01*
X155466895Y-94060819D02*
X155466895Y-93060819D01*
X155466895Y-93060819D02*
X156038323Y-94060819D01*
X156038323Y-94060819D02*
X156038323Y-93060819D01*
X156514514Y-94060819D02*
X156514514Y-93060819D01*
X156514514Y-93060819D02*
X156752609Y-93060819D01*
X156752609Y-93060819D02*
X156895466Y-93108438D01*
X156895466Y-93108438D02*
X156990704Y-93203676D01*
X156990704Y-93203676D02*
X157038323Y-93298914D01*
X157038323Y-93298914D02*
X157085942Y-93489390D01*
X157085942Y-93489390D02*
X157085942Y-93632247D01*
X157085942Y-93632247D02*
X157038323Y-93822723D01*
X157038323Y-93822723D02*
X156990704Y-93917961D01*
X156990704Y-93917961D02*
X156895466Y-94013200D01*
X156895466Y-94013200D02*
X156752609Y-94060819D01*
X156752609Y-94060819D02*
X156514514Y-94060819D01*
X162555333Y-87563295D02*
X162555333Y-88325200D01*
X162174380Y-89325199D02*
X162174380Y-88753771D01*
X162174380Y-89039485D02*
X163174380Y-89039485D01*
X163174380Y-89039485D02*
X163031523Y-88944247D01*
X163031523Y-88944247D02*
X162936285Y-88849009D01*
X162936285Y-88849009D02*
X162888666Y-88753771D01*
X163079142Y-89706152D02*
X163126761Y-89753771D01*
X163126761Y-89753771D02*
X163174380Y-89849009D01*
X163174380Y-89849009D02*
X163174380Y-90087104D01*
X163174380Y-90087104D02*
X163126761Y-90182342D01*
X163126761Y-90182342D02*
X163079142Y-90229961D01*
X163079142Y-90229961D02*
X162983904Y-90277580D01*
X162983904Y-90277580D02*
X162888666Y-90277580D01*
X162888666Y-90277580D02*
X162745809Y-90229961D01*
X162745809Y-90229961D02*
X162174380Y-89658533D01*
X162174380Y-89658533D02*
X162174380Y-90277580D01*
X153793771Y-51150819D02*
X153984247Y-51150819D01*
X153984247Y-51150819D02*
X154079485Y-51198438D01*
X154079485Y-51198438D02*
X154174723Y-51293676D01*
X154174723Y-51293676D02*
X154222342Y-51484152D01*
X154222342Y-51484152D02*
X154222342Y-51817485D01*
X154222342Y-51817485D02*
X154174723Y-52007961D01*
X154174723Y-52007961D02*
X154079485Y-52103200D01*
X154079485Y-52103200D02*
X153984247Y-52150819D01*
X153984247Y-52150819D02*
X153793771Y-52150819D01*
X153793771Y-52150819D02*
X153698533Y-52103200D01*
X153698533Y-52103200D02*
X153603295Y-52007961D01*
X153603295Y-52007961D02*
X153555676Y-51817485D01*
X153555676Y-51817485D02*
X153555676Y-51484152D01*
X153555676Y-51484152D02*
X153603295Y-51293676D01*
X153603295Y-51293676D02*
X153698533Y-51198438D01*
X153698533Y-51198438D02*
X153793771Y-51150819D01*
X171138838Y-53792419D02*
X171472171Y-54792419D01*
X171472171Y-54792419D02*
X171805504Y-53792419D01*
X172138838Y-54792419D02*
X172138838Y-53792419D01*
X172615028Y-54792419D02*
X172615028Y-53792419D01*
X172615028Y-53792419D02*
X173186456Y-54792419D01*
X173186456Y-54792419D02*
X173186456Y-53792419D01*
X149051866Y-90439904D02*
X149051866Y-89678000D01*
X149432819Y-90058952D02*
X148670914Y-90058952D01*
X149432819Y-88678000D02*
X149432819Y-89249428D01*
X149432819Y-88963714D02*
X148432819Y-88963714D01*
X148432819Y-88963714D02*
X148575676Y-89058952D01*
X148575676Y-89058952D02*
X148670914Y-89154190D01*
X148670914Y-89154190D02*
X148718533Y-89249428D01*
X148528057Y-88297047D02*
X148480438Y-88249428D01*
X148480438Y-88249428D02*
X148432819Y-88154190D01*
X148432819Y-88154190D02*
X148432819Y-87916095D01*
X148432819Y-87916095D02*
X148480438Y-87820857D01*
X148480438Y-87820857D02*
X148528057Y-87773238D01*
X148528057Y-87773238D02*
X148623295Y-87725619D01*
X148623295Y-87725619D02*
X148718533Y-87725619D01*
X148718533Y-87725619D02*
X148861390Y-87773238D01*
X148861390Y-87773238D02*
X149432819Y-88344666D01*
X149432819Y-88344666D02*
X149432819Y-87725619D01*
X161235923Y-52150819D02*
X160902590Y-51674628D01*
X160664495Y-52150819D02*
X160664495Y-51150819D01*
X160664495Y-51150819D02*
X161045447Y-51150819D01*
X161045447Y-51150819D02*
X161140685Y-51198438D01*
X161140685Y-51198438D02*
X161188304Y-51246057D01*
X161188304Y-51246057D02*
X161235923Y-51341295D01*
X161235923Y-51341295D02*
X161235923Y-51484152D01*
X161235923Y-51484152D02*
X161188304Y-51579390D01*
X161188304Y-51579390D02*
X161140685Y-51627009D01*
X161140685Y-51627009D02*
X161045447Y-51674628D01*
X161045447Y-51674628D02*
X160664495Y-51674628D01*
X181609904Y-72166019D02*
X181038476Y-72166019D01*
X181324190Y-72166019D02*
X181324190Y-71166019D01*
X181324190Y-71166019D02*
X181228952Y-71308876D01*
X181228952Y-71308876D02*
X181133714Y-71404114D01*
X181133714Y-71404114D02*
X181038476Y-71451733D01*
X182038476Y-72166019D02*
X182038476Y-71166019D01*
X182609904Y-72166019D02*
X182181333Y-71594590D01*
X182609904Y-71166019D02*
X182038476Y-71737447D01*
X150390171Y-51674628D02*
X150390171Y-52150819D01*
X150056838Y-51150819D02*
X150390171Y-51674628D01*
X150390171Y-51674628D02*
X150723504Y-51150819D01*
X157543428Y-51627009D02*
X157686285Y-51674628D01*
X157686285Y-51674628D02*
X157733904Y-51722247D01*
X157733904Y-51722247D02*
X157781523Y-51817485D01*
X157781523Y-51817485D02*
X157781523Y-51960342D01*
X157781523Y-51960342D02*
X157733904Y-52055580D01*
X157733904Y-52055580D02*
X157686285Y-52103200D01*
X157686285Y-52103200D02*
X157591047Y-52150819D01*
X157591047Y-52150819D02*
X157210095Y-52150819D01*
X157210095Y-52150819D02*
X157210095Y-51150819D01*
X157210095Y-51150819D02*
X157543428Y-51150819D01*
X157543428Y-51150819D02*
X157638666Y-51198438D01*
X157638666Y-51198438D02*
X157686285Y-51246057D01*
X157686285Y-51246057D02*
X157733904Y-51341295D01*
X157733904Y-51341295D02*
X157733904Y-51436533D01*
X157733904Y-51436533D02*
X157686285Y-51531771D01*
X157686285Y-51531771D02*
X157638666Y-51579390D01*
X157638666Y-51579390D02*
X157543428Y-51627009D01*
X157543428Y-51627009D02*
X157210095Y-51627009D01*
X137609238Y-76835095D02*
X137561619Y-76930333D01*
X137561619Y-76930333D02*
X137561619Y-77073190D01*
X137561619Y-77073190D02*
X137609238Y-77216047D01*
X137609238Y-77216047D02*
X137704476Y-77311285D01*
X137704476Y-77311285D02*
X137799714Y-77358904D01*
X137799714Y-77358904D02*
X137990190Y-77406523D01*
X137990190Y-77406523D02*
X138133047Y-77406523D01*
X138133047Y-77406523D02*
X138323523Y-77358904D01*
X138323523Y-77358904D02*
X138418761Y-77311285D01*
X138418761Y-77311285D02*
X138514000Y-77216047D01*
X138514000Y-77216047D02*
X138561619Y-77073190D01*
X138561619Y-77073190D02*
X138561619Y-76977952D01*
X138561619Y-76977952D02*
X138514000Y-76835095D01*
X138514000Y-76835095D02*
X138466380Y-76787476D01*
X138466380Y-76787476D02*
X138133047Y-76787476D01*
X138133047Y-76787476D02*
X138133047Y-76977952D01*
X138561619Y-76358904D02*
X137561619Y-76358904D01*
X137561619Y-76358904D02*
X138561619Y-75787476D01*
X138561619Y-75787476D02*
X137561619Y-75787476D01*
X138561619Y-75311285D02*
X137561619Y-75311285D01*
X137561619Y-75311285D02*
X137561619Y-75073190D01*
X137561619Y-75073190D02*
X137609238Y-74930333D01*
X137609238Y-74930333D02*
X137704476Y-74835095D01*
X137704476Y-74835095D02*
X137799714Y-74787476D01*
X137799714Y-74787476D02*
X137990190Y-74739857D01*
X137990190Y-74739857D02*
X138133047Y-74739857D01*
X138133047Y-74739857D02*
X138323523Y-74787476D01*
X138323523Y-74787476D02*
X138418761Y-74835095D01*
X138418761Y-74835095D02*
X138514000Y-74930333D01*
X138514000Y-74930333D02*
X138561619Y-75073190D01*
X138561619Y-75073190D02*
X138561619Y-75311285D01*
X130001866Y-75809504D02*
X130001866Y-75047600D01*
X166311238Y-74422095D02*
X166263619Y-74517333D01*
X166263619Y-74517333D02*
X166263619Y-74660190D01*
X166263619Y-74660190D02*
X166311238Y-74803047D01*
X166311238Y-74803047D02*
X166406476Y-74898285D01*
X166406476Y-74898285D02*
X166501714Y-74945904D01*
X166501714Y-74945904D02*
X166692190Y-74993523D01*
X166692190Y-74993523D02*
X166835047Y-74993523D01*
X166835047Y-74993523D02*
X167025523Y-74945904D01*
X167025523Y-74945904D02*
X167120761Y-74898285D01*
X167120761Y-74898285D02*
X167216000Y-74803047D01*
X167216000Y-74803047D02*
X167263619Y-74660190D01*
X167263619Y-74660190D02*
X167263619Y-74564952D01*
X167263619Y-74564952D02*
X167216000Y-74422095D01*
X167216000Y-74422095D02*
X167168380Y-74374476D01*
X167168380Y-74374476D02*
X166835047Y-74374476D01*
X166835047Y-74374476D02*
X166835047Y-74564952D01*
X167263619Y-73945904D02*
X166263619Y-73945904D01*
X166263619Y-73945904D02*
X167263619Y-73374476D01*
X167263619Y-73374476D02*
X166263619Y-73374476D01*
X167263619Y-72898285D02*
X166263619Y-72898285D01*
X166263619Y-72898285D02*
X166263619Y-72660190D01*
X166263619Y-72660190D02*
X166311238Y-72517333D01*
X166311238Y-72517333D02*
X166406476Y-72422095D01*
X166406476Y-72422095D02*
X166501714Y-72374476D01*
X166501714Y-72374476D02*
X166692190Y-72326857D01*
X166692190Y-72326857D02*
X166835047Y-72326857D01*
X166835047Y-72326857D02*
X167025523Y-72374476D01*
X167025523Y-72374476D02*
X167120761Y-72422095D01*
X167120761Y-72422095D02*
X167216000Y-72517333D01*
X167216000Y-72517333D02*
X167263619Y-72660190D01*
X167263619Y-72660190D02*
X167263619Y-72898285D01*
X139461857Y-69616619D02*
X140128523Y-69616619D01*
X140128523Y-69616619D02*
X139699952Y-70616619D01*
X140652333Y-70045190D02*
X140557095Y-69997571D01*
X140557095Y-69997571D02*
X140509476Y-69949952D01*
X140509476Y-69949952D02*
X140461857Y-69854714D01*
X140461857Y-69854714D02*
X140461857Y-69807095D01*
X140461857Y-69807095D02*
X140509476Y-69711857D01*
X140509476Y-69711857D02*
X140557095Y-69664238D01*
X140557095Y-69664238D02*
X140652333Y-69616619D01*
X140652333Y-69616619D02*
X140842809Y-69616619D01*
X140842809Y-69616619D02*
X140938047Y-69664238D01*
X140938047Y-69664238D02*
X140985666Y-69711857D01*
X140985666Y-69711857D02*
X141033285Y-69807095D01*
X141033285Y-69807095D02*
X141033285Y-69854714D01*
X141033285Y-69854714D02*
X140985666Y-69949952D01*
X140985666Y-69949952D02*
X140938047Y-69997571D01*
X140938047Y-69997571D02*
X140842809Y-70045190D01*
X140842809Y-70045190D02*
X140652333Y-70045190D01*
X140652333Y-70045190D02*
X140557095Y-70092809D01*
X140557095Y-70092809D02*
X140509476Y-70140428D01*
X140509476Y-70140428D02*
X140461857Y-70235666D01*
X140461857Y-70235666D02*
X140461857Y-70426142D01*
X140461857Y-70426142D02*
X140509476Y-70521380D01*
X140509476Y-70521380D02*
X140557095Y-70569000D01*
X140557095Y-70569000D02*
X140652333Y-70616619D01*
X140652333Y-70616619D02*
X140842809Y-70616619D01*
X140842809Y-70616619D02*
X140938047Y-70569000D01*
X140938047Y-70569000D02*
X140985666Y-70521380D01*
X140985666Y-70521380D02*
X141033285Y-70426142D01*
X141033285Y-70426142D02*
X141033285Y-70235666D01*
X141033285Y-70235666D02*
X140985666Y-70140428D01*
X140985666Y-70140428D02*
X140938047Y-70092809D01*
X140938047Y-70092809D02*
X140842809Y-70045190D01*
X141985666Y-70616619D02*
X141414238Y-70616619D01*
X141699952Y-70616619D02*
X141699952Y-69616619D01*
X141699952Y-69616619D02*
X141604714Y-69759476D01*
X141604714Y-69759476D02*
X141509476Y-69854714D01*
X141509476Y-69854714D02*
X141414238Y-69902333D01*
X142366619Y-69711857D02*
X142414238Y-69664238D01*
X142414238Y-69664238D02*
X142509476Y-69616619D01*
X142509476Y-69616619D02*
X142747571Y-69616619D01*
X142747571Y-69616619D02*
X142842809Y-69664238D01*
X142842809Y-69664238D02*
X142890428Y-69711857D01*
X142890428Y-69711857D02*
X142938047Y-69807095D01*
X142938047Y-69807095D02*
X142938047Y-69902333D01*
X142938047Y-69902333D02*
X142890428Y-70045190D01*
X142890428Y-70045190D02*
X142319000Y-70616619D01*
X142319000Y-70616619D02*
X142938047Y-70616619D01*
X139023695Y-82148266D02*
X139785600Y-82148266D01*
X139404647Y-82529219D02*
X139404647Y-81767314D01*
X140785599Y-82529219D02*
X140214171Y-82529219D01*
X140499885Y-82529219D02*
X140499885Y-81529219D01*
X140499885Y-81529219D02*
X140404647Y-81672076D01*
X140404647Y-81672076D02*
X140309409Y-81767314D01*
X140309409Y-81767314D02*
X140214171Y-81814933D01*
X141166552Y-81624457D02*
X141214171Y-81576838D01*
X141214171Y-81576838D02*
X141309409Y-81529219D01*
X141309409Y-81529219D02*
X141547504Y-81529219D01*
X141547504Y-81529219D02*
X141642742Y-81576838D01*
X141642742Y-81576838D02*
X141690361Y-81624457D01*
X141690361Y-81624457D02*
X141737980Y-81719695D01*
X141737980Y-81719695D02*
X141737980Y-81814933D01*
X141737980Y-81814933D02*
X141690361Y-81957790D01*
X141690361Y-81957790D02*
X141118933Y-82529219D01*
X141118933Y-82529219D02*
X141737980Y-82529219D01*
X130860704Y-53738438D02*
X130765466Y-53690819D01*
X130765466Y-53690819D02*
X130622609Y-53690819D01*
X130622609Y-53690819D02*
X130479752Y-53738438D01*
X130479752Y-53738438D02*
X130384514Y-53833676D01*
X130384514Y-53833676D02*
X130336895Y-53928914D01*
X130336895Y-53928914D02*
X130289276Y-54119390D01*
X130289276Y-54119390D02*
X130289276Y-54262247D01*
X130289276Y-54262247D02*
X130336895Y-54452723D01*
X130336895Y-54452723D02*
X130384514Y-54547961D01*
X130384514Y-54547961D02*
X130479752Y-54643200D01*
X130479752Y-54643200D02*
X130622609Y-54690819D01*
X130622609Y-54690819D02*
X130717847Y-54690819D01*
X130717847Y-54690819D02*
X130860704Y-54643200D01*
X130860704Y-54643200D02*
X130908323Y-54595580D01*
X130908323Y-54595580D02*
X130908323Y-54262247D01*
X130908323Y-54262247D02*
X130717847Y-54262247D01*
X131336895Y-54690819D02*
X131336895Y-53690819D01*
X131336895Y-53690819D02*
X131908323Y-54690819D01*
X131908323Y-54690819D02*
X131908323Y-53690819D01*
X132384514Y-54690819D02*
X132384514Y-53690819D01*
X132384514Y-53690819D02*
X132622609Y-53690819D01*
X132622609Y-53690819D02*
X132765466Y-53738438D01*
X132765466Y-53738438D02*
X132860704Y-53833676D01*
X132860704Y-53833676D02*
X132908323Y-53928914D01*
X132908323Y-53928914D02*
X132955942Y-54119390D01*
X132955942Y-54119390D02*
X132955942Y-54262247D01*
X132955942Y-54262247D02*
X132908323Y-54452723D01*
X132908323Y-54452723D02*
X132860704Y-54547961D01*
X132860704Y-54547961D02*
X132765466Y-54643200D01*
X132765466Y-54643200D02*
X132622609Y-54690819D01*
X132622609Y-54690819D02*
X132384514Y-54690819D01*
X177093466Y-75911104D02*
X177093466Y-75149200D01*
X126120495Y-87963390D02*
X126882400Y-87963390D01*
X126501447Y-88344342D02*
X126501447Y-87582438D01*
X126882400Y-88534819D02*
X126120495Y-88534819D01*
X127882399Y-88534819D02*
X127310971Y-88534819D01*
X127596685Y-88534819D02*
X127596685Y-87534819D01*
X127596685Y-87534819D02*
X127501447Y-87677676D01*
X127501447Y-87677676D02*
X127406209Y-87772914D01*
X127406209Y-87772914D02*
X127310971Y-87820533D01*
X128263352Y-87630057D02*
X128310971Y-87582438D01*
X128310971Y-87582438D02*
X128406209Y-87534819D01*
X128406209Y-87534819D02*
X128644304Y-87534819D01*
X128644304Y-87534819D02*
X128739542Y-87582438D01*
X128739542Y-87582438D02*
X128787161Y-87630057D01*
X128787161Y-87630057D02*
X128834780Y-87725295D01*
X128834780Y-87725295D02*
X128834780Y-87820533D01*
X128834780Y-87820533D02*
X128787161Y-87963390D01*
X128787161Y-87963390D02*
X128215733Y-88534819D01*
X128215733Y-88534819D02*
X128834780Y-88534819D01*
X129120495Y-87534819D02*
X129453828Y-88534819D01*
X129453828Y-88534819D02*
X129787161Y-87534819D01*
X130882400Y-88534819D02*
X130882400Y-87534819D01*
X130882400Y-87534819D02*
X131263352Y-87534819D01*
X131263352Y-87534819D02*
X131358590Y-87582438D01*
X131358590Y-87582438D02*
X131406209Y-87630057D01*
X131406209Y-87630057D02*
X131453828Y-87725295D01*
X131453828Y-87725295D02*
X131453828Y-87868152D01*
X131453828Y-87868152D02*
X131406209Y-87963390D01*
X131406209Y-87963390D02*
X131358590Y-88011009D01*
X131358590Y-88011009D02*
X131263352Y-88058628D01*
X131263352Y-88058628D02*
X130882400Y-88058628D01*
X132025257Y-88534819D02*
X131930019Y-88487200D01*
X131930019Y-88487200D02*
X131882400Y-88439580D01*
X131882400Y-88439580D02*
X131834781Y-88344342D01*
X131834781Y-88344342D02*
X131834781Y-88058628D01*
X131834781Y-88058628D02*
X131882400Y-87963390D01*
X131882400Y-87963390D02*
X131930019Y-87915771D01*
X131930019Y-87915771D02*
X132025257Y-87868152D01*
X132025257Y-87868152D02*
X132168114Y-87868152D01*
X132168114Y-87868152D02*
X132263352Y-87915771D01*
X132263352Y-87915771D02*
X132310971Y-87963390D01*
X132310971Y-87963390D02*
X132358590Y-88058628D01*
X132358590Y-88058628D02*
X132358590Y-88344342D01*
X132358590Y-88344342D02*
X132310971Y-88439580D01*
X132310971Y-88439580D02*
X132263352Y-88487200D01*
X132263352Y-88487200D02*
X132168114Y-88534819D01*
X132168114Y-88534819D02*
X132025257Y-88534819D01*
X132691924Y-87868152D02*
X132882400Y-88534819D01*
X132882400Y-88534819D02*
X133072876Y-88058628D01*
X133072876Y-88058628D02*
X133263352Y-88534819D01*
X133263352Y-88534819D02*
X133453828Y-87868152D01*
X134215733Y-88487200D02*
X134120495Y-88534819D01*
X134120495Y-88534819D02*
X133930019Y-88534819D01*
X133930019Y-88534819D02*
X133834781Y-88487200D01*
X133834781Y-88487200D02*
X133787162Y-88391961D01*
X133787162Y-88391961D02*
X133787162Y-88011009D01*
X133787162Y-88011009D02*
X133834781Y-87915771D01*
X133834781Y-87915771D02*
X133930019Y-87868152D01*
X133930019Y-87868152D02*
X134120495Y-87868152D01*
X134120495Y-87868152D02*
X134215733Y-87915771D01*
X134215733Y-87915771D02*
X134263352Y-88011009D01*
X134263352Y-88011009D02*
X134263352Y-88106247D01*
X134263352Y-88106247D02*
X133787162Y-88201485D01*
X134691924Y-88534819D02*
X134691924Y-87868152D01*
X134691924Y-88058628D02*
X134739543Y-87963390D01*
X134739543Y-87963390D02*
X134787162Y-87915771D01*
X134787162Y-87915771D02*
X134882400Y-87868152D01*
X134882400Y-87868152D02*
X134977638Y-87868152D01*
X136025258Y-88487200D02*
X136168115Y-88534819D01*
X136168115Y-88534819D02*
X136406210Y-88534819D01*
X136406210Y-88534819D02*
X136501448Y-88487200D01*
X136501448Y-88487200D02*
X136549067Y-88439580D01*
X136549067Y-88439580D02*
X136596686Y-88344342D01*
X136596686Y-88344342D02*
X136596686Y-88249104D01*
X136596686Y-88249104D02*
X136549067Y-88153866D01*
X136549067Y-88153866D02*
X136501448Y-88106247D01*
X136501448Y-88106247D02*
X136406210Y-88058628D01*
X136406210Y-88058628D02*
X136215734Y-88011009D01*
X136215734Y-88011009D02*
X136120496Y-87963390D01*
X136120496Y-87963390D02*
X136072877Y-87915771D01*
X136072877Y-87915771D02*
X136025258Y-87820533D01*
X136025258Y-87820533D02*
X136025258Y-87725295D01*
X136025258Y-87725295D02*
X136072877Y-87630057D01*
X136072877Y-87630057D02*
X136120496Y-87582438D01*
X136120496Y-87582438D02*
X136215734Y-87534819D01*
X136215734Y-87534819D02*
X136453829Y-87534819D01*
X136453829Y-87534819D02*
X136596686Y-87582438D01*
X137453829Y-87868152D02*
X137453829Y-88534819D01*
X137025258Y-87868152D02*
X137025258Y-88391961D01*
X137025258Y-88391961D02*
X137072877Y-88487200D01*
X137072877Y-88487200D02*
X137168115Y-88534819D01*
X137168115Y-88534819D02*
X137310972Y-88534819D01*
X137310972Y-88534819D02*
X137406210Y-88487200D01*
X137406210Y-88487200D02*
X137453829Y-88439580D01*
X137930020Y-87868152D02*
X137930020Y-88868152D01*
X137930020Y-87915771D02*
X138025258Y-87868152D01*
X138025258Y-87868152D02*
X138215734Y-87868152D01*
X138215734Y-87868152D02*
X138310972Y-87915771D01*
X138310972Y-87915771D02*
X138358591Y-87963390D01*
X138358591Y-87963390D02*
X138406210Y-88058628D01*
X138406210Y-88058628D02*
X138406210Y-88344342D01*
X138406210Y-88344342D02*
X138358591Y-88439580D01*
X138358591Y-88439580D02*
X138310972Y-88487200D01*
X138310972Y-88487200D02*
X138215734Y-88534819D01*
X138215734Y-88534819D02*
X138025258Y-88534819D01*
X138025258Y-88534819D02*
X137930020Y-88487200D01*
X138834782Y-87868152D02*
X138834782Y-88868152D01*
X138834782Y-87915771D02*
X138930020Y-87868152D01*
X138930020Y-87868152D02*
X139120496Y-87868152D01*
X139120496Y-87868152D02*
X139215734Y-87915771D01*
X139215734Y-87915771D02*
X139263353Y-87963390D01*
X139263353Y-87963390D02*
X139310972Y-88058628D01*
X139310972Y-88058628D02*
X139310972Y-88344342D01*
X139310972Y-88344342D02*
X139263353Y-88439580D01*
X139263353Y-88439580D02*
X139215734Y-88487200D01*
X139215734Y-88487200D02*
X139120496Y-88534819D01*
X139120496Y-88534819D02*
X138930020Y-88534819D01*
X138930020Y-88534819D02*
X138834782Y-88487200D01*
X139882401Y-88534819D02*
X139787163Y-88487200D01*
X139787163Y-88487200D02*
X139739544Y-88391961D01*
X139739544Y-88391961D02*
X139739544Y-87534819D01*
X140168116Y-87868152D02*
X140406211Y-88534819D01*
X140644306Y-87868152D02*
X140406211Y-88534819D01*
X140406211Y-88534819D02*
X140310973Y-88772914D01*
X140310973Y-88772914D02*
X140263354Y-88820533D01*
X140263354Y-88820533D02*
X140168116Y-88868152D01*
X141691926Y-87868152D02*
X141930021Y-88534819D01*
X141930021Y-88534819D02*
X142168116Y-87868152D01*
X142501450Y-87630057D02*
X142549069Y-87582438D01*
X142549069Y-87582438D02*
X142644307Y-87534819D01*
X142644307Y-87534819D02*
X142882402Y-87534819D01*
X142882402Y-87534819D02*
X142977640Y-87582438D01*
X142977640Y-87582438D02*
X143025259Y-87630057D01*
X143025259Y-87630057D02*
X143072878Y-87725295D01*
X143072878Y-87725295D02*
X143072878Y-87820533D01*
X143072878Y-87820533D02*
X143025259Y-87963390D01*
X143025259Y-87963390D02*
X142453831Y-88534819D01*
X142453831Y-88534819D02*
X143072878Y-88534819D01*
X143501450Y-88439580D02*
X143549069Y-88487200D01*
X143549069Y-88487200D02*
X143501450Y-88534819D01*
X143501450Y-88534819D02*
X143453831Y-88487200D01*
X143453831Y-88487200D02*
X143501450Y-88439580D01*
X143501450Y-88439580D02*
X143501450Y-88534819D01*
X144168116Y-87534819D02*
X144263354Y-87534819D01*
X144263354Y-87534819D02*
X144358592Y-87582438D01*
X144358592Y-87582438D02*
X144406211Y-87630057D01*
X144406211Y-87630057D02*
X144453830Y-87725295D01*
X144453830Y-87725295D02*
X144501449Y-87915771D01*
X144501449Y-87915771D02*
X144501449Y-88153866D01*
X144501449Y-88153866D02*
X144453830Y-88344342D01*
X144453830Y-88344342D02*
X144406211Y-88439580D01*
X144406211Y-88439580D02*
X144358592Y-88487200D01*
X144358592Y-88487200D02*
X144263354Y-88534819D01*
X144263354Y-88534819D02*
X144168116Y-88534819D01*
X144168116Y-88534819D02*
X144072878Y-88487200D01*
X144072878Y-88487200D02*
X144025259Y-88439580D01*
X144025259Y-88439580D02*
X143977640Y-88344342D01*
X143977640Y-88344342D02*
X143930021Y-88153866D01*
X143930021Y-88153866D02*
X143930021Y-87915771D01*
X143930021Y-87915771D02*
X143977640Y-87725295D01*
X143977640Y-87725295D02*
X144025259Y-87630057D01*
X144025259Y-87630057D02*
X144072878Y-87582438D01*
X144072878Y-87582438D02*
X144168116Y-87534819D01*
X126120495Y-90154819D02*
X126120495Y-89154819D01*
X126120495Y-89154819D02*
X126358590Y-89154819D01*
X126358590Y-89154819D02*
X126501447Y-89202438D01*
X126501447Y-89202438D02*
X126596685Y-89297676D01*
X126596685Y-89297676D02*
X126644304Y-89392914D01*
X126644304Y-89392914D02*
X126691923Y-89583390D01*
X126691923Y-89583390D02*
X126691923Y-89726247D01*
X126691923Y-89726247D02*
X126644304Y-89916723D01*
X126644304Y-89916723D02*
X126596685Y-90011961D01*
X126596685Y-90011961D02*
X126501447Y-90107200D01*
X126501447Y-90107200D02*
X126358590Y-90154819D01*
X126358590Y-90154819D02*
X126120495Y-90154819D01*
X127501447Y-90107200D02*
X127406209Y-90154819D01*
X127406209Y-90154819D02*
X127215733Y-90154819D01*
X127215733Y-90154819D02*
X127120495Y-90107200D01*
X127120495Y-90107200D02*
X127072876Y-90011961D01*
X127072876Y-90011961D02*
X127072876Y-89631009D01*
X127072876Y-89631009D02*
X127120495Y-89535771D01*
X127120495Y-89535771D02*
X127215733Y-89488152D01*
X127215733Y-89488152D02*
X127406209Y-89488152D01*
X127406209Y-89488152D02*
X127501447Y-89535771D01*
X127501447Y-89535771D02*
X127549066Y-89631009D01*
X127549066Y-89631009D02*
X127549066Y-89726247D01*
X127549066Y-89726247D02*
X127072876Y-89821485D01*
X128406209Y-90154819D02*
X128406209Y-89631009D01*
X128406209Y-89631009D02*
X128358590Y-89535771D01*
X128358590Y-89535771D02*
X128263352Y-89488152D01*
X128263352Y-89488152D02*
X128072876Y-89488152D01*
X128072876Y-89488152D02*
X127977638Y-89535771D01*
X128406209Y-90107200D02*
X128310971Y-90154819D01*
X128310971Y-90154819D02*
X128072876Y-90154819D01*
X128072876Y-90154819D02*
X127977638Y-90107200D01*
X127977638Y-90107200D02*
X127930019Y-90011961D01*
X127930019Y-90011961D02*
X127930019Y-89916723D01*
X127930019Y-89916723D02*
X127977638Y-89821485D01*
X127977638Y-89821485D02*
X128072876Y-89773866D01*
X128072876Y-89773866D02*
X128310971Y-89773866D01*
X128310971Y-89773866D02*
X128406209Y-89726247D01*
X128882400Y-89488152D02*
X128882400Y-90154819D01*
X128882400Y-89583390D02*
X128930019Y-89535771D01*
X128930019Y-89535771D02*
X129025257Y-89488152D01*
X129025257Y-89488152D02*
X129168114Y-89488152D01*
X129168114Y-89488152D02*
X129263352Y-89535771D01*
X129263352Y-89535771D02*
X129310971Y-89631009D01*
X129310971Y-89631009D02*
X129310971Y-90154819D01*
X130549067Y-90154819D02*
X130549067Y-89154819D01*
X130549067Y-89154819D02*
X130882400Y-89869104D01*
X130882400Y-89869104D02*
X131215733Y-89154819D01*
X131215733Y-89154819D02*
X131215733Y-90154819D01*
X132072876Y-90107200D02*
X131977638Y-90154819D01*
X131977638Y-90154819D02*
X131787162Y-90154819D01*
X131787162Y-90154819D02*
X131691924Y-90107200D01*
X131691924Y-90107200D02*
X131644305Y-90011961D01*
X131644305Y-90011961D02*
X131644305Y-89631009D01*
X131644305Y-89631009D02*
X131691924Y-89535771D01*
X131691924Y-89535771D02*
X131787162Y-89488152D01*
X131787162Y-89488152D02*
X131977638Y-89488152D01*
X131977638Y-89488152D02*
X132072876Y-89535771D01*
X132072876Y-89535771D02*
X132120495Y-89631009D01*
X132120495Y-89631009D02*
X132120495Y-89726247D01*
X132120495Y-89726247D02*
X131644305Y-89821485D01*
X132453829Y-89488152D02*
X132691924Y-90154819D01*
X132930019Y-89488152D02*
X132691924Y-90154819D01*
X132691924Y-90154819D02*
X132596686Y-90392914D01*
X132596686Y-90392914D02*
X132549067Y-90440533D01*
X132549067Y-90440533D02*
X132453829Y-90488152D01*
X133691924Y-90107200D02*
X133596686Y-90154819D01*
X133596686Y-90154819D02*
X133406210Y-90154819D01*
X133406210Y-90154819D02*
X133310972Y-90107200D01*
X133310972Y-90107200D02*
X133263353Y-90011961D01*
X133263353Y-90011961D02*
X133263353Y-89631009D01*
X133263353Y-89631009D02*
X133310972Y-89535771D01*
X133310972Y-89535771D02*
X133406210Y-89488152D01*
X133406210Y-89488152D02*
X133596686Y-89488152D01*
X133596686Y-89488152D02*
X133691924Y-89535771D01*
X133691924Y-89535771D02*
X133739543Y-89631009D01*
X133739543Y-89631009D02*
X133739543Y-89726247D01*
X133739543Y-89726247D02*
X133263353Y-89821485D01*
X134168115Y-90154819D02*
X134168115Y-89488152D01*
X134168115Y-89678628D02*
X134215734Y-89583390D01*
X134215734Y-89583390D02*
X134263353Y-89535771D01*
X134263353Y-89535771D02*
X134358591Y-89488152D01*
X134358591Y-89488152D02*
X134453829Y-89488152D01*
X136358592Y-90154819D02*
X136310973Y-90154819D01*
X136310973Y-90154819D02*
X136215734Y-90107200D01*
X136215734Y-90107200D02*
X136072877Y-89964342D01*
X136072877Y-89964342D02*
X135834782Y-89678628D01*
X135834782Y-89678628D02*
X135739544Y-89535771D01*
X135739544Y-89535771D02*
X135691925Y-89392914D01*
X135691925Y-89392914D02*
X135691925Y-89297676D01*
X135691925Y-89297676D02*
X135739544Y-89202438D01*
X135739544Y-89202438D02*
X135834782Y-89154819D01*
X135834782Y-89154819D02*
X135882401Y-89154819D01*
X135882401Y-89154819D02*
X135977639Y-89202438D01*
X135977639Y-89202438D02*
X136025258Y-89297676D01*
X136025258Y-89297676D02*
X136025258Y-89345295D01*
X136025258Y-89345295D02*
X135977639Y-89440533D01*
X135977639Y-89440533D02*
X135930020Y-89488152D01*
X135930020Y-89488152D02*
X135644306Y-89678628D01*
X135644306Y-89678628D02*
X135596687Y-89726247D01*
X135596687Y-89726247D02*
X135549068Y-89821485D01*
X135549068Y-89821485D02*
X135549068Y-89964342D01*
X135549068Y-89964342D02*
X135596687Y-90059580D01*
X135596687Y-90059580D02*
X135644306Y-90107200D01*
X135644306Y-90107200D02*
X135739544Y-90154819D01*
X135739544Y-90154819D02*
X135882401Y-90154819D01*
X135882401Y-90154819D02*
X135977639Y-90107200D01*
X135977639Y-90107200D02*
X136025258Y-90059580D01*
X136025258Y-90059580D02*
X136168115Y-89869104D01*
X136168115Y-89869104D02*
X136215734Y-89726247D01*
X136215734Y-89726247D02*
X136215734Y-89631009D01*
X137501449Y-89869104D02*
X137977639Y-89869104D01*
X137406211Y-90154819D02*
X137739544Y-89154819D01*
X137739544Y-89154819D02*
X138072877Y-90154819D01*
X138406211Y-89488152D02*
X138406211Y-90154819D01*
X138406211Y-89583390D02*
X138453830Y-89535771D01*
X138453830Y-89535771D02*
X138549068Y-89488152D01*
X138549068Y-89488152D02*
X138691925Y-89488152D01*
X138691925Y-89488152D02*
X138787163Y-89535771D01*
X138787163Y-89535771D02*
X138834782Y-89631009D01*
X138834782Y-89631009D02*
X138834782Y-90154819D01*
X139739544Y-90154819D02*
X139739544Y-89154819D01*
X139739544Y-90107200D02*
X139644306Y-90154819D01*
X139644306Y-90154819D02*
X139453830Y-90154819D01*
X139453830Y-90154819D02*
X139358592Y-90107200D01*
X139358592Y-90107200D02*
X139310973Y-90059580D01*
X139310973Y-90059580D02*
X139263354Y-89964342D01*
X139263354Y-89964342D02*
X139263354Y-89678628D01*
X139263354Y-89678628D02*
X139310973Y-89583390D01*
X139310973Y-89583390D02*
X139358592Y-89535771D01*
X139358592Y-89535771D02*
X139453830Y-89488152D01*
X139453830Y-89488152D02*
X139644306Y-89488152D01*
X139644306Y-89488152D02*
X139739544Y-89535771D01*
X140215735Y-90154819D02*
X140215735Y-89488152D01*
X140215735Y-89678628D02*
X140263354Y-89583390D01*
X140263354Y-89583390D02*
X140310973Y-89535771D01*
X140310973Y-89535771D02*
X140406211Y-89488152D01*
X140406211Y-89488152D02*
X140501449Y-89488152D01*
X141215735Y-90107200D02*
X141120497Y-90154819D01*
X141120497Y-90154819D02*
X140930021Y-90154819D01*
X140930021Y-90154819D02*
X140834783Y-90107200D01*
X140834783Y-90107200D02*
X140787164Y-90011961D01*
X140787164Y-90011961D02*
X140787164Y-89631009D01*
X140787164Y-89631009D02*
X140834783Y-89535771D01*
X140834783Y-89535771D02*
X140930021Y-89488152D01*
X140930021Y-89488152D02*
X141120497Y-89488152D01*
X141120497Y-89488152D02*
X141215735Y-89535771D01*
X141215735Y-89535771D02*
X141263354Y-89631009D01*
X141263354Y-89631009D02*
X141263354Y-89726247D01*
X141263354Y-89726247D02*
X140787164Y-89821485D01*
X141596688Y-89488152D02*
X141787164Y-90154819D01*
X141787164Y-90154819D02*
X141977640Y-89678628D01*
X141977640Y-89678628D02*
X142168116Y-90154819D01*
X142168116Y-90154819D02*
X142358592Y-89488152D01*
X143977640Y-90154819D02*
X143501450Y-90154819D01*
X143501450Y-90154819D02*
X143501450Y-89154819D01*
X144310974Y-90154819D02*
X144310974Y-89488152D01*
X144310974Y-89154819D02*
X144263355Y-89202438D01*
X144263355Y-89202438D02*
X144310974Y-89250057D01*
X144310974Y-89250057D02*
X144358593Y-89202438D01*
X144358593Y-89202438D02*
X144310974Y-89154819D01*
X144310974Y-89154819D02*
X144310974Y-89250057D01*
X145168116Y-90107200D02*
X145072878Y-90154819D01*
X145072878Y-90154819D02*
X144882402Y-90154819D01*
X144882402Y-90154819D02*
X144787164Y-90107200D01*
X144787164Y-90107200D02*
X144739545Y-90011961D01*
X144739545Y-90011961D02*
X144739545Y-89631009D01*
X144739545Y-89631009D02*
X144787164Y-89535771D01*
X144787164Y-89535771D02*
X144882402Y-89488152D01*
X144882402Y-89488152D02*
X145072878Y-89488152D01*
X145072878Y-89488152D02*
X145168116Y-89535771D01*
X145168116Y-89535771D02*
X145215735Y-89631009D01*
X145215735Y-89631009D02*
X145215735Y-89726247D01*
X145215735Y-89726247D02*
X144739545Y-89821485D01*
X145644307Y-90154819D02*
X145644307Y-89154819D01*
X145644307Y-89535771D02*
X145739545Y-89488152D01*
X145739545Y-89488152D02*
X145930021Y-89488152D01*
X145930021Y-89488152D02*
X146025259Y-89535771D01*
X146025259Y-89535771D02*
X146072878Y-89583390D01*
X146072878Y-89583390D02*
X146120497Y-89678628D01*
X146120497Y-89678628D02*
X146120497Y-89964342D01*
X146120497Y-89964342D02*
X146072878Y-90059580D01*
X146072878Y-90059580D02*
X146025259Y-90107200D01*
X146025259Y-90107200D02*
X145930021Y-90154819D01*
X145930021Y-90154819D02*
X145739545Y-90154819D01*
X145739545Y-90154819D02*
X145644307Y-90107200D01*
X146549069Y-90154819D02*
X146549069Y-89488152D01*
X146549069Y-89154819D02*
X146501450Y-89202438D01*
X146501450Y-89202438D02*
X146549069Y-89250057D01*
X146549069Y-89250057D02*
X146596688Y-89202438D01*
X146596688Y-89202438D02*
X146549069Y-89154819D01*
X146549069Y-89154819D02*
X146549069Y-89250057D01*
X147453830Y-89488152D02*
X147453830Y-90297676D01*
X147453830Y-90297676D02*
X147406211Y-90392914D01*
X147406211Y-90392914D02*
X147358592Y-90440533D01*
X147358592Y-90440533D02*
X147263354Y-90488152D01*
X147263354Y-90488152D02*
X147120497Y-90488152D01*
X147120497Y-90488152D02*
X147025259Y-90440533D01*
X147453830Y-90107200D02*
X147358592Y-90154819D01*
X147358592Y-90154819D02*
X147168116Y-90154819D01*
X147168116Y-90154819D02*
X147072878Y-90107200D01*
X147072878Y-90107200D02*
X147025259Y-90059580D01*
X147025259Y-90059580D02*
X146977640Y-89964342D01*
X146977640Y-89964342D02*
X146977640Y-89678628D01*
X146977640Y-89678628D02*
X147025259Y-89583390D01*
X147025259Y-89583390D02*
X147072878Y-89535771D01*
X147072878Y-89535771D02*
X147168116Y-89488152D01*
X147168116Y-89488152D02*
X147358592Y-89488152D01*
X147358592Y-89488152D02*
X147453830Y-89535771D01*
X126120495Y-91774819D02*
X126120495Y-90774819D01*
X126120495Y-90774819D02*
X126501447Y-90774819D01*
X126501447Y-90774819D02*
X126596685Y-90822438D01*
X126596685Y-90822438D02*
X126644304Y-90870057D01*
X126644304Y-90870057D02*
X126691923Y-90965295D01*
X126691923Y-90965295D02*
X126691923Y-91108152D01*
X126691923Y-91108152D02*
X126644304Y-91203390D01*
X126644304Y-91203390D02*
X126596685Y-91251009D01*
X126596685Y-91251009D02*
X126501447Y-91298628D01*
X126501447Y-91298628D02*
X126120495Y-91298628D01*
X127120495Y-91774819D02*
X127120495Y-90774819D01*
X127120495Y-91251009D02*
X127691923Y-91251009D01*
X127691923Y-91774819D02*
X127691923Y-90774819D01*
X128358590Y-91298628D02*
X128358590Y-91774819D01*
X128025257Y-90774819D02*
X128358590Y-91298628D01*
X128358590Y-91298628D02*
X128691923Y-90774819D01*
X128977638Y-91727200D02*
X129120495Y-91774819D01*
X129120495Y-91774819D02*
X129358590Y-91774819D01*
X129358590Y-91774819D02*
X129453828Y-91727200D01*
X129453828Y-91727200D02*
X129501447Y-91679580D01*
X129501447Y-91679580D02*
X129549066Y-91584342D01*
X129549066Y-91584342D02*
X129549066Y-91489104D01*
X129549066Y-91489104D02*
X129501447Y-91393866D01*
X129501447Y-91393866D02*
X129453828Y-91346247D01*
X129453828Y-91346247D02*
X129358590Y-91298628D01*
X129358590Y-91298628D02*
X129168114Y-91251009D01*
X129168114Y-91251009D02*
X129072876Y-91203390D01*
X129072876Y-91203390D02*
X129025257Y-91155771D01*
X129025257Y-91155771D02*
X128977638Y-91060533D01*
X128977638Y-91060533D02*
X128977638Y-90965295D01*
X128977638Y-90965295D02*
X129025257Y-90870057D01*
X129025257Y-90870057D02*
X129072876Y-90822438D01*
X129072876Y-90822438D02*
X129168114Y-90774819D01*
X129168114Y-90774819D02*
X129406209Y-90774819D01*
X129406209Y-90774819D02*
X129549066Y-90822438D01*
X129882400Y-90774819D02*
X130501447Y-90774819D01*
X130501447Y-90774819D02*
X130168114Y-91155771D01*
X130168114Y-91155771D02*
X130310971Y-91155771D01*
X130310971Y-91155771D02*
X130406209Y-91203390D01*
X130406209Y-91203390D02*
X130453828Y-91251009D01*
X130453828Y-91251009D02*
X130501447Y-91346247D01*
X130501447Y-91346247D02*
X130501447Y-91584342D01*
X130501447Y-91584342D02*
X130453828Y-91679580D01*
X130453828Y-91679580D02*
X130406209Y-91727200D01*
X130406209Y-91727200D02*
X130310971Y-91774819D01*
X130310971Y-91774819D02*
X130025257Y-91774819D01*
X130025257Y-91774819D02*
X129930019Y-91727200D01*
X129930019Y-91727200D02*
X129882400Y-91679580D01*
X131120495Y-90774819D02*
X131215733Y-90774819D01*
X131215733Y-90774819D02*
X131310971Y-90822438D01*
X131310971Y-90822438D02*
X131358590Y-90870057D01*
X131358590Y-90870057D02*
X131406209Y-90965295D01*
X131406209Y-90965295D02*
X131453828Y-91155771D01*
X131453828Y-91155771D02*
X131453828Y-91393866D01*
X131453828Y-91393866D02*
X131406209Y-91584342D01*
X131406209Y-91584342D02*
X131358590Y-91679580D01*
X131358590Y-91679580D02*
X131310971Y-91727200D01*
X131310971Y-91727200D02*
X131215733Y-91774819D01*
X131215733Y-91774819D02*
X131120495Y-91774819D01*
X131120495Y-91774819D02*
X131025257Y-91727200D01*
X131025257Y-91727200D02*
X130977638Y-91679580D01*
X130977638Y-91679580D02*
X130930019Y-91584342D01*
X130930019Y-91584342D02*
X130882400Y-91393866D01*
X130882400Y-91393866D02*
X130882400Y-91155771D01*
X130882400Y-91155771D02*
X130930019Y-90965295D01*
X130930019Y-90965295D02*
X130977638Y-90870057D01*
X130977638Y-90870057D02*
X131025257Y-90822438D01*
X131025257Y-90822438D02*
X131120495Y-90774819D01*
X132406209Y-91774819D02*
X131834781Y-91774819D01*
X132120495Y-91774819D02*
X132120495Y-90774819D01*
X132120495Y-90774819D02*
X132025257Y-90917676D01*
X132025257Y-90917676D02*
X131930019Y-91012914D01*
X131930019Y-91012914D02*
X131834781Y-91060533D01*
X133358590Y-91774819D02*
X132787162Y-91774819D01*
X133072876Y-91774819D02*
X133072876Y-90774819D01*
X133072876Y-90774819D02*
X132977638Y-90917676D01*
X132977638Y-90917676D02*
X132882400Y-91012914D01*
X132882400Y-91012914D02*
X132787162Y-91060533D01*
X134882400Y-91251009D02*
X134549067Y-91251009D01*
X134549067Y-91774819D02*
X134549067Y-90774819D01*
X134549067Y-90774819D02*
X135025257Y-90774819D01*
X135834781Y-91774819D02*
X135834781Y-91251009D01*
X135834781Y-91251009D02*
X135787162Y-91155771D01*
X135787162Y-91155771D02*
X135691924Y-91108152D01*
X135691924Y-91108152D02*
X135501448Y-91108152D01*
X135501448Y-91108152D02*
X135406210Y-91155771D01*
X135834781Y-91727200D02*
X135739543Y-91774819D01*
X135739543Y-91774819D02*
X135501448Y-91774819D01*
X135501448Y-91774819D02*
X135406210Y-91727200D01*
X135406210Y-91727200D02*
X135358591Y-91631961D01*
X135358591Y-91631961D02*
X135358591Y-91536723D01*
X135358591Y-91536723D02*
X135406210Y-91441485D01*
X135406210Y-91441485D02*
X135501448Y-91393866D01*
X135501448Y-91393866D02*
X135739543Y-91393866D01*
X135739543Y-91393866D02*
X135834781Y-91346247D01*
X136453829Y-91774819D02*
X136358591Y-91727200D01*
X136358591Y-91727200D02*
X136310972Y-91631961D01*
X136310972Y-91631961D02*
X136310972Y-90774819D01*
X136977639Y-91774819D02*
X136882401Y-91727200D01*
X136882401Y-91727200D02*
X136834782Y-91631961D01*
X136834782Y-91631961D02*
X136834782Y-90774819D01*
X138072878Y-90870057D02*
X138120497Y-90822438D01*
X138120497Y-90822438D02*
X138215735Y-90774819D01*
X138215735Y-90774819D02*
X138453830Y-90774819D01*
X138453830Y-90774819D02*
X138549068Y-90822438D01*
X138549068Y-90822438D02*
X138596687Y-90870057D01*
X138596687Y-90870057D02*
X138644306Y-90965295D01*
X138644306Y-90965295D02*
X138644306Y-91060533D01*
X138644306Y-91060533D02*
X138596687Y-91203390D01*
X138596687Y-91203390D02*
X138025259Y-91774819D01*
X138025259Y-91774819D02*
X138644306Y-91774819D01*
X139263354Y-90774819D02*
X139358592Y-90774819D01*
X139358592Y-90774819D02*
X139453830Y-90822438D01*
X139453830Y-90822438D02*
X139501449Y-90870057D01*
X139501449Y-90870057D02*
X139549068Y-90965295D01*
X139549068Y-90965295D02*
X139596687Y-91155771D01*
X139596687Y-91155771D02*
X139596687Y-91393866D01*
X139596687Y-91393866D02*
X139549068Y-91584342D01*
X139549068Y-91584342D02*
X139501449Y-91679580D01*
X139501449Y-91679580D02*
X139453830Y-91727200D01*
X139453830Y-91727200D02*
X139358592Y-91774819D01*
X139358592Y-91774819D02*
X139263354Y-91774819D01*
X139263354Y-91774819D02*
X139168116Y-91727200D01*
X139168116Y-91727200D02*
X139120497Y-91679580D01*
X139120497Y-91679580D02*
X139072878Y-91584342D01*
X139072878Y-91584342D02*
X139025259Y-91393866D01*
X139025259Y-91393866D02*
X139025259Y-91155771D01*
X139025259Y-91155771D02*
X139072878Y-90965295D01*
X139072878Y-90965295D02*
X139120497Y-90870057D01*
X139120497Y-90870057D02*
X139168116Y-90822438D01*
X139168116Y-90822438D02*
X139263354Y-90774819D01*
X139977640Y-90870057D02*
X140025259Y-90822438D01*
X140025259Y-90822438D02*
X140120497Y-90774819D01*
X140120497Y-90774819D02*
X140358592Y-90774819D01*
X140358592Y-90774819D02*
X140453830Y-90822438D01*
X140453830Y-90822438D02*
X140501449Y-90870057D01*
X140501449Y-90870057D02*
X140549068Y-90965295D01*
X140549068Y-90965295D02*
X140549068Y-91060533D01*
X140549068Y-91060533D02*
X140501449Y-91203390D01*
X140501449Y-91203390D02*
X139930021Y-91774819D01*
X139930021Y-91774819D02*
X140549068Y-91774819D01*
X140882402Y-90774819D02*
X141501449Y-90774819D01*
X141501449Y-90774819D02*
X141168116Y-91155771D01*
X141168116Y-91155771D02*
X141310973Y-91155771D01*
X141310973Y-91155771D02*
X141406211Y-91203390D01*
X141406211Y-91203390D02*
X141453830Y-91251009D01*
X141453830Y-91251009D02*
X141501449Y-91346247D01*
X141501449Y-91346247D02*
X141501449Y-91584342D01*
X141501449Y-91584342D02*
X141453830Y-91679580D01*
X141453830Y-91679580D02*
X141406211Y-91727200D01*
X141406211Y-91727200D02*
X141310973Y-91774819D01*
X141310973Y-91774819D02*
X141025259Y-91774819D01*
X141025259Y-91774819D02*
X140930021Y-91727200D01*
X140930021Y-91727200D02*
X140882402Y-91679580D01*
X168030495Y-82199066D02*
X168792400Y-82199066D01*
X169792399Y-82580019D02*
X169220971Y-82580019D01*
X169506685Y-82580019D02*
X169506685Y-81580019D01*
X169506685Y-81580019D02*
X169411447Y-81722876D01*
X169411447Y-81722876D02*
X169316209Y-81818114D01*
X169316209Y-81818114D02*
X169220971Y-81865733D01*
X170173352Y-81675257D02*
X170220971Y-81627638D01*
X170220971Y-81627638D02*
X170316209Y-81580019D01*
X170316209Y-81580019D02*
X170554304Y-81580019D01*
X170554304Y-81580019D02*
X170649542Y-81627638D01*
X170649542Y-81627638D02*
X170697161Y-81675257D01*
X170697161Y-81675257D02*
X170744780Y-81770495D01*
X170744780Y-81770495D02*
X170744780Y-81865733D01*
X170744780Y-81865733D02*
X170697161Y-82008590D01*
X170697161Y-82008590D02*
X170125733Y-82580019D01*
X170125733Y-82580019D02*
X170744780Y-82580019D01*
X134146895Y-75544266D02*
X134908800Y-75544266D01*
X134527847Y-75925219D02*
X134527847Y-75163314D01*
X168163857Y-69616619D02*
X168830523Y-69616619D01*
X168830523Y-69616619D02*
X168401952Y-70616619D01*
X169259095Y-70616619D02*
X169449571Y-70616619D01*
X169449571Y-70616619D02*
X169544809Y-70569000D01*
X169544809Y-70569000D02*
X169592428Y-70521380D01*
X169592428Y-70521380D02*
X169687666Y-70378523D01*
X169687666Y-70378523D02*
X169735285Y-70188047D01*
X169735285Y-70188047D02*
X169735285Y-69807095D01*
X169735285Y-69807095D02*
X169687666Y-69711857D01*
X169687666Y-69711857D02*
X169640047Y-69664238D01*
X169640047Y-69664238D02*
X169544809Y-69616619D01*
X169544809Y-69616619D02*
X169354333Y-69616619D01*
X169354333Y-69616619D02*
X169259095Y-69664238D01*
X169259095Y-69664238D02*
X169211476Y-69711857D01*
X169211476Y-69711857D02*
X169163857Y-69807095D01*
X169163857Y-69807095D02*
X169163857Y-70045190D01*
X169163857Y-70045190D02*
X169211476Y-70140428D01*
X169211476Y-70140428D02*
X169259095Y-70188047D01*
X169259095Y-70188047D02*
X169354333Y-70235666D01*
X169354333Y-70235666D02*
X169544809Y-70235666D01*
X169544809Y-70235666D02*
X169640047Y-70188047D01*
X169640047Y-70188047D02*
X169687666Y-70140428D01*
X169687666Y-70140428D02*
X169735285Y-70045190D01*
X170687666Y-70616619D02*
X170116238Y-70616619D01*
X170401952Y-70616619D02*
X170401952Y-69616619D01*
X170401952Y-69616619D02*
X170306714Y-69759476D01*
X170306714Y-69759476D02*
X170211476Y-69854714D01*
X170211476Y-69854714D02*
X170116238Y-69902333D01*
X171068619Y-69711857D02*
X171116238Y-69664238D01*
X171116238Y-69664238D02*
X171211476Y-69616619D01*
X171211476Y-69616619D02*
X171449571Y-69616619D01*
X171449571Y-69616619D02*
X171544809Y-69664238D01*
X171544809Y-69664238D02*
X171592428Y-69711857D01*
X171592428Y-69711857D02*
X171640047Y-69807095D01*
X171640047Y-69807095D02*
X171640047Y-69902333D01*
X171640047Y-69902333D02*
X171592428Y-70045190D01*
X171592428Y-70045190D02*
X171021000Y-70616619D01*
X171021000Y-70616619D02*
X171640047Y-70616619D01*
D11*
%TO.C,D3*%
X157509000Y-74813000D02*
X162649000Y-74813000D01*
X162649000Y-72253000D02*
X157229000Y-72253000D01*
%TO.C,D2*%
X148619000Y-80020000D02*
X153759000Y-80020000D01*
X153759000Y-77460000D02*
X148339000Y-77460000D01*
D12*
%TO.C,C2*%
X166202560Y-51273000D02*
X168002560Y-51273000D01*
X167102560Y-50373000D02*
X167102560Y-52173000D01*
X175962000Y-47307000D02*
X175962000Y-65469000D01*
X176002000Y-47308000D02*
X176002000Y-65468000D01*
X176042000Y-47308000D02*
X176042000Y-65468000D01*
X176082000Y-47308000D02*
X176082000Y-65468000D01*
X176122000Y-47309000D02*
X176122000Y-65467000D01*
X176162000Y-47310000D02*
X176162000Y-65466000D01*
X176202000Y-47311000D02*
X176202000Y-65465000D01*
X176242000Y-47312000D02*
X176242000Y-65464000D01*
X176282000Y-47313000D02*
X176282000Y-65463000D01*
X176322000Y-47315000D02*
X176322000Y-65461000D01*
X176362000Y-47316000D02*
X176362000Y-65460000D01*
X176402000Y-47318000D02*
X176402000Y-65458000D01*
X176442000Y-47320000D02*
X176442000Y-65456000D01*
X176482000Y-47322000D02*
X176482000Y-65454000D01*
X176522000Y-47325000D02*
X176522000Y-65451000D01*
X176562000Y-47327000D02*
X176562000Y-65449000D01*
X176602000Y-47330000D02*
X176602000Y-65446000D01*
X176642000Y-47333000D02*
X176642000Y-65443000D01*
X176683000Y-47336000D02*
X176683000Y-65440000D01*
X176723000Y-47339000D02*
X176723000Y-65437000D01*
X176763000Y-47343000D02*
X176763000Y-65433000D01*
X176803000Y-47346000D02*
X176803000Y-65430000D01*
X176843000Y-47350000D02*
X176843000Y-65426000D01*
X176883000Y-47354000D02*
X176883000Y-65422000D01*
X176923000Y-47358000D02*
X176923000Y-65418000D01*
X176963000Y-47362000D02*
X176963000Y-65414000D01*
X177003000Y-47367000D02*
X177003000Y-65409000D01*
X177043000Y-47372000D02*
X177043000Y-65404000D01*
X177083000Y-47377000D02*
X177083000Y-65399000D01*
X177123000Y-47382000D02*
X177123000Y-65394000D01*
X177163000Y-47387000D02*
X177163000Y-65389000D01*
X177203000Y-47392000D02*
X177203000Y-65384000D01*
X177243000Y-47398000D02*
X177243000Y-65378000D01*
X177283000Y-47404000D02*
X177283000Y-65372000D01*
X177323000Y-47409000D02*
X177323000Y-65367000D01*
X177363000Y-47416000D02*
X177363000Y-65360000D01*
X177403000Y-47422000D02*
X177403000Y-65354000D01*
X177443000Y-47428000D02*
X177443000Y-65348000D01*
X177483000Y-47435000D02*
X177483000Y-65341000D01*
X177523000Y-47442000D02*
X177523000Y-65334000D01*
X177563000Y-47449000D02*
X177563000Y-65327000D01*
X177603000Y-47456000D02*
X177603000Y-65320000D01*
X177643000Y-47464000D02*
X177643000Y-65312000D01*
X177683000Y-47471000D02*
X177683000Y-65305000D01*
X177723000Y-47479000D02*
X177723000Y-65297000D01*
X177763000Y-47487000D02*
X177763000Y-65289000D01*
X177803000Y-47495000D02*
X177803000Y-65281000D01*
X177843000Y-47503000D02*
X177843000Y-65273000D01*
X177883000Y-47512000D02*
X177883000Y-65264000D01*
X177923000Y-47521000D02*
X177923000Y-65255000D01*
X177963000Y-47530000D02*
X177963000Y-65246000D01*
X178003000Y-47539000D02*
X178003000Y-65237000D01*
X178043000Y-47548000D02*
X178043000Y-65228000D01*
X178083000Y-47557000D02*
X178083000Y-65219000D01*
X178123000Y-47567000D02*
X178123000Y-65209000D01*
X178163000Y-47577000D02*
X178163000Y-65199000D01*
X178203000Y-47587000D02*
X178203000Y-65189000D01*
X178243000Y-47597000D02*
X178243000Y-65179000D01*
X178283000Y-47608000D02*
X178283000Y-54948000D01*
X178283000Y-57828000D02*
X178283000Y-65168000D01*
X178323000Y-47618000D02*
X178323000Y-54948000D01*
X178323000Y-57828000D02*
X178323000Y-65158000D01*
X178363000Y-47629000D02*
X178363000Y-54948000D01*
X178363000Y-57828000D02*
X178363000Y-65147000D01*
X178403000Y-47640000D02*
X178403000Y-54948000D01*
X178403000Y-57828000D02*
X178403000Y-65136000D01*
X178443000Y-47651000D02*
X178443000Y-54948000D01*
X178443000Y-57828000D02*
X178443000Y-65125000D01*
X178483000Y-47663000D02*
X178483000Y-54948000D01*
X178483000Y-57828000D02*
X178483000Y-65113000D01*
X178523000Y-47674000D02*
X178523000Y-54948000D01*
X178523000Y-57828000D02*
X178523000Y-65102000D01*
X178563000Y-47686000D02*
X178563000Y-54948000D01*
X178563000Y-57828000D02*
X178563000Y-65090000D01*
X178603000Y-47698000D02*
X178603000Y-54948000D01*
X178603000Y-57828000D02*
X178603000Y-65078000D01*
X178643000Y-47710000D02*
X178643000Y-54948000D01*
X178643000Y-57828000D02*
X178643000Y-65066000D01*
X178683000Y-47723000D02*
X178683000Y-54948000D01*
X178683000Y-57828000D02*
X178683000Y-65053000D01*
X178723000Y-47735000D02*
X178723000Y-54948000D01*
X178723000Y-57828000D02*
X178723000Y-65041000D01*
X178763000Y-47748000D02*
X178763000Y-54948000D01*
X178763000Y-57828000D02*
X178763000Y-65028000D01*
X178803000Y-47761000D02*
X178803000Y-54948000D01*
X178803000Y-57828000D02*
X178803000Y-65015000D01*
X178843000Y-47774000D02*
X178843000Y-54948000D01*
X178843000Y-57828000D02*
X178843000Y-65002000D01*
X178883000Y-47788000D02*
X178883000Y-54948000D01*
X178883000Y-57828000D02*
X178883000Y-64988000D01*
X178923000Y-47801000D02*
X178923000Y-54948000D01*
X178923000Y-57828000D02*
X178923000Y-64975000D01*
X178963000Y-47815000D02*
X178963000Y-54948000D01*
X178963000Y-57828000D02*
X178963000Y-64961000D01*
X179003000Y-47829000D02*
X179003000Y-54948000D01*
X179003000Y-57828000D02*
X179003000Y-64947000D01*
X179043000Y-47843000D02*
X179043000Y-54948000D01*
X179043000Y-57828000D02*
X179043000Y-64933000D01*
X179083000Y-47858000D02*
X179083000Y-54948000D01*
X179083000Y-57828000D02*
X179083000Y-64918000D01*
X179123000Y-47872000D02*
X179123000Y-54948000D01*
X179123000Y-57828000D02*
X179123000Y-64904000D01*
X179163000Y-47887000D02*
X179163000Y-54948000D01*
X179163000Y-57828000D02*
X179163000Y-64889000D01*
X179203000Y-47902000D02*
X179203000Y-54948000D01*
X179203000Y-57828000D02*
X179203000Y-64874000D01*
X179243000Y-47918000D02*
X179243000Y-54948000D01*
X179243000Y-57828000D02*
X179243000Y-64858000D01*
X179283000Y-47933000D02*
X179283000Y-54948000D01*
X179283000Y-57828000D02*
X179283000Y-64843000D01*
X179323000Y-47949000D02*
X179323000Y-54948000D01*
X179323000Y-57828000D02*
X179323000Y-64827000D01*
X179363000Y-47965000D02*
X179363000Y-54948000D01*
X179363000Y-57828000D02*
X179363000Y-64811000D01*
X179403000Y-47981000D02*
X179403000Y-54948000D01*
X179403000Y-57828000D02*
X179403000Y-64795000D01*
X179443000Y-47998000D02*
X179443000Y-54948000D01*
X179443000Y-57828000D02*
X179443000Y-64778000D01*
X179483000Y-48014000D02*
X179483000Y-54948000D01*
X179483000Y-57828000D02*
X179483000Y-64762000D01*
X179523000Y-48031000D02*
X179523000Y-54948000D01*
X179523000Y-57828000D02*
X179523000Y-64745000D01*
X179563000Y-48048000D02*
X179563000Y-54948000D01*
X179563000Y-57828000D02*
X179563000Y-64728000D01*
X179603000Y-48065000D02*
X179603000Y-54948000D01*
X179603000Y-57828000D02*
X179603000Y-64711000D01*
X179643000Y-48083000D02*
X179643000Y-54948000D01*
X179643000Y-57828000D02*
X179643000Y-64693000D01*
X179683000Y-48101000D02*
X179683000Y-54948000D01*
X179683000Y-57828000D02*
X179683000Y-64675000D01*
X179723000Y-48119000D02*
X179723000Y-54948000D01*
X179723000Y-57828000D02*
X179723000Y-64657000D01*
X179763000Y-48137000D02*
X179763000Y-54948000D01*
X179763000Y-57828000D02*
X179763000Y-64639000D01*
X179803000Y-48155000D02*
X179803000Y-54948000D01*
X179803000Y-57828000D02*
X179803000Y-64621000D01*
X179843000Y-48174000D02*
X179843000Y-54948000D01*
X179843000Y-57828000D02*
X179843000Y-64602000D01*
X179883000Y-48193000D02*
X179883000Y-54948000D01*
X179883000Y-57828000D02*
X179883000Y-64583000D01*
X179923000Y-48212000D02*
X179923000Y-54948000D01*
X179923000Y-57828000D02*
X179923000Y-64564000D01*
X179963000Y-48232000D02*
X179963000Y-54948000D01*
X179963000Y-57828000D02*
X179963000Y-64544000D01*
X180003000Y-48251000D02*
X180003000Y-54948000D01*
X180003000Y-57828000D02*
X180003000Y-64525000D01*
X180043000Y-48271000D02*
X180043000Y-54948000D01*
X180043000Y-57828000D02*
X180043000Y-64505000D01*
X180083000Y-48291000D02*
X180083000Y-54948000D01*
X180083000Y-57828000D02*
X180083000Y-64485000D01*
X180123000Y-48312000D02*
X180123000Y-54948000D01*
X180123000Y-57828000D02*
X180123000Y-64464000D01*
X180163000Y-48332000D02*
X180163000Y-54948000D01*
X180163000Y-57828000D02*
X180163000Y-64444000D01*
X180203000Y-48353000D02*
X180203000Y-54948000D01*
X180203000Y-57828000D02*
X180203000Y-64423000D01*
X180243000Y-48374000D02*
X180243000Y-54948000D01*
X180243000Y-57828000D02*
X180243000Y-64402000D01*
X180283000Y-48396000D02*
X180283000Y-54948000D01*
X180283000Y-57828000D02*
X180283000Y-64380000D01*
X180323000Y-48417000D02*
X180323000Y-54948000D01*
X180323000Y-57828000D02*
X180323000Y-64359000D01*
X180363000Y-48439000D02*
X180363000Y-54948000D01*
X180363000Y-57828000D02*
X180363000Y-64337000D01*
X180403000Y-48461000D02*
X180403000Y-54948000D01*
X180403000Y-57828000D02*
X180403000Y-64315000D01*
X180443000Y-48484000D02*
X180443000Y-54948000D01*
X180443000Y-57828000D02*
X180443000Y-64292000D01*
X180483000Y-48506000D02*
X180483000Y-54948000D01*
X180483000Y-57828000D02*
X180483000Y-64270000D01*
X180523000Y-48529000D02*
X180523000Y-54948000D01*
X180523000Y-57828000D02*
X180523000Y-64247000D01*
X180563000Y-48553000D02*
X180563000Y-54948000D01*
X180563000Y-57828000D02*
X180563000Y-64223000D01*
X180603000Y-48576000D02*
X180603000Y-54948000D01*
X180603000Y-57828000D02*
X180603000Y-64200000D01*
X180643000Y-48600000D02*
X180643000Y-54948000D01*
X180643000Y-57828000D02*
X180643000Y-64176000D01*
X180683000Y-48624000D02*
X180683000Y-54948000D01*
X180683000Y-57828000D02*
X180683000Y-64152000D01*
X180723000Y-48648000D02*
X180723000Y-54948000D01*
X180723000Y-57828000D02*
X180723000Y-64128000D01*
X180763000Y-48673000D02*
X180763000Y-54948000D01*
X180763000Y-57828000D02*
X180763000Y-64103000D01*
X180803000Y-48698000D02*
X180803000Y-54948000D01*
X180803000Y-57828000D02*
X180803000Y-64078000D01*
X180843000Y-48723000D02*
X180843000Y-54948000D01*
X180843000Y-57828000D02*
X180843000Y-64053000D01*
X180883000Y-48748000D02*
X180883000Y-54948000D01*
X180883000Y-57828000D02*
X180883000Y-64028000D01*
X180923000Y-48774000D02*
X180923000Y-54948000D01*
X180923000Y-57828000D02*
X180923000Y-64002000D01*
X180963000Y-48800000D02*
X180963000Y-54948000D01*
X180963000Y-57828000D02*
X180963000Y-63976000D01*
X181003000Y-48827000D02*
X181003000Y-54948000D01*
X181003000Y-57828000D02*
X181003000Y-63949000D01*
X181043000Y-48853000D02*
X181043000Y-54948000D01*
X181043000Y-57828000D02*
X181043000Y-63923000D01*
X181083000Y-48880000D02*
X181083000Y-54948000D01*
X181083000Y-57828000D02*
X181083000Y-63896000D01*
X181123000Y-48908000D02*
X181123000Y-54948000D01*
X181123000Y-57828000D02*
X181123000Y-63868000D01*
X181163000Y-48935000D02*
X181163000Y-63841000D01*
X181203000Y-48963000D02*
X181203000Y-63813000D01*
X181243000Y-48991000D02*
X181243000Y-63785000D01*
X181283000Y-49020000D02*
X181283000Y-63756000D01*
X181323000Y-49049000D02*
X181323000Y-63727000D01*
X181363000Y-49078000D02*
X181363000Y-63698000D01*
X181403000Y-49108000D02*
X181403000Y-63668000D01*
X181443000Y-49138000D02*
X181443000Y-63638000D01*
X181483000Y-49168000D02*
X181483000Y-63608000D01*
X181523000Y-49198000D02*
X181523000Y-63578000D01*
X181563000Y-49229000D02*
X181563000Y-63547000D01*
X181603000Y-49261000D02*
X181603000Y-63515000D01*
X181643000Y-49292000D02*
X181643000Y-63484000D01*
X181683000Y-49324000D02*
X181683000Y-63452000D01*
X181723000Y-49357000D02*
X181723000Y-63419000D01*
X181763000Y-49389000D02*
X181763000Y-63387000D01*
X181803000Y-49423000D02*
X181803000Y-63353000D01*
X181843000Y-49456000D02*
X181843000Y-63320000D01*
X181883000Y-49490000D02*
X181883000Y-63286000D01*
X181923000Y-49524000D02*
X181923000Y-63252000D01*
X181963000Y-49559000D02*
X181963000Y-63217000D01*
X182003000Y-49594000D02*
X182003000Y-63182000D01*
X182043000Y-49630000D02*
X182043000Y-63146000D01*
X182083000Y-49666000D02*
X182083000Y-63110000D01*
X182123000Y-49702000D02*
X182123000Y-63074000D01*
X182163000Y-49739000D02*
X182163000Y-63037000D01*
X182203000Y-49776000D02*
X182203000Y-63000000D01*
X182243000Y-49814000D02*
X182243000Y-62962000D01*
X182283000Y-49852000D02*
X182283000Y-62924000D01*
X182323000Y-49891000D02*
X182323000Y-62885000D01*
X182363000Y-49930000D02*
X182363000Y-62846000D01*
X182403000Y-49970000D02*
X182403000Y-62806000D01*
X182443000Y-50010000D02*
X182443000Y-62766000D01*
X182483000Y-50051000D02*
X182483000Y-62725000D01*
X182523000Y-50092000D02*
X182523000Y-62684000D01*
X182563000Y-50134000D02*
X182563000Y-62642000D01*
X182603000Y-50176000D02*
X182603000Y-62600000D01*
X182643000Y-50218000D02*
X182643000Y-62558000D01*
X182683000Y-50262000D02*
X182683000Y-62514000D01*
X182723000Y-50306000D02*
X182723000Y-62470000D01*
X182763000Y-50350000D02*
X182763000Y-62426000D01*
X182803000Y-50395000D02*
X182803000Y-62381000D01*
X182843000Y-50441000D02*
X182843000Y-62335000D01*
X182883000Y-50487000D02*
X182883000Y-62289000D01*
X182923000Y-50534000D02*
X182923000Y-62242000D01*
X182963000Y-50582000D02*
X182963000Y-62194000D01*
X183003000Y-50630000D02*
X183003000Y-62146000D01*
X183043000Y-50679000D02*
X183043000Y-62097000D01*
X183083000Y-50728000D02*
X183083000Y-62048000D01*
X183123000Y-50779000D02*
X183123000Y-61997000D01*
X183163000Y-50830000D02*
X183163000Y-61946000D01*
X183203000Y-50882000D02*
X183203000Y-61894000D01*
X183243000Y-50934000D02*
X183243000Y-61842000D01*
X183283000Y-50988000D02*
X183283000Y-61788000D01*
X183323000Y-51042000D02*
X183323000Y-61734000D01*
X183363000Y-51097000D02*
X183363000Y-61679000D01*
X183403000Y-51153000D02*
X183403000Y-61623000D01*
X183443000Y-51210000D02*
X183443000Y-61566000D01*
X183483000Y-51268000D02*
X183483000Y-61508000D01*
X183523000Y-51326000D02*
X183523000Y-61450000D01*
X183563000Y-51386000D02*
X183563000Y-61390000D01*
X183603000Y-51447000D02*
X183603000Y-61329000D01*
X183643000Y-51509000D02*
X183643000Y-61267000D01*
X183683000Y-51572000D02*
X183683000Y-61204000D01*
X183723000Y-51636000D02*
X183723000Y-61140000D01*
X183763000Y-51702000D02*
X183763000Y-61074000D01*
X183803000Y-51768000D02*
X183803000Y-61008000D01*
X183843000Y-51836000D02*
X183843000Y-60940000D01*
X183883000Y-51906000D02*
X183883000Y-60870000D01*
X183923000Y-51976000D02*
X183923000Y-60800000D01*
X183963000Y-52049000D02*
X183963000Y-60727000D01*
X184003000Y-52123000D02*
X184003000Y-60653000D01*
X184043000Y-52198000D02*
X184043000Y-60578000D01*
X184083000Y-52275000D02*
X184083000Y-60501000D01*
X184123000Y-52355000D02*
X184123000Y-60421000D01*
X184162000Y-52436000D02*
X184162000Y-60340000D01*
X184202000Y-52519000D02*
X184202000Y-60257000D01*
X184242000Y-52604000D02*
X184242000Y-60172000D01*
X184282000Y-52692000D02*
X184282000Y-60084000D01*
X184322000Y-52783000D02*
X184322000Y-59993000D01*
X184362000Y-52876000D02*
X184362000Y-59900000D01*
X184402000Y-52972000D02*
X184402000Y-59804000D01*
X184442000Y-53071000D02*
X184442000Y-59705000D01*
X184482000Y-53174000D02*
X184482000Y-59602000D01*
X184522000Y-53281000D02*
X184522000Y-59495000D01*
X184562000Y-53392000D02*
X184562000Y-59384000D01*
X184602000Y-53508000D02*
X184602000Y-59268000D01*
X184642000Y-53629000D02*
X184642000Y-59147000D01*
X184682000Y-53756000D02*
X184682000Y-59020000D01*
X184722000Y-53890000D02*
X184722000Y-58886000D01*
X184762000Y-54033000D02*
X184762000Y-58743000D01*
X184802000Y-54185000D02*
X184802000Y-58591000D01*
X184842000Y-54349000D02*
X184842000Y-58427000D01*
X184882000Y-54528000D02*
X184882000Y-58248000D01*
X184922000Y-54727000D02*
X184922000Y-58049000D01*
X184962000Y-54953000D02*
X184962000Y-57823000D01*
X185002000Y-55222000D02*
X185002000Y-57554000D01*
X185042000Y-55574000D02*
X185042000Y-57202000D01*
X185082000Y-56348000D02*
X185082000Y-56428000D01*
X185082000Y-56388000D02*
G75*
G03*
X185082000Y-56388000I-9120000J0D01*
G01*
%TO.C,J1*%
X148009000Y-58548000D02*
X148009000Y-60288000D01*
X148009000Y-60288000D02*
X149509000Y-60288000D01*
X148249000Y-52928000D02*
X148249000Y-60048000D01*
X148249000Y-52928000D02*
X163069000Y-52928000D01*
X148249000Y-58488000D02*
X163069000Y-58488000D01*
X148249000Y-60048000D02*
X163069000Y-60048000D01*
X163069000Y-52928000D02*
X163069000Y-60048000D01*
X148977000Y-55780000D02*
G75*
G03*
X148976891Y-56995742I1432000J-608000D01*
G01*
X151017000Y-54956000D02*
G75*
G03*
X149801258Y-54955891I-608000J-1432000D01*
G01*
X149801000Y-57819999D02*
G75*
G03*
X150436011Y-57943492I607998J1431987D01*
G01*
X150409000Y-57942999D02*
G75*
G03*
X151016587Y-57819384I0J1554999D01*
G01*
X151841000Y-56996000D02*
G75*
G03*
X151841109Y-55780258I-1432003J607999D01*
G01*
X155464000Y-56388000D02*
G75*
G03*
X155464000Y-56388000I-1555000J0D01*
G01*
X158964000Y-56388000D02*
G75*
G03*
X158964000Y-56388000I-1555000J0D01*
G01*
X162464000Y-56388000D02*
G75*
G03*
X162464000Y-56388000I-1555000J0D01*
G01*
%TO.C,R1*%
X131956436Y-71020000D02*
X132410564Y-71020000D01*
X131956436Y-72490000D02*
X132410564Y-72490000D01*
%TO.C,D6*%
X177385000Y-74605000D02*
X177385000Y-76525000D01*
X177385000Y-76525000D02*
X180070000Y-76525000D01*
X180070000Y-74605000D02*
X177385000Y-74605000D01*
D11*
%TO.C,D1*%
X148619000Y-74813000D02*
X153759000Y-74813000D01*
X153759000Y-72253000D02*
X148339000Y-72253000D01*
D12*
%TO.C,U1*%
X143605000Y-70953000D02*
X138964000Y-70953000D01*
X143605000Y-70953000D02*
X143605000Y-81193000D01*
X142095000Y-70953000D02*
X142095000Y-81193000D01*
X138964000Y-70953000D02*
X138964000Y-81193000D01*
X143605000Y-74223000D02*
X142095000Y-74223000D01*
X143605000Y-77924000D02*
X142095000Y-77924000D01*
X143605000Y-81193000D02*
X138964000Y-81193000D01*
%TO.C,R2*%
X178866436Y-71020000D02*
X179320564Y-71020000D01*
X178866436Y-72490000D02*
X179320564Y-72490000D01*
%TO.C,C1*%
X125555560Y-51273000D02*
X127355560Y-51273000D01*
X126455560Y-50373000D02*
X126455560Y-52173000D01*
X135315000Y-47307000D02*
X135315000Y-65469000D01*
X135355000Y-47308000D02*
X135355000Y-65468000D01*
X135395000Y-47308000D02*
X135395000Y-65468000D01*
X135435000Y-47308000D02*
X135435000Y-65468000D01*
X135475000Y-47309000D02*
X135475000Y-65467000D01*
X135515000Y-47310000D02*
X135515000Y-65466000D01*
X135555000Y-47311000D02*
X135555000Y-65465000D01*
X135595000Y-47312000D02*
X135595000Y-65464000D01*
X135635000Y-47313000D02*
X135635000Y-65463000D01*
X135675000Y-47315000D02*
X135675000Y-65461000D01*
X135715000Y-47316000D02*
X135715000Y-65460000D01*
X135755000Y-47318000D02*
X135755000Y-65458000D01*
X135795000Y-47320000D02*
X135795000Y-65456000D01*
X135835000Y-47322000D02*
X135835000Y-65454000D01*
X135875000Y-47325000D02*
X135875000Y-65451000D01*
X135915000Y-47327000D02*
X135915000Y-65449000D01*
X135955000Y-47330000D02*
X135955000Y-65446000D01*
X135995000Y-47333000D02*
X135995000Y-65443000D01*
X136036000Y-47336000D02*
X136036000Y-65440000D01*
X136076000Y-47339000D02*
X136076000Y-65437000D01*
X136116000Y-47343000D02*
X136116000Y-65433000D01*
X136156000Y-47346000D02*
X136156000Y-65430000D01*
X136196000Y-47350000D02*
X136196000Y-65426000D01*
X136236000Y-47354000D02*
X136236000Y-65422000D01*
X136276000Y-47358000D02*
X136276000Y-65418000D01*
X136316000Y-47362000D02*
X136316000Y-65414000D01*
X136356000Y-47367000D02*
X136356000Y-65409000D01*
X136396000Y-47372000D02*
X136396000Y-65404000D01*
X136436000Y-47377000D02*
X136436000Y-65399000D01*
X136476000Y-47382000D02*
X136476000Y-65394000D01*
X136516000Y-47387000D02*
X136516000Y-65389000D01*
X136556000Y-47392000D02*
X136556000Y-65384000D01*
X136596000Y-47398000D02*
X136596000Y-65378000D01*
X136636000Y-47404000D02*
X136636000Y-65372000D01*
X136676000Y-47409000D02*
X136676000Y-65367000D01*
X136716000Y-47416000D02*
X136716000Y-65360000D01*
X136756000Y-47422000D02*
X136756000Y-65354000D01*
X136796000Y-47428000D02*
X136796000Y-65348000D01*
X136836000Y-47435000D02*
X136836000Y-65341000D01*
X136876000Y-47442000D02*
X136876000Y-65334000D01*
X136916000Y-47449000D02*
X136916000Y-65327000D01*
X136956000Y-47456000D02*
X136956000Y-65320000D01*
X136996000Y-47464000D02*
X136996000Y-65312000D01*
X137036000Y-47471000D02*
X137036000Y-65305000D01*
X137076000Y-47479000D02*
X137076000Y-65297000D01*
X137116000Y-47487000D02*
X137116000Y-65289000D01*
X137156000Y-47495000D02*
X137156000Y-65281000D01*
X137196000Y-47503000D02*
X137196000Y-65273000D01*
X137236000Y-47512000D02*
X137236000Y-65264000D01*
X137276000Y-47521000D02*
X137276000Y-65255000D01*
X137316000Y-47530000D02*
X137316000Y-65246000D01*
X137356000Y-47539000D02*
X137356000Y-65237000D01*
X137396000Y-47548000D02*
X137396000Y-65228000D01*
X137436000Y-47557000D02*
X137436000Y-65219000D01*
X137476000Y-47567000D02*
X137476000Y-65209000D01*
X137516000Y-47577000D02*
X137516000Y-65199000D01*
X137556000Y-47587000D02*
X137556000Y-65189000D01*
X137596000Y-47597000D02*
X137596000Y-65179000D01*
X137636000Y-47608000D02*
X137636000Y-54948000D01*
X137636000Y-57828000D02*
X137636000Y-65168000D01*
X137676000Y-47618000D02*
X137676000Y-54948000D01*
X137676000Y-57828000D02*
X137676000Y-65158000D01*
X137716000Y-47629000D02*
X137716000Y-54948000D01*
X137716000Y-57828000D02*
X137716000Y-65147000D01*
X137756000Y-47640000D02*
X137756000Y-54948000D01*
X137756000Y-57828000D02*
X137756000Y-65136000D01*
X137796000Y-47651000D02*
X137796000Y-54948000D01*
X137796000Y-57828000D02*
X137796000Y-65125000D01*
X137836000Y-47663000D02*
X137836000Y-54948000D01*
X137836000Y-57828000D02*
X137836000Y-65113000D01*
X137876000Y-47674000D02*
X137876000Y-54948000D01*
X137876000Y-57828000D02*
X137876000Y-65102000D01*
X137916000Y-47686000D02*
X137916000Y-54948000D01*
X137916000Y-57828000D02*
X137916000Y-65090000D01*
X137956000Y-47698000D02*
X137956000Y-54948000D01*
X137956000Y-57828000D02*
X137956000Y-65078000D01*
X137996000Y-47710000D02*
X137996000Y-54948000D01*
X137996000Y-57828000D02*
X137996000Y-65066000D01*
X138036000Y-47723000D02*
X138036000Y-54948000D01*
X138036000Y-57828000D02*
X138036000Y-65053000D01*
X138076000Y-47735000D02*
X138076000Y-54948000D01*
X138076000Y-57828000D02*
X138076000Y-65041000D01*
X138116000Y-47748000D02*
X138116000Y-54948000D01*
X138116000Y-57828000D02*
X138116000Y-65028000D01*
X138156000Y-47761000D02*
X138156000Y-54948000D01*
X138156000Y-57828000D02*
X138156000Y-65015000D01*
X138196000Y-47774000D02*
X138196000Y-54948000D01*
X138196000Y-57828000D02*
X138196000Y-65002000D01*
X138236000Y-47788000D02*
X138236000Y-54948000D01*
X138236000Y-57828000D02*
X138236000Y-64988000D01*
X138276000Y-47801000D02*
X138276000Y-54948000D01*
X138276000Y-57828000D02*
X138276000Y-64975000D01*
X138316000Y-47815000D02*
X138316000Y-54948000D01*
X138316000Y-57828000D02*
X138316000Y-64961000D01*
X138356000Y-47829000D02*
X138356000Y-54948000D01*
X138356000Y-57828000D02*
X138356000Y-64947000D01*
X138396000Y-47843000D02*
X138396000Y-54948000D01*
X138396000Y-57828000D02*
X138396000Y-64933000D01*
X138436000Y-47858000D02*
X138436000Y-54948000D01*
X138436000Y-57828000D02*
X138436000Y-64918000D01*
X138476000Y-47872000D02*
X138476000Y-54948000D01*
X138476000Y-57828000D02*
X138476000Y-64904000D01*
X138516000Y-47887000D02*
X138516000Y-54948000D01*
X138516000Y-57828000D02*
X138516000Y-64889000D01*
X138556000Y-47902000D02*
X138556000Y-54948000D01*
X138556000Y-57828000D02*
X138556000Y-64874000D01*
X138596000Y-47918000D02*
X138596000Y-54948000D01*
X138596000Y-57828000D02*
X138596000Y-64858000D01*
X138636000Y-47933000D02*
X138636000Y-54948000D01*
X138636000Y-57828000D02*
X138636000Y-64843000D01*
X138676000Y-47949000D02*
X138676000Y-54948000D01*
X138676000Y-57828000D02*
X138676000Y-64827000D01*
X138716000Y-47965000D02*
X138716000Y-54948000D01*
X138716000Y-57828000D02*
X138716000Y-64811000D01*
X138756000Y-47981000D02*
X138756000Y-54948000D01*
X138756000Y-57828000D02*
X138756000Y-64795000D01*
X138796000Y-47998000D02*
X138796000Y-54948000D01*
X138796000Y-57828000D02*
X138796000Y-64778000D01*
X138836000Y-48014000D02*
X138836000Y-54948000D01*
X138836000Y-57828000D02*
X138836000Y-64762000D01*
X138876000Y-48031000D02*
X138876000Y-54948000D01*
X138876000Y-57828000D02*
X138876000Y-64745000D01*
X138916000Y-48048000D02*
X138916000Y-54948000D01*
X138916000Y-57828000D02*
X138916000Y-64728000D01*
X138956000Y-48065000D02*
X138956000Y-54948000D01*
X138956000Y-57828000D02*
X138956000Y-64711000D01*
X138996000Y-48083000D02*
X138996000Y-54948000D01*
X138996000Y-57828000D02*
X138996000Y-64693000D01*
X139036000Y-48101000D02*
X139036000Y-54948000D01*
X139036000Y-57828000D02*
X139036000Y-64675000D01*
X139076000Y-48119000D02*
X139076000Y-54948000D01*
X139076000Y-57828000D02*
X139076000Y-64657000D01*
X139116000Y-48137000D02*
X139116000Y-54948000D01*
X139116000Y-57828000D02*
X139116000Y-64639000D01*
X139156000Y-48155000D02*
X139156000Y-54948000D01*
X139156000Y-57828000D02*
X139156000Y-64621000D01*
X139196000Y-48174000D02*
X139196000Y-54948000D01*
X139196000Y-57828000D02*
X139196000Y-64602000D01*
X139236000Y-48193000D02*
X139236000Y-54948000D01*
X139236000Y-57828000D02*
X139236000Y-64583000D01*
X139276000Y-48212000D02*
X139276000Y-54948000D01*
X139276000Y-57828000D02*
X139276000Y-64564000D01*
X139316000Y-48232000D02*
X139316000Y-54948000D01*
X139316000Y-57828000D02*
X139316000Y-64544000D01*
X139356000Y-48251000D02*
X139356000Y-54948000D01*
X139356000Y-57828000D02*
X139356000Y-64525000D01*
X139396000Y-48271000D02*
X139396000Y-54948000D01*
X139396000Y-57828000D02*
X139396000Y-64505000D01*
X139436000Y-48291000D02*
X139436000Y-54948000D01*
X139436000Y-57828000D02*
X139436000Y-64485000D01*
X139476000Y-48312000D02*
X139476000Y-54948000D01*
X139476000Y-57828000D02*
X139476000Y-64464000D01*
X139516000Y-48332000D02*
X139516000Y-54948000D01*
X139516000Y-57828000D02*
X139516000Y-64444000D01*
X139556000Y-48353000D02*
X139556000Y-54948000D01*
X139556000Y-57828000D02*
X139556000Y-64423000D01*
X139596000Y-48374000D02*
X139596000Y-54948000D01*
X139596000Y-57828000D02*
X139596000Y-64402000D01*
X139636000Y-48396000D02*
X139636000Y-54948000D01*
X139636000Y-57828000D02*
X139636000Y-64380000D01*
X139676000Y-48417000D02*
X139676000Y-54948000D01*
X139676000Y-57828000D02*
X139676000Y-64359000D01*
X139716000Y-48439000D02*
X139716000Y-54948000D01*
X139716000Y-57828000D02*
X139716000Y-64337000D01*
X139756000Y-48461000D02*
X139756000Y-54948000D01*
X139756000Y-57828000D02*
X139756000Y-64315000D01*
X139796000Y-48484000D02*
X139796000Y-54948000D01*
X139796000Y-57828000D02*
X139796000Y-64292000D01*
X139836000Y-48506000D02*
X139836000Y-54948000D01*
X139836000Y-57828000D02*
X139836000Y-64270000D01*
X139876000Y-48529000D02*
X139876000Y-54948000D01*
X139876000Y-57828000D02*
X139876000Y-64247000D01*
X139916000Y-48553000D02*
X139916000Y-54948000D01*
X139916000Y-57828000D02*
X139916000Y-64223000D01*
X139956000Y-48576000D02*
X139956000Y-54948000D01*
X139956000Y-57828000D02*
X139956000Y-64200000D01*
X139996000Y-48600000D02*
X139996000Y-54948000D01*
X139996000Y-57828000D02*
X139996000Y-64176000D01*
X140036000Y-48624000D02*
X140036000Y-54948000D01*
X140036000Y-57828000D02*
X140036000Y-64152000D01*
X140076000Y-48648000D02*
X140076000Y-54948000D01*
X140076000Y-57828000D02*
X140076000Y-64128000D01*
X140116000Y-48673000D02*
X140116000Y-54948000D01*
X140116000Y-57828000D02*
X140116000Y-64103000D01*
X140156000Y-48698000D02*
X140156000Y-54948000D01*
X140156000Y-57828000D02*
X140156000Y-64078000D01*
X140196000Y-48723000D02*
X140196000Y-54948000D01*
X140196000Y-57828000D02*
X140196000Y-64053000D01*
X140236000Y-48748000D02*
X140236000Y-54948000D01*
X140236000Y-57828000D02*
X140236000Y-64028000D01*
X140276000Y-48774000D02*
X140276000Y-54948000D01*
X140276000Y-57828000D02*
X140276000Y-64002000D01*
X140316000Y-48800000D02*
X140316000Y-54948000D01*
X140316000Y-57828000D02*
X140316000Y-63976000D01*
X140356000Y-48827000D02*
X140356000Y-54948000D01*
X140356000Y-57828000D02*
X140356000Y-63949000D01*
X140396000Y-48853000D02*
X140396000Y-54948000D01*
X140396000Y-57828000D02*
X140396000Y-63923000D01*
X140436000Y-48880000D02*
X140436000Y-54948000D01*
X140436000Y-57828000D02*
X140436000Y-63896000D01*
X140476000Y-48908000D02*
X140476000Y-54948000D01*
X140476000Y-57828000D02*
X140476000Y-63868000D01*
X140516000Y-48935000D02*
X140516000Y-63841000D01*
X140556000Y-48963000D02*
X140556000Y-63813000D01*
X140596000Y-48991000D02*
X140596000Y-63785000D01*
X140636000Y-49020000D02*
X140636000Y-63756000D01*
X140676000Y-49049000D02*
X140676000Y-63727000D01*
X140716000Y-49078000D02*
X140716000Y-63698000D01*
X140756000Y-49108000D02*
X140756000Y-63668000D01*
X140796000Y-49138000D02*
X140796000Y-63638000D01*
X140836000Y-49168000D02*
X140836000Y-63608000D01*
X140876000Y-49198000D02*
X140876000Y-63578000D01*
X140916000Y-49229000D02*
X140916000Y-63547000D01*
X140956000Y-49261000D02*
X140956000Y-63515000D01*
X140996000Y-49292000D02*
X140996000Y-63484000D01*
X141036000Y-49324000D02*
X141036000Y-63452000D01*
X141076000Y-49357000D02*
X141076000Y-63419000D01*
X141116000Y-49389000D02*
X141116000Y-63387000D01*
X141156000Y-49423000D02*
X141156000Y-63353000D01*
X141196000Y-49456000D02*
X141196000Y-63320000D01*
X141236000Y-49490000D02*
X141236000Y-63286000D01*
X141276000Y-49524000D02*
X141276000Y-63252000D01*
X141316000Y-49559000D02*
X141316000Y-63217000D01*
X141356000Y-49594000D02*
X141356000Y-63182000D01*
X141396000Y-49630000D02*
X141396000Y-63146000D01*
X141436000Y-49666000D02*
X141436000Y-63110000D01*
X141476000Y-49702000D02*
X141476000Y-63074000D01*
X141516000Y-49739000D02*
X141516000Y-63037000D01*
X141556000Y-49776000D02*
X141556000Y-63000000D01*
X141596000Y-49814000D02*
X141596000Y-62962000D01*
X141636000Y-49852000D02*
X141636000Y-62924000D01*
X141676000Y-49891000D02*
X141676000Y-62885000D01*
X141716000Y-49930000D02*
X141716000Y-62846000D01*
X141756000Y-49970000D02*
X141756000Y-62806000D01*
X141796000Y-50010000D02*
X141796000Y-62766000D01*
X141836000Y-50051000D02*
X141836000Y-62725000D01*
X141876000Y-50092000D02*
X141876000Y-62684000D01*
X141916000Y-50134000D02*
X141916000Y-62642000D01*
X141956000Y-50176000D02*
X141956000Y-62600000D01*
X141996000Y-50218000D02*
X141996000Y-62558000D01*
X142036000Y-50262000D02*
X142036000Y-62514000D01*
X142076000Y-50306000D02*
X142076000Y-62470000D01*
X142116000Y-50350000D02*
X142116000Y-62426000D01*
X142156000Y-50395000D02*
X142156000Y-62381000D01*
X142196000Y-50441000D02*
X142196000Y-62335000D01*
X142236000Y-50487000D02*
X142236000Y-62289000D01*
X142276000Y-50534000D02*
X142276000Y-62242000D01*
X142316000Y-50582000D02*
X142316000Y-62194000D01*
X142356000Y-50630000D02*
X142356000Y-62146000D01*
X142396000Y-50679000D02*
X142396000Y-62097000D01*
X142436000Y-50728000D02*
X142436000Y-62048000D01*
X142476000Y-50779000D02*
X142476000Y-61997000D01*
X142516000Y-50830000D02*
X142516000Y-61946000D01*
X142556000Y-50882000D02*
X142556000Y-61894000D01*
X142596000Y-50934000D02*
X142596000Y-61842000D01*
X142636000Y-50988000D02*
X142636000Y-61788000D01*
X142676000Y-51042000D02*
X142676000Y-61734000D01*
X142716000Y-51097000D02*
X142716000Y-61679000D01*
X142756000Y-51153000D02*
X142756000Y-61623000D01*
X142796000Y-51210000D02*
X142796000Y-61566000D01*
X142836000Y-51268000D02*
X142836000Y-61508000D01*
X142876000Y-51326000D02*
X142876000Y-61450000D01*
X142916000Y-51386000D02*
X142916000Y-61390000D01*
X142956000Y-51447000D02*
X142956000Y-61329000D01*
X142996000Y-51509000D02*
X142996000Y-61267000D01*
X143036000Y-51572000D02*
X143036000Y-61204000D01*
X143076000Y-51636000D02*
X143076000Y-61140000D01*
X143116000Y-51702000D02*
X143116000Y-61074000D01*
X143156000Y-51768000D02*
X143156000Y-61008000D01*
X143196000Y-51836000D02*
X143196000Y-60940000D01*
X143236000Y-51906000D02*
X143236000Y-60870000D01*
X143276000Y-51976000D02*
X143276000Y-60800000D01*
X143316000Y-52049000D02*
X143316000Y-60727000D01*
X143356000Y-52123000D02*
X143356000Y-60653000D01*
X143396000Y-52198000D02*
X143396000Y-60578000D01*
X143436000Y-52275000D02*
X143436000Y-60501000D01*
X143476000Y-52355000D02*
X143476000Y-60421000D01*
X143515000Y-52436000D02*
X143515000Y-60340000D01*
X143555000Y-52519000D02*
X143555000Y-60257000D01*
X143595000Y-52604000D02*
X143595000Y-60172000D01*
X143635000Y-52692000D02*
X143635000Y-60084000D01*
X143675000Y-52783000D02*
X143675000Y-59993000D01*
X143715000Y-52876000D02*
X143715000Y-59900000D01*
X143755000Y-52972000D02*
X143755000Y-59804000D01*
X143795000Y-53071000D02*
X143795000Y-59705000D01*
X143835000Y-53174000D02*
X143835000Y-59602000D01*
X143875000Y-53281000D02*
X143875000Y-59495000D01*
X143915000Y-53392000D02*
X143915000Y-59384000D01*
X143955000Y-53508000D02*
X143955000Y-59268000D01*
X143995000Y-53629000D02*
X143995000Y-59147000D01*
X144035000Y-53756000D02*
X144035000Y-59020000D01*
X144075000Y-53890000D02*
X144075000Y-58886000D01*
X144115000Y-54033000D02*
X144115000Y-58743000D01*
X144155000Y-54185000D02*
X144155000Y-58591000D01*
X144195000Y-54349000D02*
X144195000Y-58427000D01*
X144235000Y-54528000D02*
X144235000Y-58248000D01*
X144275000Y-54727000D02*
X144275000Y-58049000D01*
X144315000Y-54953000D02*
X144315000Y-57823000D01*
X144355000Y-55222000D02*
X144355000Y-57554000D01*
X144395000Y-55574000D02*
X144395000Y-57202000D01*
X144435000Y-56348000D02*
X144435000Y-56428000D01*
X144435000Y-56388000D02*
G75*
G03*
X144435000Y-56388000I-9120000J0D01*
G01*
%TO.C,D5*%
X130473500Y-74605000D02*
X130473500Y-76525000D01*
X130473500Y-76525000D02*
X133158500Y-76525000D01*
X133158500Y-74605000D02*
X130473500Y-74605000D01*
D11*
%TO.C,D4*%
X157509000Y-80147000D02*
X162649000Y-80147000D01*
X162649000Y-77587000D02*
X157229000Y-77587000D01*
D12*
%TO.C,J2*%
X161673000Y-86867000D02*
X161673000Y-85127000D01*
X161673000Y-85127000D02*
X160173000Y-85127000D01*
X161433000Y-92487000D02*
X161433000Y-85367000D01*
X161433000Y-92487000D02*
X150113000Y-92487000D01*
X161433000Y-86927000D02*
X150113000Y-86927000D01*
X161433000Y-85367000D02*
X150113000Y-85367000D01*
X150113000Y-92487000D02*
X150113000Y-85367000D01*
X160705000Y-89635000D02*
G75*
G03*
X160705109Y-88419258I-1432000J608000D01*
G01*
X158665000Y-90459000D02*
G75*
G03*
X159880742Y-90459109I608000J1432000D01*
G01*
X159881000Y-87595001D02*
G75*
G03*
X159245989Y-87471508I-607998J-1431987D01*
G01*
X159273000Y-87472001D02*
G75*
G03*
X158665413Y-87595616I0J-1554999D01*
G01*
X157841000Y-88419000D02*
G75*
G03*
X157840891Y-89634742I1432003J-607999D01*
G01*
X157328000Y-89027000D02*
G75*
G03*
X157328000Y-89027000I-1555000J0D01*
G01*
X153828000Y-89027000D02*
G75*
G03*
X153828000Y-89027000I-1555000J0D01*
G01*
%TO.C,U2*%
X172307000Y-70953000D02*
X167666000Y-70953000D01*
X172307000Y-70953000D02*
X172307000Y-81193000D01*
X170797000Y-70953000D02*
X170797000Y-81193000D01*
X167666000Y-70953000D02*
X167666000Y-81193000D01*
X172307000Y-74223000D02*
X170797000Y-74223000D01*
X172307000Y-77924000D02*
X170797000Y-77924000D01*
X172307000Y-81193000D02*
X167666000Y-81193000D01*
%TD*%
M02*
